<?xml version="1.0" encoding="utf-8"?>
<svg version="1.1" id="Layer_1" xmlns="http://www.w3.org/2000/svg" xmlns:xlink="http://www.w3.org/1999/xlink" x="0px" y="0px"
	 viewBox="0 0 946.945 1659.586" enable-background="new 0 0 946.945 1659.586" xml:space="preserve">
<g>
	<path fill="#FB98AA" stroke="#FB98AA" d="M428.353,32.732c9.063-1.653,18.236-3.109,27.487-2.921
		c17.962,0.163,36.002-0.634,53.887,1.482c6.45,0.557,12.934,0.942,19.307,2.219c10.767,2.193,21.783,3.298,32.267,6.741
		c10.527,3.521,21.449,5.756,31.839,9.722c8.052,2.698,15.787,6.21,23.804,9.011c6.493,2.219,12.746,5.122,18.605,8.694
		c4.874,2.964,10.33,4.797,15.11,7.923c5.979,3.478,11.915,7.058,18.074,10.21c3.837,2.081,7.906,3.915,11.093,6.964
		c6.724,6.287,14.87,10.741,22.048,16.455c8.446,7.564,17.294,14.665,25.372,22.631c6.15,7.247,13.2,13.645,19.761,20.506
		c6.227,7.221,12.446,14.442,18.605,21.723c3.075,3.598,7.075,6.519,9.277,10.801c-0.12,0.411-0.343,1.233-0.454,1.645
		c-2.467-0.797-4.823-1.876-7.11-3.067c-45.57-22.057-95.439-35.179-145.968-38.366c-8.934-0.891-17.919-0.377-26.871-0.848
		c-9.654,0.428-19.341-0.034-28.961,1.062c-57.519,3.94-113.915,21.217-164.273,49.193c-5.927,3.469-11.923,6.827-17.645,10.621
		c-7.281,4.805-14.913,9.148-21.491,14.913c-13.971-6.998-30.263-8.891-45.535-5.765c-15.787,3.186-30.34,12.249-40.045,25.115
		c-8.403,11.041-12.926,24.995-12.326,38.88c0.154,10.776,3.675,21.32,9.225,30.494c-5.696,6.613-10.193,14.108-14.904,21.414
		c-15.47,24.395-28.156,50.529-37.886,77.717c-1.088,3.418-2.416,6.758-3.7,10.116c-0.24-13.482-0.103-26.965-0.094-40.447
		c0.128-4.42-0.728-9.088-3.846-12.412c-5.551-6.938-17.525-6.835-22.922,0.248c-2.947,3.315-3.615,7.889-3.546,12.163
		c0.077,16.849,0.017,33.706,0.034,50.555c0.06,4.823-0.317,9.688,0.36,14.485c0.711,5.114,4.728,9.32,9.439,11.127
		c3.512,1.268,7.307,0.959,10.964,0.985c-2.887,10.039-4.034,20.464-5.927,30.708c-25.397,0.051-50.803,0.009-76.201,0.026
		c-5.525,0.094-11.118-0.565-16.575,0.54c-1.413,0.257-2.81,0.634-4.214,0.942c-9.902,0.317-19.453,3.521-28.395,7.581
		c-7.264,3.709-14.562,7.786-20.318,13.654c-0.48-7.975-3.957-15.367-4.634-23.316c-0.737-8.086-0.831-16.378,1.148-24.301
		c1.585-5.148,3.255-10.287,5.302-15.264c2.732-4.591,5.688-9.071,8.994-13.268c4.326-4.814,8.951-9.354,13.662-13.791
		c5.285-5.114,12.36-7.606,18.365-11.667c2.33-1.67,4.908-3.837,4.968-6.955c0.514-11.058-0.368-22.177,0.831-33.209
		c1.807-15.435,3.983-30.862,7.855-45.938c1.662-6.244,2.278-12.771,4.591-18.845c2.381-6.63,3.906-13.542,6.527-20.095
		c5.225-16.206,12.12-31.83,19.675-47.069c4.711-10.065,10.921-19.307,16.455-28.918c9.277-14.493,19.384-28.455,30.306-41.758
		c6.938-8.711,15.016-16.403,22.811-24.344c6.39-6.45,12.9-12.789,19.29-19.247c3.135-3.152,5.876-6.827,9.782-9.097
		c12.232-7.649,23.402-16.874,35.83-24.232c9.088-5.473,17.979-11.375,27.616-15.864c4.977-2.45,9.499-5.808,14.776-7.623
		c5.619-1.936,10.87-4.788,16.463-6.793c5.542-1.859,10.562-5.045,16.326-6.279c9.688-3.366,19.718-5.696,29.312-9.345
		c7.906-3.692,16.909-2.904,25.209-5.174C414.057,33.794,421.244,33.366,428.353,32.732 M454.462,65.359
		c-35.796,1.687-71.292,9.928-104.116,24.327c-31.008,13.422-59.489,32.378-84.295,55.292
		c-35.531,33.423-63.078,75.498-78.539,121.83c-2.416,6.373,0.043,14.116,5.713,17.902c7.11,4.848,18.108,2.141,21.851-5.696
		c2.981-6.647,4.771-13.774,7.906-20.369c24.232-57.879,69.674-106.498,125.736-134.645c36.978-18.819,78.462-28.764,119.963-28.532
		c6.279-0.146,12.549,0.557,18.819,0.137c6.099-0.454,11.341-5.259,12.754-11.135c2.364-7.983-3.401-17.688-11.889-18.579
		C477.118,64.63,465.743,64.879,454.462,65.359z"/>
	<path fill="#FFCDD6" stroke="#FFCDD6" d="M454.462,65.359c11.281-0.48,22.656-0.728,33.903,0.531
		c8.489,0.891,14.253,10.596,11.889,18.579c-1.413,5.876-6.656,10.681-12.754,11.135c-6.27,0.42-12.54-0.283-18.819-0.137
		c-41.501-0.231-82.985,9.714-119.963,28.532c-56.063,28.147-101.504,76.766-125.736,134.645
		c-3.135,6.596-4.925,13.722-7.906,20.369c-3.743,7.838-14.742,10.544-21.851,5.696c-5.671-3.786-8.129-11.529-5.713-17.902
		c15.461-46.332,43.008-88.407,78.539-121.83c24.806-22.913,53.287-41.869,84.295-55.292
		C383.169,75.286,418.665,67.046,454.462,65.359z"/>
	<path fill="#FB738B" stroke="#FB738B" d="M565.525,145.319c9.619-1.096,19.307-0.634,28.961-1.062
		c8.951,0.471,17.937-0.043,26.871,0.848c50.529,3.186,100.399,16.309,145.968,38.366c2.287,1.191,4.643,2.27,7.11,3.067
		c0.111-0.411,0.334-1.233,0.454-1.645c6.176,11.932,14.219,22.768,20.866,34.426c6.073,9.756,10.639,20.344,15.615,30.674
		c4.788,9.636,8.172,19.864,12.061,29.869c4.266,12.686,8.411,25.44,10.938,38.606c2.63,10.382,3.726,21.046,6.125,31.479
		c1.062,6.347,2.03,12.737,2.356,19.179c0.463,4.506,0.137,9.071,0.857,13.551c0.934,5.97,1.045,12.035,1.516,18.048
		c-0.017,1.893,0.985,3.495,2.15,4.908c-1.807,1.396-4.565,2.441-4.711,5.071c-0.762,7.409-1.67,14.947-4.634,21.843
		c-4.154,10.604-10.681,20.344-19.264,27.856c-13.08,12.566-31.436,18.656-49.364,18.879c-11.127-1.054-22.305-0.36-33.466-0.557
		c-7.692-0.3-15.358,0.642-23.033,0.994c-13.071,1.533-25.269,7.624-35.334,15.958c-9.705,9.439-17.508,21.38-19.907,34.888
		c-2.081,8.24-1.276,16.789-1.43,25.192c-0.017,87.653-0.009,175.315-0.009,262.968c-0.069,4.103,0.42,8.266-0.411,12.318
		c-0.163,1.55-1.842,1.944-2.964,2.604c-12.746-5.311-24.138-13.739-32.712-24.592c-7.82-9.654-12.583-21.32-15.898-33.184
		l-0.197-0.737c-0.394-5.748-1.533-11.435-1.465-17.2c0.026-10.202,0.12-20.404-0.069-30.597c0.163-19.016,0.18-38.04,0-57.065
		c0.171-14.236,0.146-28.472,0.017-42.709c0.103-4.754,0.12-9.508,0-14.262c0.12-13.953,0.163-27.916-0.017-41.869
		c0.12-9.225,0.188-18.451,0.069-27.676c-0.017-8.249-5.114-16.249-12.84-19.333c-5.962-2.338-12.96-2.116-18.605,0.968
		c-5.688,2.93-9.748,8.788-10.57,15.119c-0.66,4.763-0.514,9.585-0.463,14.382c0.137,7.144-0.103,14.296-0.026,21.449
		c-0.223,12.574,0.865,25.354-2.27,37.681c-3.169,14.699-10.801,28.053-20.558,39.368c-2.767,2.39-5.405,4.917-8.069,7.409
		c-7.307,6.202-15.769,10.956-24.644,14.536c-19.581,7.495-41.809,7.452-61.425,0.069c-10.69-4.232-20.72-10.382-28.901-18.502
		c-6.724-5.842-11.469-13.38-16.446-20.652c-3.658-8.797-7.572-17.637-8.908-27.153c-2.056-11.084-0.934-22.382-1.353-33.578
		c-0.223-12.917,0.762-25.911-0.694-38.777c-1.816-14.956-10.09-28.986-22.022-38.109c-8.497-6.81-18.982-10.681-29.68-12.266
		c-2.27-0.463-4.574-0.857-6.895-0.865c-42.263,0.069-84.527-0.128-126.798-0.068c1.893-10.245,3.041-20.669,5.927-30.708
		c24.318-0.009,48.636,0.06,72.946-0.017c6.193,0.283,12.352-3.546,14.562-9.379c2.407-5.91,0.814-13.251-4.214-17.294
		c-3.264-2.998-7.829-3.735-12.103-3.666c-20.523,0.103-41.055-0.069-61.579,0.103c-0.009-2.159-0.034-4.309,0-6.45
		c1.285-3.358,2.613-6.698,3.7-10.116c9.731-27.188,22.416-53.322,37.886-77.717c4.711-7.307,9.208-14.802,14.904-21.414
		c6.87,10.544,16.617,19.196,28.078,24.447c16.506,7.82,36.079,8.489,53.236,2.381c22.091-7.812,39.779-28.044,42.555-51.583
		c2.227-16.172-2.724-33.029-12.84-45.767c-5.91-7.709-13.791-13.705-22.348-18.202c6.578-5.765,14.211-10.108,21.491-14.913
		c5.722-3.795,11.718-7.152,17.645-10.621C451.609,166.537,508.006,149.26,565.525,145.319 M607.711,213.383
		c-13.277,1.67-26.117,7.212-36.199,16.044c-11.101,9.439-18.819,22.888-20.995,37.321c-2.099,12.506,0.051,25.629,5.756,36.927
		c10.776,21.457,34.117,35.573,58.007,36.019c18.313,0.685,37.004-6.176,50.067-19.136c10.236-9.748,17.106-23.093,18.613-37.192
		c0.72-8.883,0.36-18.031-2.741-26.468c-5.011-15.007-16.061-27.744-29.869-35.342C637.545,214.231,622.298,211.601,607.711,213.383
		 M426.177,374.512c-5.576,1.259-10.159,4.994-14.014,9.037c-7.683,8.891-12.266,20.755-11.341,32.575
		c0.308,4.548,2.373,8.771,4.925,12.463c7.675,10.125,18.759,17.046,30.34,21.902c18.99,7.743,39.873,11.101,60.311,8.823
		c17.997-2.381,35.856-8.155,50.863-18.545c7.435-5.396,14.63-12.369,16.994-21.534c1.842-9.448-0.685-19.256-5.02-27.684
		c-4.326-7.932-10.99-15.727-20.352-17.337c-7.675-1.585-14.81,2.347-21.885,4.617c-20.746,6.835-43.522,7.478-64.5,1.242
		C443.78,378.033,435.463,372.097,426.177,374.512 M551.263,472.341c-5.439,2.056-10.313,5.354-14.913,8.848
		c-11.272,8.317-19.898,19.907-25.62,32.627c-6.536,14.459-8.934,30.451-8.951,46.221c0.034,12.849-0.034,25.697,0.017,38.537
		c-0.18,4.942,2.578,9.996,7.229,11.923c4.865,2.201,11.024,0.72,14.322-3.495c2.39-2.45,2.732-6.013,2.775-9.26
		c0.051-13.431-0.111-26.862,0.06-40.285c0.137-10.998,1.842-22.091,6.159-32.258c4.351-10.202,11.135-19.607,20.378-25.886
		c3.015-2.261,6.527-3.7,9.654-5.79c4.977-3.401,6.493-10.784,3.255-15.881C562.904,472.676,556.531,470.594,551.263,472.341z"/>
	<path fill="#FFF8FE" stroke="#FFF8FE" d="M316.579,214.282c15.273-3.126,31.565-1.233,45.535,5.765
		c8.557,4.497,16.438,10.493,22.348,18.202c10.116,12.737,15.067,29.595,12.84,45.767c-2.775,23.539-20.464,43.771-42.555,51.583
		c-17.157,6.107-36.73,5.439-53.236-2.381c-11.461-5.251-21.209-13.902-28.078-24.447c-5.551-9.174-9.071-19.718-9.225-30.494
		c-0.6-13.885,3.923-27.839,12.326-38.88C286.239,226.531,300.793,217.469,316.579,214.282 M286.822,259.124
		c-4.685,10.681-4.677,23.282-0.111,33.997c3.666,8.78,10.467,15.958,18.348,21.123c12.275,7.675,27.976,9.294,41.672,4.754
		c10.442-3.443,19.418-10.776,25.406-19.932c6.133-9.688,7.795-21.723,5.456-32.858c-3.906,4.668-8.463,8.994-14.271,11.161
		c-10.279,4.043-22.751,2.493-31.351-4.591c-7.332-5.748-11.641-15.256-10.647-24.584c0.445-6.45,3.675-12.335,7.872-17.123
		C311.268,231.362,294.017,242.686,286.822,259.124z"/>
	<path fill="#FEF8FE" stroke="#FEF8FE" d="M607.711,213.383c14.587-1.782,29.834,0.848,42.64,8.172
		c13.808,7.598,24.858,20.335,29.869,35.342c3.101,8.437,3.461,17.585,2.741,26.468c-1.508,14.099-8.377,27.445-18.613,37.192
		c-13.063,12.96-31.753,19.821-50.067,19.136c-23.89-0.445-47.231-14.562-58.007-36.019c-5.705-11.298-7.855-24.421-5.756-36.927
		c2.176-14.433,9.893-27.881,20.995-37.321C581.594,220.595,594.434,215.053,607.711,213.383 M573.996,255.911
		c-5.431,10.073-6.578,22.339-3.109,33.244c3.298,10.99,11.427,20.044,21.149,25.886c11.769,6.818,26.417,8.257,39.377,4.24
		c10.759-3.255,20.052-10.647,26.203-19.984c6.124-9.722,8.163-21.894,5.456-33.064c-4.309,5.559-10.022,10.193-16.892,12.086
		c-9.782,2.827-20.969,0.839-28.815-5.748c-7.452-5.893-11.581-15.71-10.305-25.149c0.48-6.184,3.855-11.564,7.564-16.343
		C597.912,231.396,581.988,241.315,573.996,255.911z"/>
	<path fill="#543E65" stroke="#543E65" d="M286.822,259.124c7.195-16.438,24.447-27.761,42.375-28.053
		c-4.197,4.788-7.426,10.673-7.872,17.123c-0.994,9.328,3.315,18.836,10.647,24.584c8.6,7.084,21.072,8.634,31.351,4.591
		c5.808-2.167,10.365-6.493,14.271-11.161c2.338,11.135,0.677,23.17-5.456,32.858c-5.987,9.157-14.964,16.489-25.406,19.932
		c-13.697,4.54-29.398,2.921-41.672-4.754c-7.88-5.165-14.682-12.343-18.348-21.123
		C282.145,282.405,282.136,269.805,286.822,259.124 M317.324,298.14c-4.377,1.79-5.191,8.437-1.165,11.041
		c4.12,3.332,11.341,0.266,11.127-5.217C327.312,299.091,321.522,296.076,317.324,298.14z"/>
	<path fill="#543E65" stroke="#543E65" d="M573.996,255.911c7.992-14.596,23.915-24.515,40.627-24.832
		c-3.709,4.78-7.084,10.159-7.564,16.343c-1.276,9.439,2.852,19.256,10.305,25.149c7.846,6.587,19.033,8.574,28.815,5.748
		c6.87-1.893,12.583-6.527,16.892-12.086c2.707,11.17,0.668,23.342-5.456,33.064c-6.15,9.337-15.444,16.729-26.203,19.984
		c-12.96,4.017-27.607,2.578-39.377-4.24c-9.722-5.842-17.851-14.896-21.149-25.886
		C567.418,278.251,568.565,265.985,573.996,255.911 M602.683,298.312c-3.872,1.73-4.865,7.478-1.593,10.262
		c3.563,3.983,11.29,1.662,11.744-3.769C613.69,299.494,607.111,295.699,602.683,298.312z"/>
	<path fill="#FEF8FD" stroke="#FEF8FD" d="M317.324,298.14c4.197-2.064,9.988,0.951,9.962,5.825
		c0.214,5.482-7.007,8.549-11.127,5.217C312.134,306.578,312.947,299.931,317.324,298.14z"/>
	<path fill="#FEF8FE" stroke="#FEF8FE" d="M602.683,298.312c4.428-2.613,11.007,1.182,10.15,6.493
		c-0.454,5.431-8.18,7.752-11.744,3.769C597.817,305.79,598.811,300.042,602.683,298.312z"/>
	<path fill="#FFCDD6" stroke="#FFCDD6" d="M190.081,365.407c5.396-7.084,17.371-7.187,22.922-0.248
		c3.118,3.323,3.975,7.992,3.846,12.412c-0.009,13.482-0.146,26.965,0.094,40.447c-0.034,2.141-0.009,4.291,0,6.45
		c20.523-0.171,41.055,0,61.579-0.103c4.274-0.069,8.84,0.668,12.103,3.666c5.028,4.043,6.621,11.384,4.214,17.294
		c-2.21,5.833-8.369,9.662-14.562,9.379c-24.309,0.077-48.628,0.009-72.946,0.017c-3.658-0.026-7.452,0.283-10.964-0.985
		c-4.711-1.807-8.728-6.013-9.439-11.127c-0.677-4.797-0.3-9.662-0.36-14.485c-0.017-16.849,0.043-33.706-0.034-50.555
		C186.466,373.296,187.134,368.722,190.081,365.407z"/>
	<path fill="#C4415C" stroke="#C4415C" d="M426.177,374.512c9.285-2.416,17.603,3.521,26.322,5.559
		c20.977,6.236,43.754,5.593,64.5-1.242c7.075-2.27,14.211-6.202,21.885-4.617c9.362,1.61,16.026,9.405,20.352,17.337
		c4.334,8.429,6.861,18.236,5.02,27.684c-2.364,9.165-9.559,16.138-16.994,21.534c-15.007,10.39-32.867,16.163-50.863,18.545
		c-20.438,2.279-41.321-1.079-60.311-8.823c-11.581-4.857-22.665-11.778-30.34-21.902c-2.553-3.692-4.617-7.915-4.925-12.463
		c-0.925-11.821,3.658-23.684,11.341-32.575C416.019,379.506,420.601,375.772,426.177,374.512 M427.839,377.879
		c-2.604,0.48-5.114,1.465-7.255,3.024c-10.339,7.367-16.232,20.121-16.292,32.678c-0.231,6.81,3.692,12.874,8.283,17.56
		c9.054,8.917,20.592,14.956,32.627,18.802c16.301,5.542,33.809,7.761,50.949,5.756c16.403-2.004,32.438-7.418,46.512-16.121
		c7.692-5.259,15.65-11.795,18.142-21.192c1.645-9.517-1.242-19.333-6.047-27.53c-3.932-5.996-9.362-12.009-16.815-13.114
		c-6.818-1.293-13.028,2.433-19.333,4.326c-24.087,8.189-50.923,7.863-74.77-1.028C438.726,379.189,433.407,376.602,427.839,377.879
		z"/>
	<path fill="#E66382" stroke="#E66382" d="M427.839,377.879c5.568-1.276,10.887,1.311,16.001,3.161
		c23.847,8.891,50.683,9.217,74.77,1.028c6.304-1.893,12.515-5.619,19.333-4.326c7.452,1.105,12.883,7.118,16.815,13.114
		c4.805,8.197,7.692,18.014,6.047,27.53c-2.493,9.397-10.45,15.932-18.142,21.192c-14.073,8.703-30.109,14.116-46.512,16.121
		c-17.14,2.004-34.648-0.214-50.949-5.756c-12.035-3.846-23.573-9.885-32.627-18.802c-4.591-4.685-8.514-10.75-8.283-17.56
		c0.06-12.557,5.953-25.312,16.292-32.678C422.725,379.343,425.235,378.358,427.839,377.879z"/>
	<path fill="#E96F88" stroke="#E96F88" d="M847.371,405.632l0.523-0.437c3.281,3.495,7.958,5.157,11.838,7.872
		c11.135,6.913,20.206,16.78,27.076,27.881c3.957,6.407,6.082,13.714,8.232,20.875c2.63,9.311,1.867,19.179-0.317,28.498
		c-1.028,5.893-3.623,11.572-3.212,17.663c-5.765-5.919-13.131-10.056-20.489-13.671c-9.285-4.506-19.479-6.467-29.603-7.983
		c-5.628-1.636-11.512-0.994-17.277-0.977c-5.165,0.18-10.416-0.463-15.453,0.959c-7.161,1.619-14.502,3.324-20.703,7.435
		c-9.799,6.227-17.765,15.65-21.354,26.768c-2.767,8.009-2.75,16.592-2.69,24.969c0.077,10.219-0.146,20.446,0.111,30.665
		c-0.034,13.191,0.12,26.374-0.146,39.565c0.428,25.123-0.034,50.255,0.026,75.378c0.137,7.906-0.334,15.838,0.3,23.727
		c-0.651,9.208-0.18,18.442-0.266,27.667c-0.154,11.024,0.711,22.211-1.799,33.055c-3.007,15.144-10.622,29.269-21.646,40.079
		c-4.463,4.797-9.919,8.446-15.024,12.497c-5.251,2.424-10.245,5.439-15.804,7.161c-13.028,4.514-27.136,5.431-40.713,3.212
		c-5.491-1.216-10.896-2.801-16.138-4.848c1.122-0.66,2.801-1.054,2.964-2.604c0.831-4.052,0.343-8.215,0.411-12.318
		c0-87.653-0.009-175.315,0.009-262.968c0.154-8.403-0.651-16.952,1.43-25.192c2.398-13.508,10.202-25.449,19.907-34.888
		c10.065-8.334,22.262-14.425,35.334-15.958c7.675-0.351,15.341-1.293,23.033-0.994c11.161,0.197,22.339-0.497,33.466,0.557
		c17.928-0.223,36.284-6.313,49.364-18.879c8.583-7.512,15.11-17.251,19.264-27.856c2.964-6.895,3.872-14.433,4.634-21.843
		C842.805,408.073,845.564,407.028,847.371,405.632z"/>
	<path fill="#FFCDD6" stroke="#FFCDD6" d="M551.263,472.341c5.268-1.747,11.641,0.334,14.365,5.302
		c3.238,5.097,1.722,12.48-3.255,15.881c-3.126,2.09-6.638,3.529-9.654,5.79c-9.242,6.279-16.026,15.684-20.378,25.886
		c-4.317,10.168-6.022,21.26-6.159,32.258c-0.171,13.422-0.009,26.854-0.06,40.285c-0.043,3.246-0.385,6.81-2.775,9.26
		c-3.298,4.214-9.457,5.696-14.322,3.495c-4.651-1.927-7.409-6.981-7.229-11.923c-0.051-12.84,0.017-25.689-0.017-38.537
		c0.017-15.769,2.416-31.762,8.951-46.221c5.722-12.72,14.348-24.31,25.62-32.627C540.95,477.695,545.823,474.397,551.263,472.341z"
		/>
	<path fill="#D68E79" stroke="#D68E79" d="M108.629,485.995c5.456-1.105,11.05-0.445,16.575-0.54
		c25.397-0.017,50.803,0.026,76.201-0.026c42.272-0.06,84.535,0.137,126.798,0.068c2.321,0.009,4.625,0.403,6.895,0.865
		c-0.582,0.086-1.739,0.257-2.321,0.343c-21.791-0.514-43.599,0.051-65.391-0.274c-44.833,0.223-89.657-0.437-134.482-0.3
		C124.81,486.124,116.724,486.175,108.629,485.995z"/>
	<path fill="#D67B73" stroke="#D67B73" d="M808.688,486.312c5.037-1.422,10.287-0.779,15.453-0.959
		c5.765-0.017,11.649-0.66,17.277,0.977C830.514,486.423,819.592,486.655,808.688,486.312z"/>
	<path fill="#FEC09E" stroke="#FEC09E" d="M104.415,486.937c1.405-0.308,2.801-0.685,4.214-0.942
		c8.095,0.18,16.181,0.129,24.275,0.137c44.824-0.137,89.649,0.523,134.482,0.3c21.791,0.326,43.6-0.24,65.391,0.274
		c-4.386,0.839-8.874,0.651-13.311,0.925c-1.311-0.009-2.613,0-3.906-0.017c-6.913-0.54-13.842-0.206-20.763-0.291
		c-7.247,0.111-14.502-0.291-21.723,0.471c-4.163-0.368-8.334-0.651-12.515-0.403c-13.44,0.06-26.871,0.06-40.31,0
		c-4.566-0.24-9.122,0.12-13.679,0.351c-6.553-0.771-13.131-0.137-19.701-0.334c-6.159-0.214-12.292,0.437-18.425,0.754
		c-5.165-1.884-10.544,0.128-15.829-0.051c-9.714-0.094-19.418-0.026-29.132,0C117.109,487.982,110.779,487.177,104.415,486.937z"/>
	<path fill="#FEBE86" stroke="#FEBE86" d="M332.777,486.706c0.582-0.086,1.739-0.257,2.321-0.343
		c10.699,1.585,21.183,5.456,29.68,12.266c11.932,9.123,20.207,23.153,22.022,38.109c-5.782,0.642-11.607,0.351-17.406,0.274
		c-4.917-7.298-11.915-12.763-17.902-19.119c-7.058-6.647-13.517-13.894-20.703-20.395c-3.675-3.409-6.758-7.572-11.324-9.868
		C323.903,487.357,328.391,487.546,332.777,486.706z"/>
	<path fill="#FCBD87" stroke="#FCBD87" d="M787.985,493.747c6.202-4.112,13.542-5.816,20.703-7.435
		c10.904,0.343,21.825,0.111,32.73,0.017c10.125,1.516,20.318,3.478,29.603,7.983c7.358,3.615,14.724,7.752,20.489,13.671
		c2.544,5.996,7.384,10.476,10.878,15.872c6.656,9.953,12.223,20.849,14.682,32.644c3.238,16.84,1.276,34.914-6.621,50.247
		c-6.493,13.542-16.292,25.56-28.772,33.997c-13.371,9.919-30.006,14.116-46.323,15.821c-2.827,0.248-5.653,0.54-8.403,1.259
		c-1.114,4.146-0.925,8.463-0.959,12.712c-0.009,15.35,0.034,30.708-0.034,46.066c-6.09,4.822-11.555,10.322-16.789,16.044
		c-6.433,5.276-11.41,12.009-17.654,17.474c-1.919,1.799-3.915,3.503-5.842,5.285c-3.229-2.176-6.262-4.66-8.643-7.76
		c-3.229-4.18-7.512-7.401-10.57-11.701c-1.91-2.544-1.413-5.91-1.448-8.883c0.206-4.103,0.351-8.249-0.78-12.24
		c-0.634-7.889-0.163-15.821-0.3-23.727c-0.06-25.123,0.403-50.255-0.026-75.378c0.266-13.191,0.111-26.374,0.146-39.565
		c2.75,7.358,9.354,11.941,14.467,17.534c2.244,2.467,4.737,4.771,7.855,6.09c17.594-17.08,34.657-34.734,52.182-51.891
		c1.353-1.508,3.486-3.315,2.544-5.576c-2.356-5.773-7.341-9.833-11.598-14.176c-8.369-8.472-16.926-16.763-25.2-25.32
		C800.2,498.073,795.069,491.88,787.985,493.747 M832.535,593.255c-7.084,6.904-13.962,14.022-21.037,20.943
		c-1.79,1.833-3.735,3.649-4.857,5.996c0.3,1.91,1.979,3.289,3.178,4.728c2.741,2.672,5.216,5.679,8.334,7.94
		c1.816,1.396,3.649-0.822,4.985-1.902c9.542-10.219,17.491-22.554,20.172-36.447c1.131-4.326,3.606-9.011,1.559-13.44
		C840.364,584.741,837.049,589.598,832.535,593.255z"/>
	<path fill="#FDCA93" stroke="#FDCA93" d="M76.02,494.518c8.943-4.06,18.493-7.264,28.395-7.581
		c6.364,0.24,12.694,1.045,19.067,1.174c9.714-0.026,19.418-0.094,29.132,0c5.285,0.18,10.664-1.833,15.829,0.051l-0.908,0.325
		c-4.197,1.919-8.977,1.91-13.157,3.906c-7.17,3.435-14.485,6.818-20.601,11.983c-8.043,6.21-14.87,13.928-20.378,22.442
		c-1.859,3.178-4.326,6.544-3.7,10.442c-3.563,0.839-7.204,1.825-10.296,3.863c-9.174,7.075-9.679,23.29,0.051,30.117
		c4.12,3.204,9.474,4.086,14.57,4.009c11.144-0.069,22.288,0.017,33.432-0.009c8.566-0.18,17.5,1.071,25.56-2.578
		c-2.261,2.792-5.568,4.643-9.242,4.488c-8.026-0.043-16.069,0.146-24.095-0.128c-12.746-2.219-25.954,1.139-38.546-2.253
		c0.308,2.21,0.548,4.428,0.677,6.664c0.026,0.471,0.086,1.396,0.111,1.859c-1.79-3.692-4.274-7.041-7.324-9.791
		c-3.812-3.418-6.741-7.829-11.264-10.407c-4.968,6.013-10.81,11.212-16.292,16.746c-6.073,6.484-12.712,12.403-18.742,18.93
		c-3.366,3.812-8.223,6.236-10.502,10.973c-5.276-9.165-7.752-19.607-8.977-30.031c-1.259-11.761,0.197-23.804,4.334-34.888
		c1.687-6.15,5.439-11.384,8.446-16.926c2.398-4.54,6.142-8.12,9.328-12.086c1.884-2.356,3.204-5.079,4.771-7.641
		C61.458,502.304,68.756,498.227,76.02,494.518z"/>
	<path fill="#FFBE86" stroke="#FFBE86" d="M168.444,488.162c6.133-0.317,12.266-0.968,18.425-0.754
		c6.57,0.197,13.148-0.437,19.701,0.334c3.503,6.125,9.534,10.116,14.048,15.427c4.48,5.225,9.971,9.448,14.425,14.699
		c1.251,1.336,2.527,2.741,4.197,3.563c1.473-0.034,2.475-1.422,3.563-2.261c7.486-7.641,15.119-15.144,22.639-22.751
		c2.741-2.69,5.876-5.114,7.632-8.626c7.221-0.762,14.476-0.36,21.723-0.471c6.921,0.086,13.851-0.248,20.763,0.291
		c-4.917,3.521-8.951,8.052-13.268,12.24c-7.392,7.461-14.896,14.81-22.254,22.305c-5.602,6.381-12.412,11.564-17.877,18.065
		c-5.388,4.763-9.611,11.915-7.966,19.333c1.182,8.266,8.626,15.11,16.952,15.598c6.441,0.6,12.917,0.086,19.376,0.317
		c32.318-0.034,64.654-0.128,96.973,0.043c0.42,11.195-0.702,22.494,1.353,33.578c1.336,9.517,5.251,18.356,8.908,27.153
		c-1.61-1.696-3.067-3.563-3.82-5.799c-3.178-8.215-6.279-16.583-7.221-25.397c-2.244-8.934,1.379-18.194-1.225-27.085
		c-0.668-1.542-2.81-1.499-4.103-0.891c-11.341,10.673-22.211,21.877-33.278,32.858c-2.938,3.049-6.424,5.765-8.403,9.602
		c-0.728,1.208,0.411,2.364,1.019,3.332c5.808,7.298,13.243,13.054,19.418,20.01c3.957,4.326,8.6,7.958,12.48,12.369
		c4.394,5.02,9.705,9.131,14.125,14.142c2.698,2.715,5.037,5.953,8.386,7.915c1.473,0.094,2.467-1.439,3.563-2.236
		c4.231-4.326,8.514-8.617,12.849-12.84c1.542-1.388,2.15-3.392,2.655-5.328c8.18,8.12,18.211,14.27,28.901,18.502
		c-4.094-0.385-7.187,2.433-9.585,5.362c-4.703,5.011-9.833,9.611-14.75,14.399c-1.019,1.165-2.775,2.947-1.499,4.523
		c2.638,3.598,6.476,6.082,9.354,9.482c4.608,5.379,10.253,9.739,14.93,15.05c4.291,4.84,9.457,8.823,13.714,13.705
		c3.717,4.274,8.266,7.718,11.966,12.018c1.782,1.953,3.512,4.069,5.859,5.379c1.311-0.009,2.278-1.002,3.204-1.79
		c13.397-13.731,27.205-27.051,40.61-40.773c4.583-4.574,9.568-8.84,13.414-14.073c-0.051-1.482-1.439-2.484-2.287-3.563
		c-5.765-5.653-11.478-11.367-17.123-17.131c-1.602-1.867-4.026-2.501-6.381-2.655c8.874-3.581,17.337-8.334,24.644-14.536
		c2.664-2.493,5.302-5.02,8.069-7.409c-1.216,2.407-5.122,5.722-2.253,8.215c2.313,2.253,5.002,4.12,7.041,6.664
		c3.007,3.503,5.859,7.761,10.519,9.14c2.792-2.073,4.523-5.234,7.152-7.495c5.157-4.548,9.585-9.825,14.63-14.493
		c4.865-4.557,9.242-9.594,14.142-14.116c4.84-4.428,8.806-9.748,14.048-13.739c0.129,14.236,0.154,28.472-0.017,42.709
		c-4.428,0.814-7.05,4.608-10.116,7.495c-5.165,5.105-9.859,10.69-15.384,15.427c-1.936,1.576-3.503,3.538-4.925,5.576
		c7.76,8.317,16.112,16.061,23.967,24.284c1.756,1.953,4.052,3.289,6.458,4.283c0.188,10.193,0.094,20.395,0.069,30.597
		c-0.069,5.765,1.071,11.452,1.465,17.2c-1.036-2.595-1.73-5.465-3.623-7.598c-14.433-14.416-28.944-28.755-43.214-43.334
		c-1.756-1.559-3.032-4.163-5.328-4.797c-2.964,1.816-5.122,4.625-7.598,7.024c-15.572,15.555-31.102,31.145-46.7,46.666
		c-1.139,1.199-2.253,2.424-3.366,3.649c2.304,2.595,4.617,5.199,7.307,7.418c5.431,4.557,9.662,10.322,14.99,14.999
		c4.874,4.257,8.857,9.405,13.705,13.697c5.011,4.411,9.14,9.705,14.142,14.133c2.441,2.047,4.309,5.079,7.409,6.176
		c3.683-1.002,5.234-4.985,8.06-7.221c5.576-4.711,10.056-10.536,15.53-15.358c4.523-4.026,8.283-8.814,12.789-12.866
		c5.156-4.548,9.773-9.662,14.339-14.784c1.876-1.85,1.696-4.651,1.756-7.067c3.315,11.864,8.078,23.53,15.898,33.184
		c-4.24,0.428-6.656,4.172-9.474,6.887c-12.72,12.703-25.414,25.449-38.169,38.126c5.653,8.095,13.705,14.031,20.241,21.354
		c3.897,4.377,8.566,7.983,12.472,12.369c4.788,5.474,10.579,9.979,15.358,15.478c2.844,2.792,5.294,6.39,9.157,7.846
		c2.09-0.411,3.358-2.287,4.703-3.76c4.043-5.071,9.465-8.797,13.628-13.757c3.906-4.668,8.977-8.155,12.934-12.771
		c4.617-5.388,10.287-9.696,15.196-14.784c3.666-3.82,7.504-7.469,11.135-11.315c-5.73-5.79-10.861-12.592-18.331-16.232
		c13.577,2.219,27.684,1.302,40.713-3.212c5.559-1.722,10.553-4.737,15.804-7.161c8.283-2.381,14.099-9.311,20.241-14.947
		c0.677,2.87-1.362,5.251-2.655,7.589c-2.219,3.538-3.632,7.555-6.27,10.827c-4.745,5.782-9.534,11.667-15.667,16.052
		c-11.298,8.908-24.652,15.564-38.991,17.62c-1.816,0.36-4.266,0.642-4.66,2.87c-2.227,7.358-3.546,14.973-6.133,22.219
		c-2.201,6.125-3.238,12.583-5.345,18.733c-0.917,2.63-1.199,5.414-1.233,8.189c1.208-0.977,2.424-1.97,3.555-3.049
		c0.111,1.096,0.617,2.253,0.283,3.375c-1.559,1.876-4.377,2.553-5.208,5.062c-1.987,3.615-1.105,7.958-2.741,11.684
		c-1.036,2.501-2.433,4.942-4.634,6.604c0.111,1.508,0.188,3.024,0.146,4.557c-1.807,6.202-3.041,12.566-5.268,18.639
		c-0.788,2.767-2.321,5.996-0.591,8.728c2.63,4.617,6.981,7.855,10.656,11.589c6.553,6.296,12.763,12.934,19.324,19.221
		c2.056,1.961,4.309,3.786,5.945,6.15c-1.002,4.411-5.568,6.39-8.334,9.559c-2.664,3.041-5.319,6.107-8.514,8.626
		c-4.763,3.812-8.035,9.105-12.789,12.917c-5.602,4.386-9.414,10.57-15.076,14.896c-4.24,3.238-6.87,8.078-11.033,11.341
		c-1.936-0.797-3.435-2.321-5.259-3.307c-1.148-0.428-2.039,0.685-2.201,1.705c-6.262,22.022-12.155,44.165-18.451,66.17
		c-1.499,3.76,0.471,8.326-2.219,11.667c-0.188-2.09-0.274-4.18-0.326-6.262c-4.146,2.27-6.81,6.296-10.305,9.354
		c-4.523,4.034-8.668,8.463-12.951,12.754c-2.45,2.184-4.754,4.54-6.707,7.204c5.534,5.876,11.187,11.667,17.157,17.097
		c0.445-0.197,1.336-0.6,1.782-0.805c-0.231,0.788-0.471,1.576-0.737,2.373c-2.998,8.283-5.054,16.866-7.478,25.337
		c-0.54,2.107-1.456,4.497-0.231,6.561c2.167,4.231,6.561,6.596,9.474,10.245c4.643,5.636,10.57,10.031,15.41,15.47
		c1.679,1.636-0.171,3.375-1.388,4.6c-4.934,4.488-9.388,9.474-14.262,14.022c-6.364,6.493-13.037,12.677-19.05,19.504
		c-5.345,5.259-11.701,10.116-14.073,17.56c-2.741,8.557-4.857,17.311-7.469,25.911c-1.61,8.103-4.369,15.906-6.193,23.967
		c2.193-1.568,4.369-3.178,6.741-4.429c2.553,0.874,4.283,3.075,6.176,4.891c12.069,11.915,23.992,23.975,36.019,35.933
		c3.426,3.418,6.604,7.075,9.868,10.656c-1.396,5.268-3.289,10.39-4.488,15.718l-0.488,0.36
		c-5.679,4.232-10.664,9.371-15.221,14.784c-3.401,3.735-7.666,6.596-10.87,10.527c-4.103,5.028-9.251,9.037-13.868,13.559
		c-2.219,2.116-3.966,4.703-6.364,6.638c-3.538-0.762-5.808-3.889-8.292-6.244c-3.683-3.752-6.878-7.949-10.716-11.555
		c-3.563-3.307-6.518-7.332-10.776-9.825c-3.503,9.619-5.85,19.59-8.137,29.543c-0.728,3.538,2.758,5.79,4.84,8.06
		c3.144,3.443,6.93,6.236,10.073,9.662c2.227,2.664-1.105,4.882-2.921,6.527c-6.399,5.002-10.938,11.889-17.183,17.072
		c-4.24,3.521-7.992,7.82-10.03,13.011c-2.63,6.005-3.118,12.643-5.225,18.819c-4.951,14.33-7.452,29.415-13.088,43.522
		c-0.668,2.304-2.244,5.148-0.505,7.367c2.852,3.666,6.707,6.416,9.645,10.03c7.555,9.251,16.84,16.823,25.269,25.226
		c-2.159,2.141-5.165,2.964-7.846,4.24c-5.739-3.829-11.735-7.366-16.84-12.052c-5.379-4.917-10.347-10.287-14.793-16.052
		c-2.244-2.69-2.278-6.356-2.304-9.662c-3.144-2.244-6.399-4.84-7.546-8.694c-5.867-17.277-9.782-35.137-15.213-52.542
		c-1.208-3.7-1.91-7.521-2.441-11.358c2.141,1.242,4.189,2.69,5.885,4.523c4.291,4.548,8.857,8.84,13.191,13.371
		c1.859,1.825,3.7,3.915,6.244,4.814c3.109-1.139,5.208-3.88,7.512-6.116c5.054-5.225,10.33-10.228,15.393-15.444
		c5.919-6.236,6.21-15.281,8.66-23.076c2.15-6.57,3.658-13.32,5.756-19.89c0.882-3.298,2.356-6.775,1.49-10.202
		c-2.664-4.326-6.955-7.324-10.339-11.067c-8.249-8.3-16.592-16.523-24.789-24.875c-1.362-1.216-3.024-3.092-5.037-2.064
		c-2.595,1.645-4.386,4.249-6.561,6.381c-9.123,9.157-18.339,18.219-27.367,27.462c-1.43,1.413-3.238,2.339-5.002,3.255
		c-2.989-9.182-5.157-18.605-7.983-27.83c0.565-4.471,3.88-7.683,7.212-10.339c5.088-4.035,8.943-9.311,13.619-13.774
		c2.047-1.996,4.309-3.812,6.047-6.099c-0.437-2.75-2.664-4.66-4.48-6.553c-7.975-7.726-15.65-15.761-23.667-23.444
		c-3.229-3.272-6.63-6.441-9.2-10.279c-5.157-19.984-11.427-39.651-16.832-59.557c3.075-6.244,9.174-9.962,13.688-15.033
		c12.771-12.635,25.269-25.569,38.117-38.117c0.951-1.079,1.824-2.27,2.253-3.641c-0.488-1.593-1.576-2.887-2.672-4.086
		c-16.866-16.815-33.723-33.655-50.529-50.538c-1.285-1.302-3.392-2.895-5.045-1.182c-7.683,6.638-13.919,14.896-22.048,21.029
		c-14.519-50.041-28.695-100.185-43.171-150.243c0.094-1.876,0.822-3.615,2.304-4.78c3.315-2.964,5.885-6.664,9.362-9.439
		c5.516-4.471,9.765-10.245,15.101-14.904c5.645-4.934,10.09-11.084,15.975-15.752c1.568-1.311,3.752-3.615,1.996-5.636
		c-2.827-3.966-6.758-6.964-10.048-10.519c-11.992-12.001-23.984-23.984-35.976-35.976c-3.109-3.229-6.107-6.57-9.636-9.345
		c-4.694,3.598-8.223,8.394-12.703,12.232c-0.557-0.642-1.114-1.259-1.662-1.867c-1.319-7.401-4.146-14.416-5.885-21.706
		c-4.882-17.328-10.039-34.571-14.819-51.925c-1.036-4.137-2.895-8.189-6.167-11.024c-1.722-1.679-3.64-3.195-5.011-5.174
		c-1.302-2.33-1.542-5.114-2.998-7.349c-3.375-1.191-6.99-1.43-10.424-2.398c-29.475-7.375-53.913-31.899-61.005-61.468
		c-0.737-3.478-1.593-6.93-2.21-10.424c1.165-0.24,2.373-0.146,3.212,0.814c9.191,8.788,18.048,17.928,27.145,26.819
		c4.891,4.565,8.866,10.15,14.502,13.876c4.994-3.632,8.677-8.626,13.131-12.831c13.748-13.662,27.367-27.453,41.158-41.064
		c0.865-1.088,2.201-2.099,2.296-3.563c-1.833-2.981-4.643-5.139-7.041-7.615c-15.692-15.718-31.428-31.385-47.094-47.129
		c-1.131-0.976-2.741-2.844-4.154-1.174c-13.183,12.814-26.143,25.868-39.094,38.923c-1.362,1.293-2.895,2.381-4.437,3.452
		c-0.248-12.926-0.009-25.851-0.128-38.768c6.45-6.433,12.352-13.44,19.341-19.316c2.116-1.722,3.649-4,4.968-6.364
		c-3.949-4.446-8.334-8.463-12.489-12.712c-3.658-3.563-7.032-7.435-11.084-10.562c-1.131-5.525-0.617-11.17-1.019-16.755
		c-5.868-0.668-12.24,0.899-17.68-1.962c-5.071-3.409-9.071-8.155-13.816-11.958c-4.12,0.531-6.553,4.471-10.287,5.885
		c-3.718-0.197-6.878-2.587-9.962-4.454c-4.9-3.469-10.536-6.159-14.219-11.076c2.998-4.703,7.641-7.932,11.213-12.129
		c0.505-0.762,1.653-1.833,0.754-2.732c-1.867-2.681-4.437-4.754-6.716-7.067c-7.418-7.426-14.844-14.844-22.262-22.271
		c-3.067-3.024-5.91-6.313-9.465-8.797c-0.128-2.236-0.368-4.454-0.677-6.664c12.592,3.392,25.8,0.034,38.546,2.253
		c1.55,2.458,3.401,4.711,5.499,6.724c4.934,4.78,9.508,9.919,14.613,14.527c0.728,0.497,1.747,1.73,2.664,0.805
		c2.518-1.747,4.48-4.137,6.638-6.279c13.697-13.714,27.419-27.402,41.115-41.124c2.647-2.792,5.748-5.191,7.983-8.352
		c0.985-1.148-0.531-2.313-1.131-3.195c-13.757-13.945-27.736-27.667-41.484-41.612c-3.178-2.912-6.553-5.842-8.043-10.03
		L168.444,488.162 M239.265,563.815c-2.604,1.131-4.36,3.503-6.364,5.422c-12.249,12.3-24.558,24.549-36.824,36.841
		c-4.703,4.78-9.773,9.277-13.628,14.81c5.705,6.313,11.983,12.069,17.911,18.168c12.12,12.146,24.292,24.232,36.37,36.421
		c0.942,0.702,1.816,2.013,3.126,1.867c3.572-2.039,5.996-5.491,8.9-8.309c15.418-15.41,30.828-30.845,46.263-46.246
		c0.66-0.899,2.193-2.073,1.156-3.255c-2.304-3.101-5.439-5.456-7.949-8.377c-13.525-13.311-26.811-26.871-40.327-40.19
		C245.175,568.474,243.102,564.611,239.265,563.815 M294.805,577.391c7.82,7.289,14.562,15.769,23.11,22.262
		c7.898-7.212,14.99-15.273,22.956-22.425c-2.467-0.54-4.977-0.951-7.512-0.882c-9.722,0.137-19.436,0.06-29.158,0.043
		C301.041,576.372,297.897,576.775,294.805,577.391 M316.596,641.746c-1.842,1.285-3.324,2.998-4.891,4.583
		c-16.66,16.746-33.441,33.381-50.084,50.144c-2.407,1.85,0.163,4.163,1.653,5.576c4.411,3.872,8.24,8.326,12.463,12.386
		c13.131,13.131,26.271,26.263,39.385,39.411c0.908,0.668,2.056,2.15,3.272,1.148c2.338-1.636,4.12-3.906,6.167-5.867
		c16.001-15.975,31.95-32.002,47.985-47.942c0.702-0.771,1.388-1.576,1.936-2.467c-0.445-2.535-2.544-4.249-4.317-5.91
		c-3.829-3.298-7.367-6.904-10.913-10.502c-5.499-5.91-11.598-11.238-17.054-17.2c-7.392-7.169-14.699-14.442-21.697-21.997
		C319.474,642.32,317.881,640.906,316.596,641.746 M394.579,719.719c-2.595,1.97-4.18,4.977-6.801,6.938
		c-2.107,1.602-3.726,3.7-5.576,5.576c-4.925,4.18-9.2,9.071-13.705,13.697c-4.925,4.197-9.2,9.08-13.705,13.705
		c-4.942,4.18-9.14,9.148-13.808,13.619c-0.771,1.088-2.861,2.219-1.807,3.743c2.655,4.317,6.818,7.409,10.227,11.101
		c15.256,15.033,30.074,30.58,45.69,45.201c3.229-0.514,4.934-3.615,7.05-5.748c11.581-11.547,23.196-23.05,34.665-34.708
		c4.506-3.777,8.018-8.531,12.42-12.412c1.482-1.585,4.694-3.932,2.081-6.013c-17.012-17.243-34.246-34.28-51.334-51.454
		C398.399,721.792,396.771,718.657,394.579,719.719 M316.254,798.181c-5.713,5.131-10.998,10.716-16.283,16.275
		c-3.923,3.195-7.187,7.075-10.801,10.604c-2.827,3.469-6.621,5.962-9.457,9.422c-6.613,6.244-12.129,13.594-19.281,19.247
		c2.775,4.608,7.238,7.752,10.604,11.881c4.189,4.369,8.78,8.343,12.806,12.891c7.803,7.032,14.947,14.724,22.442,22.074
		c3.341,2.955,6.279,6.313,9.397,9.499c0.634,0.677,1.79,1.73,2.707,0.814c3.563-2.69,6.27-6.33,9.654-9.234
		c13.414-13.44,26.948-26.734,40.233-40.293c2.253-2.27,5.593-4.017,6.193-7.435c-0.531-0.917-1.208-1.722-1.919-2.467
		c-17.328-17.217-34.554-34.545-51.84-51.805C319.526,798.695,317.795,796.734,316.254,798.181 M467.61,803.09
		c-14.844,14.844-29.697,29.697-44.542,44.542c-1.979,2.039-4.3,3.829-5.79,6.296c0.548,2.672,2.724,4.617,4.488,6.57
		c13.774,13.637,27.342,27.479,41.227,41.004c3.512,3.383,6.407,7.546,10.81,9.876c3.298-3.058,7.135-5.534,9.885-9.157
		c3.717-3.435,6.733-7.555,10.853-10.544c2.861-3.409,6.279-6.304,9.131-9.722c1.739-1.979,4.154-3.212,5.799-5.276
		c2.124-2.741,4.925-4.84,7.101-7.521c2.287-2.861,5.705-4.557,7.812-7.598c1.893-2.63,5.748-4,5.979-7.615
		c-2.972-4.403-7.324-7.606-10.853-11.521c-15.358-14.973-30.186-30.485-45.69-45.296
		C471.661,799.021,469.571,800.991,467.61,803.09 M543.862,882.768c-10.176,10.09-20.275,20.267-30.425,30.391
		c-5.388,5.182-10.313,10.87-16.198,15.521c-1.679,1.319-2.63,3.846-1.199,5.705c17.346,18.022,35.282,35.565,53.03,53.219
		c1.499,1.79,3.872,1.687,5.405,0.009c5.225-4.754,9.773-10.228,14.622-15.358c3.461-3.101,6.87-6.27,10.065-9.636
		c3.769-4.78,8.746-8.386,12.883-12.814c4.78-5.773,10.767-10.399,15.632-16.095c1.816-2.458-1.679-4.283-2.955-6.047
		c-10.604-10.527-21.217-21.046-31.685-31.71c-7.264-6.75-13.782-14.262-21.226-20.832
		C548.53,876.96,546.432,880.13,543.862,882.768 M393.525,877.209c-18.074,17.894-35.89,36.079-54.058,53.861
		c-1.242,0.994-0.248,2.518,0.523,3.452c11.41,10.879,22.382,22.194,33.535,33.338c7.135,6.561,13.26,14.142,20.489,20.601
		c1.602,1.602,3.983,0.351,5.062-1.216c2.416-3.281,5.713-5.748,8.257-8.908c1.782-2.219,4.42-3.512,6.21-5.722
		c2.124-2.732,4.917-4.848,7.101-7.529c2.296-2.852,5.688-4.557,7.812-7.581c3.906-3.812,7.341-8.086,11.684-11.427
		c3.726-4.883,9.251-8.095,12.386-13.465c-1.91-3.675-5.208-6.253-8.043-9.165c-15.264-15.29-30.562-30.545-45.809-45.835
		C397.388,875.984,394.955,875.427,393.525,877.209 M464.184,962.412c-11.846,11.846-23.701,23.693-35.548,35.548
		c-3.7,4.034-8.129,7.435-11.375,11.864c0.822,4.163,4.78,6.638,7.641,9.414c10.801,10.621,21.414,21.406,32.139,32.096
		c5.602,4.977,10.125,11.144,16.001,15.795c4.086-1.011,6.407-4.994,9.362-7.692c5.071-6.33,11.898-10.964,16.9-17.363
		c4.437-4.403,9.388-8.352,13.311-13.251c5.422-5.713,11.812-10.476,17.029-16.386c1.867-1.91-0.154-4.163-1.61-5.516
		c-18.176-17.851-35.882-36.199-54.212-53.887C470.385,955.928,467.396,959.277,464.184,962.412 M626.47,955.97
		c-17.328,17.491-34.854,34.802-52.182,52.285c-2.441,1.97,0.111,4.788,1.662,6.424c15.744,15.504,31.119,31.402,47.009,46.752
		c1.739-1.816,2.347-4.291,2.972-6.638c2.21-8.831,4.994-17.5,7.204-26.314c2.467-6.047,2.981-12.626,5.199-18.733
		c1.747-5.054,2.535-10.373,4.266-15.418c2.107-6.167,3.512-12.532,5.242-18.793c1.465-4.266-2.253-7.906-5.259-10.356
		c-4.3-3.109-7.349-7.581-11.547-10.776C629.348,953.229,627.635,954.831,626.47,955.97 M390.912,1035.615
		c-17.414,17.757-35.351,35.017-52.594,52.928c18.219,18.622,36.747,37.038,55.223,55.437c1.919,2.373,4.728-0.257,6.279-1.79
		c5.028-6.647,12.138-11.315,17.251-17.894c4.6-4.523,9.671-8.617,13.705-13.697c4.3-4.266,9.071-8.086,12.917-12.797
		c2.655-3.392,6.741-5.422,8.848-9.285c-1.062-1.79-2.227-3.521-3.743-4.934c-17.757-17.448-35.085-35.351-52.953-52.671
		C394.013,1032.274,392.394,1033.884,390.912,1035.615 M551.151,1031.246c-15.05,15.264-30.297,30.331-45.424,45.518
		c-3.409,3.752-7.572,6.844-10.493,11.007c0.257,3.598,3.846,5.217,6.03,7.572c4.446,4.968,9.328,9.517,14.116,14.151
		c5.199,5.927,11.332,10.956,16.566,16.857c6.065,5.927,12.215,11.778,17.954,18.031c1.876,1.876,4.189-0.18,5.542-1.627
		c16.66-17.037,33.92-33.483,50.315-50.778c1.448-1.465,3.752-4.009,1.448-5.765c-16.198-16.343-32.558-32.541-48.79-48.859
		C556.196,1035.083,554.072,1032.616,551.151,1031.246 M472.492,1110.29c-0.685,0.463-1.319,0.985-1.91,1.568
		c-12.369,12.472-24.832,24.858-37.235,37.287c-5.071,5.208-10.536,10.039-15.35,15.487c-1.49,1.413-0.505,3.512,0.788,4.66
		c13.568,13.551,27.136,27.102,40.679,40.679c3.298,3.563,7.272,6.441,10.322,10.253c1.465,1.688,4.48,4.086,6.39,1.722
		c3.76-4.514,8.429-8.112,12.42-12.42c12.96-13.011,26.057-25.903,38.914-39.025c1.088-1.199,2.39-2.373,2.75-4.009
		c-0.428-1.619-1.568-2.895-2.664-4.086c-16.755-16.66-33.423-33.406-50.135-50.092
		C476.133,1111.233,474.257,1109.323,472.492,1110.29 M544.273,1194.115c-15.847,15.838-31.676,31.702-47.54,47.523
		c-1.636,1.276-2.176,3.7-0.394,5.14c17.054,17.191,34.271,34.246,51.343,51.429c1.542,1.319,3.923,3.812,5.97,2.099
		c6.878-5.876,8.78-15.119,10.784-23.496c5.688-19.093,10.553-38.426,16.104-57.562c0.925-2.441-0.788-4.677-2.407-6.304
		c-8.609-8.574-17.251-17.114-25.74-25.8C549.078,1188.684,546.817,1191.613,544.273,1194.115 M472.407,1266.084
		c-1.756,1.054-2.998,2.758-4.454,4.18c-16.352,16.746-33.107,33.124-49.561,49.775c-1.765,1.422-1.225,3.854,0.394,5.148
		c17.423,17.397,34.837,34.811,52.234,52.234c1.268,1.593,3.735,2.193,5.157,0.411c5.953-6.03,11.47-12.532,18.005-17.954
		c4.197-4.917,8.797-9.499,13.705-13.705c2.321-2.801,4.831-5.422,7.469-7.932c2.638-3.084,6.202-5.208,8.686-8.437
		c1.765-2.27,4.189-3.889,6.047-6.047c0.985-1.782-0.463-3.435-1.645-4.617c-17.046-16.926-33.98-33.963-50.983-50.932
		C476.081,1267.043,474.342,1265.373,472.407,1266.084 M539.356,1354.525c-13.911,14.896-28.849,28.824-43.026,43.471
		c-0.642,0.754-1.645,1.782-0.754,2.801c3.443,5.294,8.394,9.354,12.72,13.885c3.94,3.777,7.572,7.872,11.641,11.504
		c1.319,1.593,3.598,0.171,3.76-1.576c1.336-5.208,3.478-10.185,4.291-15.512c3.161-11.701,6.801-23.307,9.465-35.137
		c1.773-4.66,2.681-9.594,4.583-14.202c0.908-2.09,1.148-4.369,1.131-6.613C541.832,1353.36,540.316,1353.411,539.356,1354.525z"/>
	<path fill="#FDCB86" stroke="#FDCB86" d="M206.57,487.743c4.557-0.231,9.114-0.591,13.679-0.351c13.44,0.06,26.871,0.06,40.31,0
		c4.18-0.248,8.352,0.034,12.515,0.403c-1.756,3.512-4.891,5.936-7.632,8.626c-7.521,7.606-15.153,15.11-22.639,22.751
		c-1.088,0.839-2.09,2.227-3.563,2.261c-1.67-0.822-2.947-2.227-4.197-3.563c-4.454-5.251-9.945-9.474-14.425-14.699
		C216.103,497.859,210.073,493.867,206.57,487.743z"/>
	<path fill="#FDCB86" stroke="#FDCB86" d="M302.292,499.855c4.317-4.189,8.352-8.72,13.268-12.24
		c1.293,0.017,2.595,0.009,3.906,0.017c4.566,2.296,7.649,6.459,11.324,9.868c7.187,6.501,13.645,13.748,20.703,20.395
		c5.987,6.356,12.986,11.821,17.902,19.119c-31.736,0.257-63.481,0.034-95.217,0.12c-4.197,0.086-8.172,1.568-12.018,3.092
		c5.465-6.501,12.275-11.684,17.877-18.065C287.396,514.665,294.899,507.315,302.292,499.855z"/>
	<path fill="#FDCB86" stroke="#FDCB86" d="M154.379,492.394c4.18-1.996,8.96-1.987,13.157-3.906c1.49,4.189,4.865,7.118,8.043,10.03
		c13.748,13.945,27.727,27.667,41.484,41.612c0.6,0.882,2.116,2.047,1.131,3.195c-2.236,3.161-5.336,5.559-7.983,8.352
		c-13.697,13.722-27.419,27.41-41.115,41.124c-2.159,2.141-4.12,4.531-6.638,6.279c-0.917,0.925-1.936-0.308-2.664-0.805
		c-5.105-4.608-9.679-9.748-14.613-14.527c-2.099-2.013-3.949-4.266-5.499-6.724c8.026,0.274,16.069,0.086,24.095,0.128
		c3.675,0.154,6.981-1.696,9.242-4.488c3.186-3.195,6.561-6.561,7.718-11.067c2.381-7.829-1.105-17.328-8.352-21.354
		c-4.891-2.972-10.793-3.264-16.352-3.169c-15.444,0.214-30.897-0.154-46.332,0.188c-0.625-3.897,1.842-7.264,3.7-10.442
		c5.508-8.514,12.335-16.232,20.378-22.442C139.894,499.212,147.209,495.829,154.379,492.394z"/>
	<path fill="#FDCB86" stroke="#FDCB86" d="M787.985,493.747c7.084-1.867,12.215,4.326,16.318,9.063
		c8.274,8.557,16.832,16.849,25.2,25.32c4.257,4.343,9.242,8.403,11.598,14.176c0.942,2.261-1.191,4.069-2.544,5.576
		c-17.525,17.157-34.588,34.811-52.182,51.891c-3.118-1.319-5.611-3.623-7.855-6.09c-5.114-5.593-11.718-10.176-14.467-17.534
		c-0.257-10.219-0.034-20.446-0.111-30.665c-0.06-8.377-0.077-16.96,2.69-24.969C770.22,509.397,778.186,499.974,787.985,493.747z"
		/>
	<path fill="#FFBE86" stroke="#FFBE86" d="M571.127,525.389c5.645-3.084,12.643-3.306,18.605-0.968
		c-6.022,5.739-11.975,11.564-17.645,17.654c3.589,5.525,9.097,9.319,13.371,14.262c3.426,4,7.675,7.178,11.127,11.144
		c1.55,1.876,3.675,3.092,5.919,3.949c0.18,13.954,0.137,27.916,0.017,41.869c-2.69-1.987-4.917-4.48-7.118-6.972
		c-7.495-7.632-15.607-14.673-22.605-22.785c-3.383-3.204-6.741-6.45-10.476-9.251c-0.754,0.677-1.508,1.362-2.253,2.047
		c-0.077-7.152,0.163-14.305,0.026-21.449c-0.051-4.797-0.197-9.619,0.463-14.382C561.379,534.177,565.439,528.318,571.127,525.389z
		"/>
	<path fill="#FDCA86" stroke="#FDCA86" d="M572.086,542.075c5.671-6.09,11.624-11.915,17.645-17.654
		c7.726,3.084,12.823,11.084,12.84,19.333c0.12,9.225,0.051,18.451-0.069,27.676c-2.244-0.857-4.368-2.073-5.919-3.949
		c-3.452-3.966-7.701-7.144-11.127-11.144C581.183,551.394,575.675,547.6,572.086,542.075z"/>
	<path fill="#FFDCC9" stroke="#FFDCC9" d="M109.7,537.261c15.435-0.343,30.888,0.026,46.332-0.188
		c5.559-0.094,11.461,0.197,16.352,3.169c7.247,4.026,10.733,13.525,8.352,21.354c-1.156,4.506-4.531,7.872-7.718,11.067
		c-8.06,3.649-16.994,2.398-25.56,2.578c-11.144,0.026-22.288-0.06-33.432,0.009c-5.097,0.077-10.45-0.805-14.57-4.009
		c-9.731-6.827-9.225-23.042-0.051-30.117C102.496,539.086,106.137,538.1,109.7,537.261z"/>
	<path fill="#FFDCC9" stroke="#FFDCC9" d="M262.161,540.225c3.846-1.525,7.82-3.007,12.018-3.092
		c31.736-0.086,63.481,0.137,95.217-0.12c5.799,0.077,11.624,0.368,17.406-0.274c1.456,12.866,0.471,25.86,0.694,38.777
		c-32.318-0.171-64.654-0.077-96.973-0.043c-6.459-0.231-12.934,0.283-19.376-0.317c-8.326-0.488-15.769-7.332-16.952-15.598
		C252.55,552.14,256.773,544.987,262.161,540.225z"/>
	<path fill="#FDD194" stroke="#FDD194" d="M67.043,579.841c5.482-5.533,11.324-10.733,16.292-16.746
		c4.523,2.578,7.452,6.99,11.264,10.407c3.049,2.75,5.533,6.099,7.324,9.791c0.214,3.7,0.848,7.367,2.03,10.887
		c1.61,4.891,2.621,10.03,5.079,14.604c3.067,5.876,6.733,11.418,10.544,16.832c2.381,3.426,5.996,5.679,8.711,8.814
		c3.683,4.917,9.32,7.606,14.219,11.076c3.084,1.867,6.244,4.257,9.962,4.454c3.735-1.413,6.167-5.354,10.287-5.885
		c4.745,3.803,8.746,8.549,13.816,11.958c5.439,2.861,11.812,1.293,17.68,1.962c0.403,5.585-0.111,11.23,1.019,16.755
		c0.891,10.527-1.79,21.02-0.394,31.539c0.711,4.874,0.72,9.833-0.351,14.664c-0.934,2.561-2.159,5.122-4.291,6.921
		c-8.06,7.067-14.956,15.307-22.836,22.554c-1.927,1.696-3.495,4.257-6.107,4.891c-3.615-2.33-6.21-5.867-9.217-8.874
		c-3.58-4.129-7.846-7.572-11.658-11.469c-5.559-6.21-11.735-11.846-17.765-17.585c-0.565,0.985-1.131,1.97-1.653,2.989
		c-0.257-13.191-0.034-26.382-0.111-39.565c-0.094-7.555,0.266-15.127-0.497-22.648c-3.82-1.388-7.906-1.559-11.906-2.039
		c-14.665-1.825-29.577-5.816-41.741-14.502c-12.163-7.923-21.894-19.264-28.944-31.882c2.278-4.737,7.135-7.161,10.502-10.973
		C54.331,592.244,60.97,586.326,67.043,579.841z"/>
	<path fill="#FDCB86" stroke="#FDCB86" d="M239.265,563.815c3.837,0.797,5.91,4.66,8.634,7.152
		c13.517,13.32,26.802,26.879,40.327,40.19c2.51,2.921,5.645,5.276,7.949,8.377c1.036,1.182-0.497,2.356-1.156,3.255
		c-15.435,15.401-30.845,30.837-46.263,46.246c-2.904,2.818-5.328,6.27-8.9,8.309c-1.311,0.146-2.184-1.165-3.126-1.867
		c-12.078-12.189-24.25-24.275-36.37-36.421c-5.927-6.099-12.206-11.855-17.911-18.168c3.855-5.533,8.925-10.03,13.628-14.81
		c12.266-12.292,24.575-24.541,36.824-36.841C234.905,567.318,236.661,564.945,239.265,563.815z"/>
	<path fill="#FDCB86" stroke="#FDCB86" d="M560.068,576.338c0.745-0.685,1.499-1.371,2.253-2.047
		c3.735,2.801,7.092,6.047,10.476,9.251c6.998,8.112,15.11,15.153,22.605,22.785c2.201,2.493,4.428,4.985,7.118,6.972
		c0.12,4.754,0.103,9.508,0,14.262c-5.242,3.992-9.208,9.311-14.048,13.739c-4.9,4.523-9.277,9.559-14.142,14.116
		c-5.045,4.668-9.474,9.945-14.63,14.493c-2.63,2.261-4.36,5.422-7.152,7.495c-4.66-1.379-7.512-5.636-10.519-9.14
		c-2.039-2.544-4.728-4.411-7.041-6.664c-2.87-2.493,1.036-5.808,2.253-8.215c9.756-11.315,17.388-24.669,20.558-39.368
		C560.933,601.692,559.846,588.912,560.068,576.338z"/>
	<path fill="#FDCB86" stroke="#FDCB86" d="M294.805,577.391c3.092-0.617,6.236-1.019,9.397-1.002
		c9.722,0.017,19.436,0.094,29.158-0.043c2.535-0.068,5.045,0.343,7.512,0.882c-7.966,7.152-15.059,15.213-22.956,22.425
		C309.367,593.161,302.626,584.681,294.805,577.391z"/>
	<path fill="#FDCB86" stroke="#FDCB86" d="M381.387,577.075c1.293-0.608,3.435-0.651,4.103,0.891
		c2.604,8.891-1.019,18.151,1.225,27.085c0.942,8.814,4.043,17.183,7.221,25.397c0.754,2.236,2.21,4.103,3.82,5.799
		c4.977,7.272,9.722,14.81,16.446,20.652c-0.505,1.936-1.114,3.94-2.655,5.328c-4.334,4.223-8.617,8.514-12.849,12.84
		c-1.096,0.797-2.09,2.33-3.563,2.236c-3.349-1.962-5.688-5.199-8.386-7.915c-4.42-5.011-9.731-9.122-14.125-14.142
		c-3.88-4.411-8.523-8.043-12.48-12.369c-6.176-6.955-13.611-12.712-19.418-20.01c-0.608-0.968-1.747-2.124-1.019-3.332
		c1.979-3.837,5.465-6.553,8.403-9.602C359.176,598.951,370.046,587.747,381.387,577.075z"/>
	<path fill="#FDCB86" stroke="#FDCB86" d="M101.811,581.434c3.555,2.484,6.399,5.773,9.465,8.797
		c7.418,7.426,14.844,14.844,22.262,22.271c2.278,2.313,4.848,4.386,6.716,7.067c0.899,0.899-0.248,1.97-0.754,2.732
		c-3.572,4.197-8.215,7.426-11.213,12.129c-2.715-3.135-6.33-5.388-8.711-8.814c-3.812-5.414-7.478-10.956-10.544-16.832
		c-2.458-4.574-3.469-9.713-5.079-14.604c-1.182-3.521-1.816-7.187-2.03-10.887C101.897,582.831,101.837,581.906,101.811,581.434z"
		/>
	<path fill="#FDCB86" stroke="#FDCB86" d="M832.535,593.255c4.514-3.658,7.829-8.514,12.335-12.18
		c2.047,4.428-0.428,9.114-1.559,13.44c-2.681,13.894-10.63,26.228-20.172,36.447c-1.336,1.079-3.169,3.298-4.985,1.902
		c-3.118-2.261-5.593-5.268-8.334-7.94c-1.199-1.439-2.878-2.818-3.178-4.728c1.122-2.347,3.067-4.163,4.857-5.996
		C818.573,607.277,825.451,600.159,832.535,593.255z"/>
	<path fill="#FDCB86" stroke="#FDCB86" d="M316.596,641.746c1.285-0.839,2.878,0.574,3.906,1.362
		c6.998,7.555,14.305,14.827,21.697,21.997c5.456,5.962,11.555,11.29,17.054,17.2c3.546,3.598,7.084,7.204,10.913,10.502
		c1.773,1.662,3.872,3.375,4.317,5.91c-0.548,0.891-1.233,1.696-1.936,2.467c-16.035,15.941-31.984,31.967-47.985,47.942
		c-2.047,1.962-3.829,4.232-6.167,5.867c-1.216,1.002-2.364-0.48-3.272-1.148c-13.114-13.148-26.254-26.28-39.385-39.411
		c-4.223-4.06-8.052-8.514-12.463-12.386c-1.49-1.413-4.06-3.726-1.653-5.576c16.643-16.763,33.423-33.398,50.084-50.144
		C313.273,644.744,314.755,643.031,316.596,641.746z"/>
	<path fill="#FDCB86" stroke="#FDCB86" d="M592.387,677.765c3.067-2.887,5.688-6.681,10.116-7.495
		c0.18,19.024,0.163,38.049,0,57.065c-2.407-0.994-4.703-2.33-6.458-4.283c-7.855-8.223-16.206-15.966-23.967-24.284
		c1.422-2.039,2.989-4,4.925-5.576C582.528,688.455,587.222,682.87,592.387,677.765z"/>
	<path fill="#FDCB86" stroke="#FDCB86" d="M195.271,674.749c4.052,3.127,7.426,6.998,11.084,10.562
		c4.154,4.249,8.54,8.266,12.489,12.712c-1.319,2.364-2.852,4.643-4.968,6.364c-6.99,5.876-12.891,12.883-19.341,19.316
		c0-0.694-0.009-2.064-0.009-2.75c1.071-4.831,1.062-9.791,0.351-14.664C193.481,695.77,196.162,685.277,195.271,674.749z"/>
	<path fill="#FDCB86" stroke="#FDCB86" d="M433.518,680.763c2.398-2.929,5.491-5.748,9.585-5.362
		c19.615,7.384,41.844,7.426,61.425-0.069c2.356,0.154,4.78,0.788,6.381,2.655c5.645,5.765,11.358,11.478,17.123,17.131
		c0.848,1.079,2.236,2.081,2.287,3.563c-3.846,5.234-8.831,9.499-13.414,14.073c-13.405,13.722-27.213,27.042-40.61,40.773
		c-0.925,0.788-1.893,1.782-3.204,1.79c-2.347-1.31-4.077-3.426-5.859-5.379c-3.7-4.3-8.249-7.743-11.966-12.018
		c-4.257-4.882-9.422-8.865-13.714-13.705c-4.677-5.311-10.322-9.671-14.93-15.05c-2.878-3.401-6.716-5.885-9.354-9.482
		c-1.276-1.576,0.48-3.358,1.499-4.523C423.685,690.373,428.816,685.773,433.518,680.763z"/>
	<path fill="#FDB786" stroke="#FDB786" d="M764.232,714.82c1.131,3.992,0.985,8.137,0.78,12.24c0.034,2.972-0.463,6.339,1.448,8.883
		c3.058,4.3,7.341,7.521,10.57,11.701c2.381,3.101,5.414,5.585,8.643,7.76c1.927-1.782,3.923-3.486,5.842-5.285
		c6.244-5.465,11.221-12.198,17.654-17.474c5.234-5.722,10.699-11.221,16.789-16.044c0.086,14.904,0.009,29.817,0.034,44.73
		c-0.197,9.431,0.591,18.939-0.917,28.301c-1.773,8.146-3.743,16.326-6.938,24.044c-4.12,8.497-9.337,16.558-16.061,23.239
		c-4.625,4.531-8.985,9.448-14.45,13.02c-7.007,4.694-14.356,9.122-22.579,11.307c-5.028,1.936-11.29,2.458-14.605,7.229
		c-2.57,3.812-3.452,8.394-4.608,12.763c-1.67,6.664-3.692,13.234-5.328,19.907c-0.488,1.593-0.745,3.332-1.773,4.711
		c-3.735-3.135-6.793-6.93-10.005-10.562c-5.139-4.857-10.125-9.868-14.913-15.05c-1.807-2.047-4.137-3.495-6.262-5.148
		c-3.383,1.97-5.782,5.105-8.206,8.095c-3.135,4.043-7.983,6.296-10.973,10.484c-3.538,4.728-8.728,7.803-12.463,12.343
		c-2.45,2.81-5.336,5.208-7.572,8.206c-1.131,1.079-2.347,2.073-3.555,3.049c0.034-2.775,0.317-5.559,1.233-8.189
		c2.107-6.15,3.144-12.609,5.345-18.733c2.587-7.247,3.906-14.862,6.133-22.219c0.394-2.227,2.844-2.51,4.66-2.87
		c14.339-2.056,27.693-8.711,38.991-17.62c6.133-4.386,10.921-10.27,15.667-16.052c2.638-3.272,4.052-7.289,6.27-10.827
		c1.293-2.338,3.332-4.72,2.655-7.589c-6.142,5.636-11.958,12.566-20.241,14.947c5.105-4.052,10.562-7.701,15.024-12.497
		c11.024-10.81,18.639-24.935,21.646-40.079c2.51-10.844,1.645-22.031,1.799-33.055C764.052,733.262,763.581,724.028,764.232,714.82
		z"/>
	<path fill="#FDCA93" stroke="#FDCA93" d="M120.998,720.379c0.523-1.019,1.088-2.004,1.653-2.989
		c6.03,5.739,12.206,11.375,17.765,17.585c3.812,3.897,8.077,7.341,11.658,11.469c3.007,3.007,5.602,6.544,9.217,8.874
		c2.613-0.634,4.18-3.195,6.107-4.891c7.88-7.247,14.776-15.487,22.836-22.554c2.133-1.799,3.358-4.36,4.291-6.921
		c0,0.685,0.009,2.056,0.009,2.75c0.12,12.917-0.12,25.843,0.128,38.768c-0.128,9.825-0.308,19.675,0.377,29.492
		c0.617,3.495,1.473,6.947,2.21,10.424c7.092,29.569,31.53,54.093,61.005,61.468c3.435,0.968,7.05,1.208,10.424,2.398
		c1.456,2.236,1.696,5.02,2.998,7.349c1.37,1.979,3.289,3.495,5.011,5.174c-3.383-1.739-7.152-3.212-11.024-2.741
		c-4.703,0.66-8.968,3.623-11.264,7.786c-0.985,0.685-2.004,1.388-3.186,1.687c-4.283-2.895-7.255-7.272-11.272-10.493
		c-3.726,2.253-6.262,5.859-9.371,8.823c-3.281,3.281-6.638,6.476-9.816,9.859c-4.274,4.574-9.328,8.497-12.386,14.082
		c-3.032-11.435-6.184-22.836-9.525-34.177c5.225-2.921,8.763-7.846,13.08-11.838c2.27-2.313,4.908-4.36,6.578-7.187
		c-0.317-2.219-2.561-3.658-3.966-5.285c-7.392-6.878-14.151-14.408-21.594-21.226c-3.049-2.955-5.765-6.227-8.84-9.148
		c-7.555-7.135-14.519-14.862-22.194-21.877c-2.004,1.439-3.974,2.947-5.593,4.823c-3.64,4.069-7.923,7.495-11.624,11.521
		c-3.743,4.154-8.052,7.803-11.367,12.343c-3.426-4.745-5.191-10.373-7.118-15.829c-2.467-7.101-4.077-14.493-4.788-21.963
		c-0.857-9.131-0.428-18.305-0.531-27.462C120.964,747.113,120.724,733.733,120.998,720.379z"/>
	<path fill="#FDCB86" stroke="#FDCB86" d="M238.194,720.096c1.413-1.67,3.024,0.197,4.154,1.174
		c15.667,15.744,31.402,31.411,47.094,47.129c2.398,2.476,5.208,4.634,7.041,7.615c-0.094,1.465-1.43,2.476-2.296,3.563
		c-13.791,13.611-27.41,27.402-41.158,41.064c-4.454,4.206-8.137,9.2-13.131,12.831c-5.636-3.726-9.611-9.311-14.502-13.876
		c-9.097-8.891-17.954-18.031-27.145-26.819c-0.839-0.959-2.047-1.054-3.212-0.814c-0.685-9.816-0.505-19.667-0.377-29.492
		c1.542-1.071,3.075-2.159,4.437-3.452C212.052,745.965,225.012,732.911,238.194,720.096z"/>
	<path fill="#FDCB86" stroke="#FDCB86" d="M394.579,719.719c2.193-1.062,3.82,2.073,5.396,3.246
		c17.089,17.174,34.323,34.211,51.334,51.454c2.613,2.081-0.6,4.428-2.081,6.013c-4.403,3.88-7.915,8.634-12.42,12.412
		c-11.47,11.658-23.085,23.162-34.665,34.708c-2.116,2.133-3.82,5.234-7.05,5.748c-15.615-14.622-30.434-30.169-45.69-45.201
		c-3.409-3.692-7.572-6.784-10.227-11.101c-1.054-1.525,1.036-2.655,1.807-3.743c4.668-4.471,8.865-9.439,13.808-13.619
		c4.506-4.626,8.78-9.508,13.705-13.705c4.506-4.625,8.78-9.517,13.705-13.697c1.85-1.876,3.469-3.975,5.576-5.576
		C390.398,724.696,391.983,721.689,394.579,719.719z"/>
	<path fill="#FDCB86" stroke="#FDCB86" d="M544.273,726.426c2.476-2.398,4.634-5.208,7.598-7.024
		c2.296,0.634,3.572,3.238,5.328,4.797c14.27,14.579,28.781,28.918,43.214,43.334c1.893,2.133,2.587,5.002,3.623,7.598l0.197,0.737
		c-0.06,2.416,0.12,5.216-1.756,7.067c-4.566,5.122-9.182,10.236-14.339,14.784c-4.506,4.052-8.266,8.84-12.789,12.866
		c-5.474,4.823-9.953,10.647-15.53,15.358c-2.827,2.236-4.377,6.219-8.06,7.221c-3.101-1.096-4.968-4.129-7.409-6.176
		c-5.002-4.429-9.131-9.722-14.142-14.133c-4.848-4.291-8.831-9.439-13.705-13.697c-5.328-4.677-9.559-10.442-14.99-14.999
		c-2.69-2.219-5.002-4.823-7.307-7.418c1.114-1.225,2.227-2.45,3.366-3.649C513.171,757.571,528.701,741.982,544.273,726.426z"/>
	<path fill="#FDD194" stroke="#FDD194" d="M156.315,801.865c1.619-1.876,3.589-3.383,5.593-4.823
		c7.675,7.015,14.639,14.742,22.194,21.877c3.075,2.921,5.79,6.193,8.84,9.148c7.444,6.818,14.202,14.348,21.594,21.226
		c1.405,1.628,3.649,3.067,3.966,5.285c-1.67,2.827-4.309,4.874-6.578,7.187c-4.317,3.992-7.855,8.917-13.08,11.838
		c-1.148-3.092-2.638-6.441-5.671-8.086c-3.255-1.542-6.895-1.747-10.365-2.484c-16.352-5.114-31.479-14.51-42.649-27.582
		c-2.844-2.818-4.737-6.364-6.835-9.722c3.315-4.54,7.623-8.189,11.367-12.343C148.391,809.36,152.674,805.933,156.315,801.865z"/>
	<path fill="#FDCB86" stroke="#FDCB86" d="M316.254,798.181c1.542-1.448,3.272,0.514,4.454,1.473
		c17.286,17.26,34.511,34.588,51.84,51.805c0.711,0.745,1.388,1.55,1.919,2.467c-0.6,3.418-3.94,5.165-6.193,7.435
		c-13.285,13.56-26.819,26.854-40.233,40.293c-3.383,2.904-6.09,6.544-9.654,9.234c-0.917,0.917-2.073-0.137-2.707-0.814
		c-3.118-3.186-6.056-6.544-9.397-9.499c-7.495-7.349-14.639-15.041-22.442-22.074c-4.026-4.548-8.617-8.523-12.806-12.891
		c-3.366-4.129-7.829-7.272-10.604-11.881c7.152-5.653,12.669-13.003,19.281-19.247c2.835-3.461,6.63-5.953,9.457-9.422
		c3.615-3.529,6.878-7.409,10.801-10.604C305.255,808.897,310.54,803.312,316.254,798.181z"/>
	<path fill="#FDCB86" stroke="#FDCB86" d="M467.61,803.09c1.962-2.099,4.052-4.069,6.21-5.962
		c15.504,14.81,30.331,30.323,45.69,45.296c3.529,3.915,7.88,7.118,10.853,11.521c-0.231,3.615-4.086,4.985-5.979,7.615
		c-2.107,3.041-5.525,4.737-7.812,7.598c-2.176,2.681-4.977,4.78-7.101,7.521c-1.645,2.064-4.06,3.298-5.799,5.276
		c-2.852,3.418-6.27,6.313-9.131,9.722c-4.12,2.989-7.135,7.109-10.853,10.544c-2.75,3.623-6.587,6.099-9.885,9.157
		c-4.403-2.33-7.298-6.493-10.81-9.876c-13.885-13.525-27.453-27.367-41.227-41.004c-1.765-1.953-3.94-3.897-4.488-6.57
		c1.49-2.467,3.812-4.257,5.79-6.296C437.913,832.787,452.765,817.934,467.61,803.09z"/>
	<path fill="#FDCB86" stroke="#FDCB86" d="M610.657,815.938c2.818-2.715,5.234-6.459,9.474-6.887
		c8.574,10.853,19.967,19.281,32.712,24.592c5.242,2.047,10.647,3.632,16.138,4.848c7.469,3.64,12.6,10.442,18.331,16.232
		c-3.632,3.846-7.469,7.495-11.135,11.315c-4.908,5.088-10.579,9.397-15.196,14.784c-3.957,4.617-9.028,8.103-12.934,12.771
		c-4.163,4.959-9.585,8.686-13.628,13.757c-1.345,1.473-2.613,3.349-4.703,3.76c-3.863-1.456-6.313-5.054-9.157-7.846
		c-4.78-5.499-10.57-10.005-15.358-15.478c-3.906-4.386-8.574-7.992-12.472-12.369c-6.536-7.324-14.587-13.26-20.241-21.354
		C585.243,841.387,597.937,828.641,610.657,815.938z"/>
	<path fill="#FDD194" stroke="#FDD194" d="M230.571,883.839c3.109-2.964,5.645-6.57,9.371-8.823
		c4.017,3.221,6.99,7.598,11.272,10.493c1.182-0.3,2.201-1.002,3.186-1.687c-3.101,7.272,0.274,14.862,2.201,21.937
		c5.045,17.954,10.262,35.865,15.221,53.844c-1.996,0.908-4.146,1.816-5.473,3.675c-4.334,5.885-10.022,10.544-15.016,15.855
		c-3.949,3.563-7.418,7.778-12.129,10.399c-3.443-3.161-6.459-6.904-10.656-9.105c-3.306-10.056-5.816-20.344-8.566-30.563
		c-4.052-13.979-7.581-28.104-11.615-42.083c3.058-5.585,8.112-9.508,12.386-14.082C223.932,890.314,227.29,887.119,230.571,883.839
		z"/>
	<path fill="#FDCB86" stroke="#FDCB86" d="M543.862,882.768c2.57-2.638,4.668-5.808,7.949-7.649
		c7.444,6.57,13.962,14.082,21.226,20.832c10.467,10.664,21.08,21.183,31.685,31.71c1.276,1.764,4.771,3.589,2.955,6.047
		c-4.865,5.696-10.853,10.322-15.632,16.095c-4.137,4.428-9.114,8.035-12.883,12.814c-3.195,3.366-6.604,6.536-10.065,9.636
		c-4.848,5.131-9.397,10.604-14.622,15.358c-1.533,1.679-3.906,1.782-5.405-0.009c-17.748-17.654-35.685-35.197-53.03-53.219
		c-1.43-1.859-0.48-4.386,1.199-5.705c5.885-4.651,10.81-10.339,16.198-15.521C523.587,903.034,533.686,892.858,543.862,882.768z"/>
	<path fill="#FCBD87" stroke="#FCBD87" d="M699.347,883.188c2.424-2.989,4.822-6.125,8.206-8.095
		c2.124,1.653,4.454,3.101,6.262,5.148c4.788,5.182,9.773,10.193,14.913,15.05c3.212,3.632,6.27,7.427,10.005,10.562l0.48,0.437
		c-2.433,7.718-4.891,15.444-6.707,23.342c-2.278,10.33-5.765,20.344-8.292,30.622c-2.219,7.041-4.274,14.142-5.996,21.329
		l-0.728,0.043c-3.101-0.762-4.017,2.381-5.311,4.446c-1.011,2.03-3.289,2.775-5.139,3.82
		c-12.377-12.489-24.866-24.875-37.269-37.338c-3.872-3.64-7.367-7.692-11.598-10.93c-0.625,1.302-1.311,2.587-1.987,3.88
		c0.043-1.533-0.034-3.049-0.146-4.557c2.201-1.662,3.598-4.103,4.634-6.604c1.636-3.726,0.754-8.069,2.741-11.684
		c0.831-2.51,3.649-3.186,5.208-5.062c0.334-1.122-0.171-2.279-0.283-3.375c2.236-2.998,5.122-5.396,7.572-8.206
		c3.735-4.54,8.925-7.615,12.463-12.343C691.364,889.483,696.212,887.231,699.347,883.188z"/>
	<path fill="#FFDCC9" stroke="#FFDCC9" d="M254.401,883.821c2.296-4.163,6.561-7.127,11.264-7.786
		c3.872-0.471,7.641,1.002,11.024,2.741c3.272,2.835,5.131,6.887,6.167,11.024c4.78,17.354,9.936,34.597,14.819,51.925
		c1.739,7.289,4.566,14.305,5.885,21.706c0.017,2.852-0.231,5.765-1.191,8.489c-1.679,2.004-3.529,3.897-5.602,5.508
		c-2.561,2.073-6.022,2.193-9.174,2.373c-4.703-0.822-9.405-3.349-11.572-7.778c-1.842-3.974-2.87-8.266-4.197-12.42
		c-4.96-17.979-10.176-35.89-15.221-53.844C254.675,898.683,251.3,891.094,254.401,883.821z"/>
	<path fill="#FDCB86" stroke="#FDCB86" d="M393.525,877.209c1.43-1.782,3.863-1.225,5.148,0.403
		c15.247,15.29,30.545,30.545,45.809,45.835c2.835,2.912,6.133,5.491,8.043,9.165c-3.135,5.371-8.66,8.583-12.386,13.465
		c-4.343,3.341-7.778,7.615-11.684,11.427c-2.124,3.024-5.516,4.728-7.812,7.581c-2.184,2.681-4.977,4.797-7.101,7.529
		c-1.79,2.21-4.428,3.503-6.21,5.722c-2.544,3.161-5.842,5.628-8.257,8.908c-1.079,1.567-3.461,2.818-5.062,1.216
		c-7.229-6.459-13.354-14.039-20.489-20.601c-11.153-11.144-22.125-22.459-33.535-33.338c-0.771-0.934-1.765-2.458-0.523-3.452
		C357.635,913.287,375.451,895.102,393.525,877.209z"/>
	<path fill="#FDB786" stroke="#FDB786" d="M656.184,945.503c0.677-1.293,1.362-2.578,1.987-3.88
		c4.231,3.238,7.726,7.289,11.598,10.93c12.403,12.463,24.892,24.849,37.269,37.338c1.85-1.045,4.129-1.79,5.139-3.82
		c1.293-2.064,2.21-5.208,5.311-4.446c0.403,3.443-1.542,6.621-2.21,9.936c-3.315,12.857-7.332,25.517-10.416,38.426
		c-1.713,8.146-4.608,15.967-6.561,24.052c-7.812,27.445-15.255,55.001-23.187,82.419c-1.499,4.429-2.184,9.131-4.077,13.422
		c-4-4.24-8-8.48-12.386-12.335c-7.058-6.93-14.005-13.971-21.012-20.952c-2.347-2.27-4.36-4.985-7.247-6.579
		c-1.825-0.471-3.109,1.251-4.36,2.261c-5.662,5.756-11.384,11.452-17.063,17.2c-1.148,1.268-2.698,2.013-4.377,2.261
		c6.296-22.005,12.189-44.148,18.451-66.17c0.163-1.019,1.054-2.133,2.201-1.705c1.824,0.985,3.323,2.51,5.259,3.307
		c4.163-3.264,6.793-8.103,11.033-11.341c5.662-4.326,9.474-10.51,15.076-14.896c4.754-3.812,8.026-9.105,12.789-12.917
		c3.195-2.518,5.85-5.585,8.514-8.626c2.767-3.169,7.332-5.148,8.334-9.559c-1.636-2.364-3.889-4.189-5.945-6.15
		c-6.561-6.287-12.771-12.926-19.324-19.221c-3.675-3.735-8.026-6.973-10.656-11.589c-1.73-2.732-0.197-5.962,0.591-8.728
		C653.143,958.069,654.377,951.705,656.184,945.503z"/>
	<path fill="#FDCB86" stroke="#FDCB86" d="M305.221,965.299c4.48-3.837,8.009-8.634,12.703-12.232
		c3.529,2.775,6.527,6.116,9.636,9.345c11.992,11.992,23.984,23.975,35.976,35.976c3.289,3.555,7.221,6.553,10.048,10.519
		c1.756,2.021-0.428,4.326-1.996,5.636c-5.885,4.668-10.33,10.818-15.975,15.752c-5.336,4.66-9.585,10.433-15.101,14.904
		c-3.478,2.775-6.047,6.476-9.362,9.439c-1.482,1.165-2.21,2.904-2.304,4.78c-1.328-3.735-4.411-6.356-7.546-8.566
		c-3.461-6.647-4.985-14.048-7.161-21.157c-1.679-5.362-2.039-11.058-4.12-16.292c-1.55-3.915-2.184-8.095-3.443-12.095
		c-2.201-6.407-3.383-13.088-5.225-19.59c-1.011-3.298-0.077-6.673,1.019-9.799c0.959-2.724,1.208-5.636,1.191-8.489
		C304.107,964.039,304.664,964.656,305.221,965.299z"/>
	<path fill="#FDCB86" stroke="#FDCB86" d="M464.184,962.412c3.212-3.135,6.202-6.484,9.636-9.379
		c18.331,17.688,36.036,36.036,54.212,53.887c1.456,1.353,3.478,3.606,1.61,5.516c-5.216,5.91-11.607,10.673-17.029,16.386
		c-3.923,4.9-8.874,8.848-13.311,13.251c-5.002,6.399-11.829,11.033-16.9,17.363c-2.955,2.698-5.276,6.681-9.362,7.692
		c-5.876-4.651-10.399-10.818-16.001-15.795c-10.724-10.69-21.337-21.474-32.139-32.096c-2.861-2.775-6.818-5.251-7.641-9.414
		c3.246-4.428,7.675-7.829,11.375-11.864C440.482,986.105,452.337,974.258,464.184,962.412z"/>
	<path fill="#FDCB86" stroke="#FDCB86" d="M626.47,955.97c1.165-1.139,2.878-2.741,4.565-1.568
		c4.197,3.195,7.247,7.666,11.547,10.776c3.007,2.45,6.724,6.09,5.259,10.356c-1.73,6.262-3.135,12.626-5.242,18.793
		c-1.73,5.045-2.518,10.365-4.266,15.418c-2.219,6.107-2.732,12.686-5.199,18.733c-2.21,8.814-4.994,17.483-7.204,26.314
		c-0.625,2.347-1.233,4.823-2.972,6.638c-15.889-15.35-31.265-31.248-47.009-46.752c-1.55-1.636-4.103-4.454-1.662-6.424
		C591.616,990.773,609.141,973.462,626.47,955.97z"/>
	<path fill="#FDCA93" stroke="#FDCA93" d="M266.35,963.277c1.328-1.859,3.478-2.767,5.473-3.675
		c1.328,4.154,2.356,8.446,4.197,12.42c2.167,4.429,6.87,6.955,11.572,7.778c-0.043,1.944-0.651,3.846-2.073,5.234
		c-5.157,5.688-10.93,10.776-16.258,16.309c-2.63,2.801-5.919,5.105-7.812,8.532c0.257,2.767,2.621,4.634,4.394,6.544
		c12.335,11.992,24.181,24.472,36.67,36.302c-0.668,2.253-1.251,4.54-1.713,6.861c-1.105,5.354,0.488,10.776,1.85,15.941
		c3.897,12.198,6.81,24.695,10.647,36.918c-2.767,4.497-7.349,7.332-10.75,11.29c-5.088,4.608-9.225,10.159-14.485,14.596
		c-4.428,3.777-7.975,8.497-12.712,11.941c-5.319-19.222-10.527-38.486-16.009-57.673c-4.48-15.358-7.983-30.991-12.737-46.272
		c-6.219-21.911-12.189-43.891-18.057-65.896c4.197,2.201,7.212,5.945,10.656,9.105c4.711-2.621,8.18-6.835,12.129-10.399
		C256.328,973.821,262.016,969.162,266.35,963.277z"/>
	<path fill="#FDD194" stroke="#FDD194" d="M296.767,977.428c2.073-1.61,3.923-3.503,5.602-5.508
		c-1.096,3.127-2.03,6.501-1.019,9.799c1.842,6.501,3.024,13.183,5.225,19.59c1.259,4,1.893,8.18,3.443,12.095
		c2.081,5.234,2.441,10.93,4.12,16.292c2.176,7.109,3.7,14.51,7.161,21.157c-3.443-1.182-7.247-1.782-10.759-0.548
		c-4.566,1.259-7.641,5.259-9.739,9.277c0.463-2.321,1.045-4.608,1.713-6.861c-12.489-11.829-24.335-24.31-36.67-36.302
		c-1.773-1.91-4.137-3.778-4.394-6.544c1.893-3.426,5.182-5.731,7.812-8.532c5.328-5.533,11.101-10.621,16.258-16.309
		c1.422-1.388,2.03-3.289,2.073-5.234C290.745,979.62,294.205,979.5,296.767,977.428z"/>
	<path fill="#FDCB86" stroke="#FDCB86" d="M390.912,1035.615c1.482-1.73,3.101-3.341,4.934-4.703
		c17.868,17.32,35.197,35.222,52.953,52.671c1.516,1.413,2.681,3.144,3.743,4.934c-2.107,3.863-6.193,5.893-8.848,9.285
		c-3.846,4.711-8.617,8.531-12.917,12.797c-4.034,5.08-9.105,9.174-13.705,13.697c-5.114,6.578-12.223,11.247-17.251,17.894
		c-1.55,1.533-4.36,4.163-6.279,1.79c-18.476-18.399-37.004-36.815-55.223-55.437
		C355.562,1070.631,373.498,1053.371,390.912,1035.615z"/>
	<path fill="#FDCB86" stroke="#FDCB86" d="M551.151,1031.246c2.921,1.37,5.045,3.837,7.264,6.107
		c16.232,16.318,32.593,32.516,48.79,48.859c2.304,1.756,0,4.3-1.448,5.765c-16.395,17.294-33.655,33.74-50.315,50.778
		c-1.353,1.448-3.666,3.503-5.542,1.627c-5.739-6.253-11.889-12.103-17.954-18.031c-5.234-5.902-11.367-10.93-16.566-16.857
		c-4.788-4.634-9.671-9.182-14.116-14.151c-2.184-2.355-5.773-3.974-6.03-7.572c2.921-4.163,7.084-7.255,10.493-11.007
		C520.854,1061.577,536.101,1046.51,551.151,1031.246z"/>
	<path fill="#FFDCC9" stroke="#FFDCC9" d="M310.54,1050.305c3.512-1.233,7.315-0.634,10.759,0.548
		c3.135,2.21,6.219,4.831,7.546,8.566c14.476,50.058,28.652,100.202,43.171,150.243c8.634,30.554,17.508,61.039,26.237,91.568
		c5.405,19.907,11.675,39.574,16.832,59.557c-0.343,2.938-0.951,5.868-1.953,8.668c-3.212,2.981-6.716,6.339-11.315,6.716
		c-5.182,0.702-10.544-1.696-13.474-5.996c-3.315-4.788-4.017-10.741-5.79-16.155c-2.296-8.531-4.874-16.986-7.375-25.449
		c-1.225-4.437-2.364-8.883-3.786-13.251c-9.448-34.366-19.89-68.44-29.312-102.806c-0.805-2.741-1.73-5.431-2.527-8.155
		c-1.876-8.035-4.917-15.735-6.613-23.813c-6.853-22.614-13.011-45.433-19.641-68.106c-3.837-12.223-6.75-24.721-10.647-36.918
		c-1.362-5.165-2.955-10.587-1.85-15.941C302.9,1055.564,305.975,1051.564,310.54,1050.305z"/>
	<path fill="#FDCB86" stroke="#FDCB86" d="M472.492,1110.29c1.765-0.968,3.64,0.942,4.968,2.021
		c16.712,16.686,33.381,33.432,50.135,50.092c1.096,1.191,2.236,2.467,2.664,4.086c-0.36,1.636-1.662,2.81-2.75,4.009
		c-12.857,13.123-25.954,26.014-38.914,39.025c-3.992,4.309-8.66,7.906-12.42,12.42c-1.91,2.364-4.925-0.034-6.39-1.722
		c-3.049-3.812-7.024-6.69-10.322-10.253c-13.542-13.577-27.111-27.128-40.679-40.679c-1.293-1.148-2.279-3.246-0.788-4.66
		c4.814-5.448,10.279-10.279,15.35-15.487c12.403-12.429,24.866-24.815,37.235-37.287
		C471.173,1111.276,471.807,1110.753,472.492,1110.29z"/>
	<path fill="#FCBD87" stroke="#FCBD87" d="M626.033,1112.278c1.251-1.011,2.535-2.732,4.36-2.261c2.887,1.593,4.9,4.309,7.247,6.579
		c7.007,6.981,13.954,14.022,21.012,20.952c4.386,3.855,8.386,8.095,12.386,12.335l0.463,0.445
		c-3.709,11.264-5.919,22.99-9.354,34.357c-1.302,3.923-1.944,8.12-3.692,11.872c-6.373,4.514-11.307,10.656-16.96,15.975
		c-3.589,3.281-6.57,7.238-10.519,10.116c-1.422,1.079-2.989-0.214-4.052-1.131c-12.266-12.069-24.172-24.524-36.636-36.396
		c0.266-0.797,0.505-1.585,0.737-2.373c0.822-6.604,3.64-12.694,4.985-19.161c0.942-4.54,2.63-8.874,3.666-13.38
		c0.557-2.39,1.191-4.814,2.698-6.801c2.69-3.341,0.719-7.906,2.219-11.667c1.679-0.248,3.229-0.994,4.377-2.261
		C614.649,1123.73,620.371,1118.034,626.033,1112.278z"/>
	<path fill="#FDD194" stroke="#FDD194" d="M313.298,1112.44c6.63,22.673,12.789,45.493,19.641,68.106
		c1.696,8.077,4.737,15.778,6.613,23.813c-9.294,3.589-13.448,13.739-21.68,18.87c-5.525-3.538-9.551-8.823-14.271-13.294
		c-4.891-4.677-8.925-10.553-15.127-13.62l-0.582-0.317c-3.975-15.29-8.412-30.477-12.54-45.732
		c4.737-3.443,8.283-8.163,12.712-11.941c5.259-4.437,9.397-9.988,14.485-14.596C305.949,1119.773,310.532,1116.938,313.298,1112.44
		z"/>
	<path fill="#FDCB86" stroke="#FDCB86" d="M591.744,1146.498c3.495-3.058,6.159-7.084,10.305-9.354
		c0.051,2.082,0.137,4.172,0.326,6.262c-1.508,1.987-2.141,4.411-2.698,6.801c-1.036,4.506-2.724,8.84-3.666,13.38
		c-1.345,6.467-4.163,12.557-4.985,19.161c-0.445,0.206-1.336,0.608-1.782,0.805c-5.97-5.431-11.624-11.221-17.157-17.097
		c1.953-2.664,4.257-5.02,6.707-7.204C583.076,1154.961,587.222,1150.532,591.744,1146.498z"/>
	<path fill="#FDB786" stroke="#FDB786" d="M590.288,1185.12c12.463,11.872,24.37,24.327,36.636,36.396
		c1.062,0.917,2.63,2.21,4.052,1.131c3.949-2.878,6.93-6.835,10.519-10.116c5.653-5.319,10.587-11.461,16.96-15.975
		c-4.497,19.727-10.681,39.017-15.727,58.615c-5.379,18.245-9.765,36.764-15.127,55.018c-3.949,15.298-8.703,30.365-12.806,45.621
		c-3.375,13.26-7.075,26.425-10.964,39.539c-3.264-3.581-6.441-7.238-9.868-10.656c-12.026-11.958-23.95-24.018-36.019-35.933
		c-1.893-1.816-3.623-4.017-6.176-4.891c-2.373,1.251-4.548,2.861-6.741,4.429c1.825-8.06,4.583-15.864,6.193-23.967
		c2.612-8.6,4.728-17.354,7.469-25.911c2.373-7.444,8.728-12.3,14.073-17.56c6.013-6.827,12.686-13.011,19.05-19.504
		c4.874-4.548,9.328-9.534,14.262-14.022c1.216-1.225,3.066-2.964,1.388-4.6c-4.84-5.439-10.767-9.833-15.41-15.47
		c-2.912-3.649-7.307-6.013-9.474-10.245c-1.225-2.064-0.308-4.454,0.231-6.561C585.234,1201.986,587.29,1193.404,590.288,1185.12z"
		/>
	<path fill="#FDCB86" stroke="#FDCB86" d="M544.273,1194.115c2.544-2.501,4.805-5.431,8.12-6.972
		c8.489,8.686,17.131,17.226,25.74,25.8c1.619,1.627,3.332,3.863,2.407,6.304c-5.551,19.136-10.416,38.469-16.104,57.562
		c-2.004,8.377-3.906,17.62-10.784,23.496c-2.047,1.713-4.428-0.779-5.97-2.099c-17.071-17.183-34.289-34.237-51.343-51.429
		c-1.782-1.439-1.242-3.863,0.394-5.14C512.597,1225.816,528.426,1209.953,544.273,1194.115z"/>
	<path fill="#FDCB86" stroke="#FDCB86" d="M394.065,1188.632c1.653-1.713,3.76-0.12,5.045,1.182
		c16.806,16.883,33.663,33.723,50.529,50.538c1.096,1.199,2.184,2.493,2.672,4.086c-0.428,1.37-1.302,2.561-2.253,3.641
		c-12.849,12.549-25.346,25.483-38.117,38.117c-4.514,5.071-10.613,8.788-13.688,15.033c-8.728-30.528-17.603-61.014-26.237-91.568
		C380.145,1203.528,386.381,1195.271,394.065,1188.632z"/>
	<path fill="#FDCA93" stroke="#FDCA93" d="M288.475,1196.316c6.202,3.067,10.236,8.943,15.127,13.62
		c4.72,4.471,8.746,9.756,14.271,13.294c8.232-5.131,12.386-15.281,21.68-18.87c0.797,2.724,1.722,5.414,2.527,8.155
		c9.422,34.366,19.864,68.44,29.312,102.806c-0.086,0.437-0.257,1.319-0.351,1.765c-5.071-3.983-9.311-8.866-13.928-13.328
		c-11.701-11.718-23.427-23.401-35.102-35.145c-1.413-1.105-3.186-3.272-5.139-2.133c-3.486,1.456-5.508,4.865-7.144,8.086
		c-2.201-6.304-3.478-12.883-5.319-19.29c-4.805-17.431-9.611-34.863-14.536-52.26
		C289.306,1200.804,288.372,1198.62,288.475,1196.316z"/>
	<path fill="#FDD194" stroke="#FDD194" d="M316.87,1266.478c1.953-1.139,3.726,1.028,5.139,2.133
		c11.675,11.744,23.402,23.427,35.102,35.145c4.617,4.463,8.857,9.345,13.928,13.328c0.094-0.445,0.266-1.328,0.351-1.765
		c1.422,4.369,2.561,8.814,3.786,13.251c-1.131-1.208-3.101-3.683-4.643-1.576c-4.668,5.602-10.022,10.553-15.136,15.735
		c-4.034,3.966-7.863,8.129-12.163,11.812c-3.195,2.578-4.685,7.426-9.2,8.052c-2.381-9.551-5.551-18.87-7.872-28.43
		c-4.137-15.615-8.806-31.085-12.917-46.709c-1.088-4.317-2.835-8.506-3.521-12.891
		C311.363,1271.343,313.384,1267.934,316.87,1266.478z"/>
	<path fill="#FDCB86" stroke="#FDCB86" d="M472.407,1266.084c1.936-0.711,3.675,0.959,5.054,2.124
		c17.003,16.969,33.937,34.006,50.983,50.932c1.182,1.182,2.63,2.835,1.645,4.617c-1.859,2.159-4.283,3.777-6.047,6.047
		c-2.484,3.229-6.047,5.354-8.686,8.437c-2.638,2.51-5.148,5.131-7.469,7.932c-4.908,4.206-9.508,8.788-13.705,13.705
		c-6.536,5.422-12.052,11.923-18.005,17.954c-1.422,1.782-3.889,1.182-5.157-0.411c-17.397-17.423-34.811-34.837-52.234-52.234
		c-1.619-1.293-2.159-3.726-0.394-5.148c16.455-16.652,33.209-33.029,49.561-49.775
		C469.409,1268.842,470.651,1267.137,472.407,1266.084z"/>
	<path fill="#FDCA93" stroke="#FDCA93" d="M370.535,1326.995c1.542-2.107,3.512,0.368,4.643,1.576
		c2.501,8.463,5.079,16.917,7.375,25.449c-3.152,6.142-8.84,10.296-13.448,15.264c-7.075,6.912-13.799,14.202-21.2,20.781
		c-1.593,1.448-3.015,3.075-4.506,4.634c-3.923-10.433-6.304-21.389-9.362-32.104c4.514-0.625,6.005-5.473,9.2-8.052
		c4.3-3.683,8.129-7.846,12.163-11.812C360.513,1337.547,365.866,1332.597,370.535,1326.995z"/>
	<path fill="#FDCB86" stroke="#FDCB86" d="M539.356,1354.525c0.959-1.114,2.476-1.165,3.812-1.379
		c0.017,2.244-0.223,4.523-1.131,6.613c-1.902,4.608-2.81,9.542-4.583,14.202c-2.664,11.829-6.304,23.436-9.465,35.137
		c-0.814,5.328-2.955,10.305-4.291,15.512c-0.163,1.747-2.441,3.169-3.76,1.576c-4.069-3.632-7.701-7.726-11.641-11.504
		c-4.326-4.531-9.277-8.591-12.72-13.885c-0.891-1.019,0.111-2.047,0.754-2.801C510.507,1383.348,525.446,1369.421,539.356,1354.525
		z"/>
	<path fill="#FDD194" stroke="#FDD194" d="M382.552,1354.019c1.773,5.413,2.475,11.367,5.79,16.155
		c2.929,4.3,8.292,6.698,13.474,5.996c4.6-0.377,8.103-3.735,11.315-6.716c-0.874,3.152-3.401,6.245-2.056,9.645
		c4.411,15.898,8.549,31.865,13.388,47.643c-0.343,1.619-0.771,3.315-1.944,4.574c-6.013,6.527-12.557,12.549-18.99,18.656
		c-2.75,2.484-4.823,6.005-8.403,7.384c-12.335-12.095-24.412-24.532-36.755-36.653c-3.366-3.289-6.519-6.827-10.442-9.474
		c-2.484-4.951-2.715-10.93-4.968-16.061l0.437-0.471c1.49-1.559,2.912-3.187,4.506-4.634c7.401-6.579,14.125-13.868,21.2-20.781
		C373.712,1364.315,379.4,1360.161,382.552,1354.019z"/>
	<path fill="#FDCB86" stroke="#FDCB86" d="M415.085,1360.786c2.57,3.838,5.97,7.007,9.2,10.279
		c8.017,7.684,15.692,15.718,23.667,23.444c1.816,1.893,4.043,3.803,4.48,6.553c-1.739,2.287-4,4.103-6.047,6.099
		c-4.677,4.463-8.531,9.739-13.619,13.774c-3.332,2.655-6.647,5.867-7.212,10.339c-0.36-1.525-0.711-3.041-1.088-4.531
		c-4.84-15.778-8.977-31.745-13.388-47.643c-1.345-3.401,1.182-6.493,2.056-9.645
		C414.134,1366.654,414.742,1363.724,415.085,1360.786z"/>
	<path fill="#FDCA93" stroke="#FDCA93" d="M347.93,1411.23c3.923,2.647,7.075,6.184,10.442,9.474
		c12.343,12.12,24.421,24.558,36.755,36.653c3.58-1.379,5.653-4.9,8.403-7.384c6.433-6.107,12.977-12.129,18.99-18.656
		c1.174-1.259,1.602-2.955,1.944-4.574c0.377,1.49,0.728,3.006,1.088,4.531c2.827,9.225,4.994,18.648,7.983,27.83
		c1.927,9.037,5.516,17.637,6.998,26.785c2.116,8.865,5.302,17.44,7.966,26.143c0.531,3.838,1.233,7.658,2.441,11.358
		c5.431,17.406,9.345,35.265,15.213,52.542c1.148,3.855,4.403,6.45,7.546,8.694c0.026,3.306,0.06,6.973,2.304,9.662
		c4.446,5.765,9.414,11.135,14.793,16.052c5.105,4.685,11.101,8.223,16.84,12.052c-8.557,4.617-18.348,6.022-27.881,7.024
		c-9.893,1.088-19.924-0.265-29.466-2.912c-4.351-1.336-8.874-2.364-12.831-4.694c-10.176-5.799-20.438-12.146-27.899-21.346
		c5.808-5.516,11.093-11.547,17.097-16.857c8.823-9.234,18.339-17.791,26.759-27.402c-17.114-17.757-34.897-34.862-52.148-52.482
		c-1.773-1.67-3.58-3.735-6.133-4.017c-2.467,1.49-4.317,3.743-6.339,5.756c-3.915,4.189-8.951,7.478-11.444,12.814
		c-0.3-0.814-0.591-1.619-0.874-2.398c-2.63-8.377-4.831-16.883-7.118-25.354c-2.732-9.491-5.422-18.999-7.846-28.567
		c-3.118-10.287-5.808-20.695-8.669-31.051C351.21,1424.353,348.786,1417.954,347.93,1411.23z"/>
	<path fill="#FDB786" stroke="#FDB786" d="M583.633,1426.211c4.557-5.413,9.542-10.553,15.221-14.784
		c-1.062,7.812-3.658,15.333-5.722,22.93c-2.818,9.491-5.062,19.153-8.06,28.601c-2.424,10.484-5.953,20.678-8.283,31.188
		c-2.398,8.129-4.977,16.206-7.178,24.404c-3.983-6.887-9.636-12.515-15.35-17.945c-1.148-1.036-3.126-1.328-4.266-0.137
		c-7.101,5.414-12.703,12.446-19.256,18.451c-10.562,10.57-21.029,21.234-31.745,31.642c-1.705,1.79-3.152,3.795-4.703,5.713
		c5.979,7.144,13.174,13.114,19.538,19.898c4.574,4.848,9.576,9.268,14.125,14.142c3.152,3.375,6.596,6.45,10.167,9.38
		c-5.859,6.518-12.052,13.071-19.907,17.183c-0.805,0.497-1.559,1.062-2.279,1.696l-0.454-0.42
		c-8.429-8.403-17.714-15.975-25.269-25.226c-2.938-3.615-6.793-6.364-9.645-10.03c-1.739-2.219-0.163-5.062,0.505-7.367
		c5.636-14.108,8.137-29.192,13.088-43.522c2.107-6.176,2.595-12.814,5.225-18.819c2.039-5.191,5.79-9.491,10.03-13.011
		c6.244-5.182,10.784-12.069,17.183-17.072c1.816-1.645,5.148-3.863,2.921-6.527c-3.144-3.426-6.93-6.219-10.073-9.662
		c-2.081-2.27-5.568-4.523-4.84-8.06c2.287-9.953,4.634-19.924,8.137-29.543c4.257,2.493,7.212,6.518,10.776,9.825
		c3.837,3.606,7.032,7.803,10.716,11.555c2.484,2.355,4.754,5.482,8.292,6.244c2.398-1.936,4.146-4.523,6.364-6.638
		c4.617-4.523,9.765-8.531,13.868-13.559C575.966,1432.807,580.232,1429.946,583.633,1426.211z"/>
	<path fill="#FDCB86" stroke="#FDCB86" d="M472.467,1422.005c2.013-1.028,3.675,0.848,5.037,2.064
		c8.197,8.352,16.54,16.575,24.789,24.875c3.383,3.743,7.675,6.741,10.339,11.067c0.865,3.426-0.608,6.904-1.49,10.202
		c-2.099,6.57-3.606,13.32-5.756,19.89c-2.45,7.795-2.741,16.84-8.66,23.076c-5.062,5.216-10.339,10.219-15.393,15.444
		c-2.304,2.236-4.403,4.977-7.512,6.116c-2.544-0.899-4.386-2.989-6.244-4.814c-4.334-4.531-8.9-8.823-13.191-13.371
		c-1.696-1.833-3.743-3.281-5.885-4.523c-2.664-8.703-5.85-17.277-7.966-26.143c-1.482-9.148-5.071-17.748-6.998-26.785
		c1.765-0.916,3.572-1.842,5.002-3.255c9.028-9.242,18.245-18.305,27.367-27.462C468.081,1426.254,469.871,1423.65,472.467,1422.005
		z"/>
	<path fill="#FDD194" stroke="#FDD194" d="M388.797,1505.461c2.022-2.013,3.872-4.266,6.339-5.756
		c2.553,0.283,4.36,2.347,6.133,4.017c17.251,17.62,35.034,34.725,52.148,52.482c-8.42,9.611-17.937,18.168-26.759,27.402
		c-6.005,5.311-11.29,11.341-17.097,16.857c-5.431-6.159-10.45-12.814-13.757-20.361c-4.463-9.808-7.401-20.215-9.988-30.64
		c-3.418-11.11-6.433-22.339-9.337-33.586c0.283,0.78,0.574,1.585,0.874,2.398C379.846,1512.939,384.882,1509.65,388.797,1505.461z"
		/>
	<path fill="#FCBD87" stroke="#FCBD87" d="M549.995,1500.467c1.139-1.191,3.118-0.899,4.266,0.137
		c5.713,5.431,11.367,11.058,15.35,17.945c-3.152,11.786-6.553,23.504-9.328,35.385c-1.996,8.626-5.328,16.84-8.788,24.969
		c-2.45,6.279-6.638,11.624-10.296,17.226c-0.874,1.302-1.927,2.476-3.075,3.563c-3.572-2.93-7.015-6.005-10.167-9.38
		c-4.548-4.874-9.551-9.294-14.125-14.142c-6.364-6.784-13.56-12.754-19.538-19.898c1.55-1.919,2.998-3.923,4.703-5.713
		c10.716-10.407,21.183-21.072,31.745-31.642C537.292,1512.913,542.894,1505.881,549.995,1500.467z"/>
</g>
</svg>
