<?xml version="1.0" encoding="utf-8"?>
<!DOCTYPE svg PUBLIC "-//W3C//DTD SVG 1.1//EN" "http://www.w3.org/Graphics/SVG/1.1/DTD/svg11.dtd">
<svg version="1.1" id="Ebene_1" xmlns="http://www.w3.org/2000/svg" xmlns:xlink="http://www.w3.org/1999/xlink" x="0px" y="0px"
	 viewBox="0 0 575.0632 406.6136" enable-background="new 0 0 575.0632 406.6136" xml:space="preserve">
<g>
	<g>
		<path fill="#FFFFFF" d="M347.8951,314.993c-0.9453,6.5605,3.6025,12.6455,10.1631,13.5908l4.5234,0.6553
			c6.5596,0.9443,12.6455-3.6045,13.5918-10.1641l5.7383-69.5644c0.9453-6.5606,0.6807-12.5167-5.8789-13.4634l-4.5234-0.6533
			c-6.5596-0.9468-6.5049,6.1499-7.4512,12.7075L347.8951,314.993z"/>
		<path d="M349.6302,315.3035c-0.4085,2.6995,0.2601,5.3963,1.8313,7.5809c1.5758,2.2045,4.0478,3.7465,6.7549,4.1743l4.5927,0.7238
			c1.4217,0.221,2.7758,0.1524,4.1316-0.1666c2.6894-0.6348,5.1206-2.3892,6.5822-4.7774c0.7351-1.1898,1.2332-2.5281,1.4593-3.9219
			l0.4507-4.5991l0.8922-9.3488c0.5765-6.2341,1.2106-12.4634,1.7399-18.7013l1.6208-18.7112l0.7597-9.3597
			c0.2618-3.1382,0.4508-6.202,0.7723-9.4013c0.1935-1.519,0.3253-3.0547,0.2869-4.554c-0.0458-1.4922-0.2587-2.9805-0.8641-4.2304
			c-0.5903-1.2554-1.6213-2.1902-2.9301-2.6672c-0.6593-0.2474-1.3326-0.378-2.094-0.4763l-2.3272-0.3102
			c-0.7622-0.0952-1.5817-0.2251-2.2969-0.2918c-0.6841-0.052-1.3486-0.0208-1.9308,0.186
			c-1.1725,0.3591-1.9372,1.4476-2.4228,2.7809c-0.9379,2.7169-1.047,5.8966-1.4833,9.0273l-0.0057,0.0407l-0.014,0.0615
			l-7.6388,33.5527l-3.855,16.7678c-0.6338,2.7967-1.2947,5.5869-1.9665,8.3745
			C351.0287,309.8141,350.3106,312.5542,349.6302,315.3035z M346.1853,314.5798c0.6591-2.7906,1.278-5.5909,1.9699-8.3736
			c0.6752-2.7867,1.3612-5.5708,2.0743-8.3484l4.2265-16.678l8.5243-33.3388l-0.0196,0.1019l0.6609-4.6464
			c0.2504-1.5722,0.5274-3.1759,1.1434-4.7776c0.3197-0.7945,0.7226-1.6006,1.3428-2.3108c0.6074-0.715,1.4557-1.2902,2.3716-1.5639
			c0.9077-0.2935,1.8454-0.3018,2.7126-0.2135c0.841,0.1005,1.5653,0.2352,2.3537,0.351l2.3199,0.361
			c0.7871,0.118,1.6578,0.3006,2.4577,0.6258c1.6338,0.6013,3.0897,1.9312,3.8033,3.5309c0.7463,1.5901,0.9459,3.2828,0.9869,4.9047
			c0.0272,1.6323-0.1254,3.2238-0.3396,4.8065c-0.328,3.025-0.5562,6.2111-0.8392,9.3088l-0.7842,9.3577l-1.4672,18.7238
			c-0.5,6.2404-0.8953,12.4894-1.3481,18.7336l-0.6518,9.3687l-0.3239,4.7593c-0.2234,1.7044-0.7849,3.3747-1.6509,4.875
			c-1.7217,3.011-4.6752,5.3002-8.0611,6.2115c-1.6746,0.4648-3.5062,0.5795-5.1841,0.3595l-4.7006-0.623
			c-3.5002-0.4626-6.803-2.3939-8.9413-5.2392c-1.0761-1.4158-1.8758-3.0467-2.3329-4.7762
			c-0.4623-1.7036-0.5643-3.6065-0.3402-5.2839l0.0153-0.1144L346.1853,314.5798z"/>
	</g>
	<path fill="#E6428E" stroke="#000000" stroke-miterlimit="10" d="M382.1178,293.6443c0,0,2.581,8.043,1.2099,10.2198
		c-0.5595,0.8877-3.3467,1.1406-4.1699,0.4902c-1.7959-1.418-1.0703-9.0898-1.0703-9.0898
		c-1.4502,0.4394-2.9697,0.7392-4.5498,0.8896c0,0,2.2324,10.3975,0,12.6299c-0.8838,0.8838-4.1162,0.8838-5,0
		c-2.2324-2.2324,0-12.6299,0-12.6299c-1.75-0.1699-3.4404-0.5205-5.0401-1.04c0,0-0.1093,7.1972-1.8095,8.58
		c-0.8155,0.6631-3.5371,0.0098-4.1104-0.8701c-1.3086-2.0107,1.9795-9.3896,1.9795-9.3896
		c-6.1191-3.3106-10.1894-9.2002-10.1894-15.9004c0-10.3604,9.7002-18.75,21.6699-18.75s21.6699,8.3896,21.6699,18.75
		C392.7076,284.3836,388.4674,290.3738,382.1178,293.6443z"/>
	<g>
		<path fill="#FFFFFF" d="M193.356,304.8895c-1.5439,6.4453,2.4288,12.9218,8.8741,14.4658l4.4453,1.0654
			c6.4453,1.544,12.9219-2.4297,14.4658-8.874c0,0,5.458-40.7266,16.3447-68.2256c2.4395-6.1621-2.4287-12.9219-8.874-14.4658
			l-4.4453-1.0655c-6.4448-1.5439-8.4077,5.5401-9.7827,12.0225C207.8067,270.8201,193.356,304.8895,193.356,304.8895z"/>
		<path d="M194.4876,305.2408l-0.1171,0.5336l-0.0912,0.5614c-0.0509,0.3942-0.0882,0.7906-0.0958,1.1882
			c-0.0205,0.795,0.0468,1.5927,0.1999,2.3751c0.3063,1.5657,0.9749,3.0612,1.9202,4.3559c0.954,1.2889,2.1902,2.3716,3.6064,3.1363
			c0.709,0.3803,1.4607,0.6828,2.2384,0.9015l2.5328,0.6415l2.5417,0.6259c0.8035,0.1759,1.5905,0.2607,2.4119,0.2609
			c1.6241-0.0067,3.2473-0.3824,4.7227-1.0819c1.4702-0.7086,2.7954-1.734,3.8319-3.0046c1.0373-1.2692,1.7916-2.7697,2.1929-4.3698
			l-0.0145,0.078c1.1204-7.448,2.4659-14.8326,3.9688-22.1962c1.4709-7.3668,3.1148-14.7012,5.0215-21.9711
			c0.955-3.6339,1.9225-7.267,3.0309-10.861c0.5213-1.8066,1.103-3.5953,1.705-5.3782l0.8898-2.6783l0.9795-2.6492l0.9721-2.6309
			c0.1689-0.4604,0.2939-0.8495,0.3817-1.2738c0.1006-0.4259,0.151-0.8619,0.1806-1.2978c0.103-1.7468-0.3439-3.5221-1.2135-5.0659
			c-1.7369-3.118-4.8906-5.3526-8.4239-6.0242l-2.7411-0.6342c-0.9246-0.213-1.8019-0.445-2.5994-0.4387
			c-1.6617-0.0345-3.097,0.8779-4.068,2.2977c-0.9893,1.405-1.6219,3.1302-2.1316,4.8777c-0.516,1.7629-0.8641,3.563-1.2656,5.4209
			c-0.4049,1.8328-0.7825,3.6659-1.2098,5.4985l-1.3374,5.4978l-1.4438,5.4576l-1.5374,5.4306
			c-1.0598,3.6099-2.1597,7.2076-3.3098,10.789c-1.1528,3.5804-2.3509,7.1458-3.5831,10.6995
			c-1.279,3.5368-2.5721,7.0684-3.9283,10.5767C197.3447,298.357,195.9538,301.7999,194.4876,305.2408z M192.269,304.4284
			c1.4088-3.4455,2.7605-6.9451,4.0729-10.4456c1.3441-3.4916,2.629-7.0062,3.8979-10.5259
			c1.2789-3.5162,2.5322-7.0418,3.7361-10.5842c1.2023-3.543,2.3546-7.102,3.467-10.6734l1.6166-5.3721l1.5233-5.398l1.412-5.4149
			c0.4545-1.8132,0.8642-3.6487,1.2985-5.4719c0.421-1.8009,0.816-3.6827,1.3848-5.5134c0.572-1.8303,1.26-3.6819,2.4601-5.3394
			c0.5985-0.8204,1.36-1.5853,2.304-2.115c0.938-0.5404,2.0433-0.7819,3.0932-0.7621c1.0876,0.0197,2.0332,0.3097,2.93,0.5245
			l2.7308,0.6773c3.8283,0.7932,7.3449,3.329,9.2018,6.8213c0.9336,1.7379,1.4495,3.7434,1.315,5.7467
			c-0.0364,0.4987-0.0986,0.9975-0.2156,1.4841c-0.1049,0.494-0.2742,0.9979-0.4318,1.4161l-0.9946,2.6411l-0.9884,2.6224
			l-0.9006,2.656c-0.6093,1.7679-1.1988,3.5426-1.7289,5.3377c-0.5511,1.7881-1.1066,3.5749-1.5952,5.3825
			c-0.5003,1.8038-1.0333,3.5987-1.4709,5.42c-1.8608,7.2547-3.4673,14.5761-4.8889,21.9323
			c-1.3745,7.3623-2.6042,14.7657-3.5835,22.1755l-0.0047,0.0352l-0.0099,0.0432c-0.4206,1.8263-1.2503,3.5648-2.4153,5.0455
			c-1.1637,1.4826-2.6661,2.6949-4.3526,3.5466c-1.6912,0.8427-3.572,1.3177-5.4714,1.3614
			c-0.9399,0.0212-1.9159-0.0675-2.836-0.2526l-2.6008-0.588c-0.87-0.2043-1.6906-0.3784-2.6013-0.6074
			c-0.9223-0.2405-1.8209-0.5821-2.6725-1.0186c-1.702-0.877-3.2039-2.1402-4.3738-3.6613
			c-1.1616-1.5267-1.9995-3.3073-2.4066-5.193c-0.2036-0.9422-0.3039-1.9081-0.2974-2.874
			c0.0006-0.4831,0.0357-0.9656,0.0891-1.4456c0.0264-0.2418,0.072-0.4966,0.109-0.7442l0.1498-0.7501L192.269,304.4284z"/>
	</g>
	<g>
		<path fill="#FFFFFF" d="M348.1383,283.907c-15.2901,2.0498-31.4004,2.8399-47.0606,2.8399c-6.1098,0-11.98-0.1602-17.5898-0.4903
			c-1.9903-0.1093-3.9502-0.25-5.8701-0.4101c-35.46-2.8701-60.2198-12.7598-72.3902-30.5498
			c-1.8799-2.7403-3.4599-5.6699-4.73-8.7901c-2.1298-5.2197-3.3999-10.9799-3.7797-17.2797
			c-0.0899-1.3599-0.1299-2.7403-0.1299-4.1499c0-32.5401-18.21-49.2203,34.1098-63.3404
			c15.2701-4.1196,36.5298-8.02,66.0201-12.0298c1.4497-0.2002,2.9301-0.3999,4.4199-0.6001
			c16.5498-2.1997,30.7397-3.4199,42.9399-3.7397c70.5801-1.9102,74.4297,25.6699,83.0303,61.5298
			c0.4697,1.9702,0.8594,3.9101,1.1699,5.81C435.7682,258.6365,395.9879,277.4764,348.1383,283.907z"/>
		<path d="M348.4909,286.65c0,0-2.4221,0.3137-7.0833,0.7697c-4.6316,0.4477-11.4327,0.9961-20.0911,1.3091
			c-8.6632,0.2906-19.1559,0.4511-31.2273-0.0745c-1.508-0.0671-3.0396-0.1557-4.5942-0.2568
			c-0.7833-0.0554-1.5725-0.1113-2.3676-0.1675c-0.782-0.0662-1.5696-0.1328-2.363-0.2c-0.7934-0.0672-1.5924-0.1348-2.3971-0.2029
			l-0.6046-0.0512l-0.6556-0.0637l-1.2166-0.1338c-1.6276-0.179-3.2773-0.3604-4.9486-0.5443
			c-6.7668-0.8724-13.7965-2.0537-21.0363-3.8669c-7.2247-1.8227-14.6519-4.2693-21.9153-7.7966
			c-3.5792-1.8595-7.1977-3.8353-10.5342-6.3636l-1.2732-0.9166c-0.4159-0.3187-0.8101-0.6688-1.217-1.0026
			c-0.8025-0.6823-1.6311-1.3389-2.4181-2.0492c-0.7591-0.7418-1.521-1.4862-2.2856-2.2333
			c-0.3922-0.3633-0.7576-0.754-1.1005-1.1682l-1.058-1.2165c-5.7107-6.4473-9.5447-14.7906-11.1339-23.6144
			c-0.406-2.2091-0.6742-4.4527-0.827-6.7121c-0.0939-1.1684-0.0754-2.2578-0.1187-3.395
			c-0.0345-1.1243-0.0529-2.2747-0.0609-3.3982c-0.0434-4.5032-0.486-9.0335-1.0923-13.5953
			c-0.5797-4.5631-1.3694-9.1539-1.7267-13.8646c-0.3729-4.668-0.1887-9.6595,1.8813-14.1276
			c1.0193-2.219,2.4767-4.2252,4.1762-5.9778c1.7445-1.708,3.6798-3.2028,5.7316-4.5104c4.1149-2.6055,8.6112-4.5215,13.1693-6.2169
			c9.1632-3.3021,18.6772-5.6824,28.2661-7.7755c9.5962-2.0824,19.3013-3.7826,29.0099-5.4376
			c19.4299-3.1591,38.9071-6.2188,58.3346-7.6116c2.4267-0.1725,4.8512-0.3233,7.274-0.4397
			c1.2188-0.0598,2.4046-0.1159,3.6491-0.1522l3.6022-0.0966c4.8021-0.1337,9.6795-0.0592,14.4577,0.1376
			c4.7963,0.2691,9.5706,0.6677,14.2931,1.4108c4.7169,0.7648,9.3876,1.8001,13.9179,3.3143
			c4.5246,1.5111,8.912,3.5251,12.8977,6.1826c3.989,2.6437,7.5392,5.9419,10.4229,9.6648
			c2.9138,3.7096,5.1343,7.8081,6.9244,11.9387c1.7925,4.1388,3.1671,8.3284,4.3625,12.4579
			c1.1924,4.1324,2.207,8.2123,3.1945,12.2057c0.2458,0.997,0.4906,1.9902,0.7345,2.9796l0.3649,1.4774l0.1819,0.7365l0.0454,0.1839
			l0.0635,0.2956l0.0779,0.3712c0.2078,0.9892,0.4149,1.9745,0.621,2.9557l0.3086,1.4688l0.1538,0.7321
			c-0.0157-0.1166,0.0656,0.3635,0.0657,0.3822l0.0263,0.1848l0.0525,0.3694c0.14,0.9844,0.2794,1.9646,0.4181,2.9406
			c0.1547,0.9529,0.1945,2.0688,0.2933,3.0894c0.2232,2.0981,0.174,4.1149,0.2126,6.1422c-0.1065,4.0535-0.61,8.045-1.5228,11.8839
			c-1.8754,7.6809-5.6691,14.5508-10.362,19.9524c-4.6387,5.5005-10.1102,9.5568-15.4334,12.8062
			c-5.3616,3.218-10.6674,5.5974-15.6525,7.4729c-4.9902,1.8676-9.6542,3.2895-13.8997,4.3835
			c-8.4918,2.1988-15.2611,3.3178-19.8702,4.0406c-2.3056,0.3644-4.078,0.5934-5.2721,0.7504
			c-1.1938,0.1589-1.8099,0.2409-1.8099,0.2409L348.4909,286.65z M347.7699,281.166c0,0,0.601-0.0925,1.7655-0.2718
			c1.1648-0.1772,2.8939-0.4362,5.1356-0.8375c4.4807-0.7953,11.0573-2.0233,19.1913-4.3073
			c4.067-1.1354,8.503-2.5905,13.1928-4.4548c4.673-1.8903,9.6327-4.1557,14.5192-7.1721c1.1899-0.7936,2.4572-1.5258,3.6274-2.4138
			c0.5963-0.4297,1.197-0.8626,1.8022-1.2988c0.5784-0.4657,1.1611-0.9348,1.7479-1.4074c2.3245-1.9066,4.6082-3.9945,6.6276-6.3965
			c4.1569-4.7131,7.313-10.5898,9.1057-17.2112c0.8462-3.3267,1.3541-6.829,1.5134-10.4493
			c-0.0106-1.8076,0.0705-3.6724-0.0973-5.4679c-0.0771-0.925-0.067-1.7785-0.2103-2.776
			c-0.1224-0.9782-0.2453-1.9606-0.3688-2.9472l-0.0463-0.3702l-0.0232-0.1852c-0.0135-0.1051,0.046,0.2524,0.0035,0.0141
			l-0.1415-0.7346l-0.2839-1.4737c-0.1896-0.9845-0.3801-1.9731-0.5714-2.9656l-0.0717-0.3724
			c-0.0013-0.013-0.0478-0.2341-0.012-0.0763l-0.0425-0.1855l-0.1703-0.7429l-0.3417-1.4901
			c-0.2272-0.9931-0.4553-1.99-0.6843-2.9907c-0.9171-3.9955-1.8492-8.0258-2.934-12.035
			c-1.0867-4.0067-2.3283-7.9962-3.9205-11.8471c-1.5909-3.8469-3.5349-7.5641-6.0574-10.8839
			c-2.5084-3.3254-5.5345-6.2893-9.0348-8.7423c-3.4958-2.459-7.443-4.4033-11.624-5.9138
			c-4.1837-1.5137-8.5922-2.6104-13.0985-3.4554c-4.5151-0.825-9.1413-1.3268-13.8123-1.7047
			c-4.6987-0.3065-9.3712-0.4969-14.1653-0.4822l-3.6035,0.0081c-1.1601,0.0051-2.381,0.0321-3.571,0.0615
			c-2.3955,0.0552-4.7967,0.1582-7.2029,0.2752c-19.2511,0.9594-38.762,3.5884-58.2225,6.3225
			c-9.7253,1.4013-19.4145,3.0448-29.002,4.9718c-9.5731,1.9607-19.0833,4.1817-28.1585,7.4265
			c-4.5152,1.6491-8.9572,3.5166-12.9739,6.0293c-2.0029,1.2602-3.8764,2.6938-5.5556,4.3168
			c-1.631,1.6652-3.0166,3.5526-3.9913,5.6417c-1.993,4.1948-2.1734,8.9919-1.7922,13.5911
			c0.3617,4.632,1.1599,9.2178,1.7541,13.7995c0.6199,4.5765,1.0679,9.1635,1.1817,13.7204
			c0.0215,1.1411,0.052,2.2494,0.0996,3.3775c0.0551,1.1141,0.0535,2.2763,0.155,3.343c0.1753,2.213,0.4633,4.4044,0.8845,6.5558
			c1.6253,8.6274,5.5334,16.554,11.1897,22.6556l1.0453,1.1481c0.3379,0.3911,0.6984,0.7595,1.086,1.101
			c0.753,0.7029,1.5033,1.4033,2.2509,2.1012c0.7747,0.6673,1.5912,1.2825,2.379,1.9226c0.3999,0.313,0.7859,0.6417,1.1945,0.9402
			l1.252,0.857c3.2727,2.367,6.8298,4.2012,10.3395,5.9257c7.127,3.2801,14.4454,5.4646,21.5683,7.0312
			c7.1256,1.5655,14.0977,2.5254,20.69,3.181c1.6759,0.1347,3.3303,0.2676,4.9625,0.3987l1.22,0.098l0.3037,0.0244l0.2539,0.0133
			l0.6058,0.0334c0.8063,0.0444,1.607,0.0886,2.402,0.1324c0.795,0.0438,1.5843,0.0873,2.3678,0.1305
			c0.7717,0.0318,1.5378,0.0634,2.2981,0.0947c1.5341,0.0438,3.045,0.0869,4.532,0.1294c11.8967,0.242,22.3199-0.1585,30.8495-0.644
			c8.5379-0.5077,15.2125-1.203,19.7481-1.748c4.5065-0.5461,6.9555-0.92,6.9555-0.92L347.7699,281.166z"/>
	</g>
	<path d="M298.5348,173.7283c-2.7056,8.2593-12.0083,16.8115-13.4771,19.2783c-7.1831,12.064-25.6177,20.6065-30.3701,18.8804
		c-10.0816-3.6616-16.5899-15.8203-18.6299-16.0703c-1.5898-0.1997-4.25-23.6099-5.3599-34.0801
		c15.2701-4.1196,36.5298-8.02,66.0201-12.0298C296.0177,158.327,302.6832,161.0647,298.5348,173.7283z"/>
	<g>
		<path fill="#FFFFFF" d="M380.941,250.3357c11.5029,30.3506,12.8721,68.9659,12.8721,68.9659
			c1.2168,6.5156,7.4834,10.8105,13.999,9.5937l4.4932-0.8369c6.5136-1.2178,10.8105-7.4844,9.5947-14
			c0,0-9.2539-31.4932-12.8721-68.9639"/>
		<path d="M381.4358,250.1546c0.6533,1.3263,1.3168,2.6331,1.9014,4.0049c0.6033,1.362,1.1872,2.7261,1.7252,4.1077
			c0.5291,1.3839,1.0623,2.7704,1.5568,4.1688c0.4988,1.3978,0.9511,2.8098,1.3992,4.2238
			c0.9084,2.8252,1.7072,5.6837,2.4263,8.5598c0.3739,1.4356,0.7169,2.8773,1.0573,4.3209l0.91,4.3513
			c0.5764,2.9064,1.1432,5.8168,1.579,8.7465c0.2228,1.464,0.4568,2.9268,0.6415,4.396l0.5516,4.4075
			c0.3359,2.9422,0.6094,5.8909,0.8499,8.844l0.3204,4.4362c0.0934,1.4889,0.1768,2.9483,0.2341,4.4812l-0.0454-0.4112
			c0.2458,1.3399,0.7837,2.609,1.5701,3.7124c0.7857,1.1037,1.8296,2.026,3.0135,2.6961c1.1915,0.6567,2.5168,1.0684,3.8741,1.177
			c0.679,0.0508,1.3647,0.0273,2.0449-0.0707l2.5278-0.4359l2.5335-0.4533c0.2452-0.0454,0.376-0.0851,0.5164-0.1207
			c0.1354-0.0283,0.3124-0.0901,0.4744-0.1378c0.3289-0.1034,0.6488-0.2309,0.9651-0.3672
			c1.2567-0.5639,2.3874-1.4136,3.2953-2.4667c0.899-1.0593,1.5785-2.3152,1.9461-3.6605c0.3633-1.3452,0.4514-2.7663,0.2215-4.163
			l0.0569,0.2377c-0.3925-1.459-0.758-2.875-1.1105-4.3115l-1.0379-4.2977c-0.6643-2.8688-1.3078-5.7404-1.9132-8.619
			c-0.6083-2.8781-1.1471-5.7698-1.6923-8.6586c-0.5192-2.8942-1.0372-5.7873-1.5016-8.6896
			c-0.2493-1.4479-0.4711-2.9006-0.6732-4.3565l-0.624-4.363c-0.3689-2.9158-0.7843-5.8226-1.0801-8.7462
			c-0.3325-2.918-0.597-5.8434-0.8524-8.7676c-0.2589-2.9237-0.3923-5.8598-0.5941-8.7843l1.049-0.1013
			c0.4486,2.8923,0.8389,5.7877,1.3342,8.6687c0.4606,2.8852,0.9295,5.7669,1.4658,8.6378c0.2647,1.4358,0.4946,2.876,0.7795,4.308
			l0.817,4.2999c0.5806,2.8599,1.1525,5.7196,1.77,8.5699c0.593,2.8549,1.239,5.6982,1.8854,8.54
			c0.6656,2.8379,1.3525,5.6697,2.0561,8.4961c0.6939,2.8287,1.4248,5.6469,2.175,8.4579l1.1638,4.2016
			c0.3914,1.394,0.8052,2.7992,1.2181,4.1537l0.0269,0.0884l0.0301,0.1496c0.4155,2.0673,0.3767,4.2497-0.1507,6.313
			c-0.5197,2.0656-1.5109,4.0052-2.8587,5.6572c-1.3553,1.6459-3.0777,3.0008-5.0178,3.9197c-0.4867,0.225-0.9824,0.432-1.49,0.6047
			c-0.2581,0.084-0.4962,0.1706-0.7892,0.2462c-0.2849,0.079-0.5786,0.1565-0.7662,0.1942l-2.6576,0.5324l-1.2962,0.255
			c-0.4605,0.0866-0.797,0.1661-1.3737,0.2592c-1.0595,0.1755-2.1432,0.2363-3.2222,0.1772
			c-2.1592-0.1197-4.2905-0.7343-6.1838-1.778c-1.8898-1.0478-3.5569-2.5034-4.829-4.2608
			c-1.2738-1.7545-2.1539-3.8005-2.5559-5.924l-0.0356-0.1883l-0.0099-0.2233c-0.0616-1.3985-0.1541-2.868-0.2545-4.3065
			l-0.3425-4.3402c-0.25-2.8941-0.5538-5.7852-0.8805-8.6732c-0.3158-2.8894-0.6827-5.7726-1.0483-8.6557
			c-0.3884-2.8799-0.757-5.763-1.1951-8.6358l-0.684-4.3046c-0.2373-1.4328-0.4459-2.873-0.7023-4.3029
			c-0.2393-1.4342-0.5062-2.8622-0.7745-4.2911l-0.8108-4.2874c-0.2757-1.4293-0.585-2.8505-0.888-4.275
			c-0.2867-1.4294-0.6123-2.8491-0.9353-4.2722c-0.3488-1.4151-0.6437-2.8503-1.0103-4.2575l-1.0656-4.2811L381.4358,250.1546z"/>
	</g>
	<path d="M428.2779,212.7068c-7.5,3.2901-15.1006,6.5401-22.2099,9.25c-25.8399,9.8702-42.75,13.6299-54.5,10.8101
		c-11.7403-2.8203,4.2294-32.4199-4.2305-54.5c-3.5-9.1499-3.9395-21.54-3.2598-32.8999
		c70.5801-1.9102,74.4297,25.6699,83.0303,61.5298C427.5777,208.867,427.9674,210.8069,428.2779,212.7068z"/>
	<path d="M295.5724,197.5897c-4.0171,3.9912-5.1377,15.913-11.6021,19.456c-0.5913,0.3242-11.1377,14.3047-3.7344,16.9492
		c7.4038,2.6436,13.7505,8.0171,23.7984,12.249c10.0473,4.2305,22.7407-17.4531,25.3852-28.5585
		c2.6446-11.1055-6.875-24.3267-15.3379-23.7979C305.6202,194.4158,298.92,194.263,295.5724,197.5897z"/>
	<path fill="none" stroke="#000000" stroke-miterlimit="10" d="M410.3521,172.4676c0,0,16.9854,8.583,22.8399,13.1963
		c11.8301,9.3213,13.4346,24.2959,16.7676,24.2959s-3.7217,1.0634-3.7217,1.0634s-13.3994-21.3784-18.3994-23.8784
		s-10.0977-2.0615-10.0977-2.0615"/>
	<path d="M453.2818,227.8616c0,0,1.2578-7,0.5977-12.7632c-0.4854-4.2407-2.0088-7.812-5.836-7.4321
		c-4.9619,0.4922-7.2197,8.5151,0.2754,20.4019c0.4522,0.7173,0.5889-5.5918,1.1582-4.815
		C450.5279,224.6863,451.7867,226.2215,453.2818,227.8616z"/>
	<path fill="#ECEDED" stroke="#000000" stroke-miterlimit="10" d="M228.8741,316.3553"/>
	<g>
		<path fill="#FFFFFF" d="M234.5553,250.0545c0.7436,17.5234,2.9775,70.0937,2.9775,70.0937
			c0.2817,6.6221,5.877,11.7618,12.4985,11.4795l4.5674-0.1923c6.6211-0.2832,11.7612-5.878,11.48-12.5
			c0,0-6.1226-24.1543-2.9775-70.0918"/>
		<path d="M235.0816,250.0321c0.3758,4.6728,0.764,9.3451,1.0974,14.0198l0.995,14.0241c0.3281,4.6749,0.6392,9.3504,0.9245,14.0271
			l0.8767,14.0291l0.803,13.9752c0.1305,1.9811,0.8268,3.7651,1.9832,5.2742c1.1511,1.4929,2.7273,2.6546,4.4934,3.2667
			c0.8814,0.3092,1.805,0.4834,2.7369,0.5263c0.829,0.0316,2.1324-0.0765,3.2747-0.1234c1.1365-0.0701,2.4649-0.0906,3.2378-0.2231
			c0.9154-0.1483,1.8016-0.4306,2.6318-0.8317c1.6583-0.8059,3.0681-2.1161,3.9971-3.699c0.9356-1.58,1.4036-3.4125,1.3153-5.2502
			l0.0783,0.5349c-0.3861-1.5814-0.6448-2.9987-0.9264-4.4929c-0.2567-1.4747-0.5077-2.9486-0.7172-4.4225
			c-0.4456-2.9477-0.7849-5.8979-1.0975-8.8499c-0.2861-2.9527-0.5445-5.9064-0.7214-8.8626
			c-0.1035-1.4782-0.1528-2.9569-0.2148-4.4355c-0.0502-1.4789-0.1095-2.9579-0.1145-4.4364
			c-0.0309-2.9579,0.0053-5.9144,0.0894-8.8672c0.056-2.9542,0.3002-5.9015,0.469-8.8466c0.1029-1.4725,0.2716-2.941,0.414-4.4096
			c0.1374-1.4688,0.3126-2.935,0.4878-4.3997c0.3761-2.9277,0.8509-5.8457,1.3803-8.7515l1.0512,0.072
			c0.102,1.4742,0.1811,2.9448,0.234,4.4123c0.0716,1.4685,0.0999,2.9332,0.1453,4.3973c0.0669,1.4649,0.1336,2.9283,0.1627,4.3892
			c0.0443,1.4613,0.0622,2.9213,0.146,4.3808l0.1328,4.3738c0.022,1.4573,0.1362,2.9128,0.1704,4.3677l0.1505,4.363
			c0.0718,1.4528,0.1669,2.9042,0.2193,4.3564c0.0423,1.4532,0.1511,2.9015,0.2277,4.3514c0.0743,1.4499,0.1358,2.901,0.251,4.3467
			c0.1057,1.4463,0.1699,2.897,0.2925,4.3408l0.3694,4.3307c0.288,2.8802,0.6017,5.7581,1.0161,8.6107
			c0.1944,1.43,0.4279,2.8477,0.6651,4.2626c0.2512,1.3882,0.5183,2.8565,0.8209,4.1255l0.068,0.2853l0.0103,0.25
			c0.1174,2.8446-0.6177,5.7448-2.1172,8.1703c-1.4897,2.4301-3.6966,4.4009-6.2767,5.5973
			c-1.2901,0.5965-2.6654,1.0045-4.0675,1.2043c-1.5485,0.1974-2.5716,0.1491-3.7721,0.2115
			c-1.1979,0.0202-2.2344,0.1238-3.7472,0.0581c-1.4066-0.089-2.8026-0.3807-4.1232-0.872
			c-2.6415-0.9805-4.9767-2.7415-6.6131-5.0157c-1.6462-2.2483-2.5965-5.0658-2.6894-7.7659l-0.3955-14.1065l-0.3162-14.0529
			c-0.1122-4.684-0.1989-9.3691-0.2684-14.055l-0.1978-14.058c-0.0642-4.6861-0.0736-9.3744-0.0955-14.0623L235.0816,250.0321z"/>
	</g>
	<path d="M340.4625,283.4549c-15.2901,2.0498-31.4004,2.8398-47.0606,2.8398c-6.1098,0-11.9799-0.1601-17.5898-0.4902
		c-1.8599-6.8799-3.0703-13.9795-0.9302-16.1201c4.52-4.5098,16.2603-15.7998,29.3501-15.7998
		c13.0996,0,32.5098,2.7002,35.2197,9.4804C341.0123,267.2547,340.7818,276.1951,340.4625,283.4549z"/>
	<path d="M230.1778,241.2366c-1.7998,4.52-4.5102,14.8999-14.8999,11.2906c-3.8603-1.3409-7.2803,0.25-10.0503,2.7695
		c-1.8799-2.7403-3.4599-5.6699-4.73-8.7901c-2.1298-5.2197-3.3999-10.9799-3.7797-17.2797
		c9.6899-5.2203,22.1401-10.8599,25.3398-7.3999C227.4776,227.6966,231.9879,236.7269,230.1778,241.2366z"/>
	<g>
		<g>
			<path fill="#ECEDED" d="M152.6202,123.8694c0,0-36.3555-23.5449-4.6685-48.8945c-2.1977,34.5903,21.9019,33.4424,21.9019,33.4424
				"/>
			<path d="M152.2495,124.4328c-1.1413-0.605-2.2183-1.2708-3.2743-1.9865c-1.0448-0.7257-2.0911-1.4612-3.0813-2.2703
				c-0.998-0.7998-1.9595-1.6491-2.9048-2.524c-0.946-0.8756-1.8286-1.8207-2.697-2.7868l-1.2587-1.4952l-1.1924-1.5642
				c-0.7606-1.0748-1.4594-2.1999-2.1022-3.3704c-0.6284-1.1781-1.2074-2.3948-1.6813-3.6697
				c-0.48-1.2697-0.8635-2.5923-1.1006-3.9534c-0.0624-0.3394-0.1409-0.6762-0.1883-1.0189l-0.1053-1.0361l-0.1006-1.0384
				c-0.0194-0.3472-0.007-0.6967-0.0108-1.0455c-0.0399-1.3968,0.122-2.7943,0.3421-4.1723l0.4714-2.0403l0.6703-1.9698
				c0.2013-0.6696,0.5359-1.2687,0.8129-1.8992c0.2901-0.6236,0.5671-1.257,0.9326-1.8289l1.0386-1.7581
				c0.3802-0.5573,0.773-1.1024,1.1779-1.6406c0.7632-1.121,1.7571-2.0148,2.7001-2.9481c0.9771-0.8948,2.0813-1.6353,3.1787-2.3561
				c1.1592-0.6404,2.3621-1.2075,3.6529-1.6125l1.6425-0.5154l-0.5461,1.0859l-0.0013,0.0026
				c0.0964,0.9431,0.1668,1.8795,0.229,2.8117c0.0579,0.9317,0.1893,1.8574,0.2479,2.7808c0.073,0.9232,0.2408,1.8345,0.3212,2.7494
				c0.1129,0.9114,0.2913,1.8097,0.4211,2.7122c0.1832,0.8897,0.3336,1.7873,0.5522,2.6624
				c0.2449,0.8675,0.4111,1.7556,0.7032,2.6002c0.2383,0.8651,0.5708,1.6885,0.8809,2.5197
				c0.1418,0.422,0.3473,0.8115,0.5168,1.2197c0.1708,0.408,0.356,0.8077,0.5717,1.1893c0.3884,0.7907,0.8607,1.5251,1.3279,2.2634
				l0.7538,1.0673c0.2612,0.3479,0.5486,0.6737,0.821,1.0138c1.1451,1.3065,2.4388,2.4878,3.8887,3.4763
				c0.735,0.4762,1.4829,0.9451,2.2753,1.3427c0.786,0.4117,1.6135,0.7421,2.4489,1.0689c0.8426,0.3058,1.7076,0.5604,2.5866,0.7802
				c0.8714,0.2044,1.797,0.3832,2.6507,0.4651l0.0642,1.3473c-1.0354,0.1175-1.9981,0.1238-2.9943,0.0526
				c-0.9892-0.0623-1.9696-0.2242-2.9459-0.4272c-0.9731-0.2163-1.9357-0.5008-2.8738-0.8629
				c-0.943-0.3506-1.8601-0.7805-2.7448-1.2756c-0.8764-0.5089-1.7299-1.0651-2.5363-1.6888
				c-0.8086-0.6218-1.5514-1.3244-2.2603-2.057c-0.3388-0.3796-0.693-0.7492-1.0179-1.1411l-0.9397-1.2044
				c-0.5634-0.8446-1.1203-1.6957-1.5832-2.594c-0.2544-0.4389-0.4741-0.892-0.6771-1.3521
				c-0.2016-0.4599-0.4403-0.9085-0.6095-1.3791c-0.3558-0.9369-0.6906-1.8811-0.9419-2.8428
				c-0.2958-0.9531-0.4907-1.9222-0.6777-2.8932c-0.1776-0.971-0.2808-1.9484-0.4151-2.9198
				c-0.0585-0.9767-0.1326-1.9524-0.1552-2.9245c-0.0047-0.9718,0.0012-1.9449,0.0522-2.9102
				c0.0621-0.9653,0.1433-1.9293,0.2487-2.8855c0.1407-0.9551,0.2896-1.906,0.4644-2.8503l-0.0011-0.0028l1.0963,0.5704
				c-0.5994,1.2172-1.3025,2.2553-2.0207,3.2512c-0.6551,1.0481-1.4024,1.9835-2.0965,2.9341
				c-0.6572,0.974-1.4304,1.8541-2.0604,2.8056l-1.0124,1.3859l-0.8816,1.4474c-0.3197,0.4725-0.5423,0.9826-0.7853,1.4848
				c-0.2287,0.5064-0.5246,0.9931-0.6815,1.5212l-0.5612,1.5575l-0.392,1.5953c-0.2029,1.0704-0.3994,2.1514-0.4097,3.2482
				c-0.0095,0.2736-0.037,0.5475-0.0342,0.8219l0.046,0.8242l0.0413,0.8265c0.0247,0.2752,0.0796,0.5486,0.1169,0.8236
				c0.0836,0.5492,0.1448,1.103,0.3004,1.6451c0.1471,0.5418,0.2226,1.1015,0.4173,1.638c0.3121,1.0904,0.726,2.1626,1.1902,3.222
				c0.2555,0.5207,0.4856,1.0542,0.7607,1.5697l0.8511,1.5403l0.9221,1.5164l1.0015,1.4802
				c0.6975,0.9717,1.4399,1.9154,2.1978,2.8578c0.7701,0.9312,1.5651,1.8504,2.4059,2.7314c1.6578,1.78,3.4389,3.4991,5.3015,5.0752
				L152.2495,124.4328z"/>
		</g>
		<g>
			<path fill="#FFFFFF" d="M261.1978,135.2166c-3.5898,3.5903-14.1699,3.3604-23.29,2.3604
				c3.73,9.2099,5.8301,19.6499,5.8301,30.7099c0,12.4097-2.6402,24.0401-7.2603,34.0098
				c-9.1699,19.8501-26.1196,33.1699-45.52,33.1699c-20.7397,0-38.6899-15.2197-47.3096-37.3799
				c-2.31-5.9297-3.9604-12.3598-4.8003-19.1299c-0.4399-3.4702-0.6699-7.04-0.6699-10.6699c0-1.4702,0.0401-2.9399,0.1201-4.3901
				c0.0401-0.8799,0.0899-1.7398,0.1597-2.6001c0.79-9.71,3.2002-18.7998,6.8901-26.8301c-7.6899,1.02-17.8598,1.6304-21.06-1.5698
				c-1.5899-1.5899-5.7798-6.4702-1.2598-11.2398c4.19-4.4204,20.9497,1.6499,27.8701,3.4497
				c8.1099-11.3701,20.2398-21.1699,32.7798-23.3701c2.23-0.3896,4.5098-0.6098,6.8198-0.6396h0.46c0.1904,0,0.3804,0,0.5703,0.0097
				c15.3399,0.2002,32.2559,13.2198,41.7959,26.6997c9.5928-5.0488,21.7139-9.3798,27.874-4.8994
				C266.7179,126.9266,263.3678,133.0467,261.1978,135.2166z"/>
			<path d="M262.3929,136.5241c-0.2624,0.289-0.9728,0.8655-1.4442,1.1549c-0.5203,0.3206-1.0562,0.5989-1.5923,0.8055
				c-1.0776,0.4286-2.1589,0.6472-3.2209,0.8081c-2.1245,0.3145-4.1966,0.365-6.2461,0.3243c-2.0493-0.0475-4.072-0.234-6.08-0.4593
				c-2.0077-0.2321-3.9962-0.5612-5.9744-0.9103l-0.0006-0.0001l0.6985-0.9234c2.1004,4.9411,3.7105,10.1036,4.7579,15.3854
				c1.0516,5.2849,1.5929,10.6572,1.64,16.0701c0.0568,5.3737-0.4081,10.7986-1.3664,16.1214
				c-0.9571,5.33-2.5038,10.5606-4.5609,15.5902c-2.0555,5.0085-4.6641,9.8608-7.825,14.3067
				c-3.1648,4.4504-6.8897,8.5441-11.1822,12.0036c-4.2866,3.4571-9.1366,6.2843-14.3754,8.174
				c-5.2292,1.8615-10.8967,2.737-16.4049,2.5394c-5.6566-0.1871-11.146-1.4841-16.2743-3.7027
				c-5.1221-2.2099-9.8159-5.3195-13.9249-9.0226c-8.2362-7.4191-14.2239-17.0397-17.9981-27.2715
				c-1.9182-5.1612-3.2456-10.4802-4.041-15.893c-0.8196-5.3959-1.0202-10.8778-0.7478-16.3211
				c0.0814-1.3727,0.2166-2.7201,0.3275-4.0321l0.2379-2.0391l0.2894-2.0375c0.4185-2.6863,1.0028-5.3431,1.6917-7.9655
				c1.4072-5.237,3.3719-10.3202,5.9581-15.0446l0.7018,0.9505l-0.0023,0.0002c-2.5782,0.7065-5.2076,1.2063-7.8829,1.5139
				c-2.6784,0.2956-5.3969,0.4239-8.2167,0.0962c-1.4143-0.17-2.8499-0.478-4.3354-1.1495
				c-0.721-0.3276-1.5346-0.8568-2.1405-1.4848c-0.5184-0.5348-0.9996-1.0918-1.4458-1.6981
				c-0.8866-1.2045-1.6522-2.5921-2.0319-4.211c-0.3913-1.6046-0.2565-3.4674,0.4472-5.0111
				c0.3458-0.772,0.8013-1.4622,1.3061-2.0709c0.2648-0.315,0.4877-0.5723,0.8194-0.885c0.1292-0.1194,0.4327-0.3753,0.5972-0.4774
				c0.1947-0.1394,0.3943-0.2523,0.5941-0.3633c1.621-0.8282,3.1661-0.9496,4.612-0.9949c1.4517-0.0111,2.8377,0.1411,4.1952,0.3477
				c1.3561,0.213,2.6844,0.4797,3.9919,0.8015c2.6123,0.6504,5.1618,1.4197,7.6715,2.2755c2.5148,0.8306,4.9861,1.7772,7.4511,2.629
				l0.001,0.0004l-0.7188,0.2611c2.2344-3.5931,4.8997-6.9182,7.8086-10.0303c2.9437-3.0793,6.2045-5.8903,9.7916-8.2818
				c3.5773-2.4023,7.5113-4.3474,11.7169-5.6293c2.1064-0.6396,4.2946-1.0405,6.4475-1.2942
				c1.0835-0.1269,2.1724-0.2132,3.2636-0.2593c0.5425-0.0222,1.0839-0.039,1.688-0.0344l0.8085,0.0164l0.7833,0.027
				c4.5071,0.2386,8.7681,1.4324,12.771,3.1264c3.9825,1.7366,7.7191,3.9258,11.1531,6.4855
				c3.4513,2.537,6.626,5.4079,9.5384,8.5053c2.888,3.1189,5.5379,6.4573,7.7528,10.0673l0.002,0.0032l-0.8645-0.2072
				c3.1997-1.7814,6.4968-3.4123,9.9441-4.7488c3.4467-1.3192,7.0446-2.4196,10.9034-2.6519
				c1.9228-0.0858,3.9381,0.041,5.8971,0.7613c0.9601,0.346,1.9495,0.9014,2.7296,1.508c0.8746,0.6696,1.6096,1.4605,2.2034,2.4286
				c0.583,0.962,0.956,2.0843,1.0638,3.2056c0.118,1.1242-0.0085,2.2328-0.2712,3.2676c-0.2673,1.0364-0.6707,2.0072-1.1719,2.9165
				c-0.5052,0.9128-1.0889,1.7585-1.8576,2.573L262.3929,136.5241z M259.9452,133.9639c0.5063-0.4825,1.0058-1.1161,1.4096-1.7766
				c0.4102-0.6633,0.7416-1.371,0.9639-2.0865c0.4495-1.4381,0.4121-2.872-0.2478-4.0874c-0.3238-0.602-0.8153-1.1942-1.3624-1.6572
				c-0.633-0.5371-1.2302-0.9095-1.9633-1.2282c-1.437-0.6219-3.1186-0.8417-4.8185-0.8506
				c-3.4293,0.0228-6.9398,0.872-10.3286,1.9805c-3.4001,1.1205-6.7197,2.5525-9.9602,4.1453l-0.4941,0.2429l-0.3706-0.4501
				l-0.0023-0.0028c-2.6185-3.2127-5.4367-6.2391-8.4723-9.0173c-3.0169-2.7945-6.2386-5.3517-9.6195-7.6332
				c-3.3988-2.2495-6.9414-4.2746-10.6805-5.754c-3.7031-1.5143-7.6335-2.5458-11.4896-2.7224l-0.783-0.0338l-0.7584-0.0221
				c-0.4409-0.0067-0.9445,0.0017-1.4463,0.0179c-0.9973,0.0325-1.994,0.1018-2.9874,0.2085
				c-2.0014,0.2061-3.9344,0.5819-5.8492,1.0857c-3.8337,1.0412-7.501,2.7709-10.9783,4.8436
				c-1.7363,1.046-3.4039,2.2133-5.0421,3.4296c-1.6379,1.2182-3.2009,2.5431-4.7258,3.9158
				c-1.5324,1.3657-3.0095,2.8026-4.4166,4.3106c-1.4001,1.5134-2.7634,3.0694-4.0746,4.6764l-0.2814,0.3449l-0.4377-0.0837
				l-0.0011-0.0002c-2.6259-0.5031-5.1826-1.1336-7.738-1.7321c-2.5571-0.5825-5.1007-1.1732-7.6454-1.6012
				c-2.5289-0.4357-5.0979-0.7834-7.4779-0.6529c-1.1686,0.0553-2.3174,0.2706-3.0357,0.6942
				c-0.0848,0.0538-0.1721,0.1042-0.2416,0.1616c-0.1087,0.0816-0.0555,0.0418-0.17,0.1428
				c-0.1449,0.1412-0.3509,0.3872-0.501,0.5818c-0.3222,0.4146-0.5806,0.8457-0.7582,1.2834
				c-0.3617,0.8714-0.4298,1.77-0.1974,2.724c0.2305,0.9508,0.7498,1.9271,1.4334,2.8287c0.3386,0.4514,0.7253,0.8892,1.1276,1.2956
				c0.3098,0.3219,0.6082,0.5359,1.0769,0.7712c0.9041,0.4534,2.0722,0.7149,3.2552,0.9411
				c2.4012,0.4106,4.9774,0.5182,7.5557,0.5713c2.5866,0.0489,5.2021,0.0105,7.846,0.0293l0.0023-0.0005l1.1374-0.2261
				l-0.4355,1.1768c-1.834,4.9562-3.2876,10.0109-4.2235,15.1551c-0.4899,2.5664-0.8326,5.1553-1.0925,7.7467l-0.1728,1.9264
				l-0.1258,1.9351c-0.0437,1.344-0.1064,2.6505-0.1151,3.9371c-0.1023,5.1928,0.3419,10.3803,1.1356,15.5034
				c0.8096,5.1076,2.1339,10.1505,3.8828,14.9798c1.7867,4.8763,4.051,9.5201,6.848,13.845
				c2.7884,4.3188,6.0897,8.3009,9.8795,11.7272c3.7893,3.4199,8.0604,6.294,12.6943,8.3495
				c4.6131,2.0573,9.6567,3.2759,14.6404,3.4873c5.1283,0.2318,10.1615-0.5271,14.9835-2.1612
				c4.8082-1.6396,9.3272-4.1576,13.3775-7.307c4.0551-3.1506,7.6323-6.937,10.7056-11.1013
				c3.0789-4.178,5.6281-8.7126,7.6989-13.5108c2.0697-4.7803,3.6041-9.7957,4.6807-14.9109
				c1.0738-5.1222,1.6777-10.3331,1.7745-15.6023c0.1056-5.2284-0.2689-10.5055-1.1466-15.6868
				c-0.8819-5.1829-2.2162-10.303-4.103-15.2305l-0.3899-1.0182l1.0885,0.0946l0.0006,0c1.9877,0.0822,3.9742,0.1058,5.9495,0.0999
				c1.9747-0.005,3.9432-0.0774,5.8824-0.233c1.9355-0.1541,3.8565-0.4039,5.6488-0.859c0.8919-0.2311,1.7514-0.5134,2.5231-0.8361
				c0.3957-0.151,0.7483-0.332,1.0936-0.5055c0.3763-0.2361,0.4697-0.2565,0.9231-0.6639L259.9452,133.9639z"/>
		</g>
		<path d="M151.898,123.1067c8.1099-11.3701,19.2398-19.1699,31.7798-21.3701c2.23-0.3896,4.5098-0.6098,6.8198-0.6396h0.46
			c0.1904,0,0.3804,0,0.5703,0.0097c0.7901,3.69,1.21,7.5303,1.21,11.48c0,17.4976,0.664,50.3057-20.2383,49.4488
			c-17.5674-0.7203-16.5596,1.5839-28.5117,2.2114c-1.9278,0.1011-3.8203-0.1201-5.69-0.3501
			c0.0401-0.8799,0.0899-1.7398,0.1597-2.6001c0.79-9.71,3.2002-18.7998,6.8901-26.8301L151.898,123.1067z"/>
		<g>
			<path fill="#ECEDED" d="M213.8277,112.3548c0,0,21.2866-11.3838,6.8355-35.5c44.4321,15.4194,9.8261,50.5449,9.8261,50.5449"/>
			<path d="M213.5102,111.7744c0.6497-0.4631,1.3077-0.9885,1.9331-1.518c0.6291-0.5331,1.2194-1.1098,1.7992-1.6887
				c0.588-0.5716,1.1199-1.1947,1.657-1.8053c0.524-0.6231,1.0181-1.267,1.478-1.9313c0.9366-1.3172,1.7077-2.7322,2.3481-4.1927
				l0.4402-1.1118l0.3676-1.1361c0.2143-0.7659,0.4199-1.5354,0.5443-2.323c0.0853-0.3895,0.1257-0.7864,0.1665-1.1833
				c0.0424-0.3966,0.0991-0.792,0.0991-1.1929c0.0122-0.3996,0.0441-0.799,0.0482-1.1997l-0.0343-1.2047
				c-0.0473-0.8024-0.1264-1.608-0.2497-2.4085c-0.1246-0.8018-0.2581-1.6046-0.4702-2.3958c-0.1689-0.8-0.4273-1.581-0.6592-2.3715
				c-0.2285-0.7922-0.5657-1.5508-0.8242-2.3405c-0.3064-0.7717-0.6451-1.5337-0.9673-2.3054
				c-0.3753-0.7465-0.7325-1.5056-1.0901-2.269l-0.0013-0.0011l-1.191-1.0562l1.9761,0.0903
				c1.436,0.0656,2.8559,0.2568,4.2739,0.4913c1.393,0.3136,2.7784,0.7026,4.1502,1.1519c0.6735,0.2625,1.3441,0.5401,2.0109,0.8312
				c0.6714,0.2845,1.3404,0.5699,1.9752,0.951c0.6475,0.3534,1.2744,0.7436,1.9143,1.1175c0.6495,0.355,1.2122,0.8752,1.8225,1.3092
				c1.2239,0.8652,2.2813,2.0002,3.3571,3.0814l1.4542,1.8197c0.5079,0.5842,0.8656,1.3056,1.2989,1.9559
				c0.4365,0.6528,0.7683,1.3724,1.0917,2.0961l0.4909,1.0795c0.1386,0.3703,0.2527,0.7512,0.3781,1.1267
				c0.2495,0.7526,0.5008,1.5039,0.6176,2.2872c0.1436,0.7757,0.3245,1.5465,0.3567,2.3291
				c0.1711,1.5583,0.1408,3.1164-0.0138,4.636c-0.1484,1.5235-0.442,3.008-0.838,4.4456c-0.3947,1.4384-0.8902,2.828-1.4655,4.1698
				c-0.5727,1.3421-1.226,2.6341-1.9441,3.8777c-0.7191,1.2422-1.4808,2.4477-2.29,3.6116
				c-0.8193,1.1578-1.6893,2.2717-2.5956,3.3464c-0.888,1.0888-1.8603,2.1048-2.8421,3.0999
				c-0.9828,0.9996-2.013,1.929-3.1226,2.8202l-0.9425-0.9286c0.7772-1.0822,1.5294-2.2245,2.2585-3.3512
				c0.7255-1.1348,1.4137-2.2883,2.0819-3.4428c0.6758-1.1504,1.2802-2.3369,1.87-3.5169c0.5977-1.1759,1.1389-2.3715,1.6306-3.5763
				c0.9618-2.417,1.7496-4.8608,2.1895-7.3071c0.2104-1.2226,0.3571-2.4395,0.392-3.6409c0.0303-1.2001-0.0263-2.3858-0.207-3.535
				c-0.043-0.5856-0.2214-1.1379-0.3509-1.6991c-0.108-0.5683-0.3205-1.1029-0.5153-1.6415
				c-0.0992-0.2686-0.184-0.5423-0.2909-0.8077l-0.3886-0.7697c-0.248-0.5172-0.4964-1.0338-0.8429-1.5054
				c-0.336-0.475-0.5712-1.0047-0.9775-1.4423l-1.1127-1.3712c-0.8781-0.8236-1.6507-1.7311-2.6282-2.4959
				c-0.8878-0.8414-1.9061-1.5752-2.896-2.3643c-0.982-0.8003-2.0936-1.4688-3.1167-2.2879
				c-1.0939-0.7193-2.1929-1.4669-3.2887-2.2724c-1.1329-0.7383-2.264-1.5201-3.379-2.4273l0.785-0.9658l0.0003,0.0017
				c0.4773,0.72,0.9556,1.4439,1.4147,2.1811c0.4186,0.7606,0.8548,1.5154,1.2611,2.2886c0.3709,0.7912,0.7697,1.573,1.083,2.3949
				c0.3143,0.8214,0.6541,1.6365,0.8802,2.4947c0.2748,0.8421,0.4714,1.7091,0.6561,2.5818c0.1805,0.872,0.288,1.7644,0.3733,2.6558
				l0.0827,1.3459c0.0095,0.4498-0.0051,0.9014-0.0108,1.3524c0.0024,0.4516-0.0535,0.9011-0.0969,1.3512
				c-0.0418,0.4504-0.0846,0.9008-0.1744,1.3454c-0.1332,0.8967-0.3546,1.7766-0.5916,2.6515l-0.4355,1.2876l-0.5175,1.2549
				c-0.375,0.8224-0.7835,1.629-1.2589,2.3944c-0.4716,0.7668-0.9853,1.504-1.5309,2.2135
				c-0.5578,0.7004-1.1531,1.3658-1.7724,2.0041c-0.627,0.6307-1.2853,1.2271-1.9725,1.7838
				c-0.6791,0.5666-1.4095,1.0673-2.1481,1.5473c-0.7439,0.4803-1.493,0.9195-2.3279,1.2899L213.5102,111.7744z"/>
		</g>
		<g>
			<path fill="#F0DAE9" d="M236.4776,202.2967c-9.1699,19.8501-26.1196,33.1699-45.52,33.1699
				c-20.7397,0-38.6899-15.2197-47.3096-37.3799c12.0396-6.31,10.0845-21.0595,42.5518-21.0595
				C205.5196,177.0272,223.4176,193.4666,236.4776,202.2967z"/>
			<path d="M237.1389,202.1492l-1.9072,3.841c-0.621,1.1384-1.282,2.2647-1.9218,3.3972c-0.6732,1.1114-1.4048,2.1824-2.1047,3.2753
				c-0.7283,1.0735-1.5306,2.0961-2.2927,3.1464c-0.7899,1.0295-1.6567,1.9992-2.4816,3.0014
				c-0.856,0.9758-1.7818,1.89-2.6697,2.8376c-0.9258,0.9106-1.9052,1.7674-2.8556,2.6533
				c-0.9979,0.8322-2.0255,1.6304-3.0372,2.4467c-1.0745,0.7328-2.1318,1.4924-3.2213,2.2021
				c-1.1303,0.6442-2.2265,1.3512-3.3857,1.9424c-2.3192,1.1811-4.7114,2.233-7.1998,3.0082
				c-1.2468,0.3786-2.4849,0.7903-3.7703,1.0221l-1.9111,0.4122c-0.641,0.1145-1.2912,0.1758-1.9364,0.266
				c-0.6468,0.0793-1.2921,0.1754-1.94,0.2405l-1.9534,0.084c-0.6599,0.0135-1.2827,0.0875-1.973,0.0509l-1.929-0.0883
				c-0.6447-0.0442-1.2823-0.0258-1.9328-0.1213l-1.9492-0.2671c-0.6456-0.1053-1.3085-0.1438-1.9397-0.3051l-1.9049-0.4397
				c-1.2827-0.248-2.5129-0.6821-3.7515-1.0866c-1.2555-0.3597-2.439-0.9093-3.64-1.4127c-1.2195-0.466-2.3485-1.1203-3.5051-1.7172
				c-1.1756-0.566-2.2456-1.3122-3.3515-1.9972c-1.125-0.6591-2.1346-1.4838-3.1839-2.2516
				c-1.0689-0.7452-2.0195-1.6353-3.0065-2.4807c-1.0082-0.824-1.9032-1.7676-2.8227-2.6855
				c-0.9436-0.8958-1.7883-1.8826-2.6352-2.8674c-0.4222-0.4931-0.86-0.9736-1.2692-1.4772l-1.1769-1.5512l-1.1765-1.5515
				l-1.0804-1.6188c-0.7168-1.0818-1.4507-2.153-2.0687-3.295c-0.6272-1.1348-1.3396-2.2245-1.8823-3.4041
				c-0.5628-1.1678-1.1831-2.3096-1.698-3.4992l-1.5164-3.5817l-0.1709-0.4037l0.4174-0.254l0.0013-0.0008
				c1.7282-1.3718,3.2765-2.7982,4.6241-4.4774c1.3507-1.6808,2.6139-3.4278,3.9903-5.2591
				c1.3881-1.7959,2.9121-3.6112,4.7427-5.1806c1.7764-1.6255,3.8624-2.9226,6.0066-4.0224
				c0.5254-0.3113,1.0885-0.5112,1.6435-0.7361l1.6702-0.6651c0.5533-0.2444,1.1226-0.4018,1.6939-0.5532l1.7108-0.4724
				c1.1376-0.3609,2.2902-0.5214,3.4414-0.7205c1.1507-0.189,2.3022-0.4281,3.4505-0.4953l3.4465-0.3145
				c1.148-0.097,2.287-0.0759,3.4307-0.1187l1.7136-0.0411l0.8567-0.0202l0.2141-0.005l0.1071-0.0025l0.2329,0.0051l0.4165,0.0238
				c1.1188,0.0681,2.2039,0.1127,3.3487,0.2308l3.6142,0.5903l3.4117,0.8723c2.2288,0.6934,4.4273,1.4575,6.5281,2.412
				c1.0744,0.4324,2.0776,0.9891,3.1081,1.4945c1.0361,0.4977,2.0294,1.0603,3.0181,1.6284
				c0.9983,0.5539,1.9828,1.1252,2.9366,1.7388c0.9632,0.5994,1.933,1.1912,2.8539,1.8455c1.878,1.2618,3.6994,2.5856,5.5071,3.9196
				c1.8023,1.3391,3.5497,2.7417,5.2959,4.1349c1.7441,1.3938,3.4645,2.8107,5.1797,4.228
				c1.7255,1.4024,3.4298,2.8257,5.1738,4.2014L237.1389,202.1492z M235.7921,202.4927c-1.7938-1.0659-3.5856-2.1407-5.3262-3.2802
				c-1.8759-1.2113-3.7425-2.4284-5.5916-3.6601l-2.7868-1.8189l-2.7934-1.7887c-1.8673-1.1756-3.7394-2.3352-5.6436-3.4197
				c-0.9414-0.565-1.9116-1.0652-2.8631-1.5992c-0.9487-0.5421-1.9172-1.0365-2.8927-1.5112
				c-0.9689-0.4906-1.9391-0.9747-2.935-1.3875c-0.9918-0.4215-1.9641-0.8989-2.978-1.2419
				c-1.0117-0.3468-1.9891-0.805-3.0107-1.0968c-1.0184-0.2986-2.0253-0.6501-3.0485-0.9088l-3.0792-0.6841l-2.9869-0.4033
				c-1.0695-0.074-2.2122-0.0889-3.3139-0.1531l-0.4167-0.0193l-0.0521-0.0024c0.2459,0.0066,0.0536,0.0023,0.1019,0.0041
				l-0.0254,0.0009l-0.1014,0.0036l-0.2029,0.0072l-0.8114,0.0287l-1.6227,0.0569c-1.0786,0.0526-2.17,0.0413-3.2376,0.1447
				l-3.198,0.327c-1.0768,0.071-2.1049,0.3049-3.1477,0.4865c-1.0375,0.1988-2.0953,0.3393-3.087,0.6431
				c-2.0367,0.4871-3.9955,1.1321-5.8692,1.9392l-1.3795,0.6501c-0.2291,0.1104-0.4652,0.2102-0.6897,0.3287l-0.6471,0.3972
				l-1.312,0.7762c-0.4347,0.2655-0.8264,0.5977-1.2445,0.8929c-1.678,1.176-3.1945,2.6426-4.7629,4.1643
				c-1.5567,1.5139-3.1426,3.194-4.9409,4.6587c-1.7606,1.5232-3.8696,2.6891-6.0016,3.5251l-0.0014,0.0009l0.2464-0.6574
				l1.4952,3.5313c0.5074,1.1729,1.1193,2.2972,1.6735,3.4485c0.5341,1.1631,1.2368,2.235,1.8541,3.3531
				c0.6082,1.1254,1.3312,2.179,2.0366,3.2437l1.0629,1.5934l1.1575,1.5256l1.1571,1.5259c0.4023,0.495,0.8328,0.9668,1.2477,1.4514
				c0.8322,0.9678,1.6618,1.9381,2.5885,2.8167c0.9028,0.9009,1.7811,1.8285,2.7702,2.6356
				c0.9682,0.8288,1.9001,1.7034,2.9477,2.4323c1.0282,0.7518,2.017,1.5617,3.1184,2.2054
				c1.0826,0.6698,2.1295,1.4022,3.2792,1.9541c1.131,0.583,2.2347,1.2248,3.4261,1.6785c1.1733,0.4913,2.3292,1.0301,3.5548,1.3796
				c1.2091,0.3945,2.4097,0.8199,3.661,1.0604l1.8582,0.4295c0.6177,0.1585,1.2492,0.1917,1.873,0.2943l1.8767,0.2603
				c0.6235,0.0941,1.2806,0.0768,1.9193,0.1206l1.929,0.0883c0.5957,0.0344,1.2592-0.0378,1.8854-0.0512l1.9052-0.0811
				c0.6319-0.0638,1.2612-0.1581,1.8919-0.2354c0.6292-0.0881,1.2634-0.1469,1.8886-0.2586l1.864-0.4028
				c1.2539-0.2248,2.462-0.6283,3.6789-0.9973c2.4288-0.7561,4.7655-1.7844,7.0331-2.9385c1.1335-0.5777,2.2057-1.2709,3.3121-1.9
				c1.0663-0.6951,2.1017-1.4396,3.1545-2.1563c0.9912-0.801,1.9985-1.5829,2.9773-2.3986c0.932-0.87,1.8931-1.7098,2.802-2.6036
				c0.8715-0.9313,1.781-1.8282,2.6221-2.787c0.8104-0.9857,1.6627-1.9378,2.4394-2.9504c0.7491-1.0336,1.5388-2.0387,2.2554-3.0952
				c0.6879-1.0752,1.4102-2.132,2.0705-3.2219c0.6258-1.1094,1.2698-2.204,1.8821-3.3246L235.7921,202.4927z"/>
		</g>
		<ellipse fill="#FFFFFF" cx="174.4014" cy="126.8904" rx="4.6445" ry="8.67"/>
		<ellipse cx="202.8946" cy="126.597" rx="4.8701" ry="8.4414"/>
		<g>
			<ellipse fill="#FCF6C1" cx="173.6756" cy="198.1243" rx="6.9958" ry="4.7329"/>
			<path d="M181.9146,198.2171c0,0-0.0222,0.144-0.0638,0.4139c-0.0198,0.1352-0.0984,0.4417-0.1798,0.7158
				c-0.1024,0.2603-0.2087,0.5368-0.3831,0.8188c-0.3231,0.5781-0.8454,1.1639-1.5247,1.6416
				c-0.6766,0.4828-1.4966,0.872-2.4054,1.1523c-0.9076,0.2882-1.9075,0.4653-2.9675,0.5443
				c-0.2713,0.009-0.5464,0.0181-0.8248,0.0273c-0.2628-0.0052-0.501,0.0103-0.7927-0.0118
				c-0.5848-0.0365-1.1509-0.0964-1.7263-0.232c-1.1599-0.2227-2.3295-0.6867-3.4281-1.4494
				c-1.0667-0.7611-2.0842-2.0582-2.1854-3.7131l0.0004-0.5301c0.0062-0.1703,0.0525-0.4402,0.0905-0.6566
				c0.0971-0.4286,0.2144-0.7901,0.3924-1.1469c0.3414-0.7067,0.813-1.3151,1.339-1.8136c1.0562-0.9994,2.3169-1.597,3.5501-1.9674
				c1.2222-0.3432,2.5414-0.489,3.6037-0.4167c1.2834,0.0634,2.309,0.3546,3.2967,0.7772c1.9337,0.8521,3.2648,2.3104,3.8063,3.5984
				c0.2802,0.636,0.3682,1.1998,0.3972,1.575c0.0057,0.3783,0.0087,0.5801,0.0087,0.5801L181.9146,198.2171z M179.4248,198.1243
				c-0.0274,0.0039,0.0073-0.3733-0.3616-0.9154c-0.1704-0.2733-0.4692-0.586-0.9127-0.8655
				c-0.4389-0.2816-1.0109-0.5347-1.6777-0.7229c-0.6409-0.1952-1.4779-0.3265-2.1887-0.3844
				c-0.9296-0.0526-1.7355-0.0455-2.6267,0.143c-0.8784,0.1475-1.722,0.4936-2.4395,0.9447
				c-0.3535,0.2325-0.6472,0.5111-0.8717,0.8123c-0.117,0.1414-0.2037,0.3287-0.2689,0.4545
				c-0.0194,0.0677-0.058,0.0779-0.0866,0.1952l-0.0339,0.2159l-0.017,0.108l-0.0085,0.054l-0.0042,0.027l-0.0021,0.0135
				c0.0009-0.037-0.0049,0.1018,0.0014-0.0795c-0.0994,0.7094,0.2514,1.55,0.929,2.2346c0.6753,0.6877,1.6101,1.1675,2.5618,1.4625
				c0.4768,0.149,0.9771,0.2317,1.4347,0.294c0.2295,0.0366,0.5115,0.0403,0.7601,0.0617c0.2042,0.0083,0.4662-0.01,0.692-0.0127
				c0.9342-0.0424,1.7968-0.288,2.5178-0.6176c1.4607-0.6797,2.2403-1.7355,2.466-2.3935c0.0704-0.1628,0.0935-0.3281,0.1211-0.4376
				c-0.0033-0.1124,0.0205-0.1292,0.0212-0.2656c-0.0011-0.2732-0.0017-0.4189-0.0017-0.4189L179.4248,198.1243z"/>
		</g>
		<g>
			<ellipse fill="#FCF6C1" cx="198.2047" cy="198.6785" rx="7.8706" ry="4.5918"/>
			<path d="M207.0307,198.761c0,0-0.022,0.1542-0.0632,0.4434c-0.0417,0.185-0.1146,0.4779-0.2194,0.7484
				c-0.1179,0.2458-0.2472,0.534-0.4514,0.8007c-0.7791,1.1285-2.3172,2.0569-4.2017,2.6571
				c-0.9474,0.3014-1.9977,0.5439-3.1287,0.635c-0.2892,0.0174-0.5823,0.035-0.8791,0.0529
				c-0.2798,0.0023-0.5411,0.019-0.8451,0.0098c-0.6246-0.0166-1.235-0.0672-1.8587-0.1604
				c-1.2479-0.185-2.5479-0.538-3.7943-1.2745c-0.6186-0.3744-1.2263-0.8479-1.7383-1.5036
				c-0.5095-0.6453-0.9038-1.5332-0.935-2.4901l0.0182-0.5898c0.0376-0.2616,0.0952-0.5413,0.165-0.8071
				c0.0768-0.2204,0.1611-0.429,0.2496-0.6421c0.0978-0.1994,0.2159-0.3835,0.3289-0.573c0.483-0.7182,1.0794-1.2596,1.6922-1.7068
				c1.2451-0.8674,2.5779-1.3427,3.8746-1.6186c1.2847-0.2727,2.6099-0.3152,3.7256-0.2091
				c1.2542,0.1143,2.3284,0.3846,3.3254,0.7638c1.9685,0.7553,3.4673,1.963,4.1695,3.1983
				c0.3662,0.6016,0.4871,1.1924,0.5452,1.5767c0.0157,0.3954,0.0242,0.6063,0.0242,0.6063L207.0307,198.761z M205.1162,198.6785
				c0,0-0.0263-0.101-0.053-0.2848c-0.0641-0.1801-0.1399-0.4453-0.3916-0.7502c-0.236-0.3046-0.6136-0.6567-1.1584-0.9641
				c-0.5457-0.3025-1.2411-0.5627-2.0381-0.7326c-0.786-0.1728-1.7167-0.2644-2.5985-0.2624
				c-1.019-0.0057-1.9641,0.082-2.9646,0.2834c-0.982,0.197-1.9702,0.5252-2.7661,1.0257c-0.8096,0.4967-1.3322,1.118-1.3936,1.6854
				c-0.1097,0.5753,0.373,1.3876,1.1756,2.0099c0.7946,0.6313,1.8159,1.0816,2.8466,1.3694
				c0.5169,0.1535,1.0488,0.2344,1.543,0.3054c0.2555,0.0357,0.5505,0.0482,0.8188,0.073c0.2195,0.0174,0.502,0.0122,0.7455,0.0159
				c1.005-0.0213,1.9597-0.1408,2.7952-0.3916c1.6931-0.48,2.7959-1.5069,3.1634-2.2392c0.1121-0.1801,0.1534-0.3502,0.2084-0.4902
				c0.0237-0.1305,0.0353-0.19,0.0569-0.2879c0.0091-0.292,0.0139-0.4477,0.0139-0.4477L205.1162,198.6785z"/>
		</g>
		<g>
			<path fill="#FFFFFF" d="M229.992,91.0149c0,0,0.0732,0.0572,0.2105,0.1645c0.136,0.1172,0.3356,0.2988,0.5681,0.5269
				c0.4687,0.4638,1.0864,1.1708,1.7234,2.1244c0.2823,0.4925,0.638,1.0156,0.8929,1.6345
				c0.3058,0.5991,0.5317,1.2776,0.7502,2.0021c0.1233,0.3563,0.1795,0.7424,0.2505,1.133c0.0617,0.3927,0.1589,0.7868,0.1678,1.201
				c0.0204,0.8292,0.0777,1.6865-0.1056,2.5476c-0.0799,0.4274-0.105,0.8738-0.2473,1.2879
				c-0.1456,0.4158-0.2906,0.8299-0.4344,1.2408c-0.0772,0.204-0.145,0.4136-0.2328,0.6099l-0.3181,0.554
				c-0.218,0.3654-0.4333,0.7264-0.6451,1.0815c-0.44,0.6951-1.0149,1.2188-1.4948,1.7841
				c-0.4856,0.5672-1.0403,0.9278-1.5829,1.2469c-0.5465,0.3063-1.0924,0.5085-1.6244,0.5366
				c-0.5262,0.0519-1.0092,0.0299-1.4276-0.0496c-0.4076-0.0592-0.748-0.1696-0.9811-0.2552
				c-0.2405-0.1059-0.3687-0.1623-0.3687-0.1623l-0.4449-0.8957c0,0,0.0208-0.1428,0.0599-0.4107
				c0.0465-0.2476,0.116-0.5955,0.2303-0.9571c0.1034-0.3818,0.254-0.771,0.4547-1.1402c0.2261-0.3472,0.4061-0.7583,0.6687-1.0961
				c0.1307-0.1709,0.2819-0.3249,0.453-0.4669c0.1761-0.1386,0.3683-0.2695,0.5004-0.4456c0.2856-0.3351,0.6567-0.655,0.9424-1.0257
				c0.1344-0.1906,0.271-0.3843,0.4093-0.5804c0.153-0.1907,0.2925-0.3909,0.3838-0.6143l0.345-0.6541
				c0.116-0.2218,0.1673-0.4718,0.2639-0.7089c0.2119-0.4696,0.2709-1.0021,0.4075-1.5237c0.0565-0.5345,0.1617-1.084,0.1573-1.635
				c0.0235-0.5543,0.021-1.1032-0.0216-1.6393c-0.0123-0.5376-0.0973-1.0496-0.1423-1.5372
				c-0.0736-0.4911-0.1411-0.9412-0.2008-1.3402c-0.0686-0.4048-0.1457-0.7567-0.2038-1.0518
				c-0.0603-0.2932-0.1077-0.5235-0.14-0.6805c-0.0297-0.1601-0.0567-0.2525-0.0567-0.2525L229.992,91.0149z"/>
		</g>
		<g>
			<path fill="#FFFFFF" d="M143.6682,89.2133c0,0,0.0018-0.005,0.0053-0.0148l0.0066-0.0184l0.0042-0.0119
				c0.0121-0.0151,0.0443-0.0472,0.0719-0.0697l0.0475-0.036l0.0258-0.017l0.0134-0.0082c0.0164-0.0087,0.0634-0.0292,0.1074-0.0397
				c0.1971-0.0851,0.5518,0.1001,0.5965,0.2404c0.0345,0.0576,0.0567,0.1142,0.0714,0.184c0.0145,0.0643,0.0137,0.148,0.0067,0.1954
				l-0.002,0.031l-0.0074,0.0666c-0.002,0.0428-0.0043,0.0924-0.0069,0.1486c-0.0064,0.1772-0.0092,0.3947-0.0039,0.6762
				c-0.0132,0.5489,0.0094,1.319,0.0676,2.1727c0.0685,0.8559,0.1966,1.7997,0.4399,2.7016
				c0.2489,0.9045,0.6049,1.7576,1.0649,2.5245c0.465,0.7665,1.0272,1.4634,1.6535,2.0952c0.318,0.31,0.6487,0.597,0.9351,0.923
				c0.2857,0.3262,0.5623,0.6613,0.8043,1.0125c0.2501,0.3441,0.4666,0.7103,0.665,1.0525c0.1961,0.3453,0.3497,0.708,0.4941,0.9893
				c0.1243,0.319,0.2403,0.5535,0.2997,0.7559c0.0677,0.1862,0.0974,0.3038,0.0974,0.3038l-0.4179,0.9087
				c0,0-0.11,0.0511-0.3041,0.1124c-0.2003,0.0732-0.4753,0.1386-0.8303,0.2051c-0.3404,0.0397-0.7682,0.0952-1.2296,0.0704
				c-0.4584-0.0289-0.97-0.1037-1.499-0.2646c-0.5254-0.1705-1.0794-0.405-1.6172-0.7531
				c-0.5403-0.3431-1.0489-0.8034-1.5369-1.3286c-0.9894-1.0321-1.8905-2.3766-2.4398-3.8717
				c-0.5617-1.4914-0.7456-3.0968-0.6068-4.5095c0.1223-1.4193,0.5359-2.6436,1.0028-3.5982
				c0.463-0.9596,1.0023-1.6537,1.3809-2.1135c0.2006-0.2236,0.3642-0.3979,0.4619-0.4915
				c0.0265-0.0232,0.0458-0.0379,0.0573-0.0322l0.0023,0.028l0.0025,0.0129c-0.0067,0.0414-0.0081,0.1191,0.0063,0.1776
				c0.0144,0.0642,0.0368,0.1147,0.0706,0.1673c0.0392,0.1399,0.3885,0.3246,0.5804,0.2391
				c0.0427-0.0105,0.0883-0.0314,0.1036-0.0398l0.0103-0.0058l0.0198-0.0124l0.036-0.0271
				c0.0203-0.0167,0.0453-0.0437,0.0512-0.0533l-0.0116,0.0048l-0.0179,0.0074c-0.0096,0.004-0.0144,0.006-0.0144,0.006
				L143.6682,89.2133z"/>
		</g>
		<g>
			<path fill="#F0DAE9" d="M256.7345,128.7445c0,0-0.0485,0.1583-0.1394,0.4551c-0.0871,0.3255-0.2367,0.6597-0.4201,1.1293
				c-0.1968,0.3758-0.4263,0.9054-0.7146,1.3374c-0.2884,0.4321-0.6193,0.8835-1.0008,1.2319
				c-0.7549,0.7557-1.699,1.1938-2.7643,1.2541c-1.0584,0.1156-2.1974,0.1638-3.3527,0.0941
				c-2.3071-0.1228-4.6795-0.7372-6.4821-1.5829c-0.4471-0.1942-0.8647-0.4246-1.2303-0.631
				c-0.3656-0.2075-0.6847-0.4133-0.9483-0.5982c-0.2614-0.1963-0.4667-0.3505-0.6068-0.4556
				c-0.1392-0.1198-0.2134-0.1836-0.2134-0.1836l-0.0263-0.4995c0,0,0.0659-0.0728,0.1894-0.2093
				c0.1227-0.1219,0.3027-0.3007,0.5317-0.5282c0.4548-0.432,1.1025-0.9914,1.8798-1.5563c0.7776-0.567,1.6873-1.1475,2.6757-1.6383
				c0.985-0.5172,2.0493-0.9368,3.1252-1.2772c1.0753-0.337,2.1649-0.5715,3.1954-0.7237c1.0234-0.2095,2.0279-0.0293,2.9427,0.5009
				c0.4533,0.2352,0.8877,0.5836,1.2773,0.9219c0.3899,0.3391,0.7514,0.7869,1.0413,1.0946c0.3033,0.4021,0.536,0.6821,0.7097,0.971
				c0.1697,0.2599,0.2603,0.3985,0.2603,0.3985L256.7345,128.7445z"/>
		</g>
		<g>
			<path fill="#F0DAE9" d="M128.4844,125.466c0,0,0.1189-0.0655,0.2836-0.1731c0.1792-0.1259,0.4144-0.2367,0.7184-0.4174
				c0.2758-0.1205,0.6335-0.3266,0.9858-0.4595c0.3634-0.1398,0.7474-0.2753,1.1494-0.3535
				c0.8019-0.1767,1.6623-0.1728,2.5433,0.0859c0.8934,0.2138,1.8541,0.4547,2.8278,0.7433
				c0.9706,0.2825,1.9531,0.6115,2.8821,0.962c0.466,0.1663,0.9132,0.3708,1.3447,0.5447c0.43,0.189,0.839,0.3674,1.2166,0.5615
				c0.756,0.3715,1.3946,0.7418,1.8428,1.0101c0.4477,0.2889,0.7055,0.4814,0.7055,0.4814l-0.0312,0.7492
				c0,0-0.2735,0.164-0.7557,0.403c-0.481,0.2079-1.1731,0.5407-2.0081,0.7799c-0.8354,0.2544-1.8159,0.4937-2.871,0.6193
				c-0.5287,0.0888-1.0728,0.1113-1.6304,0.1472c-0.5536,0.0158-1.1219,0.0402-1.6857-0.0013
				c-0.5659-0.0111-1.1305-0.0651-1.6862-0.1407c-0.5576-0.048-1.1005-0.176-1.6293-0.2732
				c-1.0657-0.1788-2.0088-0.6459-2.7298-1.302c-0.3635-0.3054-0.6686-0.6872-0.9188-1.0371
				c-0.2549-0.3609-0.4278-0.7624-0.5796-1.0677c-0.1277-0.3551-0.2227-0.6245-0.2694-0.8557
				c-0.06-0.216-0.0582-0.3448-0.0582-0.3448L128.4844,125.466z"/>
		</g>
	</g>
	<path d="M261.047,279.8064c0,0-5.295-3.9707-7.501,0.4415c-2.2061,4.4121-4.854,8.8261-4.4126,12.3554s4.854-0.001,7.5015,3.9707
		c2.6474,3.9717,5.7358,5.7364,5.7358,5.7364L261.047,279.8064z"/>
	<path d="M389.0094,277.6004c0,0,6.6172,2.6475,8.8242,2.6475s5.7363,3.9707,6.6191,7.9423
		c0.8828,3.9717-0.4414,11.4727-3.5303,11.9141c-3.0888,0.4414-7.5009-3.0889-7.5009-3.0889L389.0094,277.6004z"/>
	<path d="M205.8912,272.3055c0,0,7.0601,6.6191,7.0601,9.2666c0,2.6474-0.8824,6.6172-3.0889,8.8242
		c-2.2066,2.207-7.501-3.0889-7.501-3.0889h-2.6474"/>
	<path fill="#FFFFFF" d="M210.7955,113.7171c0,0,7.5723-3.1548,14.1977,3.5757c6.6255,6.7304,4.522,8.3081,6.0997,11.8838
		C232.6705,132.7522,210.7955,113.7171,210.7955,113.7171z"/>
</g>
</svg>
