<?xml version="1.0"?>
<svg xmlns:rdf="http://www.w3.org/1999/02/22-rdf-syntax-ns#" xmlns="http://www.w3.org/2000/svg" xmlns:cc="http://creativecommons.org/ns#" xmlns:xlink="http://www.w3.org/1999/xlink" xmlns:dc="http://purl.org/dc/elements/1.1/" xmlns:svg="http://www.w3.org/2000/svg" id="svg10018" viewBox="0 0 1000 1000" version="1.1">
  <title id="title3052">Beachball</title>
  <defs id="defs10020">
    <radialGradient id="radialGradient5608" gradientUnits="userSpaceOnUse" cy="130" cx="1036" r="19">
      <stop id="stop5604" stop-color="#fff" offset="0"/>
      <stop id="stop5606" stop-color="#fff" stop-opacity="0" offset="1"/>
    </radialGradient>
    <linearGradient id="linearGradient5486" y2="169.8" gradientUnits="userSpaceOnUse" x2="861.36" gradientTransform="matrix(-.87403 3.6699 -3.6699 -.87403 2120.3 -2752.6)" y1="194.5" x1="833.28">
      <stop id="stop5544" stop-color="#ff8037" offset="0"/>
      <stop id="stop5546" stop-color="#ffa546" offset="1"/>
    </linearGradient>
    <linearGradient id="linearGradient5550" y2="191.97" gradientUnits="userSpaceOnUse" x2="1104.3" gradientTransform="matrix(3.7726 0 0 3.7726 -3255.2 -167.06)" y1="170.13" x1="1090.5">
      <stop id="stop5554" stop-color="#fa8a8d" offset="0"/>
      <stop id="stop5556" stop-color="#f9353a" offset="1"/>
    </linearGradient>
    <linearGradient id="linearGradient5548" y2="130.78" gradientUnits="userSpaceOnUse" x2="1102.6" gradientTransform="matrix(3.7726 0 0 3.7726 -3255.2 -167.06)" y1="142.89" x1="1079.6">
      <stop id="stop5538" stop-color="#a8ed81" offset="0"/>
      <stop id="stop5540" stop-color="#66c430" offset="1"/>
    </linearGradient>
    <linearGradient id="linearGradient5480" y2="179.65" gradientUnits="userSpaceOnUse" x2="914.97" gradientTransform="matrix(-.87403 3.6699 -3.6699 -.87403 2120.3 -2752.6)" y1="288.41" x1="993.9">
      <stop id="stop5520" stop-color="#ffd05b" offset="0"/>
      <stop id="stop5522" stop-color="#fff0cb" offset="1"/>
    </linearGradient>
    <linearGradient id="linearGradient5478" y2="200.79" gradientUnits="userSpaceOnUse" x2="1028.7" gradientTransform="matrix(-.87403 3.6699 -3.6699 -.87403 2120.3 -2752.6)" y1="142.32" x1="930.73">
      <stop id="stop5526" stop-color="#bbd5f8" offset="0"/>
      <stop id="stop5528" stop-color="#5e99ea" offset="1"/>
    </linearGradient>
    <radialGradient id="radialGradient5476" gradientUnits="userSpaceOnUse" cy="143.44" cx="118.79" gradientTransform="matrix(-2.3723 -3.7073 2.8205 -1.8049 551.31 1003.3)" r="102.5">
      <stop id="stop5514" stop-color="#dfa0ed" offset="0"/>
      <stop id="stop5516" stop-color="#c650df" offset="1"/>
    </radialGradient>
    <radialGradient id="radialGradient5726" gradientUnits="userSpaceOnUse" cy="130" cx="1036" gradientTransform="matrix(.85031 -.15133 .023845 .89129 151.98 170.91)" r="19">
      <stop id="stop5616" stop-color="#8a8a8a" offset="0"/>
      <stop id="stop5618" stop-color="#fff" offset="1"/>
    </radialGradient>
  </defs>
  <path id="path5610" d="m1055 130a19 19 0 1 1 -38 0 19 19 0 1 1 38 0z" fill="url(#radialGradient5726)" transform="matrix(16.982 0 0 6.5842 -17067 2.5027)"/>
  <path id="path5458" d="m262 176a102 102 0 1 1 -204 0 102 102 0 1 1 204 0z" fill="#ff9253" transform="matrix(-1.0149 4.2615 -4.2615 -1.0149 1409.9 -35.59)"/>
  <path id="path5460" d="m781.42 365.73c-55.96-133.39-158.36-254.5-296.56-305.93-31.82-8.853-65.88-27.065-98.97-15.138-148.05 37.864-271.14 158.88-310.16 306.82-19.134 69.47-20.998 143.66-4.641 213.86 97.481-104.38 231.68-168.67 369.36-200.96 102.6-19.69 210.34-3.96 306.38 35.65 11.53-11.43 23.06-22.87 34.59-34.3z" fill="url(#radialGradient5476)"/>
  <path id="path5462" d="m880.72 678.52c13.66-129.56-63.09-257.16-63.09-257.16l-58.273 20.782s-14.53 140.84-275.43 277.09c-114.36 59.72-193.69 84.888-267.48 83.579 50.45 42.364 111.22 73.995 179.67 90.297 195.79 46.629 392.17-46.352 484.6-214.59z" fill="url(#linearGradient5478)"/>
  <path id="path5464" fill="url(#linearGradient5480)" d="m762.15 456.03-6.5337-62.636s-166.95-138.76-543.34-28.328c-38.6 11.326-102.49 39.72-150.42 67.793-13.299 164.12 67.66 320.2 204.12 405.4 153.45-21.77 409.19-119.32 496.17-382.23z"/>
  <path id="path5466" d="m934.81 476.8c3.43-155.99-77.4-301.67-208.69-382.13 62.62 115.21 66.05 229.86 54.04 286.03l28.708 33.136 125.95 62.96z" fill="url(#linearGradient5548)"/>
  <path id="path5468" d="m922.92 568.98c8.8516-37.118 12.822-75.395 11.77-113.54-30.68-28.175-72.167-42.562-113.29-45.401-5.9263 9.6168-11.852 19.234-17.778 28.851 30.6 56.545 50.594 119.76 52.968 184.26 1.483 39.929-5.9773 80.148-22.493 116.58-1.841 5.2177-9.2998 20.351-0.52364 7.8253 43.165-51.497 73.836-113.21 89.343-178.58z" fill="url(#linearGradient5550)"/>
  <path id="path5470" d="m791.3 350.23s55.871-123.97-45.451-242.74c-0.0378-0.0227-0.0868-0.004-0.11319-0.0264-43.29-29.85-92.75-52.383-146.97-65.297-88.66-21.115-177.43-13.599-256.63 16.565l1.0922 0.5025c160.22-3.09 340.37 135.15 403.92 272.29z" fill="url(#linearGradient5486)"/>
  <path id="path5472" d="m262 176a102 102 0 1 1 -204 0 102 102 0 1 1 204 0z" fill="#ff6c71" transform="matrix(.26987 .93564 -.68283 .20848 844.41 205.49)"/>
  <path id="path5558" d="m1055 130a19 19 0 1 1 -38 0 19 19 0 1 1 38 0z" fill="url(#radialGradient5608)" transform="matrix(6.6 0 0 6.6 -6269.4 -510.11)"/>
  <metadata>
    <rdf:RDF>
      <cc:Work>
        <dc:format>image/svg+xml</dc:format>
        <dc:type rdf:resource="http://purl.org/dc/dcmitype/StillImage"/>
        <cc:license rdf:resource="http://creativecommons.org/licenses/publicdomain/"/>
        <dc:publisher>
          <cc:Agent rdf:about="http://openclipart.org/">
            <dc:title>Openclipart</dc:title>
          </cc:Agent>
        </dc:publisher>
        <dc:title>Beachball</dc:title>
        <dc:date>2012-05-12T17:08:21</dc:date>
        <dc:description>A basic beachball as they are commonly found in the U.S.A. (and probably the entire world).</dc:description>
        <dc:source>http://openclipart.org/detail/170002/beachball-by-simanek</dc:source>
        <dc:creator>
          <cc:Agent>
            <dc:title>Simanek</dc:title>
          </cc:Agent>
        </dc:creator>
        <dc:subject>
          <rdf:Bag>
            <rdf:li>ball</rdf:li>
            <rdf:li>beach</rdf:li>
            <rdf:li>beachball</rdf:li>
            <rdf:li>clip art</rdf:li>
            <rdf:li>clipart</rdf:li>
            <rdf:li>sports</rdf:li>
            <rdf:li>summer</rdf:li>
          </rdf:Bag>
        </dc:subject>
      </cc:Work>
      <cc:License rdf:about="http://creativecommons.org/licenses/publicdomain/">
        <cc:permits rdf:resource="http://creativecommons.org/ns#Reproduction"/>
        <cc:permits rdf:resource="http://creativecommons.org/ns#Distribution"/>
        <cc:permits rdf:resource="http://creativecommons.org/ns#DerivativeWorks"/>
      </cc:License>
    </rdf:RDF>
  </metadata>
</svg>
