<?xml version="1.0"?>
<svg xmlns:rdf="http://www.w3.org/1999/02/22-rdf-syntax-ns#" xmlns="http://www.w3.org/2000/svg" xmlns:cc="http://creativecommons.org/ns#" xmlns:dc="http://purl.org/dc/elements/1.1/" xmlns:svg="http://www.w3.org/2000/svg" id="svg2" viewBox="0 0 240 124" version="1.1">
  <title id="title3365">Loco Train</title>
  <g id="layer1" transform="translate(0 -928.36)">
    <g id="g2980">
      <path id="rect6969" d="m164.45 978.94h6.2019c1.3291 0 2.399 1.07 2.399 2.399v40.202c0 1.329-1.07 2.399-2.399 2.399h-6.2019c-1.3291 0-2.399-1.07-2.399-2.399v-40.202c0-1.3291 1.07-2.399 2.399-2.399z" fill="#d69600"/>
      <path id="rect6969-1" d="m166.04 979.94h3.0242c1.3291 0 2.399 1.07 2.399 2.399v38.202c0 1.329-1.07 2.399-2.399 2.399h-3.0242c-1.3291 0-2.399-1.07-2.399-2.399v-38.202c0-1.3291 1.07-2.399 2.399-2.399z" fill="#ffd543"/>
      <path id="rect6969-1-4-0" d="m166.05 979.94c-1.3291 0-2.4062 1.0772-2.4062 2.4062v38.187c0 1.0799 0.70974 1.9784 1.6875 2.2813-0.37394-0.4228-0.625-0.9823-0.625-1.5938v-38.187c0-1.3291 1.0772-2.4062 2.4062-2.4062h3.0312c0.25437 0 0.48905 0.0523 0.71875 0.125-0.439-0.49899-1.0926-0.8125-1.8125-0.8125h-3z" fill="#ffe791"/>
      <path id="rect6969-4" d="m209.04 978.94h6.2019c1.3291 0 2.399 1.07 2.399 2.399v40.202c0 1.329-1.07 2.399-2.399 2.399h-6.2019c-1.3291 0-2.399-1.07-2.399-2.399v-40.202c0-1.3291 1.07-2.399 2.399-2.399z" fill="#d69600"/>
      <path id="rect6969-1-9" d="m210.63 979.94h3.0242c1.3291 0 2.399 1.07 2.399 2.399v38.202c0 1.329-1.07 2.399-2.399 2.399h-3.0242c-1.3291 0-2.399-1.07-2.399-2.399v-38.202c0-1.3291 1.07-2.399 2.399-2.399z" fill="#ffd543"/>
      <path id="rect6969-1-4-0-7" d="m210.63 979.94c-1.3291 0-2.4062 1.0772-2.4062 2.4062v38.187c0 1.0799 0.70974 1.9784 1.6875 2.2813-0.37394-0.4228-0.625-0.9823-0.625-1.5938v-38.187c0-1.3291 1.0772-2.4062 2.4062-2.4062h3.0312c0.25437 0 0.48905 0.0523 0.71875 0.125-0.439-0.49899-1.0926-0.8125-1.8125-0.8125h-3z" fill="#ffe791"/>
      <path id="rect6562-63" d="m146.45 1008.9h86.202c1.3291 0 2.399 1.07 2.399 2.399v5.202c0 1.329-1.07 2.399-2.399 2.399h-86.202c-1.3291 0-2.399-1.07-2.399-2.399v-5.202c0-1.329 1.07-2.399 2.399-2.399z" fill="#5c3566"/>
      <path id="path7072" d="m146.47 1010c-0.74884 0-1.3125 0.5498-1.3125 1.2813v5.2187c0 0.7315 0.581 1.3125 1.3125 1.3125h86.188c0.7315 0 1.3125-0.581 1.3125-1.3125v-5.2187c0-0.7315-0.56366-1.2813-1.3125-1.2813h-86.188z" fill="#75507b"/>
      <path id="rect6562-63-2" d="m146.45 998.94h86.202c1.3291 0 2.399 1.07 2.399 2.399v5.202c0 1.329-1.07 2.399-2.399 2.399h-86.202c-1.3291 0-2.399-1.07-2.399-2.399v-5.202c0-1.329 1.07-2.399 2.399-2.399z" fill="#ce5c00"/>
      <path id="path7072-9" d="m146.38 999.94c-0.75009 0-1.3147 0.56284-1.3147 1.3117v5.3432c0 0.7489 0.58198 1.3438 1.3147 1.3438h86.332c0.73273 0 1.3147-0.5949 1.3147-1.3438v-5.3432c0-0.7489-0.56461-1.3117-1.3147-1.3117h-86.332z" fill="#f57900"/>
      <path id="rect6562-63-5" d="m146.45 988.94h86.223c1.3291 0 2.399 1.07 2.399 2.399v5.202c0 1.3291-1.07 2.399-2.399 2.399h-86.223c-1.3291 0-2.399-1.07-2.399-2.399v-5.202c0-1.3291 1.07-2.399 2.399-2.399z" fill="#4e9a06"/>
      <path id="path7072-98" d="m146.39 989.94c-0.75041 0-1.3153 0.56023-1.3153 1.3057v5.3182c0 0.74544 0.58222 1.3375 1.3153 1.3375h86.368c0.73303 0 1.3152-0.59208 1.3152-1.3375v-5.3182c0-0.74545-0.56484-1.3057-1.3152-1.3057h-86.368z" fill="#73d216"/>
      <path id="rect3649-4" d="m129.05 1026.9h105c2 0 2 5 0 5h-105v-5z" fill="#5a5148"/>
      <path id="rect4566" d="m8.0499 946.94h21l-1 35-10 5-10-40z" fill="#d69600"/>
      <path id="path4619" d="m10.3 948.7 8.9375 35.688 7.0938-3.5312 0.90625-32.156h-16.938z" fill="#ffd543"/>
      <path id="rect3649" d="m18.05 1026.9h105v5h-105v-5z" fill="#5a5148"/>
      <path id="rect3536" d="m18.05 1026.9h10l-3 22h-25l18-22z" fill="#5a5148"/>
      <path id="rect3536-2-2-1-6-8" d="m27.05 1026.9-3 19-7 2 7-21h3z" fill="#8d7c6a"/>
      <g id="g3532" transform="matrix(.86872 0 0 1.6709 16.542 -449.69)">
        <path id="path3167-4-2" d="m80 131c0 13.807-11.193 25-25 25s-25-11.193-25-25 11.193-25 25-25 25 11.193 25 25z" fill="#d69600" transform="matrix(.37970 0 0 .23939 -30.376 838)"/>
        <path id="path3260-7" d="m55 109.84c-11.73 0-21.156 9.4267-21.156 21.156 0 11.73 9.4267 21.156 21.156 21.156 11.73 0 21.156-9.4267 21.156-21.156 0-11.73-9.4267-21.156-21.156-21.156z" fill="#ffd543" transform="matrix(.37970 0 0 .23939 -30.376 838)"/>
      </g>
      <path id="path3260-1-4-6" d="m2.1443 1003.8c-0.80739-4.0215 1.7769-7.9041 5.7983-8.7115 0.42788-0.0859 0.85849-0.11805 1.2797-0.12953-4.3083 1.0586-7.041 5.2981-6.1589 9.6915 0.24119 1.2013 0.73981 2.2732 1.4077 3.2045-1.1476-1.0284-1.9984-2.4195-2.3268-4.0549z" fill="#ffe791"/>
      <path id="rect3112" d="m53.05 941.94s46.279-14.551 60 0c5 30 5 40 0 85h-50l-10-85z" fill="#a40000"/>
      <path id="rect4811" d="m13.408 953.34 2.9095-0.2771 3.7408 28.68-0.83129 0.76201-5.819-29.164z" fill="#ffe791"/>
      <path id="rect3118" d="m13.05 986.94c1.9454-2.2127 4.3848-4.046 7.177-5.5583 2.5582-1.3855 5.4125-2.5016 8.4544-3.393 2.8364-0.83118 5.8358-1.467 8.9104-1.9439 2.98-0.4622 6.0304-0.77505 9.0713-0.97165 3.0776-0.19898 6.1453-0.27888 9.1201-0.27403 3.1801 0.005 6.2539 0.10725 9.12 0.26425 3.3758 0.18491 6.4635 0.44605 9.0972 0.71491 5.5232 0.56384 9.0497 1.1617 9.0497 1.1617v50h-64.999s-2.3512-2.8785-4.8144-7.311c-1.2785-2.3005-2.5871-5.0197-3.6128-7.9723-0.93731-2.6981-1.6383-5.5912-1.8641-8.5378-0.22064-2.8796 0.01258-5.8104 0.9227-8.6604 0.83268-2.6075 2.232-5.1473 4.3686-7.5186" fill="#a40000"/>
      <path id="path3382" d="m90.7 938.64c-2.9703 0.0329-5.9911 0.24052-8.9525 0.56028-3.0639 0.33083-6.0641 0.78168-8.879 1.2832-3.2333 0.57608-6.2221 1.219-8.7818 1.8238-4.8251 1.14-8.1256 2.1442-8.6657 2.3089l0.90324 7.6213 0.90315 7.6205 0.90324 7.6213 0.90328 7.6216c0.06286 0.60075-0.48561 1.1914-1.093 1.1771-2.6691-0.0559-5.6118-0.0125-8.6297 0.13635-2.8557 0.14085-5.7788 0.37609-8.6014 0.71082-3.0194 0.35807-5.9237 0.82998-8.5074 1.422-2.1648 0.56285-4.3636 1.3192-6.4667 2.2148-2.1685 0.92338-4.2354 1.9948-6.0588 3.1546-2.1523 1.3692-3.9652 2.8617-5.205 4.3796-1.6161 1.8928-2.7708 3.5958-3.5684 5.2795-0.94099 1.9866-1.3847 3.9465-1.5018 6.1598-0.10853 2.05 0.09152 4.1388 0.5048 6.195 0.41107 2.0451 1.0331 4.0581 1.7722 5.9686 0.99323 2.5673 2.1604 4.8991 3.2745 6.8665 2.0456 3.6122 3.9121 5.9961 4.1942 6.3536 0 0 3.6941-0.023 8.961-0.055 2.6743-0.016 5.7541-0.036 8.9617-0.055 2.9509-0.018 6.0099-0.037 8.9607-0.055 3.2071-0.02 6.2864-0.039 8.9604-0.055 5.267-0.033 8.9613-0.055 8.9613-0.055h47.606c0.35069-3.15 0.67524-6.12 0.97363-8.931 0.33665-3.1716 0.64001-6.1408 0.91006-8.938 0.30812-3.1915 0.57287-6.159 0.79425-8.9474 0.25414-3.2012 0.45111-6.1665 0.59087-8.9638 0.15871-3.1764 0.24365-6.1362 0.25477-8.9788 0.0121-3.0888-0.063-6.0393-0.22525-8.9792-0.16288-2.9509-0.41364-5.8912-0.75233-8.95-0.3137-2.8331-0.70283-5.7677-1.1674-8.9066-0.41066-2.7743-0.88029-5.7082-1.4089-8.8724-1.618-1.6353-3.7578-2.8698-6.2664-3.7666-2.1564-0.77093-4.5853-1.2924-7.1898-1.6046-2.3389-0.28032-4.8194-0.39182-7.3711-0.36356h-0.000048" fill="#ef292a"/>
      <path id="path3419" d="m86.55 945.6c-11.115 0.49856-22.438 4.4062-22.438 4.4062a1.1094 1.1094 0 0 0 -0.71875 1.1875l2.9688 26.969a1.1094 1.1094 0 0 0 0.875 0.96875s7.9067 1.5058 16.625 3.0312c4.3591 0.76272 8.9243 1.5513 12.812 2.125 3.8882 0.57373 7.052 0.9375 8.8438 0.9375a1.1094 1.1094 0 0 0 1.0938 -1.0938c0-4.8972 0.71015-11.944 0.78125-18.406 0.0356-3.2311-0.0694-6.3036-0.53125-8.9688-0.46186-2.6651-1.2588-4.9463-2.7812-6.4688-4.1326-4.1326-10.864-4.9866-17.531-4.6875z" fill="#a40000"/>
      <path id="path3165" d="m76.712 930.04c-14.437 2.9098-28.203 10.223-35.948 20.844-1.0357 1.4203-1.0791 2.9389-0.96759 4.432 0.05577 0.74657 0.13718 1.4527 0.61894 2.2224 0.24088 0.38488 0.64115 0.84563 1.265 1.0727 0.62386 0.22709 1.3737 0.13475 1.8763-0.10421 28.506-13.553 32.772-14.03 73.065-13.937 0.55948 0.001 1.2112-0.20399 1.6603-0.58147 0.44907-0.37745 0.68412-0.84527 0.82077-1.2656 0.27331-0.84066 0.21748-1.6029 0.0907-2.341-0.25371-1.4761-0.68789-2.9122-2.1228-3.9585-10.688-7.7934-25.921-9.2936-40.359-6.3838z" fill="#a40000"/>
      <path id="path3167" d="m113.05 1026.9c0 13.807-11.193 25-25 25s-25-11.193-25-25 11.193-25 25-25 25 11.193 25 25z" fill="#d69600"/>
      <path id="path3167-4" d="m60.55 1034.4c0 9.665-7.835 17.5-17.5 17.5s-17.5-7.835-17.5-17.5 7.835-17.5 17.5-17.5 17.5 7.835 17.5 17.5z" fill="#d69600"/>
      <path id="path3236" d="m88.05 1005.6c-11.826 0-21.344 9.5178-21.344 21.344s9.5178 21.344 21.344 21.344 21.344-9.5177 21.344-21.344-9.5178-21.344-21.344-21.344z" fill="#ffd543"/>
      <path id="path3260" d="m43.05 1019.6c-8.2107 0-14.809 6.5987-14.809 14.809 0 8.2107 6.5987 14.809 14.809 14.809 8.2107 0 14.809-6.5987 14.809-14.809 0-8.2107-6.5987-14.809-14.809-14.809z" fill="#ffd543"/>
      <path id="path3423" d="m86.675 947.23c-10.299 0.46195-20.705 3.9256-21.656 4.25l2.9062 26.25c0.3173 0.0611 7.7282 1.4777 16.25 2.9688 4.351 0.7613 8.8852 1.5235 12.75 2.0938 3.6189 0.53399 6.5468 0.86203 8.1875 0.90625 0.0377-5.0048 0.68202-11.735 0.75-17.906 0.035-3.1766-0.0969-6.1841-0.53125-8.6875-0.43433-2.5034-1.1748-4.4873-2.3125-5.625-3.593-3.593-9.8699-4.5404-16.344-4.25z" fill="#739fd0"/>
      <path id="path3236-8" d="m88.05 1009.4c-9.7545 0-17.5 7.7454-17.5 17.5 0 9.7545 7.7455 17.5 17.5 17.5s17.5-7.7455 17.5-17.5c0-9.7546-7.7455-17.5-17.5-17.5z" fill="#8d7c6a"/>
      <path id="path3260-1-3-8-1" d="m89.124 1011.7c7.6957 0 13.883 6.1877 13.883 13.884 0 0.8188-0.0999 1.6228-0.23432 2.4017-0.35621-8.316-7.1454-14.908-15.553-14.908-2.2989 0-4.4548 0.5213-6.4145 1.4059 2.3155-1.7313 5.1888-2.7826 8.3183-2.7826z" fill="#a8927a"/>
      <path id="path3260-2" d="m43.05 1028.1c-3.6132 0-6.3 2.6868-6.3 6.3s2.6868 6.3 6.3 6.3 6.3-2.6868 6.3-6.3-2.6868-6.3-6.3-6.3z" fill="#8d7c6a"/>
      <path id="path3260-1-4-2" d="m43.606 1043.3c4.1017 0 7.3997-3.298 7.3997-7.3997 0-0.4364-0.05325-0.8649-0.12489-1.2801-0.18985 4.4323-3.8084 7.9461-8.2895 7.9461-1.2253 0-2.3743-0.2779-3.4188-0.7494 1.2341 0.9228 2.7655 1.4831 4.4336 1.4831z" fill="#ffe791"/>
      <path id="rect3354" d="m45.133 1035.4 38.278-20.392 1.4932 2.3447-38.278 20.392-1.4932-2.3448z" fill="#312c29"/>
      <path id="path3260-1-3-8-3-9" d="m88.616 1017.3c5.1149 0 9.2274 4.1126 9.2274 9.2275 0 0.5442-0.0664 1.0786-0.15573 1.5963-0.23675-5.5271-4.7491-9.9088-10.337-9.9088-1.5279 0-2.9608 0.3465-4.2633 0.9344 1.539-1.1507 3.4486-1.8494 5.5287-1.8494z" fill="#a8927a"/>
      <path id="path3330" d="m90.956 1012.9c1.3721 2.6501-1.1512 6.6808-5.6359 9.0027-4.4847 2.3221-9.2326 2.0562-10.605-0.5935-1.3721-2.6501 1.1512-6.6808 5.6359-9.0027 4.4847-2.3221 9.2326-2.0562 10.605 0.5935z" fill="#5a5148"/>
      <path id="path3330-4" d="m47.089 1035.9c0.57239 1.0575-0.41451 2.7001-2.2042 3.6688-1.7898 0.9687-3.7046 0.8966-4.277-0.161-0.57239-1.0575 0.41453-2.7002 2.2042-3.6688 1.7897-0.9687 3.7046-0.8965 4.277 0.161z" fill="#5a5148"/>
      <path id="rect3115" d="m42.183 951.93c14.763-20.245 53.589-28.857 73.833-14.094 1.3466 0.98199 2.2754 4.9666 0.60875 4.9628-40.311-0.0927-45.274 0.51602-73.833 14.094-1.5052 0.71563-1.5907-3.6162-0.60876-4.9628z" fill="#ef292a"/>
      <path id="rect3536-2" d="m20.05 1026.9h2l-14 20-6 1 18-21z" fill="#8d7c6a"/>
      <path id="rect3536-2-2-1-6" d="m22.05 1026.9 2 0.01-8 18.994-6 2 12-21v-0.0005z" fill="#8d7c6a"/>
      <path id="rect3651" d="m123.05 1024.9h8c1.662 0 3 1.338 3 3v3c0 1.662-1.338 3-3 3h-8c-1.662 0-3-1.338-3-3v-3c0-1.662 1.338-3 3-3z" fill="#8d7c6a"/>
      <path id="rect3699" d="m78.144 948.22c-2.4755 0.43091-4.7541 0.94401-6.7188 1.4375l3 29.281c1.291 0.23796 2.9567 0.53375 4.5 0.8125l-0.78125-31.531z" fill="#97b8dc"/>
      <path id="rect3699-1" d="m80.362 947.84c-0.4218 0.0611-0.83567 0.1206-1.25 0.1875l0.84375 31.906c0.30855 0.0554 0.55996 0.0999 0.875 0.15625l-0.46875-32.25z" fill="#97b8dc"/>
      <path id="rect4571" d="m6.5707 944.57 23.084-2.3405c1.3223-0.13407 2.4947 0.8225 2.6288 2.1448l0.52476 5.1754c0.13407 1.3223-0.8225 2.4947-2.1448 2.6288l-23.084 2.3405c-1.3223 0.13407-2.4947-0.8225-2.6288-2.1448l-0.52476-5.1754c-0.13407-1.3223 0.8225-2.4947 2.1448-2.6288z" fill="#d69600"/>
      <path id="path4595" d="m6.7258 946.04c-0.55843 0.0566-0.8956 0.46059-0.8413 0.9962l0.52645 5.1921c0.05431 0.5356 0.49168 0.89245 1.0273 0.83814l23.069-2.3391c0.53561-0.0543 0.89245-0.49168 0.83815-1.0273l-0.52645-5.1921c-0.05431-0.53561-0.46571-0.86368-1.0241-0.80706l-23.069 2.3391z" fill="#ffe791"/>
      <path id="path4621" d="m46.445 983.45c1.0372 3.3542-4.6215 8.0831-12.639 10.562-8.0176 2.4793-15.358 1.77-16.395-1.5842-1.0372-3.3542 4.6215-8.0831 12.639-10.562 8.0176-2.4792 15.358-1.77 16.395 1.5842z" fill="#f46e6f"/>
      <path id="path4621-9" d="m62.16 939.77c-1.0935-1.3959 3.7959-4.0186 10.921-5.8578 7.1249-1.8392 13.787-2.1986 14.881-0.80269 1.0935 1.3959-3.7959 4.0186-10.921 5.8578-7.1249 1.8392-13.787 2.1986-14.881 0.80269z" fill="#f46e6f"/>
      <path id="path3236-8-4" d="m88.05 1023.7c-2.0532 0-3.25 1.1967-3.25 3.25 0 2.0532 1.1968 3.25 3.25 3.25s3.25-1.1968 3.25-3.25c0-2.0533-1.1968-3.25-3.25-3.25z" fill="#312c29"/>
      <path id="path3260-2-1" d="m43.05 1033.4c-0.57908 0-1.0097 0.4306-1.0097 1.0097s0.43061 1.0097 1.0097 1.0097c0.57907 0 1.0097-0.4306 1.0097-1.0097s-0.43061-1.0097-1.0097-1.0097z" fill="#312c29"/>
      <path id="rect4735" d="m25.053 951.26 4.125-0.40625-0.71875-7.0312-4.125 0.40625 0.71875 7.0312z" fill="#ffd543"/>
      <path id="rect4735-2" d="m23.459 951.42 0.96875-0.0937-0.625-7.0312-0.96875 0.0937 0.625 7.0312z" fill="#ffd543"/>
      <path id="path3260-1" d="m41.219 1022.6c-5.528 0-9.9727 4.4447-9.9727 9.9727 0 0.5882 0.07177 1.1657 0.16832 1.7253 0.25587-5.9736 5.1327-10.709 11.172-10.709 1.6513 0 3.1999 0.3745 4.6077 1.0099-1.6633-1.2436-3.7272-1.9987-5.9752-1.9987z" fill="#ffe791"/>
      <path id="path3260-1-3" d="m43.678 1046.8c5.528 0 9.9727-4.4448 9.9727-9.9728 0-0.5881-0.07177-1.1657-0.16832-1.7252-0.25587 5.9735-5.1327 10.709-11.172 10.709-1.6513 0-3.1999-0.3745-4.6077-1.0099 1.6633 1.2437 3.7272 1.9988 5.9752 1.9988z" fill="#ffe791"/>
      <path id="path3260-1-3-8" d="m87.778 1041.8c-7.6957 0-13.883-6.1877-13.883-13.883 0-0.8188 0.09991-1.6228 0.23432-2.4018 0.3562 8.316 7.1454 14.909 15.553 14.909 2.2989 0 4.4547-0.5214 6.4145-1.4059-2.3155 1.7313-5.1887 2.7825-8.3183 2.7825z" fill="#a8927a"/>
      <path id="path3260-1-4" d="m42.066 1025.7c-4.1017 0-7.3997 3.298-7.3997 7.3997 0 0.4364 0.05325 0.8649 0.12489 1.2801 0.18985-4.4323 3.8084-7.9461 8.2895-7.9461 1.2253 0 2.3743 0.2779 3.4188 0.7494-1.2341-0.9228-2.7655-1.4831-4.4336-1.4831z" fill="#ffe791"/>
      <path id="path3260-1-3-8-3" d="m88.305 1036.6c-5.1149 0-9.2275-4.1126-9.2275-9.2274 0-0.5442 0.0664-1.0786 0.15574-1.5963 0.23675 5.5271 4.7491 9.9088 10.337 9.9088 1.5279 0 2.9608-0.3465 4.2633-0.9345-1.539 1.1507-3.4486 1.8494-5.5287 1.8494z" fill="#a8927a"/>
      <path id="path5092" d="m58.288 980.26c1.9461 5.1606 3.1892 11.262 3.4867 17.839 0.31904 7.0531-0.50864 13.664-2.2051 19.225 2.9748-4.3299 4.7094-11.282 4.3575-19.06-0.33569-7.421-2.5275-13.908-5.6391-18.003z" fill="#cc0001"/>
      <path id="rect6562" d="m141.45 1018.9h95.202c4.399 0 4.399 8 0 8h-95.202c-4.399 0-4.399-8 0-8z" fill="#a40000"/>
      <path id="path7329" d="m141.05 1019.9c-3 0-3 6 0 6h96c3 0 3-6 0-6h-96z" fill="#ef292a"/>
      <path id="path3167-4-0" d="m184.92 1034.6c0 9.665-7.835 17.5-17.5 17.5s-17.5-7.835-17.5-17.5 7.835-17.5 17.5-17.5 17.5 7.835 17.5 17.5z" fill="#d69600"/>
      <path id="path3260-28" d="m167.42 1019.8c-8.2107 0-14.809 6.5987-14.809 14.809 0 8.2107 6.5987 14.809 14.809 14.809 8.2107 0 14.809-6.5987 14.809-14.809 0-8.2107-6.5987-14.809-14.809-14.809z" fill="#ffd543"/>
      <path id="path3260-2-6" d="m167.42 1028.3c-3.6132 0-6.3 2.6869-6.3 6.3 0 3.6132 2.6868 6.3 6.3 6.3s6.3-2.6868 6.3-6.3c0-3.6131-2.6868-6.3-6.3-6.3z" fill="#8d7c6a"/>
      <path id="path3260-1-4-2-0" d="m167.98 1043.5c4.1017 0 7.3997-3.2979 7.3997-7.3997 0-0.4364-0.0533-0.8649-0.12489-1.2801-0.18985 4.4324-3.8084 7.9461-8.2895 7.9461-1.2253 0-2.3743-0.2779-3.4188-0.7493 1.2341 0.9227 2.7656 1.483 4.4336 1.483z" fill="#ffe791"/>
      <path id="path3260-2-1-8" d="m167.42 1033.5c-0.57907 0-1.0097 0.4307-1.0097 1.0097 0 0.5791 0.43062 1.0097 1.0097 1.0097s1.0097-0.4306 1.0097-1.0097c0-0.579-0.43061-1.0097-1.0097-1.0097z" fill="#312c29"/>
      <path id="path3260-1-6" d="m165.59 1022.7c-5.528 0-9.9727 4.4448-9.9727 9.9728 0 0.5881 0.0718 1.1656 0.16832 1.7252 0.25587-5.9736 5.1327-10.709 11.172-10.709 1.6514 0 3.1999 0.3745 4.6077 1.0099-1.6633-1.2437-3.7272-1.9988-5.9752-1.9988z" fill="#ffe791"/>
      <path id="path3260-1-3-5" d="m168.05 1046.9c5.528 0 9.9727-4.4448 9.9727-9.9727 0-0.5882-0.0718-1.1657-0.16832-1.7253-0.25587 5.9736-5.1327 10.709-11.172 10.709-1.6514 0-3.1999-0.3745-4.6077-1.0099 1.6633 1.2437 3.7272 1.9988 5.9752 1.9988z" fill="#ffe791"/>
      <path id="path3260-1-4-0" d="m166.44 1025.8c-4.1017 0-7.3997 3.298-7.3997 7.3997 0 0.4365 0.0532 0.865 0.12489 1.2802 0.18985-4.4324 3.8084-7.9461 8.2895-7.9461 1.2253 0 2.3743 0.2778 3.4188 0.7493-1.2341-0.9228-2.7655-1.4831-4.4336-1.4831z" fill="#ffe791"/>
      <path id="path3167-4-0-0" d="m229.92 1034.6c0 9.665-7.835 17.5-17.5 17.5s-17.5-7.835-17.5-17.5 7.835-17.5 17.5-17.5 17.5 7.835 17.5 17.5z" fill="#d69600"/>
      <path id="path3260-28-0" d="m212.42 1019.8c-8.2107 0-14.809 6.5987-14.809 14.809 0 8.2107 6.5987 14.809 14.809 14.809 8.2107 0 14.809-6.5987 14.809-14.809 0-8.2107-6.5987-14.809-14.809-14.809z" fill="#ffd543"/>
      <path id="path3260-2-6-6" d="m212.42 1028.3c-3.6132 0-6.3 2.6869-6.3 6.3 0 3.6132 2.6868 6.3 6.3 6.3s6.3-2.6868 6.3-6.3c0-3.6131-2.6868-6.3-6.3-6.3z" fill="#8d7c6a"/>
      <path id="path3260-1-4-2-0-1" d="m212.98 1043.5c4.1017 0 7.3997-3.2979 7.3997-7.3997 0-0.4364-0.0533-0.8649-0.12489-1.2801-0.18985 4.4324-3.8084 7.9461-8.2895 7.9461-1.2253 0-2.3743-0.2779-3.4188-0.7493 1.2341 0.9227 2.7656 1.483 4.4336 1.483z" fill="#ffe791"/>
      <path id="path3260-2-1-8-3" d="m212.42 1033.5c-0.57907 0-1.0097 0.4307-1.0097 1.0097 0 0.5791 0.43062 1.0097 1.0097 1.0097s1.0097-0.4306 1.0097-1.0097c0-0.579-0.43061-1.0097-1.0097-1.0097z" fill="#312c29"/>
      <path id="path3260-1-6-8" d="m210.59 1022.7c-5.528 0-9.9727 4.4448-9.9727 9.9728 0 0.5881 0.0718 1.1656 0.16832 1.7252 0.25587-5.9736 5.1327-10.709 11.172-10.709 1.6514 0 3.1999 0.3745 4.6077 1.0099-1.6633-1.2437-3.7272-1.9988-5.9752-1.9988z" fill="#ffe791"/>
      <path id="path3260-1-3-5-9" d="m213.05 1046.9c5.528 0 9.9727-4.4448 9.9727-9.9727 0-0.5882-0.0718-1.1657-0.16832-1.7253-0.25587 5.9736-5.1327 10.709-11.172 10.709-1.6514 0-3.1999-0.3745-4.6077-1.0099 1.6633 1.2437 3.7272 1.9988 5.9752 1.9988z" fill="#ffe791"/>
      <path id="path3260-1-4-0-3" d="m211.44 1025.8c-4.1017 0-7.3997 3.298-7.3997 7.3997 0 0.4365 0.0532 0.865 0.12489 1.2802 0.18985-4.4324 3.8084-7.9461 8.2895-7.9461 1.2253 0 2.3743 0.2778 3.4188 0.7493-1.2341-0.9228-2.7655-1.4831-4.4336-1.4831z" fill="#ffe791"/>
    </g>
  </g>
  <metadata>
    <rdf:RDF>
      <cc:Work>
        <dc:format>image/svg+xml</dc:format>
        <dc:type rdf:resource="http://purl.org/dc/dcmitype/StillImage"/>
        <cc:license rdf:resource="http://creativecommons.org/licenses/publicdomain/"/>
        <dc:publisher>
          <cc:Agent rdf:about="http://openclipart.org/">
            <dc:title>Openclipart</dc:title>
          </cc:Agent>
        </dc:publisher>
        <dc:title>locotoy</dc:title>
        <dc:date>2009-11-30T16:50:57</dc:date>
        <dc:description>child, child, clip art, clipart, game, game, image, locomotive, locomotive, media, png, public domain, railway, railway, svg, toy, toy, train, train, transport, transport, </dc:description>
        <dc:source>http://openclipart.org/detail/28521/locotoy-by-jean_victor_balin</dc:source>
        <dc:creator>
          <cc:Agent>
            <dc:title>jean_victor_balin</dc:title>
          </cc:Agent>
        </dc:creator>
        <dc:subject>
          <rdf:Bag>
            <rdf:li>child</rdf:li>
            <rdf:li>clip art</rdf:li>
            <rdf:li>clipart</rdf:li>
            <rdf:li>game</rdf:li>
            <rdf:li>image</rdf:li>
            <rdf:li>locomotive</rdf:li>
            <rdf:li>media</rdf:li>
            <rdf:li>png</rdf:li>
            <rdf:li>public domain</rdf:li>
            <rdf:li>railway</rdf:li>
            <rdf:li>svg</rdf:li>
            <rdf:li>toy</rdf:li>
            <rdf:li>train</rdf:li>
            <rdf:li>transport</rdf:li>
          </rdf:Bag>
        </dc:subject>
      </cc:Work>
      <cc:License rdf:about="http://creativecommons.org/licenses/publicdomain/">
        <cc:permits rdf:resource="http://creativecommons.org/ns#Reproduction"/>
        <cc:permits rdf:resource="http://creativecommons.org/ns#Distribution"/>
        <cc:permits rdf:resource="http://creativecommons.org/ns#DerivativeWorks"/>
      </cc:License>
    </rdf:RDF>
  </metadata>
</svg>
