<?xml version="1.0" encoding="UTF-8" standalone="no"?>
<!-- Created with Inkscape (http://www.inkscape.org/) -->

<svg
   xmlns:dc="http://purl.org/dc/elements/1.1/"
   xmlns:cc="http://creativecommons.org/ns#"
   xmlns:rdf="http://www.w3.org/1999/02/22-rdf-syntax-ns#"
   xmlns:svg="http://www.w3.org/2000/svg"
   xmlns="http://www.w3.org/2000/svg"
   xmlns:xlink="http://www.w3.org/1999/xlink"
   xmlns:sodipodi="http://sodipodi.sourceforge.net/DTD/sodipodi-0.dtd"
   xmlns:inkscape="http://www.inkscape.org/namespaces/inkscape"
   width="30.082588mm"
   height="28.929064mm"
   viewBox="0 0 106.59185 102.50455"
   id="svg4318"
   version="1.1"
   inkscape:version="0.91 r13725"
   sodipodi:docname="Mond2.svg">
  <title
     id="title4866">moon - coloured</title>
  <defs
     id="defs4320">
    <linearGradient
       inkscape:collect="always"
       id="linearGradient7323">
      <stop
         style="stop-color:#46617e;stop-opacity:0.79914528"
         offset="0"
         id="stop7325" />
      <stop
         style="stop-color:#46617e;stop-opacity:0.23504274"
         offset="1"
         id="stop7327" />
    </linearGradient>
    <linearGradient
       inkscape:collect="always"
       id="linearGradient7313">
      <stop
         style="stop-color:#7db6ff;stop-opacity:1"
         offset="0"
         id="stop7315" />
      <stop
         style="stop-color:#3d71a8;stop-opacity:1"
         offset="1"
         id="stop7317" />
    </linearGradient>
    <linearGradient
       inkscape:collect="always"
       id="linearGradient6987">
      <stop
         style="stop-color:#ffcd00;stop-opacity:1;"
         offset="0"
         id="stop6989" />
      <stop
         id="stop6995"
         offset="0.27583516"
         style="stop-color:#ffcd00;stop-opacity:1;" />
      <stop
         style="stop-color:#ffcd00;stop-opacity:1;"
         offset="0.59922224"
         id="stop6997" />
      <stop
         style="stop-color:#ffac00;stop-opacity:1"
         offset="1"
         id="stop6991" />
    </linearGradient>
    <pattern
       inkscape:collect="always"
       xlink:href="#Polkadots-large"
       id="pattern6966"
       patternTransform="matrix(0.60558132,0,0,0.68134276,5.7142857,951.42857)" />
    <pattern
       inkscape:collect="always"
       xlink:href="#Polkadots-large"
       id="pattern6866"
       patternTransform="matrix(0.98438851,0,0,1.06015,-98.489873,947.57822)" />
    <pattern
       inkscape:collect="always"
       xlink:href="#Polkadots-large"
       id="pattern6461"
       patternTransform="matrix(0.30096322,0,0,0.31386391,9.3664595,963.33199)" />
    <pattern
       inkscape:stockid="Polka dots, large"
       id="Polkadots-large"
       patternTransform="translate(0,0) scale(10,10)"
       height="10"
       width="10"
       patternUnits="userSpaceOnUse"
       inkscape:collect="always">
      <circle
         id="circle6151"
         r="0.45"
         cy="0.810"
         cx="2.567"
         style="fill:black;stroke:none" />
      <circle
         id="circle6153"
         r="0.45"
         cy="2.33"
         cx="3.048"
         style="fill:black;stroke:none" />
      <circle
         id="circle6155"
         r="0.45"
         cy="2.415"
         cx="4.418"
         style="fill:black;stroke:none" />
      <circle
         id="circle6157"
         r="0.45"
         cy="3.029"
         cx="1.844"
         style="fill:black;stroke:none" />
      <circle
         id="circle6159"
         r="0.45"
         cy="1.363"
         cx="6.08"
         style="fill:black;stroke:none" />
      <circle
         id="circle6161"
         r="0.45"
         cy="4.413"
         cx="5.819"
         style="fill:black;stroke:none" />
      <circle
         id="circle6163"
         r="0.45"
         cy="4.048"
         cx="4.305"
         style="fill:black;stroke:none" />
      <circle
         id="circle6165"
         r="0.45"
         cy="3.045"
         cx="5.541"
         style="fill:black;stroke:none" />
      <circle
         id="circle6167"
         r="0.45"
         cy="5.527"
         cx="4.785"
         style="fill:black;stroke:none" />
      <circle
         id="circle6169"
         r="0.45"
         cy="5.184"
         cx="2.667"
         style="fill:black;stroke:none" />
      <circle
         id="circle6171"
         r="0.45"
         cy="1.448"
         cx="7.965"
         style="fill:black;stroke:none" />
      <circle
         id="circle6173"
         r="0.45"
         cy="5.049"
         cx="7.047"
         style="fill:black;stroke:none" />
      <circle
         id="circle6175"
         r="0.45"
         cy="0.895"
         cx="4.340"
         style="fill:black;stroke:none" />
      <circle
         id="circle6177"
         r="0.45"
         cy="0.340"
         cx="7.125"
         style="fill:black;stroke:none" />
      <circle
         id="circle6179"
         r="0.45"
         cy="1.049"
         cx="9.553"
         style="fill:black;stroke:none" />
      <circle
         id="circle6181"
         r="0.45"
         cy="2.689"
         cx="7.006"
         style="fill:black;stroke:none" />
      <circle
         id="circle6183"
         r="0.45"
         cy="2.689"
         cx="8.909"
         style="fill:black;stroke:none" />
      <circle
         id="circle6185"
         r="0.45"
         cy="4.407"
         cx="9.315"
         style="fill:black;stroke:none" />
      <circle
         id="circle6187"
         r="0.45"
         cy="3.870"
         cx="7.820"
         style="fill:black;stroke:none" />
      <circle
         id="circle6189"
         r="0.45"
         cy="5.948"
         cx="8.270"
         style="fill:black;stroke:none" />
      <circle
         id="circle6191"
         r="0.45"
         cy="7.428"
         cx="7.973"
         style="fill:black;stroke:none" />
      <circle
         id="circle6193"
         r="0.45"
         cy="8.072"
         cx="9.342"
         style="fill:black;stroke:none" />
      <circle
         id="circle6195"
         r="0.45"
         cy="9.315"
         cx="8.206"
         style="fill:black;stroke:none" />
      <circle
         id="circle6197"
         r="0.45"
         cy="9.475"
         cx="9.682"
         style="fill:black;stroke:none" />
      <circle
         id="circle6199"
         r="0.45"
         cy="6.186"
         cx="9.688"
         style="fill:black;stroke:none" />
      <circle
         id="circle6201"
         r="0.45"
         cy="6.296"
         cx="3.379"
         style="fill:black;stroke:none" />
      <circle
         id="circle6203"
         r="0.45"
         cy="8.204"
         cx="2.871"
         style="fill:black;stroke:none" />
      <circle
         id="circle6205"
         r="0.45"
         cy="8.719"
         cx="4.59"
         style="fill:black;stroke:none" />
      <circle
         id="circle6207"
         r="0.45"
         cy="9.671"
         cx="3.181"
         style="fill:black;stroke:none" />
      <circle
         id="circle6209"
         r="0.45"
         cy="7.315"
         cx="5.734"
         style="fill:black;stroke:none" />
      <circle
         id="circle6211"
         r="0.45"
         cy="6.513"
         cx="6.707"
         style="fill:black;stroke:none" />
      <circle
         id="circle6213"
         r="0.45"
         cy="9.670"
         cx="5.730"
         style="fill:black;stroke:none" />
      <circle
         id="circle6215"
         r="0.45"
         cy="8.373"
         cx="6.535"
         style="fill:black;stroke:none" />
      <circle
         id="circle6217"
         r="0.45"
         cy="7.154"
         cx="4.37"
         style="fill:black;stroke:none" />
      <circle
         id="circle6219"
         r="0.45"
         cy="7.25"
         cx="0.622"
         style="fill:black;stroke:none" />
      <circle
         id="circle6221"
         r="0.45"
         cy="5.679"
         cx="0.831"
         style="fill:black;stroke:none" />
      <circle
         id="circle6223"
         r="0.45"
         cy="8.519"
         cx="1.257"
         style="fill:black;stroke:none" />
      <circle
         id="circle6225"
         r="0.45"
         cy="6.877"
         cx="1.989"
         style="fill:black;stroke:none" />
      <circle
         id="circle6227"
         r="0.45"
         cy="3.181"
         cx="0.374"
         style="fill:black;stroke:none" />
      <circle
         id="circle6229"
         r="0.45"
         cy="1.664"
         cx="1.166"
         style="fill:black;stroke:none" />
      <circle
         id="circle6231"
         r="0.45"
         cy="0.093"
         cx="1.151"
         style="fill:black;stroke:none" />
      <circle
         id="circle6233"
         r="0.45"
         cy="10.093"
         cx="1.151"
         style="fill:black;stroke:none" />
      <circle
         id="circle6235"
         r="0.45"
         cy="4.451"
         cx="1.302"
         style="fill:black;stroke:none" />
      <circle
         id="circle6237"
         r="0.45"
         cy="3.763"
         cx="3.047"
         style="fill:black;stroke:none" />
    </pattern>
    <radialGradient
       inkscape:collect="always"
       xlink:href="#linearGradient6987"
       id="radialGradient6993"
       cx="95.377121"
       cy="1103.345"
       fx="95.377121"
       fy="1103.345"
       r="9.7717962"
       gradientTransform="matrix(1.2196705,-0.01292219,0.00643227,0.60711488,-87.861546,348.65076)"
       gradientUnits="userSpaceOnUse" />
    <linearGradient
       inkscape:collect="always"
       xlink:href="#linearGradient7313"
       id="linearGradient7319"
       x1="67.570305"
       y1="964.54779"
       x2="74.509796"
       y2="989.19061"
       gradientUnits="userSpaceOnUse"
       gradientTransform="translate(-1.515229,0)" />
    <linearGradient
       inkscape:collect="always"
       xlink:href="#linearGradient7323"
       id="linearGradient7329"
       x1="63.299244"
       y1="994.50507"
       x2="63.129333"
       y2="982.89789"
       gradientUnits="userSpaceOnUse" />
  </defs>
  <sodipodi:namedview
     id="base"
     pagecolor="#ffffff"
     bordercolor="#666666"
     borderopacity="1.0"
     inkscape:pageopacity="0.0"
     inkscape:pageshadow="2"
     inkscape:zoom="3.959798"
     inkscape:cx="39.39902"
     inkscape:cy="54.218573"
     inkscape:document-units="mm"
     inkscape:current-layer="layer1"
     showgrid="false"
     inkscape:window-width="1555"
     inkscape:window-height="1142"
     inkscape:window-x="888"
     inkscape:window-y="79"
     inkscape:window-maximized="0"
     inkscape:snap-global="false"
     fit-margin-top="1"
     fit-margin-right="1"
     fit-margin-bottom="1"
     fit-margin-left="1" />
  <metadata
     id="metadata4323">
    <rdf:RDF>
      <cc:Work
         rdf:about="">
        <dc:format>image/svg+xml</dc:format>
        <dc:type
           rdf:resource="http://purl.org/dc/dcmitype/StillImage" />
        <dc:title>moon - coloured</dc:title>
        <cc:license
           rdf:resource="http://creativecommons.org/publicdomain/zero/1.0/" />
        <dc:date>2015-02-17</dc:date>
        <dc:creator>
          <cc:Agent>
            <dc:title>Frank Tremmel</dc:title>
          </cc:Agent>
        </dc:creator>
        <dc:subject>
          <rdf:Bag>
            <rdf:li>moon</rdf:li>
            <rdf:li>mond</rdf:li>
            <rdf:li>line art</rdf:li>
            <rdf:li>outline</rdf:li>
          </rdf:Bag>
        </dc:subject>
        <dc:description>coloured line art moon</dc:description>
      </cc:Work>
      <cc:License
         rdf:about="http://creativecommons.org/publicdomain/zero/1.0/">
        <cc:permits
           rdf:resource="http://creativecommons.org/ns#Reproduction" />
        <cc:permits
           rdf:resource="http://creativecommons.org/ns#Distribution" />
        <cc:permits
           rdf:resource="http://creativecommons.org/ns#DerivativeWorks" />
      </cc:License>
    </rdf:RDF>
  </metadata>
  <g
     inkscape:label="Ebene 1"
     inkscape:groupmode="layer"
     id="layer1"
     transform="translate(-0.94567972,-947.68995)">
    <path
       id="path4074-9"
       style="fill:url(#linearGradient7319);fill-opacity:1;stroke:#ff0000;stroke-width:0.35433072;stroke-linecap:round;stroke-linejoin:round;stroke-miterlimit:4;stroke-dasharray:none"
       inkscape:connector-curvature="0"
       d="m 78.239132,952.03538 c -6.46575,0 -12.24904,4.90425 -14.50113,10.95515 -1.61673,-0.7071 -3.15881,-1.71645 -5.042363,-1.71645 -6.350051,0 -11.887649,4.83731 -13.043229,10.74801 -0.81368,-0.2003 -1.540491,-0.17513 -2.418081,-0.17513 -5.7144,0 -10.216371,4.01162 -10.216371,9.57776 0,5.5662 4.62829,10.08266 10.34264,10.08266 1.79684,0 3.49245,-0.4511 4.96502,-1.2358 2.54164,2.526 6.671561,4.1747 11.332794,4.1747 3.75444,0 7.15605,-1.0686 9.6686,-2.8033 2.15907,2.243 5.18067,3.6323 8.52729,3.6323 4.34769,0 8.14816,-2.3518 10.21856,-5.863 1.42545,0.7946 3.03579,1.2509 4.73115,1.2509 5.925629,0 10.727668,-5.45206 10.727668,-12.17796 0,-6.47754 -4.458469,-11.76564 -10.081188,-12.14774 -0.95234,-8.0675 -7.40174,-14.303 -15.21116,-14.303 z"
       sodipodi:nodetypes="ccscssscscscssccc" />
    <path
       style="fill:url(#linearGradient7329);fill-opacity:1;stroke:none;stroke-width:0.35433072;stroke-linecap:round;stroke-linejoin:round;stroke-miterlimit:4;stroke-dasharray:none"
       d="m 92.037801,987.81746 c -1.69536,0 -3.30502,-0.4574 -4.73047,-1.252 -2.0704,3.5112 -5.87106,5.8633 -10.21875,5.8633 -3.34662,0 -7.08256,-1.2112 -9.24163,-3.4542 -2.51255,1.7347 -5.19924,2.6241 -8.95368,2.6241 -4.66123,0 -5.310201,-1.7371 -7.316121,-4.4417 -1.47257,0.7847 -7.18587,1.5042 -8.98271,1.5042 -4.41166,0 -8.16532,-2.6976 -9.65234,-6.48632 0.54898,5.06272 4.94059,9.01172 10.2832,9.01172 1.79684,0 3.49228,-0.4516 4.96485,-1.2363 2.54164,2.526 6.672751,4.1738 11.333981,4.1738 3.75444,0 7.15542,-1.068 9.66797,-2.8027 2.15907,2.243 5.18072,3.6328 8.52734,3.6328 4.34769,0 8.14835,-2.3521 10.21875,-5.8633 1.42545,0.7946 3.03511,1.252 4.73047,1.252 5.92563,0 10.817809,-6.70384 10.817809,-13.42974 -2.46501,1.64982 -3.01534,10.61324 -11.448669,10.90434 z"
       id="path4074-9-2-3"
       inkscape:connector-curvature="0"
       sodipodi:nodetypes="ccscscscscscscscc" />
    <path
       style="opacity:0.36700015;fill:url(#pattern6866);fill-opacity:1;stroke:none;stroke-width:0.35433072;stroke-linecap:round;stroke-linejoin:round;stroke-miterlimit:4;stroke-dasharray:none"
       d="m 91.830438,987.92783 c -1.69536,0 -3.30502,-0.45735 -4.73047,-1.25195 -2.0704,3.5112 -5.87106,5.86328 -10.21875,5.86328 -3.34662,0 -7.08256,-1.21124 -9.24163,-3.45424 -2.51255,1.7347 -5.19924,2.62416 -8.95368,2.62416 -4.66123,0 -5.3102,-1.73712 -7.31612,-4.44169 -1.47257,0.7847 -7.18587,1.50419 -8.98271,1.50419 -4.41166,0 -8.16532,-2.69764 -9.65234,-6.48633 0.54898,5.06269 4.94059,9.01172 10.2832,9.01172 1.79684,0 3.49228,-0.45163 4.96485,-1.23633 2.54164,2.526 6.67275,4.17383 11.33398,4.17383 3.75444,0 7.15542,-1.06803 9.66797,-2.80273 2.15907,2.243 5.18072,3.63281 8.52734,3.63281 4.34769,0 8.14835,-2.35208 10.21875,-5.86328 1.42545,0.7946 3.03511,1.25195 4.73047,1.25195 5.92563,0 10.817812,-6.70379 10.817812,-13.42969 -2.46501,1.64982 -3.01534,10.61328 -11.448672,10.9043 z"
       id="path4074-9-2"
       inkscape:connector-curvature="0"
       sodipodi:nodetypes="ccscscscscscscscc" />
    <path
       style="color:#000000;font-style:normal;font-variant:normal;font-weight:normal;font-stretch:normal;font-size:medium;line-height:normal;font-family:sans-serif;text-indent:0;text-align:start;text-decoration:none;text-decoration-line:none;text-decoration-style:solid;text-decoration-color:#000000;letter-spacing:normal;word-spacing:normal;text-transform:none;direction:ltr;block-progression:tb;writing-mode:lr-tb;baseline-shift:baseline;text-anchor:start;white-space:normal;clip-rule:nonzero;display:inline;overflow:visible;visibility:visible;opacity:1;isolation:auto;mix-blend-mode:normal;color-interpolation:sRGB;color-interpolation-filters:linearRGB;solid-color:#000000;solid-opacity:1;fill:#203b83;fill-opacity:1;fill-rule:nonzero;stroke:none;stroke-width:1.77165353;stroke-linecap:round;stroke-linejoin:round;stroke-miterlimit:4;stroke-dasharray:none;stroke-dashoffset:0;stroke-opacity:1;color-rendering:auto;image-rendering:auto;shape-rendering:auto;text-rendering:auto;enable-background:accumulate"
       d="m 78.127022,951.23326 c -0.0963,1.2e-4 -0.19197,0.016 -0.2832,0.0469 -6.4372,0.12266 -12.27801,5.05686 -14.7885,10.90904 -1.5278,-0.56148 -2.66549,-1.09263 -4.381978,-1.09263 -6.463893,0 -12.252349,4.57456 -13.80385,10.4813 -0.650257,-0.11224 -1.344731,-0.27901 -2.023159,-0.27901 -6.181177,0 -10.82673,4.15264 -10.82673,10.20982 0,6.05725 5.047405,10.96875 11.228516,10.96875 1.729949,0 3.885391,-0.65999 5.35212,-1.34431 2.757149,2.49006 6.323194,4.28376 10.946711,4.28376 3.67556,0 6.70763,-1.2209 9.32198,-2.86607 2.27697,2.12588 5.34794,3.24777 8.69476,3.24777 4.38807,0 8.25244,-2.63956 10.54855,-6.04074 1.37343,0.64486 3.12819,1.5187 4.71317,1.5187 6.468989,0 11.168808,-5.55978 11.168808,-12.70731 0,-6.60317 -4.115729,-12.01857 -9.894538,-12.82813 -1.2401,-8.19122 -7.88519,-14.50781 -15.97266,-14.50781 z m 0,1.77148 c 7.00656,0 12.86331,5.34878 14.16602,12.49805 -0.10702,0.0104 -0.20046,0.0122 -0.31836,0.0254 -0.58152,0.0651 -1.26286,0.1941 -1.99023,0.38281 -1.45474,0.37742 -3.08559,0.98059 -4.38086,1.84961 -2.23913,1.50228 -3.23389,3.60805 -3.58399,6.31712 -0.17896,1.38476 -0.1448,3.23757 0.0961,3.81476 0.38202,-0.31507 0.57176,-2.343 0.78879,-3.35083 0.48328,-2.24419 1.96786,-4.15801 3.68541,-5.31034 1.02651,-0.68871 2.52694,-1.26485 3.83984,-1.60547 0.65645,-0.17031 1.26947,-0.28299 1.74219,-0.33594 0.47272,-0.0529 0.86577,0.008 0.77148,-0.0234 l 0.0156,-0.0449 c 0.10054,0.0479 0.20921,0.0764 0.32031,0.084 5.10274,0.34676 9.253908,5.19261 9.253908,11.26367 0,6.30427 -4.459528,11.29297 -9.841798,11.29297 -1.53641,0 -2.99523,-0.41394 -4.29883,-1.14062 -0.42035,-0.23464 -0.95114,-0.0907 -1.19531,0.32422 -1.9174,3.25172 -5.42683,5.42773 -9.45508,5.42773 -3.10145,0 -6.24637,-1.50737 -7.75187,-3.07783 -1.50551,-1.57045 -2.04212,-2.54183 -1.48251,-5.00225 0.25047,-1.10119 0.94477,-3.04742 2.21624,-3.52121 1.34006,-0.49934 2.37474,-0.35367 3.61878,-0.53748 -1.40422,-0.97887 -3.2343,-0.86978 -4.25297,-0.34366 -1.54748,0.79926 -2.90151,2.22001 -3.30859,4.00977 -0.56507,2.48439 0.52002,4.81045 1.42188,6.05134 -2.25351,1.31536 -5.47078,1.59124 -8.65625,1.59124 -3.995757,0 -8.041445,-0.93266 -10.420763,-2.87528 0.82376,-0.62511 2.100364,-2.01139 3.002511,-3.28627 1.058533,-1.49587 0.987384,-3.13462 0.924386,-4.69197 -0.384682,-1.40436 -0.483865,-2.29875 -1.2845,-3.43021 -0.05183,1.07013 0.401096,2.39736 0.452469,3.41319 0.05078,1.25528 -0.126045,3.02036 -0.912667,4.13198 -1.426833,2.01634 -3.657392,2.71949 -3.829799,2.81473 -1.273503,0.62034 -2.707278,0.98633 -4.230469,0.98633 -5.247593,0 -9.455078,-4.12211 -9.455078,-9.19727 0,-5.07509 4.207452,-9.19726 9.455078,-9.19726 0.809562,0 1.592657,0.0929 2.333984,0.27539 0.490762,0.12024 0.982542,-0.19368 1.080078,-0.68946 1.074091,-5.49388 5.986468,-9.65429 11.921875,-9.65429 1.464395,0 2.857795,0.25641 4.150395,0.71484 -0.03,0.10212 -0.0638,0.18702 -0.0918,0.29883 -0.14614,0.58377 -0.27095,1.30105 -0.35743,2.08984 -0.17295,1.57759 -0.20487,3.41277 0.18164,4.93946 0.54198,2.14074 2.24042,3.88417 3.69714,5.41909 1.61193,1.18438 2.14285,1.58493 3.9715,2.40888 -1.24378,-1.3058 -2.32767,-2.17065 -3.24527,-3.1368 -1.32361,-1.40501 -2.27342,-3.4216 -2.70462,-5.12477 -0.29225,-1.15438 -0.29634,-2.87398 -0.13863,-4.31249 0.0789,-0.71925 0.19443,-1.37409 0.31445,-1.85352 0.06,-0.23972 0.1229,-0.436 0.17187,-0.56054 0.049,-0.12454 0.12245,-0.18294 0.008,-0.0684 l -0.0137,-0.0137 c 0.0789,-0.0842 0.14064,-0.1831 0.18164,-0.29101 2.13426,-5.73433 7.34249,-9.74805 13.41797,-9.74805 z"
       id="path4074"
       inkscape:connector-curvature="0"
       sodipodi:nodetypes="cccscssscscscssccsccssscsssccccssccscsscsscscscccscsssccscssscccsssccccs" />
    <path
       style="color:#000000;display:inline;overflow:visible;visibility:visible;opacity:1;fill:none;fill-opacity:1;fill-rule:evenodd;stroke:#ff0000;stroke-width:0.35433072;stroke-linecap:round;stroke-linejoin:bevel;stroke-miterlimit:4;stroke-dasharray:none;stroke-dashoffset:0;stroke-opacity:1;marker:none;enable-background:accumulate"
       d="m 22.904662,1014.0359 c 0.928786,1.034 1.529597,2.2386 1.750065,3.3503 0.220501,1.1118 -0.570082,1.5494 -1.16245,2.2119 -0.592361,0.6626 -0.874337,1.4246 -1.871161,1.1812 -0.996864,-0.2434 -2.077826,-0.9108 -3.00662,-1.9447 -1.857633,-2.0679 -2.403123,-4.8185 -1.218385,-6.1435 1.184695,-1.3251 3.650981,-0.7229 5.508551,1.3448 z"
       id="path4158-2"
       inkscape:connector-curvature="0"
       sodipodi:nodetypes="scccsss" />
    <path
       style="fill:#ffcd00;fill-opacity:1;fill-rule:evenodd;stroke:#008000;stroke-width:0.35433072;stroke-linecap:butt;stroke-linejoin:miter;stroke-miterlimit:4;stroke-dasharray:none;stroke-opacity:1"
       d="m 34.596768,965.0925 a 40.917761,40.917761 0 0 0 -27.7591784,38.6905 40.917761,40.917761 0 0 0 40.9183814,40.9167 40.917761,40.917761 0 0 0 38.272239,-26.5872 37.730699,40.917761 51.342096 0 1 -41.090133,2.131 c 0.964528,-0.826 1.812307,-1.8946 2.865606,-3.1535 2.350079,-2.0961 -0.528082,-6.5956 -3.02304,-4.2888 -1.011197,1.3375 -0.443039,2.1811 -2.720898,2.538 -1.105718,0.2601 -2.463252,0.2591 -3.90403,0.065 a 37.730699,40.917761 51.342096 0 1 -3.737054,-3.958 37.730699,40.917761 51.342096 0 1 0.178107,-46.3538 z"
       id="path4915-0-8"
       inkscape:connector-curvature="0" />
    <path
       style="fill:#ffffff;fill-rule:evenodd;stroke:#ff0000;stroke-width:0.35433072;stroke-linecap:butt;stroke-linejoin:miter;stroke-miterlimit:4;stroke-dasharray:none;stroke-opacity:1"
       d="m 17.803939,1012.6506 c 1.515461,-1.1087 5.366435,1.1995 5.366435,1.1995 l 2.08344,4.0406 -3.156727,3.283 -4.798225,-2.7779 c 0,0 -1.010384,-4.6365 0.505077,-5.7452 z"
       id="path7152"
       inkscape:connector-curvature="0"
       sodipodi:nodetypes="zccccz" />
    <path
       style="fill:#d79500;fill-opacity:1;fill-rule:evenodd;stroke:#ff0000;stroke-width:0.29055119;stroke-linecap:butt;stroke-linejoin:miter;stroke-miterlimit:4;stroke-dasharray:none;stroke-opacity:1"
       d="m 17.94426,1012.4031 c -1.42992,1.0952 -0.631346,5.3664 -0.631346,5.3664 0,0 2.961931,-1.0266 3.851208,-2.2097 0.533629,-0.7099 0.631345,-2.5885 0.631345,-2.5885 0,0 -2.821019,-1.3572 -3.851207,-0.5682 z"
       id="path6874-0"
       inkscape:connector-curvature="0"
       sodipodi:nodetypes="scscs" />
    <path
       style="fill:url(#radialGradient6993);fill-opacity:1;fill-rule:evenodd;stroke:#ff0000;stroke-width:0.35433072;stroke-linecap:butt;stroke-linejoin:miter;stroke-miterlimit:4;stroke-dasharray:none;stroke-opacity:1"
       d="m 29.17788,1011.7394 c 3.281006,2.3293 9.189505,4.0415 12.647591,3.2279 2.27785,-0.3569 1.71074,-1.2003 2.72194,-2.5378 2.49496,-2.3068 5.37295,2.1937 3.02287,4.2898 -1.77788,2.1249 -2.96516,3.7251 -5.12874,4.4902 -1.15911,0.2146 -1.88302,-0.2488 -3.073081,0.3611 -0.979524,0.6195 -1.067458,1.5019 -2.204315,1.68 -2.23427,0.3507 -3.089176,-2.1215 -3.190836,-2.9843"
       id="path4915-0"
       inkscape:connector-curvature="0"
       sodipodi:nodetypes="ccccccsc" />
    <path
       style="color:#000000;font-style:normal;font-variant:normal;font-weight:normal;font-stretch:normal;font-size:medium;line-height:normal;font-family:sans-serif;text-indent:0;text-align:start;text-decoration:none;text-decoration-line:none;text-decoration-style:solid;text-decoration-color:#000000;letter-spacing:normal;word-spacing:normal;text-transform:none;direction:ltr;block-progression:tb;writing-mode:lr-tb;baseline-shift:baseline;text-anchor:start;white-space:normal;clip-rule:nonzero;display:inline;overflow:visible;visibility:visible;opacity:1;isolation:auto;mix-blend-mode:normal;color-interpolation:sRGB;color-interpolation-filters:linearRGB;solid-color:#000000;solid-opacity:1;fill:#df2000;fill-opacity:1;fill-rule:evenodd;stroke:none;stroke-width:2.83464575;stroke-linecap:butt;stroke-linejoin:miter;stroke-miterlimit:4;stroke-dasharray:none;stroke-dashoffset:0;stroke-opacity:1;color-rendering:auto;image-rendering:auto;shape-rendering:auto;text-rendering:auto;enable-background:accumulate"
       d="m 49.464056,1023.2482 c -0.661209,2.3367 -2.246566,4.4109 -5.121206,6.0314 -2.68794,1.5154 -6.448567,2.6835 -10.715099,0.7198 0.248877,-0.7543 0.384691,-1.7386 0.334714,-2.481 l -0.348443,-0.1761 c 0,0 -0.300705,1.9669 -0.778191,2.7322 -0.438644,0.7032 -1.970201,1.6732 -1.970201,1.6732 l 0.41933,0.2842 c 1.308696,-0.5178 1.561282,-0.7209 1.884375,-1.1179 4.875656,2.2364 9.034948,2.2196 12.305764,0.3757 1.960588,-1.1052 3.125914,-1.6078 4.280331,-3.2655 2.749651,0.1484 5.654472,-1.9465 6.023436,-3.2505 -2.049816,-0.3369 -3.7874,-0.6955 -6.31481,-1.5255 z"
       id="path4913"
       inkscape:connector-curvature="0"
       sodipodi:nodetypes="cccccsccccccc" />
    <path
       style="opacity:0.48300003;fill:url(#pattern6966);fill-opacity:1;fill-rule:evenodd;stroke:#ff0000;stroke-width:0.29055119;stroke-linecap:butt;stroke-linejoin:miter;stroke-miterlimit:4;stroke-dasharray:none;stroke-opacity:1"
       d="m 18.056477,1012.5243 c -1.42992,1.0952 -0.631346,5.3664 -0.631346,5.3664 0,0 2.961931,-1.0266 3.851207,-2.2097 0.533629,-0.7099 0.631345,-2.5885 0.631345,-2.5885 0,0 -2.821018,-1.3572 -3.851206,-0.5682 z"
       id="path6874"
       inkscape:connector-curvature="0"
       sodipodi:nodetypes="scscs" />
    <path
       style="color:#000000;font-style:normal;font-variant:normal;font-weight:normal;font-stretch:normal;font-size:medium;line-height:normal;font-family:sans-serif;text-indent:0;text-align:start;text-decoration:none;text-decoration-line:none;text-decoration-style:solid;text-decoration-color:#000000;letter-spacing:normal;word-spacing:normal;text-transform:none;direction:ltr;block-progression:tb;writing-mode:lr-tb;baseline-shift:baseline;text-anchor:start;white-space:normal;clip-rule:nonzero;display:inline;overflow:visible;visibility:visible;opacity:1;isolation:auto;mix-blend-mode:normal;color-interpolation:sRGB;color-interpolation-filters:linearRGB;solid-color:#000000;solid-opacity:1;fill:#aa8800;fill-opacity:1;fill-rule:evenodd;stroke:none;stroke-width:1.77165329;stroke-linecap:round;stroke-linejoin:bevel;stroke-miterlimit:4;stroke-dasharray:none;stroke-dashoffset:0;stroke-opacity:1;marker:none;color-rendering:auto;image-rendering:auto;shape-rendering:auto;text-rendering:auto;enable-background:accumulate"
       d="m 19.639881,1011.0201 c -0.87495,-0.016 -1.74378,0.1819 -2.496672,0.6615 -0.263538,0.1511 -0.473056,0.383 -0.671079,0.5439 -1.1868,1.1953 -1.38906,3.0693 -0.901665,4.6244 0.698251,2.2745 3.023609,4.2764 5.250962,5.0919 0.444619,0.1611 -0.467257,1.9495 -0.232174,3.2138 0.09629,0.5179 0.369117,0.695 0.521598,0.7125 0.251289,0.032 0.499683,-0.4431 0.653588,-1.0432 0.317562,-1.2373 0.128569,-2.3706 2.466456,-5.0362 1.481255,-1.6889 3.125518,-2.2992 3.75137,-2.5731 0.697461,-0.3062 1.05658,-0.6198 1.005029,-0.9271 -0.04755,-0.2836 -0.433115,-0.6092 -1.127477,-0.5009 -1.226428,0.1913 -1.549328,0.579 -1.684062,0.2035 -0.680998,-1.8966 -2.195669,-3.4778 -4.002626,-4.3509 -0.777564,-0.3749 -1.658297,-0.6042 -2.533248,-0.6201 z m -0.163794,2.3265 c 0.493105,-0.01 1.004573,0.1175 1.443935,0.2942 0.129088,0.054 0.251703,0.1221 0.376887,0.186 0.124714,1.0401 -0.25803,1.596 -0.900075,2.1118 -0.564089,0.4534 -1.35711,0.8124 -2.143639,1.2245 -0.171035,-0.3009 -0.323993,-0.6112 -0.432544,-0.9382 -0.239147,-0.7736 -0.29511,-1.7405 0.316456,-2.3647 0.370044,-0.3629 0.845876,-0.5054 1.33898,-0.5136 z m 2.677959,1.013 c 1.039657,0.7893 1.820085,1.9341 2.030733,3.2266 -0.39324,0.5608 -0.735427,0.84 -1.14338,1.2101 -0.373361,0.339 -0.853331,0.7348 -1.183137,1.0178 -1.232005,-0.2225 -2.335081,-0.9486 -3.116864,-1.9258 0.732503,-0.3734 1.53334,-0.7428 2.196117,-1.2753 0.652775,-0.5246 1.140622,-1.2691 1.216531,-2.2534 z"
       id="path4158"
       inkscape:connector-curvature="0" />
    <path
       style="color:#000000;display:inline;overflow:visible;visibility:visible;opacity:1;fill:#000000;fill-opacity:1;fill-rule:evenodd;stroke:#000000;stroke-width:0.35433072;stroke-linecap:round;stroke-linejoin:miter;stroke-miterlimit:4;stroke-dasharray:none;stroke-dashoffset:0;stroke-opacity:1;marker:none;enable-background:accumulate"
       d="m 23.488501,1017.4094 c 2e-6,0.5186 -0.373035,0.9701 -0.90341,1.0936 -0.530373,0.1233 -1.080822,-0.1135 -1.333063,-0.5736 -0.25224,-0.46 -0.140993,-1.0242 0.269415,-1.3662 0.410395,-0.3422 1.013754,-0.3737 1.461195,-0.077 -0.332952,0.2671 -0.60381,0.5758 -0.662107,1.0264 0.389322,-0.1054 0.778646,-0.2626 1.16797,-0.1043 z"
       id="path4226"
       inkscape:connector-curvature="0"
       sodipodi:nodetypes="csscccc" />
    <path
       style="color:#000000;font-style:normal;font-variant:normal;font-weight:normal;font-stretch:normal;font-size:medium;line-height:normal;font-family:sans-serif;text-indent:0;text-align:start;text-decoration:none;text-decoration-line:none;text-decoration-style:solid;text-decoration-color:#000000;letter-spacing:normal;word-spacing:normal;text-transform:none;direction:ltr;block-progression:tb;writing-mode:lr-tb;baseline-shift:baseline;text-anchor:start;white-space:normal;clip-rule:nonzero;display:inline;overflow:visible;visibility:visible;opacity:1;isolation:auto;mix-blend-mode:normal;color-interpolation:sRGB;color-interpolation-filters:linearRGB;solid-color:#000000;solid-opacity:1;fill:#ffffff;fill-opacity:1;fill-rule:evenodd;stroke:#ff0000;stroke-width:0.35433072;stroke-linecap:round;stroke-linejoin:bevel;stroke-miterlimit:4;stroke-dasharray:none;stroke-dashoffset:0;stroke-opacity:1;marker:none;color-rendering:auto;image-rendering:auto;shape-rendering:auto;text-rendering:auto;enable-background:accumulate"
       d="m 34.460153,1012.6844 c -0.9888,0.494 -0.90034,0.236 -1.50472,0.6857 -0.50715,-0.1697 -1.87295,-0.8255 -2.85273,-1.383 -1.50734,-1.3374 -1.83034,-2.3138 -1.96883,-4.3159 -0.0589,-0.8612 0.0558,-1.764 0.36636,-2.5821 0.24539,-0.6472 -0.0403,-0.2595 0.67993,-0.9915 0.77841,2.538 3.85594,7.4711 5.27999,8.5868 z"
       id="path4158-5-0"
       inkscape:connector-curvature="0"
       sodipodi:nodetypes="ccccccc" />
    <path
       style="fill:#d79500;fill-opacity:1;fill-rule:evenodd;stroke:#ff5555;stroke-width:0.35433072;stroke-linecap:butt;stroke-linejoin:miter;stroke-miterlimit:4;stroke-dasharray:none;stroke-opacity:1"
       d="m 28.599944,1004.4431 c -1.311843,2.1157 -0.252538,3.283 -0.378807,4.9245 0.59413,0.2962 1.197834,0.5541 1.95717,0.1894 l 1.199557,-1.0733 z"
       id="path7154"
       inkscape:connector-curvature="0"
       sodipodi:nodetypes="ccccc" />
    <path
       style="color:#000000;font-style:normal;font-variant:normal;font-weight:normal;font-stretch:normal;font-size:medium;line-height:normal;font-family:sans-serif;text-indent:0;text-align:start;text-decoration:none;text-decoration-line:none;text-decoration-style:solid;text-decoration-color:#000000;letter-spacing:normal;word-spacing:normal;text-transform:none;direction:ltr;block-progression:tb;writing-mode:lr-tb;baseline-shift:baseline;text-anchor:start;white-space:normal;clip-rule:nonzero;display:inline;overflow:visible;visibility:visible;opacity:0.39800002;isolation:auto;mix-blend-mode:normal;color-interpolation:sRGB;color-interpolation-filters:linearRGB;solid-color:#000000;solid-opacity:1;fill:url(#pattern6461);fill-opacity:1;fill-rule:evenodd;stroke:#aa8800;stroke-width:1.41732287;stroke-linecap:round;stroke-linejoin:bevel;stroke-miterlimit:4;stroke-dasharray:none;stroke-dashoffset:0;stroke-opacity:1;marker:none;color-rendering:auto;image-rendering:auto;shape-rendering:auto;text-rendering:auto;enable-background:accumulate"
       d="m 34.370036,1012.5836 c -0.988803,0.494 -0.900343,0.236 -1.504723,0.6857 -0.507146,-0.1697 -1.872948,-0.8255 -2.852733,-1.383 -1.507332,-1.3374 -1.830341,-2.3138 -1.968826,-4.3158 -0.05889,-0.8612 0.0558,-1.7641 0.366356,-2.5822 0.245391,-0.6472 -0.04033,-0.2595 0.679935,-0.9915 0.778409,2.538 3.855938,7.4711 5.279991,8.5868 z"
       id="path4158-5"
       inkscape:connector-curvature="0"
       sodipodi:nodetypes="ccccccc" />
    <path
       style="color:#000000;font-style:normal;font-variant:normal;font-weight:normal;font-stretch:normal;font-size:medium;line-height:normal;font-family:sans-serif;text-indent:0;text-align:start;text-decoration:none;text-decoration-line:none;text-decoration-style:solid;text-decoration-color:#000000;letter-spacing:normal;word-spacing:normal;text-transform:none;direction:ltr;block-progression:tb;writing-mode:lr-tb;baseline-shift:baseline;text-anchor:start;white-space:normal;clip-rule:nonzero;display:inline;overflow:visible;visibility:visible;opacity:1;isolation:auto;mix-blend-mode:normal;color-interpolation:sRGB;color-interpolation-filters:linearRGB;solid-color:#000000;solid-opacity:1;fill:none;fill-opacity:1;fill-rule:evenodd;stroke:#aa8800;stroke-width:1.41732287;stroke-linecap:round;stroke-linejoin:bevel;stroke-miterlimit:4;stroke-dasharray:none;stroke-dashoffset:0;stroke-opacity:1;marker:none;color-rendering:auto;image-rendering:auto;shape-rendering:auto;text-rendering:auto;enable-background:accumulate"
       d="m 34.431799,1012.5362 c -0.988803,0.494 -0.900343,0.236 -1.504723,0.6857 -0.507146,-0.1697 -1.872948,-0.8255 -2.852733,-1.383 -1.507332,-1.3374 -1.830341,-2.3138 -1.968826,-4.3158 -0.05889,-0.8612 0.0558,-1.7641 0.366356,-2.5822 0.245391,-0.6472 -0.04033,-0.2595 0.679935,-0.9915 0.778409,2.538 3.855938,7.4711 5.279991,8.5868 z"
       id="path4158-5-8"
       inkscape:connector-curvature="0"
       sodipodi:nodetypes="ccccccc" />
    <path
       style="fill:none;fill-rule:evenodd;stroke:#aa8800;stroke-width:1.0629921;stroke-linecap:butt;stroke-linejoin:miter;stroke-miterlimit:4;stroke-dasharray:none;stroke-opacity:1"
       d="m 28.578831,1009.4488 c 1.192289,0.465 1.967337,0.026 2.580727,-0.7633"
       id="path6463"
       inkscape:connector-curvature="0"
       sodipodi:nodetypes="cc" />
    <path
       style="color:#000000;font-style:normal;font-variant:normal;font-weight:normal;font-stretch:normal;font-size:medium;line-height:normal;font-family:sans-serif;text-indent:0;text-align:start;text-decoration:none;text-decoration-line:none;text-decoration-style:solid;text-decoration-color:#000000;letter-spacing:normal;word-spacing:normal;text-transform:none;direction:ltr;block-progression:tb;writing-mode:lr-tb;baseline-shift:baseline;text-anchor:start;white-space:normal;clip-rule:nonzero;display:inline;overflow:visible;visibility:visible;opacity:1;isolation:auto;mix-blend-mode:normal;color-interpolation:sRGB;color-interpolation-filters:linearRGB;solid-color:#000000;solid-opacity:1;fill:#d79500;fill-opacity:1;fill-rule:evenodd;stroke:none;stroke-width:2.83464575;stroke-linecap:round;stroke-linejoin:miter;stroke-miterlimit:4;stroke-dasharray:none;stroke-dashoffset:0;stroke-opacity:1;marker:none;color-rendering:auto;image-rendering:auto;shape-rendering:auto;text-rendering:auto;enable-background:accumulate"
       d="m 37.309894,962.92046 -3.417419,1.16087 c -17.040853,5.78753 -29.3919312,22.07504 -29.4034832,42.68517 -0.01155,20.6101 20.0020202,39.8963 40.3777092,39.8847 20.375688,-0.011 35.770306,-11.6356 41.909109,-28.0534 l 1.206989,-3.2265 -2.908548,1.8494 c -12.310729,7.8329 -26.972765,8.5172 -38.502816,2.8545 0.33911,-0.3325 0.640926,-0.6731 0.885761,-0.943 0.651194,-0.9441 1.090094,-1.2069 1.602959,-2.5062 1.213325,-2.1652 -0.227906,-5.3898 -2.74952,-5.6962 -1.303309,-0.1167 -2.645777,0.6287 -3.182064,1.8367 -0.170789,0.8832 -0.929099,1.1535 -1.738128,1.1943 -1.1875,0.1393 -2.36601,0.1513 -3.525556,0.038 -0.04213,-0.057 -0.08593,-0.1141 -0.141531,-0.1686 -0.962624,-0.943 -1.877055,-1.9517 -2.736798,-3.0247 l -0.0016,0 c -10.03039,-12.5667 -9.988071,-30.80582 0.214682,-44.95759 l 2.110244,-2.92763 z m -5.912501,4.73891 c -8.663125,14.42353 -8.195765,32.08466 1.785836,44.58873 l 0.0016,0 c 0.211821,0.2643 0.43729,0.5126 0.655178,0.7696 -0.0131,0 -0.02666,-0.01 -0.03976,-0.014 -1.252576,-0.5169 -2.172076,-0.6777 -3.350629,-1.4614 -3.343496,-2.2237 -2.785363,-1.8949 -3.231361,-1.0241 -0.48026,0.9378 7.651067,5.2158 10.902664,5.7026 1.777202,0.2662 2.975324,-0.192 4.681657,-0.7903 1.035497,-0.3786 2.096977,-1.5687 2.593677,-2.449 0.785162,-0.7654 2.257071,0.8646 2.289941,1.6666 0.189852,0.8037 -0.147168,1.7948 -0.580436,2.3361 -1.204151,1.3348 -3.128874,2.9706 -4.937686,3.4603 -1.149494,-0.027 -2.606199,-0.6878 -3.590755,0.033 -0.705704,0.3549 -1.150333,2.2299 -2.070488,2.0435 -0.878869,-0.155 -2.120996,-1.8778 -2.385356,-2.5063 -0.652621,-1.3619 -1.118372,-0.5777 -1.089313,0.089 0.183998,1.8701 1.57439,3.7562 3.544639,3.9374 1.19868,0.1706 2.322153,-0.502 3.042123,-1.4169 0.699822,-0.7922 1.806532,-0.2701 2.703403,-0.4357 0.733303,-0.1196 1.407128,-0.348 2.052996,-0.6472 11.509483,6.171 26.093273,6.0897 38.797011,-0.6488 -6.535303,13.7407 -20.476527,21.9863 -35.894829,22.0073 -21.974467,3e-4 -38.7456092,-16.9164 -38.7461252,-38.8909 0.02143,-15.82703 8.5910392,-30.04146 22.8660192,-36.34971 z"
       id="path4889"
       inkscape:connector-curvature="0" />
  </g>
</svg>
