<?xml version="1.0"?>
<svg xmlns:rdf="http://www.w3.org/1999/02/22-rdf-syntax-ns#" xmlns="http://www.w3.org/2000/svg" xmlns:cc="http://creativecommons.org/ns#" xmlns:dc="http://purl.org/dc/elements/1.1/" xmlns:svg="http://www.w3.org/2000/svg" id="svg2" viewBox="0 0 345.44 249.06" version="1">
  <path id="path28" d="m44.927 156.65c-1.1339 11.591 0.756 21.922 5.6696 30.994 5.6067-2.0789 9.3234-2.2679 11.15-0.567 3.0238 1.3229 9.5753 7.0555 19.655 17.198 9.7014 6.4255 18.899 8.3154 27.592 5.6696 1.7638-6.7406 1.5119-14.111-0.756-22.112 5.4176 0.063 9.8273-0.504 13.229-1.7009 3.7168 8.6934 7.5595 15.875 11.528 21.544 12.41-2.1418 21.67-8.8194 27.781-20.033 4.2207 6.0476 8.3155 8.0634 12.284 6.0476-3.2128-10.772-3.5278-21.167-0.9449-31.183-2.7719-0.189-5.7957 1.2599-9.0714 4.3467l-13.04 6.6146c-7.6855 0.8819-13.103-2.2679-16.253-9.4494-3.1498-9.5124-3.0238-17.639 0.3779-24.379 2.0789-6.5516 5.0397-10.331 8.8824-11.339 2.1419-0.252 4.2837-0.252 6.4256 0-3.0868-4.7456-9.1554-8.0634-18.206-9.9533-11.465-3.4858-23.014-3.5278-34.648-0.126-10.961 2.3939-20.159 7.2235-27.592 14.489-4.5357 5.2917-8.0635 11.087-10.583 17.387-2.0159 2.6459-4.0317 4.5357-6.0476 5.6697-2.0578 0.042-4.5357 0.3359-7.4335 0.8819z" stroke-width="0" fill="#108cff"/>
  <path id="path30" stroke-width="0" d="m43.566 156.3c-0.0748 6.3606 0.3855 12.29 1.3808 17.789 1.0164 5.5127 2.6287 10.83 4.8369 15.953 3.1869-1.2079 5.8041-1.8776 7.8514-2.0093 1.6059-0.0967 2.756 0.2195 3.4501 0.9485 1.4391 0.6187 3.7645 2.3338 6.976 5.1452 3.2991 2.8887 7.4797 6.8809 12.542 11.976 5.0178 3.3182 9.9211 5.4754 14.71 6.4719 5.0045 1.0002 9.9431 0.7585 14.816-0.725 1.0064-3.8256 1.4477-7.7503 1.324-11.774-0.1113-3.4543-0.6341-6.8517-1.5683-10.192 1.9819 0.017 3.9471-0.1024 5.8954-0.358 1.9908-0.2515 3.6409-0.6018 4.9502-1.0509 1.6851 3.9285 3.4318 7.5774 5.2401 10.947 2.062 3.8446 4.211 7.3613 6.4471 10.55 6.7639-1.1621 12.634-3.519 17.61-7.0707 4.4884-3.2256 8.1056-7.3277 10.852-12.306 1.7903 2.4852 3.6444 4.1772 5.5626 5.0761 2.6229 1.2289 5.357 1.1436 8.2025-0.2559-1.7607-5.8427-2.7286-11.469-2.9036-16.879-0.1628-5.4189 0.4996-10.993 1.9874-16.721-2.4288-0.1289-4.6038 0.269-6.5249 1.1939-1.5698 0.7499-3.2 1.9142-4.8905 3.493l-6.3865 3.2395c-2.0786 1.0543-4.1542 2.1072-6.2269 3.1586-3.4988 0.4128-6.4476-0.0991-8.8465-1.5357-2.4692-1.4034-4.4249-3.7702-5.8671-7.1003-1.519-4.5793-2.2431-8.8086-2.1724-12.688 0.0545-3.9107 0.9058-7.4801 2.5537-10.708 0.9904-3.1459 2.1848-5.607 3.5833-7.3834 1.2894-1.6789 2.76-2.7212 4.4117-3.1268 0.9533-0.1111 1.9076-0.1653 2.8628-0.1627 1.1421-0.0261 3.2661 0.1314 6.3722 0.4723-2.9367-4.1979-6.0635-7.1367-9.3805-8.8163-3.1386-1.7115-7.0267-3.054-11.664-4.0277-5.8361-1.7679-11.695-2.664-17.576-2.6885-5.8857-0.018-11.791 0.8364-17.715 2.5629-5.5821 1.2239-10.72 3.0663-15.413 5.5273-4.7204 2.4851-8.9908 5.5919-12.811 9.3206-2.3318 2.7209-4.4062 5.5715-6.2233 8.5517-1.7635 2.894-3.2765 5.913-4.5392 9.0569-0.9366 1.2286-1.8676 2.274-2.7929 3.1361-0.8641 0.8192-1.7123 1.4633-2.5444 1.9324-0.9348 0.0225-1.9788 0.1031-3.1322 0.2418-1.5338 0.186-3.2789 0.4648-5.2353 0.8364l2.7166 2.2153c0.9415-0.1744 1.8842-0.3156 2.8282-0.4235 1.3245-0.1553 2.5483-0.2427 3.6714-0.2622 1.1837-0.6648 2.3514-1.5326 3.5031-2.6033 1.0905-1.0277 2.1755-2.2502 3.2547-3.6674 1.2572-3.1556 2.7679-6.1843 4.5322-9.0859 1.7107-2.8154 3.668-5.5084 5.8719-8.0791 3.6133-3.5369 7.6583-6.4776 12.135-8.8222 4.5041-2.3687 9.4456-4.138 14.825-5.3079 5.7088-1.6753 11.395-2.5009 17.058-2.4768 5.6679 0.0175 11.316 0.8852 16.946 2.6031 4.4127 0.9162 8.084 2.1775 11.014 3.7838 2.7517 1.6381 4.2025 2.7311 4.3526 3.2789 0.9642 0.0889 0.9464 0.1203-0.0534 0.0943-1.1866 0.003-2.3742 0.0744-3.5627 0.2153-2.1911 0.6023-4.1223 1.9538-5.7936 4.0546-1.5624 2.0034-2.8878 4.708-3.9762 8.1136-1.7538 3.5126-2.6665 7.3767-2.7379 11.592-0.0553 4.2472 0.7324 8.8373 2.3633 13.77 1.7075 3.8514 4.0355 6.6503 6.9839 8.3966 3.0188 1.7132 6.6215 2.3352 10.808 1.8661 2.274-1.1535 4.5451-2.3054 6.8133-3.456 2.2175-1.1248 4.4354-2.2498 6.6535-3.375 1.5853-1.508 3.1049-2.6116 4.5589-3.3105 1.1027-0.5241 1.8255-0.7561 2.1686-0.696-1.0951 4.2878-1.5666 8.9194-1.4144 13.895 0.1399 4.9842 0.9359 9.941 2.388 14.87-1.1233 0.6164-2.4208 0.5311-3.8927-0.2559-2.1765-1.1169-4.4801-3.4566-6.9106-7.0191-3.3646 6.2345-7.4329 11.078-12.205 14.53-4.2844 3.1258-9.2498 5.1786-14.896 6.1583-1.7327-2.4808-3.4894-5.3897-5.2702-8.7266-2.0344-3.8122-4.0674-8.1008-6.0991-12.866-2.0924 0.7477-4.3481 1.2794-6.767 1.5949-2.4614 0.3114-5.4099 0.444-8.8455 0.3979 1.3335 4.6602 2.0706 8.9483 2.2114 12.864 0.1282 3.3468-0.1864 6.4776-0.9439 9.3925-3.8208 1.1623-7.8276 1.2987-12.02 0.4089-4.4086-0.8934-8.9547-2.8938-13.638-6.0012-5.0172-5.0468-9.1521-8.9921-12.405-11.836-3.3399-2.9212-5.8023-4.7339-7.387-5.4381-1.1327-0.9718-2.7545-1.4116-4.8653-1.3193-1.6694 0.0573-3.7139 0.5215-6.1337 1.3924-1.6974-3.9489-2.9829-8.3327-3.8564-13.151-0.8946-4.8326-1.3163-9.8642-1.265-15.095l-2.7215-2.2145z"/>
  <path id="path32" d="m7.8855 120.55c0.693 5.2916 1.26 8.3154 1.7009 9.0713 2.0789 7.6855 2.5199 16.883 1.3229 27.592-0.8819 3.9687-3.7797 7.8114-8.6934 11.528 3.6538 3.3387 6.2996 7.8114 7.9375 13.418 4.8507 23.938 3.2758 43.593-4.7247 58.964 10.331-13.355 17.891-23.056 22.678-29.104 9.6383-14.237 17.387-22.174 23.245-23.812-3.5908-8.1264-5.2917-18.395-5.1027-30.805-5.8586-0.5039-10.331-2.5198-13.418-6.0475-8.0634-11.654-16.379-21.922-24.946-30.805z" stroke-width="0" fill="#5bb1ff"/>
  <path id="path34" d="m101.25 231.86c3.9057-1.7009 7.8115-0.756 11.717 2.8348 5.1026-4.6617 10.835-5.0397 17.198-1.1339 2.6458-4.7247 8.3154-7.3075 17.009-7.7485-10.772-11.591-19.151-24.946-25.135-40.065-4.6617 1.2599-9.3234 1.8899-13.985 1.8899 2.3939 9.1974 2.5198 17.891 0.378 26.08-2.3938 6.0476-4.7877 12.095-7.1815 18.143z" stroke-width="0" fill="#5bb1ff"/>
  <path id="path36" d="m68.739 133.78c21.608-16.064 44.853-20.159 69.736-12.284-3.5907-7.6855-4.7876-14.867-3.5907-21.544-15.119 6.2995-26.962 7.3075-35.53 3.0238-7.8744 7.2445-19.655 11.591-35.341 13.04 2.4569 3.4017 4.0317 9.3233 4.7247 17.765z" stroke-width="0" fill="#5bb1ff"/>
  <path id="path38" stroke-width="0" d="m137.15 179.14c-3.5907 2.2048-4.7876 5.0396-3.5907 8.5044 0.8819 5.9216 3.7797 9.3233 8.6934 10.205 6.5515-0.315 11.591-3.5278 15.119-9.6384 2.9608-6.5515 4.7876-13.355 5.4806-20.411-1.4489-1.8058-2.0159-2.4358-1.7009-1.8898-1.1969-1.6589-2.4358-3.2758-3.7167-4.8507-0.336-2.6458 0-5.8796 1.0079-9.7013 1.0919-8.5675-1.3439-16.127-7.3075-22.678-2.6458-1.5959-5.0397-2.3518-7.1815-2.2678-2.6458 0.4619-4.5357 1.3439-5.6696 2.6458-1.9109 1.1549-3.3598 2.8558-4.3467 5.1026-1.8059 2.1419-2.9398 4.7877-3.4018 7.9375-0.714 2.5618-1.0919 5.4596-1.1339 8.6934-0.504 2.5408-0.252 5.6276 0.7559 9.2604 0.735 3.2757 2.4359 6.5515 5.1027 9.8273 2.1208 3.2338 5.2076 5.3756 9.2603 6.4256 2.8768 0.5249 4.9557-0.168 6.2366-2.0789-0.6719 2.7928-1.1339 5.4176-1.3859 7.8745-0.42 2.9818-0.672 5.2076-0.7559 6.6775-2.6879 2.8558-4.8717 3.8638-6.5516 3.0238-2.2678-0.168-3.5278-1.1759-3.7797-3.0238-0.546-1.4069-0.672-2.8558-0.378-4.3467 0.6719 0.525 1.6379 0.252 2.8978-0.8189 0.504 1.4489 1.3019 2.0998 2.3938 1.9528 1.4069-0.7769 1.8479-2.0998 1.3229-3.9687-1.3229-2.4568-3.7797-3.2758-7.3705-2.4568z"/>
  <path id="path40" d="m154.67 139.13c-1.7638-6.2996-5.2076-9.2394-10.331-8.8194-4.4936 2.6458-7.5594 6.8875-9.1973 12.725-2.0999 4.9137-2.5199 10.247-1.2599 16.001 0.5039 3.4858 2.0158 6.8876 4.5357 10.205 4.2837 3.4858 8.3994 4.7037 12.347 3.6538 0.21-2.1419 1.8479-4.5357 4.9137-7.1815-2.6039 1.6379-4.7037 2.6878-6.2996 3.1498-2.3518 0.7139-4.5357 0.5039-6.5515-0.63-2.6879-2.1838-4.1998-4.3677-4.5357-6.5515-1.008-3.9898-1.3439-7.5595-1.008-10.709-0.126-4.0317 0.672-7.3915 2.3939-10.079 1.3019-2.1839 2.6878-3.6958 4.1577-4.5357 1.6379-1.1759 3.5277-1.5119 5.6696-1.008 1.3019-0.0839 3.0238 1.176 5.1656 3.7798z" stroke-width="0" fill="#fff"/>
  <path id="path42" d="m155.93 144.05c-0.21-1.302-0.42-2.6039-0.63-3.9058-2.1839-1.4279-4.5357-2.3518-7.0555-2.7718-2.7718 0.8399-5.0397 2.8558-6.8036 6.0476-1.4699 5.1236-1.8478 9.9113-1.1339 14.363 0.84 3.9897 2.1839 6.5516 4.0317 7.6855 1.218 0.294 2.4359 0.588 3.6538 0.8819 2.8558-1.3859 4.8717-3.3597 6.0476-5.9216-2.1419 0.504-4.1997 0.504-6.1736 0-1.8059-2.2258-2.6878-5.2076-2.6458-8.9453-0.084-3.9898 1.0079-7.0556 3.2758-9.1974 1.7219-2.0999 4.1997-1.5119 7.4335 1.7639z" stroke-width="0" fill="#5bb1ff"/>
  <path id="path44" stroke-width="0" d="m9.7829 124.56c2.2462 2.2719 5.4918 6.0002 9.7368 11.185 4.1754 5.1575 8.2869 10.662 12.334 16.515 1.9703 1.8677 3.9817 3.3438 6.034 4.4283 1.7823 0.9489 3.5251 1.5456 5.2284 1.7901 0.2764 5.7974 0.8873 11.19 1.8326 16.178 0.9309 4.9834 2.1517 9.4134 3.6626 13.29-2.0192 0.5557-4.8259 2.7299-8.4199 6.5226-3.7199 3.9431-8.0991 9.5258-13.138 16.748-2.3906 3.0198-5.4742 6.953-9.2508 11.8-4.2788 5.2938-7.3178 9.4102-9.1168 12.349 2.4385-3.0947 4.1874-9.8951 5.2467-20.401 0.7925-9.9713-0.0371-21.012-2.4888-33.124-0.8575-2.9283-1.9787-5.568-3.3636-7.919-1.2091-2.0581-2.5254-3.7495-3.949-5.074 2.03-1.5607 3.699-3.2217 5.007-4.9831 1.5574-2.0809 2.5828-4.207 3.0763-6.3783 0.6116-5.4683 0.8062-10.558 0.5838-15.27-0.2277-4.6974-0.873-9.0156-1.9358-12.955-0.213-0.3416-0.4574-1.2504-0.7332-2.7262-0.2837-1.6248-0.3982-2.275-0.3436-1.9505l-3.8017-8.0726c0.7476 5.616 1.263 9.1236 1.5463 10.523 0.2911 1.548 0.5507 2.5291 0.7786 2.9433 1.0161 3.7465 1.6308 7.8697 1.844 12.37 0.2186 4.4855 0.0352 9.3487-0.5501 14.59-0.3885 1.7975-1.2529 3.5771-2.5933 5.3389-1.5898 2.0813-3.8266 4.2001-6.7102 6.3562 2.2301 2.0142 4.0636 4.2286 5.5003 6.6432 1.2609 2.1216 2.2816 4.5216 3.062 7.1999 2.399 11.827 3.2073 22.583 2.4248 32.266-0.5155 9.1486-3.5543 19.861-9.1163 32.137 8.5323-10.416 14.439-17.828 17.719-22.236 3.7829-4.8547 6.8729-8.796 9.2699-11.824 4.9778-7.1406 9.2921-12.645 12.943-16.514 3.7765-4.0187 7.0175-6.3802 9.723-7.0845-1.828-4.6278-3.2529-9.6472-4.2749-15.058-1.0076-5.4063-1.6567-11.353-1.9472-17.84-2.2654-0.2595-4.4283-0.9227-6.4888-1.9897-1.7904-0.9313-3.5588-2.227-5.3052-3.8871-4.0159-5.8016-8.0939-11.258-12.234-16.369-4.0705-5.0836-9.2663-10.931-15.588-17.541l3.7947 8.0224z"/>
  <path id="path46" stroke-width="0" d="m103.44 230.67c0.6307-1.5934 1.5057-3.8038 2.6248-6.6311 1.2123-3.0626 2.4246-6.1254 3.6371-9.1884 1.1009-4.2224 1.6212-8.5724 1.5611-13.05-0.0527-4.1156-0.5895-8.1592-1.6104-12.131 1.6367-0.004 3.4916-0.1477 5.5645-0.4302 2.1025-0.2782 4.1211-0.6749 6.0559-1.1901 2.8583 7.1896 6.3283 14.03 10.41 20.52 4.1001 6.5064 8.3983 12.17 12.895 16.992-3.1376 0.1654-6.0532 0.8566-8.7467 2.0735-2.7668 1.2428-4.7847 2.9296-6.0536 5.0605-3.0582-1.7982-5.9855-2.5849-8.7821-2.36-2.8307 0.1494-5.4967 1.3148-7.998 3.4961-1.8494-1.6333-3.7119-2.6597-5.5876-3.0793-1.871-0.3979-3.1943-0.4253-3.9698-0.0824l-4.392 3.9068c3.1302-1.3579 5.7126-1.7633 7.7474-1.2163 2.03 0.5254 4.0732 1.7668 6.1296 3.7242 2.6013-2.4803 5.353-3.8348 8.2549-4.0633 2.936-0.1531 6.0562 0.8241 9.3607 2.9316 1.3769-2.5938 3.5167-4.5607 6.4195-5.9007 2.9761-1.3659 7.242-2.1867 12.798-2.4622-6.2759-6.7699-11.553-13.579-15.831-20.428-4.2967-6.8643-8.0082-14.261-11.134-22.191-2.7269 0.7448-5.37 1.293-7.9292 1.6447-2.5887 0.3475-5.3956 0.5191-8.4206 0.5148 1.373 5.2259 2.0961 10.128 2.1694 14.705 0.0658 4.2159-0.4217 8.3074-1.4627 12.274-1.1814 2.9846-2.3629 5.9694-3.5444 8.9544-1.2747 3.2203-2.7936 7.0575-4.5567 11.512l4.392-3.9068z"/>
  <path id="path48" stroke-width="0" d="m67.662 134.82c11.507-8.5805 23.156-13.908 34.948-15.983 11.756-2.0984 24.42-1.0004 37.99 3.294-2.3248-4.9897-3.7934-9.369-4.4058-13.138-0.643-3.7826-0.5805-7.8163 0.1877-12.101-8.4233 3.5237-15.697 5.549-21.821 6.076-5.9595 0.4964-11.109-0.3684-15.449-2.5944-4.0119 3.7317-8.9994 6.7031-14.962 8.9141-6.0989 2.2457-13.505 3.7659-22.219 4.5606 1.7327 2.4198 3.0089 5.2097 3.8286 8.3696 0.8452 3.1866 1.4798 7.3913 1.904 12.614l2.1518-4.3789c-0.2688-3.2187-0.768-6.1956-1.4978-8.9306-0.7552-2.7616-1.4948-4.6334-2.219-5.6154 6.9725-0.6542 13.299-2.0318 18.981-4.1328 5.8171-2.1357 10.657-4.9599 14.52-8.4728 4.2274 2.0578 9.283 2.8309 15.167 2.3193 5.7193-0.4809 11.927-2.1093 18.622-4.8852-0.4288 2.3928-0.3662 5.2887 0.1877 8.6876 0.5845 3.4124 1.5097 6.4666 2.7756 9.1624-11.313-3.5801-22.714-4.372-34.203-2.3756-11.454 2.0195-22.231 6.771-32.332 14.254l-2.1544 4.3561z"/>
  <path id="path50" d="m205.94 129.43c2.0789 3.9687 3.5278 6.1735 4.3468 6.6145 3.5907 9.4494 4.0317 18.899 1.3229 28.348-1.6379 7.4335-6.0476 11.087-13.229 10.961-4.0318-0.189-8.3155-4.2837-12.851-12.284-0.5669 1.0079-1.1339 2.0158-1.7008 3.0238-1.6379-1.6379-3.7798-2.5199-6.4256-2.6459 3.4648 9.7644 3.7797 18.143 0.9449 25.135-1.1969 1.7639-2.5198 3.2758-3.9687 4.5357 3.7797 1.0079 6.5516 0.252 8.3154-2.2678l0.756 3.0238c7.4335 12.347 17.387 20.663 29.86 24.946 4.0318-5.0397 6.2996-12.347 6.8036-21.922 3.3388 4.2207 8.0634 5.5436 14.174 3.9687 1.3859 7.5595 3.2758 14.111 5.6696 19.655 10.583-0.2519 19.655-2.5198 27.214-6.8035 7.4335-5.7956 14.615-13.103 21.544-21.922 4.6617-1.8899 10.079-1.5119 16.253 1.1339 3.1498-9.9533 3.5278-20.663 1.1339-32.128-5.9216-0.7559-11.591-3.5277-17.009-8.3154-4.0317-5.6696-7.5595-11.087-10.583-16.253-8.8194-9.7013-20.159-15.119-34.018-16.253-19.403-0.63-32.254 2.5198-38.553 9.4494z" stroke-width="0" fill="#ffef00"/>
  <path id="path52" stroke-width="0" d="m207.65 130.56c2.6706-2.9745 6.999-5.1881 12.985-6.6408 6.2843-1.5474 14.205-2.1651 23.763-1.853 6.765 0.547 12.906 2.1429 18.422 4.7878 5.499 2.6153 10.385 6.2778 14.659 10.988 1.4877 2.5397 3.1007 5.1437 4.8388 7.8119 1.8079 2.775 3.7436 5.6128 5.8069 8.5134 2.8301 2.4996 5.7323 4.4807 8.7066 5.943 2.6969 1.3321 5.3976 2.1834 8.102 2.5539 1.0976 5.2903 1.5506 10.451 1.3589 15.482-0.1685 4.9778-0.923 9.5835-2.2636 13.817-2.5996-1.0869-5.1542-1.7092-7.6639-1.8669-2.9901-0.1902-5.7895 0.2413-8.3982 1.2947-3.5278 4.4974-7.1195 8.6084-10.775 12.333-3.5206 3.5853-7.1001 6.7965-10.738 9.6335-3.6527 2.073-7.6781 3.6564-12.076 4.7504-4.2156 1.0678-8.7294 1.6624-13.541 1.7839-1.0194-2.3699-1.9586-5.0525-2.8176-8.0479-1.0109-3.5222-1.9061-7.4243-2.6857-11.706-3.3718 0.924-6.3058 1.0544-8.8018 0.3913-2.4679-0.6354-4.9513-2.5271-7.4504-5.6752-0.3401 6.2542-1.1096 11.278-2.3087 15.07-1.0064 3.2858-2.3261 5.948-3.959 7.9866-5.6482-1.9437-10.805-4.8761-15.469-8.7974-4.8331-4.0235-9.0557-9.0367-12.668-15.04-0.1054-0.4218-0.2112-0.845-0.3174-1.2696-0.1853-0.7411-0.5036-2.0144-0.9549-3.8199-1.4795 2.1524-2.9698 3.4168-4.4709 3.7934-1.0368 0.2338-1.5942 0.3092-1.6723 0.226-0.433 0.398-0.3677 0.2881 0.1959-0.3296 0.7374-0.8472 1.4391-1.7625 2.1049-2.7458 1.4918-3.7004 2.1607-7.7524 2.0069-12.156-0.1476-3.9821-0.9288-7.9828-2.3436-12.002 0.127-0.009 0.5482 0.1322 1.2635 0.4233 1.2467 0.521 2.4875 1.4162 3.7226 2.6856 0.6535-1.1619 1.1948-2.1242 1.6239-2.887 0.1544-0.2744 0.077-0.1368-0.2322 0.4129 1.7551 3.0745 3.6342 5.5654 5.6374 7.4728 2.3741 2.2429 4.7211 3.4377 7.041 3.5843 3.9396 0.051 7.1579-0.9325 9.6548-2.9504 2.4028-2.0226 4.0542-5.0226 4.954-8.9999 1.3877-4.8622 1.9709-9.7265 1.7496-14.593-0.2437-4.9499-1.3062-9.8983-3.1873-14.845-0.4462-0.2114-1.0336-0.8738-1.7623-1.9872-0.5618-0.8378-1.2401-2.0102-2.0349-3.5172l-3.4241-0.7552c1.2841 2.4618 2.3697 4.3762 3.2567 5.7432 0.7202 1.0914 1.2667 1.752 1.6395 1.9815 1.7096 4.5025 2.663 9.0035 2.8603 13.503 0.2197 4.5831-0.331 9.1682-1.6522 13.755-0.738 3.4562-2.1105 5.9999-4.1173 7.631-1.9128 1.6358-4.4902 2.4162-7.7321 2.3412-1.7118-0.0423-3.5225-0.9894-5.4321-2.8413-2.2806-2.1873-4.8111-5.7439-7.5917-10.67-0.8761 1.5576-1.5205 2.7032-1.9331 3.4367-0.1379 0.2452-0.1635 0.2907-0.0769 0.1368-0.4029-0.3685-1.0519-0.7332-1.9471-1.0941-1.4266-0.5909-3.3992-0.9538-5.918-1.0886 2.05 5.7451 3.1586 10.816 3.326 15.212 0.1611 3.9751-0.4298 7.6087-1.7729 10.901-0.531 0.7806-1.0893 1.5032-1.6748 2.1679-0.7593 0.8942-2.0799 2.1702-3.9618 3.8281 3.7017 0.9248 6.42 1.1261 8.1551 0.604 1.2707-0.3794 2.0482-0.7528 2.3326-1.1203-0.1994-0.7975-0.2657-1.0629-0.199-0.796 0.1458 0.5833 0.292 1.168 0.4385 1.7541 3.8215 6.3442 8.2923 11.662 13.412 15.954 5.2886 4.3942 11.345 7.7613 18.17 10.101 2.3988-3.0011 4.2289-6.5125 5.4903-10.534 1.0688-3.5152 1.6852-6.9333 1.8491-10.254 0.8397 1.0727 2.3879 1.9527 4.6448 2.6403 2.2286 0.6597 4.7123 0.6642 7.451 0.0133 0.6063 3.2774 1.349 6.4307 2.228 9.4601 1.0309 3.5562 2.2335 6.9212 3.6079 10.095 5.7713-0.1305 11.085-0.7959 15.941-1.9959 4.6733-1.1738 8.9634-2.8662 12.87-5.0769 3.7951-2.9586 7.5231-6.299 11.184-10.021 3.5261-3.5829 6.99-7.5354 10.392-11.857 2.053-0.8365 4.2933-1.1609 6.7208-0.9731 2.9079 0.2202 6.1489 1.1098 9.7229 2.6687 1.8092-5.7196 2.8185-11.445 3.0281-17.177 0.1862-5.6784-0.3687-11.605-1.665-17.78-3.2171-0.3854-6.3121-1.298-9.2848-2.7377-2.6953-1.3095-5.3367-3.1082-7.9242-5.3962-1.9684-2.769-3.8126-5.4749-5.5324-8.1175-1.7896-2.7494-3.4524-5.4371-4.9885-8.063-4.5457-4.9916-9.7387-8.8886-15.579-11.691-5.8226-2.7727-12.281-4.4526-19.375-5.0395-9.8451-0.3179-18.051 0.3244-24.618 1.9267-6.865 1.6971-12.112 4.5231-15.741 8.4782l3.4151 0.7386z"/>
  <path id="path54" d="m219.74 196.52c-2.0159 15.434-7.5595 27.97-16.631 37.608 8.1895-0.189 13.103 1.7639 14.741 5.8586 6.6776-1.3229 11.591-0.252 14.741 3.2128 4.5357-2.7718 9.0714-3.5278 13.607-2.2678-5.2916-12.599-9.3234-25.702-12.095-39.309-4.2837 1.9529-9.0714 0.252-14.363-5.1026z" stroke-width="0" fill="#ff73ad"/>
  <path id="path56" d="m204.43 131.51c6.8665-6.2996 19.655-9.5753 38.364-9.8273 14.867 1.5749 25.702 6.2996 32.506 14.174 1.8269-4.7877 3.6538-9.5753 5.4806-14.363-11.906 1.1339-24.19-3.0238-36.852-12.473-12.473 4.7247-27.214 2.5199-44.223-6.6145 3.9687 9.7013 5.5436 19.403 4.7247 29.104z" stroke-width="0" fill="#ff73ad"/>
  <path id="path58" d="m306.86 161.18c1.5119 11.717 1.0079 22.678-1.5119 32.884 3.4017 3.2758 8.3154 10.583 14.741 21.923 7.6224 14.237 13.859 23.686 18.71 28.348-7.1815-27.592-5.5436-53.168 4.9137-76.729-8.8824-16.127-10.331-32.254-4.3467-48.381-10.142 14.363-16.631 24.442-19.466 30.238-3.4648 5.4176-7.8115 9.3234-13.04 11.717z" stroke-width="0" fill="#ff73ad"/>
  <path id="path60" stroke-width="0" d="m185.34 163.26c1.9528 5.5437 4.0317 9.0714 6.2365 10.583 3.7168 2.4569 7.5595 3.2758 11.528 2.4569 4.3467-0.945 7.0556-4.0318 8.1265-9.2604 2.7718-5.8586 4.0317-10.835 3.7797-14.93-0.3149-11.024-3.7797-18.647-10.394-22.867-8.1894 5.0396-14.615 16.379-19.277 34.018z"/>
  <path id="path62" d="m201.28 135.35c4.9976 2.8139 7.3914 6.2156 7.1815 10.205 1.5119 3.7798 1.6799 8.2315 0.5039 13.355-0.3359 3.6118-2.0158 7.0556-5.0396 10.331-2.6878 2.7719-6.0476 4.0318-10.079 3.7798 2.0578 1.3019 4.0317 1.8479 5.9216 1.6379 2.6038-0.756 4.8716-2.0159 6.8035-3.7798 2.9398-3.4437 4.7037-7.3915 5.2917-11.843 0.6299-4.7036 0.3359-9.4073-0.882-14.111-0.084-4.7877-2.1838-8.9034-6.2996-12.347-1.1339 0.924-2.2678 1.8479-3.4017 2.7718z" stroke-width="0" fill="#fff"/>
  <path id="path64" d="m194.6 145.31c1.6799-0.252 2.6878 0 3.0238 0.7559 2.6878 1.8059 3.8638 4.7037 3.5278 8.6934 1.2179 3.4858-0.504 7.2235-5.1657 11.213-3.0238-2.3099-5.5436-3.0238-7.5594-2.1419 1.8058 3.0238 3.5277 5.0397 5.1656 6.0476 2.1418 1.2179 4.3677 1.0079 6.6775-0.63 2.5199-2.4358 4.3677-5.3756 5.5437-8.8194 1.0919-4.7036 1.1759-9.4073 0.2519-14.111-0.8819-5.4596-3.1917-8.5674-6.9295-9.3234-1.5119 2.2679-3.0238 5.0397-4.5357 8.3155z" stroke-width="0" fill="#ff73ad"/>
  <path id="path66" d="m221.69 163.2c-3.9477 1.5958-6.0476 3.3597-6.2996 5.2916-2.8558 4.4097-3.0238 8.2314-0.504 11.465 2.1839 4.1157 5.2077 5.7116 9.0714 4.7877 4.6617-2.0159 6.8875-6.0476 6.6776-12.095-0.378-5.4176-3.3598-8.5674-8.9454-9.4493z" stroke-width="0" fill="#f00"/>
  <path id="path68" d="m175.58 163.83c-1.6799-3.3598-2.6038-1.5119-2.7718 5.5436 4.5357 7.2655 4.5357 14.279 0 21.041-0.6719 2.8138-0.042 3.7377 1.8899 2.7718 6.2575-7.8535 6.5515-17.639 0.8819-29.356z" stroke-width="0" fill="#f00"/>
  <path id="path70" d="m196.49 10.497c-1.4279-4.1158-2.9398-6.4676-4.5357-7.0556-8.3154-4.8716-15.455-2.8558-21.418 6.0476-2.2679 6.2576-1.008 11.423 3.7797 15.497 4.7877 4.2417 10.583 8.5674 17.387 12.977 2.1419 1.0919 3.8638 3.5277 5.1657 7.3075 1.3859-3.0238 3.5277-5.3756 6.4255-7.0555l7.8115-7.1815c8.0214-7.6435 10.415-15.791 7.1815-24.442-8.3574-9.5333-15.623-8.2314-21.796 3.9058z" stroke-width="0" fill="#f00"/>
  <path id="path72" d="m156.81 62.279c-0.546-2.8138-1.1759-4.7036-1.8899-5.6696-0.8819-1.6379-2.8558-2.8558-5.9216-3.6537-5.4176 0.4199-8.0634 2.8558-7.9374 7.3075-0.924 3.3177 0.5039 6.8875 4.2837 10.709 1.7219 2.0999 4.7037 3.1918 8.9454 3.2758 2.2258-0.168 4.1997 1.1759 5.9216 4.0317 1.0499-2.6458 3.6957-6.0475 7.9374-10.205 2.4359-2.4358 3.0238-6.2155 1.7639-11.339-1.7639-4.2837-4.8717-5.2076-9.3234-2.7718-2.7718 1.7639-4.0317 4.5357-3.7797 8.3154z" stroke-width="0" fill="#f00"/>
  <path id="path74" d="m183.77 95.037c-1.3439-3.3178-3.6958-4.5357-7.0556-3.6537-3.7377 1.5118-4.8716 3.5277-3.4017 6.0475 2.0998 2.0579 4.4517 3.3598 7.0555 3.9058 1.9739 0.4619 3.8637 1.8478 5.6696 4.1577 1.1759-3.9897 3.1918-7.5595 6.0476-10.709 1.0499-4.2837-0.336-6.3836-4.1577-6.2996-2.4778 0.672-3.8637 2.8559-4.1577 6.5516z" stroke-width="0" fill="#f00"/>
  <path id="path76" d="m166.13 126.28c-1.05-1.8059-2.3519-2.5199-3.9058-2.1419-2.2678 0.462-3.3597 2.0159-3.2758 4.6617 0.504 1.3439 1.6799 2.3518 3.5278 3.0238 2.3518 0.084 3.8637 1.5119 4.5357 4.2837 1.4699-3.5278 3.3598-6.5516 5.6696-9.0714 1.1339-2.3098 0.504-3.8637-1.8899-4.6617-2.3098 0.042-3.8637 1.3439-4.6616 3.9058z" stroke-width="0" fill="#f00"/>
  <path id="path78" stroke-width="0" d="m218.88 194.8c-1.1563 8.8426-3.164 16.483-6.0233 22.922-2.7998 6.4167-6.9276 12.54-12.383 18.37 5.3777-0.1322 9.3604 0.3205 11.948 1.358 2.4389 0.9855 4.0358 2.5542 4.7906 4.7059 3.4772-0.724 6.4891-0.8216 9.0358-0.2928 2.5004 0.5646 4.5596 1.785 6.1778 3.6611 2.4148-1.5135 4.8096-2.4783 7.1843-2.8942 2.4185-0.4281 5.3078-0.1771 8.6679 0.7529-3.1297-7.4664-5.7325-14.584-7.8083-21.354-2.0897-6.8029-3.8814-13.882-5.3751-21.236-2.4307 1.2043-4.8853 1.3754-7.364 0.5134-2.5441-0.9099-5.4975-3.0814-8.8602-6.5145l1.7376 4.9831c1.929 1.9215 4.0152 3.2777 6.2588 4.0688 2.309 0.8388 4.39 0.8839 6.2431 0.1354 1.2781 6.2523 2.8881 12.529 4.8302 18.829 1.9559 6.3337 4.0148 12.067 6.1767 17.2-1.1755-0.3299-2.8219-0.3309-4.9392-0.003-2.1609 0.34-4.3019 1.1391-6.4227 2.3974-1.5316-1.5887-3.5041-2.6362-5.9174-3.1425-2.367-0.542-5.1507-0.5136-8.3511 0.0853-0.883-1.9431-2.5619-3.3982-5.0367-4.3656-2.326-0.9153-4.8948-1.3446-7.7065-1.2877 3.6157-3.8083 6.7954-8.7721 9.5392-14.892 2.6843-6.0975 4.4563-12.442 5.3159-19.033l-1.7182-4.9665z"/>
  <path id="path80" stroke-width="0" d="m205.81 127.87c0.3113-3.4859 0.0983-7.5721-0.6388-12.259-0.8114-4.7531-1.8809-8.7109-3.2085-11.873 6.9593 3.7659 14.081 6.2174 21.366 7.3546 7.3554 1.1117 14.139 0.5141 20.351-1.7928 6.2727 4.6552 12.452 8.0056 18.537 10.051 5.968 2.0112 11.52 2.7781 16.655 2.3006-0.5674 1.4869-1.2563 3.2925-2.0669 5.4169-0.8117 2.1269-1.4949 3.9175-2.0499 5.3719-2.8502-3.2863-6.8991-6.0809-12.146-8.3837-5.5674-2.4188-12.148-4.0317-19.74-4.8386-9.4943 0.1284-17.506 1.0257-24.036 2.6919-6.2548 1.6661-10.604 3.6583-13.046 5.9766l-2.7107 4.9765c4.424-3.9812 9.9026-6.7767 16.436-8.3863 6.2581-1.6096 13.995-2.4762 23.21-2.5998 7.2742 0.768 13.545 2.3049 18.813 4.6108 5.5879 2.4219 10.358 5.9268 14.312 10.515 1.272-3.3332 2.4155-6.3302 3.4308-8.991 1.0163-2.6634 2.1542-5.6454 3.4137-8.9461-6.7709 0.6564-13.314-0.0886-19.631-2.2351-6.1986-2.1121-12.493-5.5653-18.882-10.36-6.2614 2.4179-13.085 3.0802-20.47 1.987-7.4565-1.0677-16.21-4.2858-26.259-9.6542 2.6412 6.5388 4.3435 12.282 5.107 17.231 0.8377 5.0145 1.0028 10.63 0.4951 16.845l2.7603-5.0094z"/>
  <path id="path82" stroke-width="0" d="m305.47 160.44c0.8023 6.1298 1.0775 12.026 0.8258 17.688-0.2651 5.6124-1.0543 11.054-2.3676 16.324 1.8404 1.7604 4.0283 4.5246 6.5635 8.2925 2.4384 3.6257 5.2556 8.2588 8.4516 13.899 3.8259 7.1445 7.3061 13.092 10.441 17.841 2.9249 4.638 6.7835 9.3969 11.576 14.277-4.2839-16.971-5.9475-31.71-4.9909-44.216 0.8333-12.842 3.8917-25.185 9.1752-37.028-4.8096-6.9526-7.4251-15.009-7.8465-24.17-0.5401-8.5011 1.6175-20.786 6.4727-36.856-8.9025 14.607-14.909 24.741-18.019 30.402-3.5463 6.1197-5.8639 10.066-6.9528 11.839-1.6679 2.6159-3.5477 4.8611-5.6394 6.7355-2.2889 2.0403-4.8525 3.6976-7.6906 4.9721l2.7891 1.4804c2.3905-1.1194 4.6147-2.6118 6.6725-4.4772 2.255-2.0314 4.2809-4.4479 6.0778-7.2497 1.1159-1.8175 3.4599-5.8085 7.0322-11.973 4.0081-6.6232 7.5769-13.12 10.707-19.491-3.0192 6.6721-4.3894 14.923-4.1105 24.754 0.3975 9.1712 2.9476 17.242 7.6504 24.211-5.1738 11.717-8.163 23.943-8.9675 36.677-0.6814 13.07 0.4268 24.916 3.3245 35.536-0.0583 0.2182-1.7433-2.0784-5.055-6.8898-3.1019-4.6997-6.5512-10.596-10.348-17.688-3.2296-5.6987-6.082-10.389-8.5573-14.071-2.3784-3.5395-4.3483-6.067-5.9097-7.5824 1.2066-4.9352 1.9293-10.077 2.1681-15.426 0.2523-5.2989 0.0236-10.742-0.6861-16.329l-2.7855-1.4824z"/>
  <path id="path84" stroke="#000" fill="#f00" d="m221.69 163.2c5.5856 0.8819 8.5674 4.0317 8.9454 9.4493 0.2099 6.0476-2.0159 10.079-6.6776 12.095-3.8637 0.9239-6.8875-0.672-9.0714-4.7877-2.5198-3.2338-2.3518-7.0555 0.504-11.465 0.252-1.9319 2.3519-3.6958 6.2996-5.2916"/>
  <path id="path86" stroke-width="0" fill="#f00" d="m196.49 10.497c6.1736-12.137 13.439-13.439 21.796-3.9058 3.2338 8.6514 0.8399 16.799-7.1815 24.442l-7.8115 7.1815c-2.8978 1.6799-5.0396 4.0317-6.4255 7.0555-1.3019-3.7798-3.0238-6.2156-5.1657-7.3075-6.8035-4.4097-12.599-8.7354-17.387-12.977-4.7877-4.0737-6.0476-9.2394-3.7797-15.497 5.9635-8.9034 13.103-10.919 21.418-6.0476 1.5959 0.588 3.1078 2.9398 4.5357 7.0556"/>
  <path id="path88" d="m156.81 62.279c-0.252-3.7797 1.0079-6.5515 3.7797-8.3154 4.4517-2.4358 7.5595-1.5119 9.3234 2.7718 1.2599 5.1237 0.672 8.9034-1.7639 11.339-4.2417 4.1578-6.8875 7.5595-7.9374 10.205-1.7219-2.8558-3.6958-4.1997-5.9216-4.0317-4.2417-0.084-7.2235-1.1759-8.9454-3.2758-3.7798-3.8217-5.2077-7.3915-4.2837-10.709-0.126-4.4517 2.5198-6.8876 7.9374-7.3075 3.0658 0.7979 5.0397 2.0158 5.9216 3.6537 0.714 0.966 1.3439 2.8558 1.8899 5.6696" stroke-width="0" fill="#f00"/>
  <path id="path90" d="m183.77 95.037c0.294-3.6957 1.6799-5.8796 4.1577-6.5516 3.8217-0.084 5.2076 2.0159 4.1577 6.2996-2.8558 3.1498-4.8717 6.7196-6.0476 10.709-1.8059-2.3099-3.6957-3.6958-5.6696-4.1577-2.6038-0.546-4.9557-1.8479-7.0555-3.9058-1.4699-2.5198-0.336-4.5357 3.4017-6.0475 3.3598-0.882 5.7117 0.3359 7.0556 3.6537" stroke-width="0" fill="#f00"/>
  <path id="path92" d="m166.13 126.28c0.7979-2.5619 2.3518-3.8638 4.6616-3.9058 2.3939 0.798 3.0238 2.3519 1.8899 4.6617-2.3098 2.5198-4.1997 5.5436-5.6696 9.0714-0.672-2.7718-2.1839-4.1997-4.5357-4.2837-1.8479-0.672-3.0238-1.6799-3.5278-3.0238-0.0839-2.6458 1.008-4.1997 3.2758-4.6617 1.5539-0.378 2.8558 0.336 3.9058 2.1419" stroke-width="0" fill="#f00"/>
  <path id="path94" stroke-width="0" d="m47.384 181.4c-9.4494 3.3388-16.631 8.0635-21.545 14.174 4.1577-7.0555 11.465-11.843 21.922-14.363-0.8819-3.2758-1.2599-5.6696-1.1339-7.1815-8.3784-1.1339-15.623 0.252-21.734 4.1577 2.7718-3.9687 9.8273-5.7956 21.166-5.4806-0.3149-1.7009-0.6299-3.4018-0.9449-5.1026-7.9374-2.0159-14.363-4.2838-19.277-6.8036 1.7639 3.5278 8.1895 5.7956 19.277 6.8036"/>
  <path id="path98" stroke-width="0" d="m121.09 195.39c2.1734 10.772 4.9137 19.781 8.221 27.025-4.8507-7.654-7.8745-16.568-9.0714-26.742-1.1339 0.1575-2.2679 0.315-3.4018 0.4725 1.2599 10.079 1.008 19.907-0.7559 29.482 0.2205-9.5124 0.126-19.151-0.2835-28.915"/>
  <path id="path100" stroke-width="0" d="m92.268 195.58c-1.7639-5.5751-1.3859-10.835 1.1339-15.78-3.2443-5.0711-2.7718-9.9533 1.4174-14.646-3.3073-7.024-3.0238-13.985 0.8505-20.883-4.3782 6.9611-4.7877 13.985-1.2285 21.072-4.4097 4.8192-4.6616 9.5754-0.7559 14.268-4.0317 7.3075-4.1577 12.914-0.378 16.82-2.7088-6.7406-2.2678-12.347 1.3229-16.82-4.0002-4.8821-3.7797-9.7013 0.6615-14.458-3.5908-7.0555-3.1498-14.111 1.3229-21.166-4.9452 2.8348-7.7695 6.8035-8.4729 11.906-3.2338 4.5357-3.1918 8.2315 0.126 11.087-2.5199 3.9057-2.5199 8.5674 0 13.985-3.3493-2.7823-3.5278-7.3915-0.5355-13.828-3.4543-4.1052-3.4858-8.1055-0.0945-12.001-5.0816 3.1498-6.2156 7.3075-3.4018 12.473-3.1077 4.6616-2.6878 9.7433 1.26 15.245-4.7352-4.3257-5.3757-9.4074-1.9214-15.245-2.7403-5.0397-1.9739-9.0714 2.2993-12.095-7.1815 5.1656-9.0714 10.583-5.6696 16.253-3.8427-4.8822-2.6878-9.7014 3.4648-14.458-9.2604 6.394-11.087 13.397-5.4806 21.009-4.6197-6.3415-5.0397-11.591-1.26-15.749-4.6616 4.4937-4.5356 9.5753 0.378 15.245-5.7956-5.8377-6.2156-10.751-1.2599-14.741-5.9636 3.9057-5.5436 8.9033 1.2599 14.993"/>
  <path id="path102" stroke-width="0" d="m222.86 206.26c1.1339 10.615 0 19.907-3.4018 27.876 4.2522-8.4729 5.6696-17.765 4.2522-27.876 1.4489 0.189 2.8978 0.378 4.3467 0.567 0.378 9.8903 2.0159 19.151 4.9137 27.781-2.8978-10.709-4.1577-19.907-3.7797-27.592"/>
  <path id="path106" stroke-width="0" d="m246.77 153.34c6.1105 5.9216 7.1815 11.465 3.2127 16.631 6.8981 7.087 7.3075 13.607 1.2285 19.56 2.7403 5.1026 3.0238 9.8273 0.8504 14.174 2.5513-3.7168 2.5198-8.4414-0.0945-14.174 2.2994-3.3073 3.7798-6.5516 4.4412-9.7329 4.6932-5.9216 4.9137-11.969 0.6615-18.143 4.5672 5.5121 4.6616 11.591 0.2834 18.237 4.6302 1.4174 5.9216 5.7956 3.8743 13.135 2.5513-5.5121 1.5119-10.079-3.1183-13.702 1.0394-0.819 1.8269-3.5908 2.3623-8.3155"/>
  <path id="path108" stroke-width="0" d="m260.47 171.01c1.9214-0.5039 3.8428-1.0079 5.7641-1.5119"/>
  <path id="path110" stroke-width="0" d="m266.23 169.5c4.2837 4.6617 5.0397 9.3234 2.2679 13.985 1.9529-5.4492 1.4489-10.142-1.5119-14.08"/>
  <path id="path112" stroke-width="0" d="m307.75 170.88c7.0975-2.6038 13.103-6.0476 18.017-10.331-5.2917 5.0817-11.255 8.5675-17.891 10.457v8.6934c7.1395-4.2417 13.439-5.8796 18.899-4.9136-5.6276-1.8059-11.927-0.168-18.899 4.9136-0.294 2.1419-0.588 4.2837-0.8819 6.4256 7.1395-3.5698 14.783-1.1759 22.93 7.1815-8.2314-7.5175-15.791-9.9113-22.678-7.1815"/>
  <metadata>
    <rdf:RDF>
      <cc:Work>
        <dc:format>image/svg+xml</dc:format>
        <dc:type rdf:resource="http://purl.org/dc/dcmitype/StillImage"/>
        <cc:license rdf:resource="http://creativecommons.org/licenses/publicdomain/"/>
        <dc:publisher>
          <cc:Agent rdf:about="http://openclipart.org/">
            <dc:title>Openclipart</dc:title>
          </cc:Agent>
        </dc:publisher>
        <dc:title>Fish in Love</dc:title>
        <dc:date>2011-12-11T18:49:29</dc:date>
        <dc:description>Fish in love</dc:description>
        <dc:source>http://openclipart.org/detail/166260/fish-in-love-by-pulliver</dc:source>
        <dc:creator>
          <cc:Agent>
            <dc:title>pulliver</dc:title>
          </cc:Agent>
        </dc:creator>
        <dc:subject>
          <rdf:Bag>
            <rdf:li>clip art</rdf:li>
            <rdf:li>clipart</rdf:li>
            <rdf:li>fish</rdf:li>
            <rdf:li>hearts</rdf:li>
            <rdf:li>kiss</rdf:li>
            <rdf:li>love</rdf:li>
          </rdf:Bag>
        </dc:subject>
      </cc:Work>
      <cc:License rdf:about="http://creativecommons.org/licenses/publicdomain/">
        <cc:permits rdf:resource="http://creativecommons.org/ns#Reproduction"/>
        <cc:permits rdf:resource="http://creativecommons.org/ns#Distribution"/>
        <cc:permits rdf:resource="http://creativecommons.org/ns#DerivativeWorks"/>
      </cc:License>
    </rdf:RDF>
  </metadata>
</svg>
