<?xml version="1.0" encoding="UTF-8"?>
<!DOCTYPE svg PUBLIC "-//W3C//DTD SVG 1.1//EN" "http://www.w3.org/Graphics/SVG/1.1/DTD/svg11.dtd">
<svg version="1.1" xmlns="http://www.w3.org/2000/svg" xmlns:xlink="http://www.w3.org/1999/xlink" x="0" y="0" width="1080" height="1028" viewBox="0, 0, 1080, 1028">
  <g id="Layer_1">
    <path d="M399.28,69.868 C328.444,28.564 247.984,-21.78 165.436,18.148 C125.772,37.344 116.92,92.78 119.156,111.476 C119.156,111.476 101.248,101.728 82.18,130.508 C47.124,183.424 86.976,257.172 97.976,281.016 C107.624,301.936 108.976,299.952 108.976,299.952 L131.32,262.132 C131.32,262.132 115.968,293.428 121.812,301.788 L166.42,388.58 C204.928,384.908 296.984,359.016 338.468,338.632 C379.952,318.26 424.108,268.556 451.836,235.788 C478.72,204.008 521.5,109.272 521.5,109.272 C484.392,103.452 425.46,85.132 399.28,69.868" fill="#A15934"/>
    <path d="M828.368,667.008 C824.392,669.236 820.72,671.28 817.608,673.008 C791.392,687.416 782.22,691.352 782.22,691.352 C782.22,691.352 756,675.616 736.328,658.588 C716.664,641.532 716.664,641.532 716.664,641.532 L668.164,716.26 C668.164,716.26 733.72,771.328 749.444,781.812 C765.172,792.296 787.452,792.296 809.74,780.5 C821.576,774.228 846.344,760.58 870.32,747.58 C867.312,739.752 861.648,725.624 854.92,712.164 C846.4,695.1 835.656,678.648 828.368,667.008" fill="#F9D8B5"/>
    <path d="M906.756,621.876 C906.756,621.876 857.92,650.36 828.368,667.008 C835.656,678.648 846.4,695.1 854.92,712.164 C861.648,725.624 867.312,739.752 870.32,747.58 C891.492,736.088 912.048,725.108 922.492,720.196 C944.772,709.712 952.64,705.772 952.64,705.772 L964.444,657.264 L906.756,621.876" fill="#EDB0C7"/>
    <path d="M225.632,644.688 C199.384,668.9 160.812,700.524 160.812,700.524 C160.812,700.524 137.212,735.928 152.944,756.9 C168.68,777.876 211.936,785.752 221.116,780.5 C228.368,776.352 267.516,739.484 293.344,715.132 C286.264,709.18 268.108,693.772 259.508,685.164 C249.564,675.22 234.22,655.632 225.632,644.688" fill="#EDB0C7"/>
    <path d="M396.788,579.924 C364.016,579.924 318.14,582.548 308.96,582.548 C299.772,582.548 263.072,604.828 244.72,625.796 C240.452,630.672 233.584,637.36 225.632,644.688 C234.22,655.632 249.564,675.22 259.508,685.164 C268.108,693.772 286.264,709.18 293.344,715.132 C300.18,708.688 306.148,703.064 310.264,699.212 C329.928,680.868 348.28,663.812 348.28,663.812 C348.28,663.812 402.032,663.812 419.076,665.124 C436.116,666.444 464.96,663.812 464.96,663.812 L396.788,579.924" fill="#F9D8B5"/>
    <path d="M991.352,977.116 C991.352,1004.548 811.532,1026.772 589.74,1026.772 C367.928,1026.772 188.132,1004.548 188.132,977.116 C188.132,949.704 367.928,927.46 589.74,927.46 C811.532,927.46 991.352,949.704 991.352,977.116" fill="#693033"/>
    <path d="M171.196,694.424 C171.196,694.424 180.008,721.188 196.444,736.392 C212.876,751.616 244.608,759.924 244.608,759.924 C244.608,759.924 237.008,787.588 222.04,806.46 C207.048,825.336 187.336,840.912 187.336,840.912 C187.336,840.912 167.748,829.992 147.5,813.196 C134.812,802.656 111.984,777.244 101.22,766.976 C90.444,756.736 55.64,739.476 35.548,718.936 C15.452,698.376 -0.672,672.32 1.804,665.468 C4.288,658.6 32.32,630.728 48.672,636.436 C65.016,642.148 103.092,672.68 129.1,682.64 C155.148,692.592 171.196,694.424 171.196,694.424" fill="#E36570"/>
    <path d="M937.24,713.376 C937.24,713.376 939.436,686.264 930.508,666.564 C921.592,646.868 896.468,627.588 896.468,627.588 C896.468,627.588 913.6,605.82 933.992,594.616 C954.4,583.444 977.788,576.952 977.788,576.952 C977.788,576.952 991.132,594.016 1002.844,616.556 C1010.196,630.688 1020.968,661.876 1026.712,675.032 C1032.46,688.196 1056.96,716.58 1067.148,742.408 C1077.328,768.244 1081.912,797.444 1077.14,802.624 C1072.352,807.828 1036.976,822.108 1024.564,810.892 C1012.156,799.696 989.704,758.252 970.296,739.648 C950.844,721.016 937.24,713.376 937.24,713.376" fill="#E36570"/>
    <path d="M365.384,371.592 C337.384,382.264 230.632,415.272 217.304,416.6 C203.976,417.928 182.624,411.264 166.632,401.936 C150.648,392.6 146.64,385.928 146.64,385.928 C146.64,385.928 167.976,360.608 151.976,336.608 C135.976,312.616 117.312,321.944 117.312,321.944 C117.312,321.944 109.312,309.944 94.648,303.28 C79.984,296.616 54.656,289.944 45.32,301.952 C35.984,313.944 38.656,333.944 38.656,333.944 C38.656,333.944 22.608,370.352 23.992,393.936 C25.32,416.6 50.648,435.272 71.984,443.264 C93.32,451.264 111.976,448.6 111.976,448.6 C111.976,448.6 159.976,488.6 194.64,491.26 C229.296,493.936 378.728,442.26 390.712,436.924 C402.72,431.588 402.72,431.588 402.72,431.588 L365.384,371.592" fill="#F9D8B5"/>
    <path d="M619.564,345.384 C626.252,338.908 660.032,325.424 669.5,347.892 C678.96,370.36 650.704,380.384 635.188,386.264 C619.688,392.148 585.392,385.212 574.96,352.592 C564.516,319.976 601.056,304.78 601.056,304.78 C601.056,304.78 591.992,286.648 585.376,278.516 C578.748,270.384 572.532,266.6 562.812,271.924 C553.1,277.244 504.484,310.828 504.484,310.828 L469.064,261.624 C484.016,249.944 570.188,196.664 577.712,198.868 C585.24,201.064 597.648,208.656 617.392,231.6 C637.132,254.548 649.92,281.088 649.92,281.088 C649.92,281.088 669.772,274.78 688.548,287.6 C707.312,300.408 711.132,324.892 707.936,367.58 L682.42,375.884" fill="#F9D8B5"/>
    <path d="M650.556,358.024 C663.68,348.312 680.436,356.82 680.436,356.82 C680.436,356.82 675.312,343.984 682.492,337.728 C689.672,331.484 696.588,334.148 696.588,334.148 C696.588,334.148 693.72,325.624 701.86,323.336 C721.412,317.852 739.74,358.336 731.236,366.368 C722.384,374.736 717.46,372.14 717.46,372.14 C717.46,372.14 721.056,382.188 713.748,388.124 C706.444,394.08 699.236,390.564 699.236,390.564 C699.236,390.564 702.328,416.936 686.08,421.264 C669.82,425.6 654.5,416.524 646.056,397.9 C637.6,379.264 642.78,363.78 650.556,358.024" fill="#F9D8B5"/>
    <path d="M615.936,370.492 C632.156,364.968 639.788,369.6 652.256,394.804 C664.72,420.016 657.4,432.804 646.468,435.28 C635.54,437.744 619.368,436.812 611.5,410.376 C603.624,383.944 607.376,373.416 615.936,370.492" fill="#F9D8B5"/>
    <path d="M388.092,294.492 C399.74,268.304 408.468,258.124 420.108,255.212 C431.74,252.312 437.564,250.852 437.564,250.852 L470.648,232.524 C470.648,232.524 495.376,248.532 509.928,270.352 C524.476,292.172 527.384,312.54 527.384,312.54 C527.384,312.54 530.672,332.32 511.76,349.78 C492.844,367.244 379.368,364.32 379.368,364.32 L388.092,294.492" fill="#FFF691"/>
    <path d="M743.08,503.984 C743.08,495.26 718.344,448.712 617.96,387.608 C517.576,326.508 444.836,311.952 444.836,311.952 C444.836,311.952 439.024,303.22 433.204,295.96 C427.376,288.68 412.836,300.32 392.46,304.688 L322.632,341.056 C322.632,341.056 357.548,419.608 389.556,463.26 C421.564,506.9 436.108,524.36 436.108,524.36 C436.108,524.36 425.928,521.444 425.928,527.272 C425.928,533.088 431.74,543.264 431.74,543.264 C431.74,543.264 411.42,555.148 386.616,559.064 C361.804,562.976 323.952,564.28 321.344,569.5 C318.736,574.728 364.412,711.788 464.936,739.204 C565.452,766.616 701.22,748.336 783.46,647.828 C865.704,547.312 818.704,539.468 814.788,535.564 C810.876,531.648 743.08,503.984 743.08,503.984" fill="#EC9356"/>
    <path d="M310.992,359.96 C354.64,352.696 386.648,336.688 398.28,317.78 C409.92,298.86 402.656,297.408 395.376,293.048 C388.092,288.68 379.368,284.312 379.368,284.312 L310.992,359.96" fill="#FFF691"/>
    <path d="M138.868,247.468 C138.868,247.468 124.304,234.884 110.576,242.736 C96.836,250.588 98.024,274.18 113.264,292.752 C124.172,306.016 134.236,310.236 144.04,308.148 C153.868,306.072 158.108,299.968 158.108,299.968 L138.868,247.468" fill="#F9D8B5"/>
    <path d="M384.572,195.244 C384.572,195.244 392.748,177.828 408.476,179.416 C424.228,181 432.748,203.024 426.376,226.196 C421.804,242.76 414.328,250.696 404.524,252.78 C394.696,254.876 388.336,251.024 388.336,251.024 L384.572,195.244" fill="#F9D8B5"/>
    <path d="M228.928,67.132 L228.928,67.132 C76.764,99.476 130.092,240.572 155.852,301.804 C181.6,363.04 258.944,377.564 293.368,370.244 C327.78,362.924 392.532,318.212 391.148,251.796 C389.764,185.368 381.092,34.788 228.928,67.132" fill="#F9D8B5"/>
    <path d="M395.1,133.08 C413.508,176.572 392.6,210.024 392.6,210.024 C392.6,210.024 391.76,205.836 377.548,194.124 C363.336,182.416 344.92,184.092 318.156,186.6 C291.392,189.108 272.992,194.08 250.408,191.564 C227.812,189.048 214.868,190.424 184.344,174.064 C160.92,161.516 145.72,131.424 145.72,131.424 C145.72,131.424 142.992,155.1 145.72,188.82 C148.444,222.532 168.452,256.024 168.452,256.024 C162.076,254.196 130.228,238.924 119.304,226.164 C119.304,226.164 71.428,100.452 192.704,63.656 C313.976,26.852 356.632,72.86 374.196,97.108 C391.76,121.368 395.1,133.08 395.1,133.08" fill="#A15934"/>
    <path d="M453.564,461.804 C437.556,466.172 392.148,478.588 367.452,481.736 C354.36,483.408 350.984,473.264 350.984,473.264 C350.984,473.264 334.984,460.172 320.428,432.532 C305.884,404.892 292.788,375.796 292.788,375.796 C292.788,375.796 326.992,358.508 391.016,338.14 C391.016,338.14 415.336,314.944 471.468,358.024 C527.592,401.108 509.884,448.116 499.164,459.852 C489.384,470.564 451.884,492.484 416.64,474.212" fill="#FFF691"/>
    <path d="M147.968,130.048 C157.42,142.008 153.772,150.82 145.704,157.212 C137.632,163.588 128.22,165.108 118.756,153.148 C109.296,141.18 108.172,126.32 116.236,119.936 C124.296,113.556 138.5,118.088 147.968,130.048" fill="#E77F90"/>
    <path d="M549.076,566.952 C488.672,568.844 460.368,549.968 447.156,536.752 L549.076,566.952" fill="#D4772E"/>
    <path d="M536.236,611.952 C530.804,618.428 531.032,643.092 495.616,628.844 C460.204,614.588 459.368,576.196 459.368,576.196 C459.368,576.196 480.124,610.764 502.072,613.352 C524.008,615.936 536.236,611.952 536.236,611.952" fill="#D4772E"/>
    <path d="M721.5,553.968 C709.884,574.624 654.392,659.828 556.28,643.04 C556.28,643.04 593.712,646.908 651.796,608.188 C709.884,569.468 721.5,553.968 721.5,553.968" fill="#D4772E"/>
    <path d="M409.124,325.516 C409.124,325.516 425.064,315.836 434.944,313.892 L427.196,322.928 L409.124,325.516" fill="#D4772E"/>
    <path d="M218.672,265.844 C220.376,274.86 218.532,278.484 215.516,279.048 C212.516,279.616 209.46,276.924 207.764,267.916 C206.072,258.876 206.352,246.908 209.36,246.36 C212.352,245.796 216.968,256.836 218.672,265.844" fill="#693033"/>
    <path d="M345.164,227.124 C346.868,236.14 345.024,239.764 342.008,240.328 C339.008,240.9 335.952,238.204 334.256,229.196 C332.564,220.164 332.844,208.196 335.852,207.64 C338.844,207.08 343.46,218.116 345.164,227.124" fill="#693033"/>
    <path d="M277.556,328.86 C292.936,326.752 330.556,308.884 337.4,295.228 C337.4,295.228 355.264,323.86 329.236,337.32 C303.204,350.772 277.556,328.86 277.556,328.86" fill="#B92640"/>
    <path d="M290.836,191.288 C293.24,187.14 312.108,173.876 330.352,182.392 C319.156,174.428 303.392,173.452 297.32,177.844 C291.248,182.24 290.592,187.648 290.836,191.288" fill="#693033"/>
    <path d="M201.296,215.484 C197.132,213.056 174.188,210.868 162.548,227.304 C168.344,214.844 181.556,206.18 189.008,207 C196.452,207.82 199.696,212.172 201.296,215.484" fill="#693033"/>
    <path d="M411.928,471.852 L424.812,477.86 C424.812,477.86 463.452,465.828 477.188,454.672 L411.928,471.852" fill="#F8CB83"/>
    <path d="M474.6,281.26 C474.6,281.26 482.344,302.728 477.188,319.9 L490.912,325.908 C490.912,325.908 494.352,316.452 487.484,300.14 C480.608,283.836 474.6,281.26 474.6,281.26" fill="#F8CB83"/>
  </g>
</svg>
