<?xml version="1.0" encoding="UTF-8" standalone="no"?>
<!-- Created with Inkscape (http://www.inkscape.org/) -->

<svg
   xmlns:dc="http://purl.org/dc/elements/1.1/"
   xmlns:cc="http://creativecommons.org/ns#"
   xmlns:rdf="http://www.w3.org/1999/02/22-rdf-syntax-ns#"
   xmlns:svg="http://www.w3.org/2000/svg"
   xmlns="http://www.w3.org/2000/svg"
   xmlns:xlink="http://www.w3.org/1999/xlink"
   xmlns:sodipodi="http://sodipodi.sourceforge.net/DTD/sodipodi-0.dtd"
   xmlns:inkscape="http://www.inkscape.org/namespaces/inkscape"
   width="30mm"
   height="30mm"
   viewBox="0 0 106.29921 106.29921"
   id="svg2"
   version="1.1"
   inkscape:version="0.91 r13725"
   sodipodi:docname="Gummistiefel-coloured.svg">
  <title
     id="title4136">rubber boots - coloured</title>
  <defs
     id="defs4">
    <linearGradient
       inkscape:collect="always"
       id="linearGradient6059">
      <stop
         style="stop-color:#ffcc00;stop-opacity:1;"
         offset="0"
         id="stop6061" />
      <stop
         id="stop6071"
         offset="0.22233897"
         style="stop-color:#ffcc00;stop-opacity:1;" />
      <stop
         id="stop6069"
         offset="0.48086393"
         style="stop-color:#ffcc00;stop-opacity:1;" />
      <stop
         id="stop6067"
         offset="0.77673137"
         style="stop-color:#eebf00;stop-opacity:1" />
      <stop
         style="stop-color:#c9a100;stop-opacity:1"
         offset="1"
         id="stop6063" />
    </linearGradient>
    <linearGradient
       inkscape:collect="always"
       id="linearGradient6047">
      <stop
         style="stop-color:#5c4a00;stop-opacity:1"
         offset="0"
         id="stop6049" />
      <stop
         id="stop6055"
         offset="0.42861789"
         style="stop-color:#b39000;stop-opacity:1" />
      <stop
         style="stop-color:#d4aa00;stop-opacity:1;"
         offset="0.66452533"
         id="stop6057" />
      <stop
         style="stop-color:#d4aa00;stop-opacity:1"
         offset="1"
         id="stop6051" />
    </linearGradient>
    <pattern
       inkscape:collect="always"
       xlink:href="#Polkadots-large"
       id="pattern5959"
       patternTransform="matrix(1.0816762,0,0,1.4420125,5.9519736,2.4200487)" />
    <pattern
       inkscape:collect="always"
       xlink:href="#Strips1_2"
       id="pattern5852"
       patternTransform="matrix(0.18572745,-0.02417209,0.52779383,4.0553304,3.699872,0.16794666)" />
    <pattern
       inkscape:stockid="Stripes 1:2"
       id="Strips1_2"
       patternTransform="translate(0,0) scale(10,10)"
       height="1"
       width="3"
       patternUnits="userSpaceOnUse"
       inkscape:collect="always">
      <rect
         id="rect5008"
         height="2"
         width="1"
         y="-0.5"
         x="0"
         style="fill:black;stroke:none" />
    </pattern>
    <pattern
       inkscape:collect="always"
       xlink:href="#Polkadots-large"
       id="pattern5756"
       patternTransform="matrix(1.0141132,0,0,0.99159215,3.699872,0.16794666)" />
    <pattern
       inkscape:stockid="Polka dots, large"
       id="Polkadots-large"
       patternTransform="translate(0,0) scale(10,10)"
       height="10"
       width="10"
       patternUnits="userSpaceOnUse"
       inkscape:collect="always">
      <circle
         id="circle5446"
         r="0.45"
         cy="0.810"
         cx="2.567"
         style="fill:black;stroke:none" />
      <circle
         id="circle5448"
         r="0.45"
         cy="2.33"
         cx="3.048"
         style="fill:black;stroke:none" />
      <circle
         id="circle5450"
         r="0.45"
         cy="2.415"
         cx="4.418"
         style="fill:black;stroke:none" />
      <circle
         id="circle5452"
         r="0.45"
         cy="3.029"
         cx="1.844"
         style="fill:black;stroke:none" />
      <circle
         id="circle5454"
         r="0.45"
         cy="1.363"
         cx="6.08"
         style="fill:black;stroke:none" />
      <circle
         id="circle5456"
         r="0.45"
         cy="4.413"
         cx="5.819"
         style="fill:black;stroke:none" />
      <circle
         id="circle5458"
         r="0.45"
         cy="4.048"
         cx="4.305"
         style="fill:black;stroke:none" />
      <circle
         id="circle5460"
         r="0.45"
         cy="3.045"
         cx="5.541"
         style="fill:black;stroke:none" />
      <circle
         id="circle5462"
         r="0.45"
         cy="5.527"
         cx="4.785"
         style="fill:black;stroke:none" />
      <circle
         id="circle5464"
         r="0.45"
         cy="5.184"
         cx="2.667"
         style="fill:black;stroke:none" />
      <circle
         id="circle5466"
         r="0.45"
         cy="1.448"
         cx="7.965"
         style="fill:black;stroke:none" />
      <circle
         id="circle5468"
         r="0.45"
         cy="5.049"
         cx="7.047"
         style="fill:black;stroke:none" />
      <circle
         id="circle5470"
         r="0.45"
         cy="0.895"
         cx="4.340"
         style="fill:black;stroke:none" />
      <circle
         id="circle5472"
         r="0.45"
         cy="0.340"
         cx="7.125"
         style="fill:black;stroke:none" />
      <circle
         id="circle5474"
         r="0.45"
         cy="1.049"
         cx="9.553"
         style="fill:black;stroke:none" />
      <circle
         id="circle5476"
         r="0.45"
         cy="2.689"
         cx="7.006"
         style="fill:black;stroke:none" />
      <circle
         id="circle5478"
         r="0.45"
         cy="2.689"
         cx="8.909"
         style="fill:black;stroke:none" />
      <circle
         id="circle5480"
         r="0.45"
         cy="4.407"
         cx="9.315"
         style="fill:black;stroke:none" />
      <circle
         id="circle5482"
         r="0.45"
         cy="3.870"
         cx="7.820"
         style="fill:black;stroke:none" />
      <circle
         id="circle5484"
         r="0.45"
         cy="5.948"
         cx="8.270"
         style="fill:black;stroke:none" />
      <circle
         id="circle5486"
         r="0.45"
         cy="7.428"
         cx="7.973"
         style="fill:black;stroke:none" />
      <circle
         id="circle5488"
         r="0.45"
         cy="8.072"
         cx="9.342"
         style="fill:black;stroke:none" />
      <circle
         id="circle5490"
         r="0.45"
         cy="9.315"
         cx="8.206"
         style="fill:black;stroke:none" />
      <circle
         id="circle5492"
         r="0.45"
         cy="9.475"
         cx="9.682"
         style="fill:black;stroke:none" />
      <circle
         id="circle5494"
         r="0.45"
         cy="6.186"
         cx="9.688"
         style="fill:black;stroke:none" />
      <circle
         id="circle5496"
         r="0.45"
         cy="6.296"
         cx="3.379"
         style="fill:black;stroke:none" />
      <circle
         id="circle5498"
         r="0.45"
         cy="8.204"
         cx="2.871"
         style="fill:black;stroke:none" />
      <circle
         id="circle5500"
         r="0.45"
         cy="8.719"
         cx="4.59"
         style="fill:black;stroke:none" />
      <circle
         id="circle5502"
         r="0.45"
         cy="9.671"
         cx="3.181"
         style="fill:black;stroke:none" />
      <circle
         id="circle5504"
         r="0.45"
         cy="7.315"
         cx="5.734"
         style="fill:black;stroke:none" />
      <circle
         id="circle5506"
         r="0.45"
         cy="6.513"
         cx="6.707"
         style="fill:black;stroke:none" />
      <circle
         id="circle5508"
         r="0.45"
         cy="9.670"
         cx="5.730"
         style="fill:black;stroke:none" />
      <circle
         id="circle5510"
         r="0.45"
         cy="8.373"
         cx="6.535"
         style="fill:black;stroke:none" />
      <circle
         id="circle5512"
         r="0.45"
         cy="7.154"
         cx="4.37"
         style="fill:black;stroke:none" />
      <circle
         id="circle5514"
         r="0.45"
         cy="7.25"
         cx="0.622"
         style="fill:black;stroke:none" />
      <circle
         id="circle5516"
         r="0.45"
         cy="5.679"
         cx="0.831"
         style="fill:black;stroke:none" />
      <circle
         id="circle5518"
         r="0.45"
         cy="8.519"
         cx="1.257"
         style="fill:black;stroke:none" />
      <circle
         id="circle5520"
         r="0.45"
         cy="6.877"
         cx="1.989"
         style="fill:black;stroke:none" />
      <circle
         id="circle5522"
         r="0.45"
         cy="3.181"
         cx="0.374"
         style="fill:black;stroke:none" />
      <circle
         id="circle5524"
         r="0.45"
         cy="1.664"
         cx="1.166"
         style="fill:black;stroke:none" />
      <circle
         id="circle5526"
         r="0.45"
         cy="0.093"
         cx="1.151"
         style="fill:black;stroke:none" />
      <circle
         id="circle5528"
         r="0.45"
         cy="10.093"
         cx="1.151"
         style="fill:black;stroke:none" />
      <circle
         id="circle5530"
         r="0.45"
         cy="4.451"
         cx="1.302"
         style="fill:black;stroke:none" />
      <circle
         id="circle5532"
         r="0.45"
         cy="3.763"
         cx="3.047"
         style="fill:black;stroke:none" />
    </pattern>
    <radialGradient
       inkscape:collect="always"
       xlink:href="#linearGradient6047"
       id="radialGradient6053"
       cx="112.85664"
       cy="29.819902"
       fx="112.85664"
       fy="29.819902"
       r="16.006498"
       gradientTransform="matrix(1.4515874,-0.18497243,0.03986621,0.31285344,-89.879998,23.888507)"
       gradientUnits="userSpaceOnUse" />
    <radialGradient
       inkscape:collect="always"
       xlink:href="#linearGradient6059"
       id="radialGradient6065"
       cx="29.397734"
       cy="52.565052"
       fx="29.397734"
       fy="52.565052"
       r="30.770536"
       gradientTransform="matrix(1.0932424,0.21617009,-0.3366923,1.7027623,14.957131,-40.696772)"
       gradientUnits="userSpaceOnUse" />
  </defs>
  <sodipodi:namedview
     id="base"
     pagecolor="#ffffff"
     bordercolor="#666666"
     borderopacity="1.0"
     inkscape:pageopacity="0.0"
     inkscape:pageshadow="2"
     inkscape:zoom="2"
     inkscape:cx="76.040972"
     inkscape:cy="3.4543487"
     inkscape:document-units="mm"
     inkscape:current-layer="layer2"
     showgrid="false"
     borderlayer="true"
     inkscape:window-width="2560"
     inkscape:window-height="1309"
     inkscape:window-x="0"
     inkscape:window-y="0"
     inkscape:window-maximized="1"
     inkscape:snap-global="false" />
  <metadata
     id="metadata7">
    <rdf:RDF>
      <cc:Work
         rdf:about="">
        <dc:format>image/svg+xml</dc:format>
        <dc:type
           rdf:resource="http://purl.org/dc/dcmitype/StillImage" />
        <dc:title>rubber boots - coloured</dc:title>
        <cc:license
           rdf:resource="http://creativecommons.org/publicdomain/zero/1.0/" />
        <dc:subject>
          <rdf:Bag>
            <rdf:li>rubber</rdf:li>
            <rdf:li>boots</rdf:li>
            <rdf:li>shoe</rdf:li>
            <rdf:li>boot</rdf:li>
            <rdf:li>clothing</rdf:li>
            <rdf:li>Stiefel</rdf:li>
            <rdf:li>Gummistiefel</rdf:li>
            <rdf:li>Schuhe</rdf:li>
            <rdf:li>Kleidung</rdf:li>
            <rdf:li>school</rdf:li>
            <rdf:li>teaching</rdf:li>
            <rdf:li>education</rdf:li>
            <rdf:li>schule</rdf:li>
            <rdf:li>unterricht</rdf:li>
            <rdf:li>lineart</rdf:li>
            <rdf:li></rdf:li>
          </rdf:Bag>
        </dc:subject>
        <dc:coverage>coloured line art rubber boots</dc:coverage>
      </cc:Work>
      <cc:License
         rdf:about="http://creativecommons.org/publicdomain/zero/1.0/">
        <cc:permits
           rdf:resource="http://creativecommons.org/ns#Reproduction" />
        <cc:permits
           rdf:resource="http://creativecommons.org/ns#Distribution" />
        <cc:permits
           rdf:resource="http://creativecommons.org/ns#DerivativeWorks" />
      </cc:License>
    </rdf:RDF>
  </metadata>
  <g
     inkscape:groupmode="layer"
     id="layer2"
     inkscape:label="Ebene 2">
    <path
       style="fill:#f4e3d7;fill-rule:evenodd;stroke:#ff00ff;stroke-width:0.29055119;stroke-linecap:butt;stroke-linejoin:miter;stroke-miterlimit:4;stroke-dasharray:none;stroke-opacity:1"
       d="m 35.961233,92.278914 -0.112605,4.335296 c 0,0 3.049017,2.862798 4.898321,3.77227 3.169891,1.55892 6.756804,2.15799 10.247064,2.70253 1.076943,0.16802 3.265548,0.1689 3.265548,0.1689 l 1.745379,-0.95714 1.914287,0.0563 1.520169,0.78824 5.123532,-0.61933 1.013445,-1.63277 1.069749,-0.39412 1.745379,0.84454 2.927733,-1.01345 1.520168,-1.857985 1.632774,0.90084 1.520169,-0.67563 0.900841,-3.09664 c 2.091764,-1.415917 4.253654,-2.516271 6.643701,-2.589918 l 2.758825,2.026892 3.265547,-0.67563 0.0563,-1.407564 0.900841,0.112605 1.632774,0.619328 2.139497,-0.675631 0.0563,-1.801681 1.970589,0.67563 c 1.350444,-0.01693 1.313592,-0.900925 1.520169,-1.632774 l -0.112605,-6.812608 c 0,0 -4.127075,1.918132 -6.19328,2.87143 -2.981479,1.375583 -5.988978,2.695407 -8.952106,4.110086 -2.363146,1.128231 -3.874638,1.418972 -7.037818,3.490758 -3.805395,2.492417 -7.146954,3.396935 -10.528577,4.222691 -4.033863,0.985026 -7.469513,0.735337 -10.922695,0.337816 -4.319188,-0.497214 -8.817036,-0.955063 -12.724376,-3.152943 z"
       id="path4260"
       inkscape:connector-curvature="0"
       sodipodi:nodetypes="ccssccccccccccccccccccccccccssssssc" />
    <path
       style="fill:#e9c6af;fill-rule:evenodd;stroke:#501616;stroke-width:0.29055119;stroke-linecap:butt;stroke-linejoin:miter;stroke-miterlimit:4;stroke-dasharray:none;stroke-opacity:1"
       d="m 9.5553371,77.077226 c 0,0 -1.1941409,2.102208 -1.2386561,3.265548 -0.050865,1.329272 0.3219326,2.768882 1.126051,3.828573 0.85621,1.128339 3.603363,2.252102 3.603363,2.252102 0,0 1.095063,-0.797556 1.689076,-0.67563 0.779977,0.160096 1.689077,1.689076 1.689077,1.689076 l 3.828573,0.900841 1.801682,-0.788236 3.603363,1.801682 2.589917,0.112605 1.801682,-1.463867 3.378153,1.576472 2.252102,0.22521 2.364707,-2.815127 1.238656,-3.378153 c 0,0 -5.833574,1.015497 -8.783198,1.126051 -2.854606,0.106993 -5.756214,0.106616 -8.557987,-0.450421 -3.202014,-0.636611 -7.67413,-2.465995 -9.008408,-3.490758 -1.484654,-1.140257 -3.3430126,-1.995906 -3.3781529,-3.715968 z"
       id="path4256"
       inkscape:connector-curvature="0"
       sodipodi:nodetypes="csscsccccccccccsssc" />
    <path
       style="color:#000000;font-style:normal;font-variant:normal;font-weight:normal;font-stretch:normal;font-size:medium;line-height:normal;font-family:sans-serif;text-indent:0;text-align:start;text-decoration:none;text-decoration-line:none;text-decoration-style:solid;text-decoration-color:#000000;letter-spacing:normal;word-spacing:normal;text-transform:none;direction:ltr;block-progression:tb;writing-mode:lr-tb;baseline-shift:baseline;text-anchor:start;white-space:normal;clip-rule:nonzero;display:inline;overflow:visible;visibility:visible;opacity:1;isolation:auto;mix-blend-mode:normal;color-interpolation:sRGB;color-interpolation-filters:linearRGB;solid-color:#000000;solid-opacity:1;fill:#784421;fill-opacity:1;fill-rule:evenodd;stroke:none;stroke-width:2.12598419;stroke-linecap:butt;stroke-linejoin:miter;stroke-miterlimit:4;stroke-dasharray:none;stroke-dashoffset:0;stroke-opacity:1;color-rendering:auto;image-rendering:auto;shape-rendering:auto;text-rendering:auto;enable-background:accumulate"
       d="m 8.5709658,77.548806 c -0.7372395,1.412134 -0.897163,2.494965 -0.8535157,3.351563 0.098652,1.936085 0.7924543,3.767778 2.3378869,4.810547 1.039377,0.701312 2.060476,1.031396 3.070312,1.371091 0.769586,0.287489 1.575801,0.01077 2.000263,-0.244946 0.286684,0.327416 0.484436,0.511225 1.448956,1.397291 l 4.015625,0.927735 c 0.511152,-0.725052 0.77221,-0.816462 1.313383,-0.877423 0.664677,0.42612 1.34673,0.780804 2.452242,1.426251 1.653325,0.239251 3.345112,0.360047 5.013672,0.523435 0.213134,-0.776575 0.80825,-0.968464 1.158203,-1.150387 0.904768,0.426788 1.510043,0.863768 2.296875,1.238284 l 2.367188,0.08789 0.07812,-2.125 -2.473181,-0.09846 c -0.542537,-0.2903 -0.624795,-0.642703 -1.582652,-0.955285 -0.516858,-0.168668 -0.900251,-0.233781 -1.530987,0.03125 -0.385222,0.161868 -1.199011,0.773097 -1.49076,1.111122 L 24.430953,87.92522 C 23.231677,87.036241 22.9638,86.702939 21.822498,86.695015 21.366676,86.691815 20.45761,87.09054 20.040384,87.385614 L 16.881194,86.58032 C 16.388688,85.538048 15.85926,85.065215 15.044768,84.977141 14.251586,84.891372 13.797755,85.271064 13.418622,85.342169 12.48397,85.02205 11.468324,84.451574 11.00625,84.091099 9.8202632,83.165884 9.5481725,82.221375 9.442473,80.760551 9.4074176,80.276068 9.2209859,79.623778 9.8344502,78.448727 Z"
       id="path4216"
       inkscape:connector-curvature="0"
       sodipodi:nodetypes="cssccccccccccccssccsccscsscc" />
    <path
       style="fill:url(#radialGradient6065);fill-rule:evenodd;stroke:#ff0000;stroke-width:0.29055119;stroke-linecap:butt;stroke-linejoin:miter;stroke-miterlimit:4;stroke-dasharray:none;stroke-opacity:1;fill-opacity:1"
       d="M 34.666274,3.9965169 69.010829,6.4738291 70.36209,79.667143 c 0,0 -22.478015,3.247458 -33.781529,4.278994 -4.005912,0.365571 -8.056125,1.165476 -12.048746,0.675631 -3.275959,-0.40192 -6.395468,-1.36139 -9.458828,-2.589918 C 12.782024,81.113084 9.0956614,77.649506 9.1049167,77.640251 L 11.807439,70.32092 c 0,0 4.769646,-1.195254 7.206726,-1.238656 3.635675,-0.06475 10.81009,1.463866 10.81009,1.463866 4.48276,0.60704 6.241441,-3.309062 7.882357,-5.292439 2.017386,-2.438416 3.049499,-6.050016 3.490758,-9.346224 C 41.907535,50.602527 40.383013,45.230252 39.733503,39.917544 38.650598,31.059861 36.830977,22.304404 35.67972,13.455345 35.270624,10.310857 34.666274,3.9965169 34.666274,3.9965169 Z"
       id="path4254"
       inkscape:connector-curvature="0"
       sodipodi:nodetypes="cccsssccssssssc" />
    <path
       style="fill:url(#pattern5959);fill-opacity:1;fill-rule:evenodd;stroke:#ff0000;stroke-width:0.29055119;stroke-linecap:butt;stroke-linejoin:miter;stroke-miterlimit:4;stroke-dasharray:none;stroke-opacity:1;opacity:0.146"
       d="m 34.548,4.0377155 34.34456,2.477313 1.35126,73.1933135 c 0,0 -22.47802,3.247458 -33.78153,4.278994 -4.00591,0.365571 -8.05613,1.165476 -12.04875,0.675631 -3.27596,-0.40192 -6.39547,-1.36139 -9.45883,-2.589918 C 12.66375,81.154283 8.9773893,77.690705 8.9866443,77.68145 L 11.68917,70.362119 c 0,0 4.76964,-1.195254 7.20672,-1.238656 3.63568,-0.06475 10.81009,1.463866 10.81009,1.463866 4.48276,0.60704 6.24144,-3.309062 7.88236,-5.292439 2.01739,-2.438416 3.0495,-6.050016 3.49076,-9.346224 C 41.78926,50.643726 40.26474,45.271451 39.61523,39.958743 38.53233,31.10106 36.7127,22.345603 35.56145,13.496544 35.15235,10.352056 34.548,4.0377155 34.548,4.0377155 Z"
       id="path4254-2"
       inkscape:connector-curvature="0"
       sodipodi:nodetypes="cccsssccssssssc" />
    <path
       style="color:#000000;font-style:normal;font-variant:normal;font-weight:normal;font-stretch:normal;font-size:medium;line-height:normal;font-family:sans-serif;text-indent:0;text-align:start;text-decoration:none;text-decoration-line:none;text-decoration-style:solid;text-decoration-color:#000000;letter-spacing:normal;word-spacing:normal;text-transform:none;direction:ltr;block-progression:tb;writing-mode:lr-tb;baseline-shift:baseline;text-anchor:start;white-space:normal;clip-rule:nonzero;display:inline;overflow:visible;visibility:visible;opacity:1;isolation:auto;mix-blend-mode:normal;color-interpolation:sRGB;color-interpolation-filters:linearRGB;solid-color:#000000;solid-opacity:1;fill:#784421;fill-opacity:1;fill-rule:evenodd;stroke:none;stroke-width:1px;stroke-linecap:butt;stroke-linejoin:miter;stroke-miterlimit:4;stroke-dasharray:none;stroke-dashoffset:0;stroke-opacity:1;color-rendering:auto;image-rendering:auto;shape-rendering:auto;text-rendering:auto;enable-background:accumulate"
       d="m 96.918622,83.021465 c 0,0 0.29997,3.636298 0.238281,4.86914 -0.02577,0.515009 -0.251646,1.372729 -0.503906,2.035156 -0.12613,0.331214 -0.24157,0.663231 -0.37972,0.701876 -0.440253,0.123152 -0.955172,-0.115948 -1.37422,-0.1511 -0.335312,-0.02813 -0.772122,0.154464 -0.994141,0.52539 -0.153767,0.256899 -0.121211,0.633322 -0.117187,0.994141 l -2.179688,0.738281 c -0.525463,-0.151017 -0.974536,-0.260532 -1.314453,-0.277344 -0.386826,-0.01913 -0.738501,0.04282 -0.990234,0.298829 -0.251734,0.256007 -0.271984,0.597716 -0.244141,0.845703 -1.410033,0.432994 -1.920954,0.547949 -2.699185,0.710941 L 86.14777,91.471182 c -2.156742,0.813681 -4.497391,1.234382 -6.473289,2.075671 -1.200714,0.52069 -2.30872,1.174719 -3.28125,1.896482 l -0.724609,2.515625 -1.5,0.521484 C 73.706129,98.158969 73.177197,97.99158 72.680341,98.175756 72.153658,98.37099 71.74845,98.883326 71.34831,99.48435 l -3.388672,0.99024 c -0.651918,-0.22513 -1.302313,-0.39167 -1.927735,-0.24414 -0.632761,0.14925 -1.17166,0.61791 -1.582031,1.29688 -0.100393,0.0337 -0.904394,0.30743 -2.005859,0.52929 -1.167866,0.23524 -2.555659,0.32685 -3.210938,0.0488 -1.207356,-0.51225 -2.603963,-0.75502 -4.09375,-0.11914 -1.36477,0.58252 -3.424803,0.101 -5.164062,-0.23047 -3.883043,-0.74004 -7.625865,-1.74981 -10.996094,-3.726568 -1.047499,-0.614394 -1.735676,-1.3919 -2.576172,-2.24414 l -0.07422,-3.740235 -1,0.01953 0.02231,4.811569 c 0.934705,1.021977 1.812105,2.007741 2.938782,2.681266 3.483616,2.082498 7.436548,3.325498 11.378453,4.076768 1.448752,0.27611 3.527094,0.46292 5.258877,0.0817 0.281474,-0.062 0.699259,-0.78413 0.95659,-0.89396 1.208745,-0.51593 1.87432,0.11524 3.055771,0.77986 1.042644,0.58653 2.601635,0.15363 3.843008,-0.0868 0.831036,-0.16095 1.678482,-0.46667 2.483172,-0.72181 0.207768,-0.61659 0.60349,-1.31926 0.994677,-1.5899 0.724042,-0.0711 1.391044,0.57731 1.970919,0.75476 l 3.795001,-1.17653 c 0.127,-0.23663 0.177116,-0.886555 0.321967,-1.080369 0.255887,-0.342381 0.495553,-0.562061 0.677738,-0.587666 0.565795,-0.07952 0.84961,0.611723 1.251339,0.900445 l 2.309128,-0.803561 0.679767,-3.184774 c 1.41095,-1.004846 2.053997,-1.178454 3.555643,-1.719227 0.558653,-0.165708 2.208238,-0.791098 2.342795,-0.765148 l 3.093296,2.486975 4.164437,-1.046341 c -0.09117,-0.34936 -0.313269,-1.210534 -0.406175,-1.524615 0.560435,0.0069 1.675786,0.380147 2.114462,1.114593 l 2.808458,-0.899346 c -0.02551,-0.53849 -0.0747,-1.466583 -0.05738,-1.858069 0.174661,-0.119496 0.565965,0.436688 1.011934,0.639397 0.404659,0.183932 0.696292,0.435287 1.316247,0.213798 0.593334,-0.211979 1.127817,-1.34463 1.212652,-2.027848 0.09686,-0.780075 0.114085,-1.995592 0.150334,-2.72001 0.07363,-1.471505 -0.140702,-5.023822 -0.140706,-5.023831 z"
       id="path4187"
       inkscape:connector-curvature="0"
       sodipodi:nodetypes="csssssccsscccccccsccscscsssccccssssssccccsscccccccccccsssscc" />
    <path
       style="color:#000000;font-style:normal;font-variant:normal;font-weight:normal;font-stretch:normal;font-size:medium;line-height:normal;font-family:sans-serif;text-indent:0;text-align:start;text-decoration:none;text-decoration-line:none;text-decoration-style:solid;text-decoration-color:#000000;letter-spacing:normal;word-spacing:normal;text-transform:none;direction:ltr;block-progression:tb;writing-mode:lr-tb;baseline-shift:baseline;text-anchor:start;white-space:normal;clip-rule:nonzero;display:inline;overflow:visible;visibility:visible;opacity:1;isolation:auto;mix-blend-mode:normal;color-interpolation:sRGB;color-interpolation-filters:linearRGB;solid-color:#000000;solid-opacity:1;fill:#806600;fill-opacity:1;fill-rule:evenodd;stroke:none;stroke-width:2.48031497;stroke-linecap:butt;stroke-linejoin:miter;stroke-miterlimit:4;stroke-dasharray:none;stroke-dashoffset:0;stroke-opacity:1;color-rendering:auto;image-rendering:auto;shape-rendering:auto;text-rendering:auto;enable-background:accumulate"
       d="m 35.006513,2.8320092 c -3.861615,0.3072732 -0.932072,4.8134957 -0.667969,6.8789063 1.784899,13.9587685 5.011986,27.0972715 5.913987,41.1407755 0.295768,4.604885 -0.380416,9.626779 -2.87838,13.594952 -2.000192,3.17743 -4.769834,5.763047 -8.571141,4.870342 -4.458574,-1.047058 -11.013349,-1.890999 -15.482044,-0.455679 -3.9579909,1.271285 -4.41695,5.797712 -4.9785159,9.259766 3.2910489,3.147042 7.3332689,5.175325 11.7563139,6.351108 6.915669,1.8384 14.022199,0.749742 20.919467,-0.231967 10.27419,-1.462356 20.580979,-2.694604 30.908203,-3.734375 L 70.3737,5.1601342 C 65.23911,3.1275147 60.185443,2.5966702 54.760691,2.4561471 48.389007,2.2910946 41.351072,2.3271652 35.006513,2.8320092 Z m 1.218113,3.3348465 c 3.1959,0.4073253 8.463491,0.8136221 11.662506,0.8805048 6.229535,0.1302426 9.271859,-0.055563 15.492292,0.286101 2.409314,0.1323342 4.571163,0.6737955 4.601698,2.1684696 l 1.419922,69.5037239 c -12.73444,1.256573 -25.574941,3.623408 -38.287827,5.029454 -5.649288,0.624811 -12.764598,-0.935786 -18.118216,-3.643885 -3.1043023,-1.570295 -2.695992,-4.73169 -1.272282,-7.167091 1.34584,2.587661 5.162762,3.544098 7.859965,4.271939 11.911678,3.214372 25.468184,2.425233 35.876954,-4.761719 4.218273,-2.912595 8.131161,-6.957544 11.371229,-10.882494 L 65.73907,60.947562 c -6.21528,7.920553 -15.168371,14.842182 -25.33412,16.390307 -8.227087,1.252889 -16.685369,-0.03787 -24.58789,-2.642578 -1.364917,-0.449882 -2.804318,-1.219765 -3.052871,-2.531115 -0.07931,-0.41842 0.99892,-0.870555 1.43373,-1.007948 4.665371,-1.47418 9.560375,0.05013 14.244141,0.634766 2.345167,0.292728 4.494179,-0.441102 6.322265,-1.705078 0.702702,0.92993 1.60831,2.147338 1.853062,2.995185 0.533974,1.849743 1.184285,0.838491 0.804841,-0.281905 -0.407625,-1.203606 -1.17663,-2.716951 -1.753606,-3.398827 0.639572,-0.537319 1.115478,-0.860852 1.65302,-1.511456 0.927088,0.79521 2.661349,3.073219 3.157073,4.411846 0.860669,2.324105 0.902907,0.154686 0.746591,-0.603837 -0.367546,-1.783523 -2.760222,-4.714033 -3.072309,-5.023116 0.430926,-0.610933 0.631641,-0.747926 0.967811,-1.399527 1.032314,0.710476 3.287202,2.752562 4.218696,4.424168 1.522784,2.7327 1.624918,1.336238 0.849971,-0.4549 -0.537409,-1.242115 -3.551365,-4.610563 -4.528665,-5.157631 3.824309,-6.556391 2.824767,-14.356305 1.820312,-21.611328 1.417891,0.334292 3.260528,0.656007 4.357422,0.984375 5.05103,1.512085 9.687355,3.92006 14.216444,6.507751 1.430109,0.817091 3.645764,2.527964 5.064169,3.358345 0.724382,-2.679891 -0.774158,-2.497003 -2.438819,-3.663655 C 57.034933,45.704909 47.135983,41.390202 41.246747,40.769509 40.823673,38.276931 40.321482,34.743733 40.294713,34.56153 39.33982,28.062095 39.167028,27.227231 38.233075,20.724588 c 0.921294,0.214466 2.016259,0.369536 2.837891,0.464843 6.926778,0.803484 14.082963,0.165279 20.888672,-0.21875 3.095603,-0.174677 -2.334781,-1.753337 -4.324219,-1.673828 -6.54817,0.261701 -13.333553,0.70855 -19.734375,-0.966797 C 37.338263,14.25824 36.914588,13.782939 36.111845,9.7486116 36.017245,9.2731912 34.765331,5.980865 36.224626,6.1668557 Z"
       id="path4214"
       inkscape:connector-curvature="0"
       sodipodi:nodetypes="sssssscssccsssssscsscssccssssscssccssccssccsscscscssscss" />
    <path
       style="fill:#ffd42a;fill-rule:evenodd;stroke:#338000;stroke-width:0.29055119;stroke-linecap:butt;stroke-linejoin:miter;stroke-miterlimit:4;stroke-dasharray:none;stroke-opacity:1"
       d="m 60.340236,11.541059 1.351262,2.927732 c 0,0 0.33756,17.078634 1.238656,25.561358 0.68312,6.430746 2.693561,12.692275 3.152942,19.142866 0.253357,3.557608 0.52226,7.210071 -0.22521,10.697485 -0.281985,1.315634 -1.576471,3.715968 -1.576471,3.715968 l -2.477312,3.040338 -3.828574,3.040337 -4.053783,2.589917 -14.526058,2.589918 -1.914287,1.801681 c 0,0 -1.883354,1.746463 -2.139496,2.927733 -0.235555,1.086324 0.644822,2.519939 1.351261,3.378153 2.095553,2.545775 5.302585,2.718399 8.445382,3.715968 2.821093,0.895456 5.840851,1.424439 8.783198,1.745379 2.61196,0.284903 5.490562,0.17777 8.107567,-0.0563 2.317316,-0.207267 4.94485,-0.723357 7.150424,-1.463866 2.753032,-0.924316 4.54366,-2.210785 7.150423,-3.490759 2.984022,-1.465216 9.008408,-4.278994 9.008408,-4.278994 l 10.922695,-4.729416 c 0.50105,-0.561276 1.126693,-0.748774 1.351261,-2.139497 L 96.261263,76.5142 c 0.468196,-1.806477 -0.251574,-2.934116 -0.788236,-4.166388 l -1.294958,-3.603364 c 0,0 0.825519,-10.943632 1.069748,-16.327739 0.425219,-9.374119 0,-28.151274 0,-28.151274 0.726932,-2.168416 0.142337,-3.171031 -0.450421,-4.166389 L 93.896556,7.9376954 c 0,0 0.300363,-1.780246 -0.675631,-2.4773122 C 90.318547,3.3874704 85.630226,3.9627747 82.07302,4.2217271 77.100232,4.583729 72.007869,5.4581554 67.209147,6.8116444 63.510558,7.8548387 59.362206,11.541059 60.340236,11.541059 Z"
       id="path4258"
       inkscape:connector-curvature="0"
       sodipodi:nodetypes="ccsssccccccsssssssccccccscccsssc" />
    <path
       style="fill:url(#radialGradient6053);fill-opacity:1;fill-rule:evenodd;stroke:none;stroke-width:0.29055119;stroke-linecap:butt;stroke-linejoin:miter;stroke-miterlimit:4;stroke-dasharray:none;stroke-opacity:1"
       d="m 61.478851,11.932682 c -1.075247,-1.781108 4.083761,-4.0571016 9.096791,-5.1786156 5.0268,-1.124594 11.684099,-2.1184423 16.833859,-2.0026753 1.7055,0.03834 6.60138,0.9153718 6.6437,2.6613488 0.0261,1.075436 -3.099567,2.4159284 -4.986097,3.0560751 -2.53433,0.859958 -4.36007,1.490718 -7.88236,2.026893 -5.41821,0.824778 -9.39043,1.181312 -14.86387,0.90084 -2.08242,-0.106707 -4.012819,-0.09032 -4.842023,-1.463866 z"
       id="path5758-4"
       inkscape:connector-curvature="0"
       sodipodi:nodetypes="ssssssss" />
    <path
       style="fill:url(#pattern5852);fill-opacity:1;fill-rule:evenodd;stroke:none;stroke-width:0.29055119;stroke-linecap:butt;stroke-linejoin:miter;stroke-miterlimit:4;stroke-dasharray:none;stroke-opacity:1;opacity:0.302"
       d="M 61.015867,12.554505 C 59.94062,10.773397 65.011242,9.7348406 70.024275,8.6133259 75.051073,7.4887318 81.089651,6.5832717 86.239409,6.6990393 c 1.7055,0.03834 6.601385,-0.056899 6.643701,1.6890765 0.02606,1.0754366 -2.392457,2.0623752 -4.278994,2.7025222 -2.534326,0.859958 -4.360069,1.490718 -7.882357,2.026893 -5.418213,0.824778 -9.390425,1.181312 -14.863873,0.90084 -2.082413,-0.106707 -4.012815,-0.09032 -4.842019,-1.463866 z"
       id="path5758"
       inkscape:connector-curvature="0"
       sodipodi:nodetypes="ssssssss" />
    <path
       style="fill:url(#pattern5756);fill-opacity:1;fill-rule:evenodd;stroke:#00ffff;stroke-width:0.29055119;stroke-linecap:butt;stroke-linejoin:miter;stroke-miterlimit:4;stroke-dasharray:none;stroke-opacity:1;opacity:0.153"
       d="m 60.302352,11.566669 1.35127,2.927733 c 0,0 0.33756,17.078633 1.23865,25.561357 0.68312,6.430746 2.69356,12.692275 3.15294,19.142866 0.25336,3.557608 0.52226,7.210071 -0.22521,10.697485 -0.28198,1.315634 -1.57647,3.715968 -1.57647,3.715968 l -2.47731,3.040338 -3.82857,3.040337 -4.05379,2.589917 -14.526054,2.589918 -1.914287,1.801681 c 0,0 -1.883354,1.746463 -2.139496,2.927733 -0.235555,1.086324 0.644822,2.519939 1.351261,3.378153 2.095553,2.545775 5.302586,2.718399 8.445386,3.715968 2.82109,0.895456 5.84085,1.424439 8.78319,1.745379 2.61196,0.284903 5.49057,0.17777 8.10757,-0.0563 2.31732,-0.207267 4.94485,-0.723357 7.15043,-1.463866 2.75303,-0.924316 4.54366,-2.210785 7.15042,-3.490759 2.98402,-1.465216 9.00841,-4.278994 9.00841,-4.278994 l 10.92269,-4.729416 c 0.50105,-0.561276 1.12669,-0.748774 1.35126,-2.139497 l -1.35126,-5.74286 c 0.4682,-1.806477 -0.25157,-2.934116 -0.78823,-4.166388 l -1.29496,-3.603364 c 0,0 0.82552,-10.943632 1.06975,-16.327739 0.42521,-9.374119 0,-28.151274 0,-28.151274 0.72693,-2.168416 0.14233,-3.171031 -0.45043,-4.166389 L 93.858672,7.9633059 c -3.478671,2.8889211 -5.580821,4.0039961 -8.557982,4.7294141 -4.24671,1.034758 -10.965991,1.686849 -15.652106,1.801682 -3.841739,0.09414 -6.157873,-0.563026 -9.346232,-2.927733 z"
       id="path4258-9"
       inkscape:connector-curvature="0"
       sodipodi:nodetypes="ccsssccccccsssssssccccccscccssc" />
    <path
       style="color:#000000;font-style:normal;font-variant:normal;font-weight:normal;font-stretch:normal;font-size:medium;line-height:normal;font-family:sans-serif;text-indent:0;text-align:start;text-decoration:none;text-decoration-line:none;text-decoration-style:solid;text-decoration-color:#000000;letter-spacing:normal;word-spacing:normal;text-transform:none;direction:ltr;block-progression:tb;writing-mode:lr-tb;baseline-shift:baseline;text-anchor:start;white-space:normal;clip-rule:nonzero;display:inline;overflow:visible;visibility:visible;opacity:1;isolation:auto;mix-blend-mode:normal;color-interpolation:sRGB;color-interpolation-filters:linearRGB;solid-color:#000000;solid-opacity:1;fill:#aa8800;fill-opacity:1;fill-rule:evenodd;stroke:none;stroke-width:2.12598419;stroke-linecap:butt;stroke-linejoin:miter;stroke-miterlimit:4;stroke-dasharray:none;stroke-dashoffset:0;stroke-opacity:1;color-rendering:auto;image-rendering:auto;shape-rendering:auto;text-rendering:auto;enable-background:accumulate"
       d="m 83.738934,3.2402123 c -1.956535,0.1021585 -3.897894,0.3186504 -5.810546,0.5742188 -4.290117,0.573245 -8.693412,1.2904893 -12.824219,2.9277344 -1.971793,0.7815199 -4.756964,1.5742717 -5.355338,3.2669015 -0.523817,1.481732 0.268761,2.871412 0.707844,4.102785 0.0029,0.581554 0.28592,7.451206 0.465857,11.032657 0.06226,1.239146 0.06341,2.523589 0.160156,3.845704 0.485386,6.632752 1.27131,13.22719 2.076172,19.798828 0.715448,5.841575 2.589007,11.401846 2.38086,16.871094 -0.06703,1.761118 -0.154206,3.481395 -0.908203,4.503906 -1.004803,1.362638 -0.989695,2.596992 -1.203125,3.011718 -0.156436,0.303979 -0.489893,0.64833 -0.931641,1.097657 -0.441748,0.449327 -0.984806,1.017773 -1.332031,1.84375 -0.108484,0.258059 -0.548053,0.623489 -1.22461,1.019531 -0.676557,0.396042 -1.53634,0.774771 -2.160156,1.634766 -1.492666,2.057793 -4.980963,2.490122 -8.195312,3.423828 -1.378337,0.40038 -3.372228,0.710363 -5.142578,0.93164 -1.770353,0.221278 -3.246046,0.34424 -3.984376,0.476563 -0.508577,0.09115 -1.144762,0.19114 -1.785156,0.591797 -0.497255,0.311103 -0.874668,0.93392 -1.240234,1.582031 -0.476262,0.156578 -0.948254,0.39521 -1.265625,0.740234 -1.618337,1.759346 -1.665058,3.330189 -1.524377,4.942496 0.09736,1.115758 0.757024,1.709151 1.540006,2.223517 0.684824,0.449882 1.653135,0.933344 2.748047,1.447266 2.189822,1.027843 4.878155,2.08721 6.996093,2.472656 3.409229,0.62045 7.218317,1.453236 10.865235,1.496094 4.191981,0.04926 8.162763,-0.324824 12.238281,-1.523438 4.623384,-1.359743 8.223282,-4.323751 12.276005,-6.140466 5.091659,-2.282441 15.663448,-6.609534 15.663448,-6.609534 l 0.04687,-0.01953 0.04297,-0.02539 c 0.454147,-0.253686 0.985222,-0.688982 1.255859,-1.355469 0.270638,-0.666484 0.304144,-1.446572 0.08674,-2.359374 -0.364014,-1.528376 -0.765346,-3.054682 -1.133667,-4.582072 0.04438,-0.305512 0.271416,-1.50076 -0.06641,-2.853515 -0.182054,-0.728998 -0.717319,-1.329847 -1.121094,-1.875 -0.219273,-0.972891 -0.532383,-1.997375 -1.162109,-2.910157 0.03496,-0.360248 0.330717,-3.399223 0.453125,-5.142578 0.49908,-7.107925 0.973258,-14.236538 1.117188,-21.390625 -0.09442,-5.370182 0.215113,-13.276406 -0.320312,-17.582031 0.607625,-1.281879 0.487142,-3.175312 -0.164062,-4.537109 C 95.582199,18.153048 95.385417,12.328158 95.005098,9.0158804 95.285447,8.5680465 95.265653,8.4611242 95.371747,7.9687279 95.482838,7.4531416 95.2589,6.6216138 95.027997,5.6972436 94.851091,4.9890409 94.531833,4.6351177 93.981122,4.3613061 92.640676,3.6948411 91.100147,3.4868597 89.633466,3.3320092 87.616984,3.1191112 85.620656,3.14196 83.738934,3.2402123 Z m 2.240389,1.7829405 c 1.885883,0.00995 3.850174,0.2309486 5.617789,0.5667442 0.751167,0.1427002 1.767642,0.6400274 1.596905,1.1620341 -0.207346,0.6339319 -1.480173,1.5571232 -2.358906,1.9673979 -1.372997,0.6410437 -2.937061,1.341787 -3.988751,1.70643 -4.186489,1.451549 -8.804225,2.029641 -13.292968,2.298829 -2.118566,0.127048 -4.704816,0.371492 -6.941407,0.136718 -1.855894,-0.194812 -4.526767,-0.234819 -4.740238,-1.861328 -0.09647,-0.735025 2.702601,-2.1884379 3.943697,-2.6695083 3.877458,-1.5029698 7.818344,-2.1688805 12.056379,-2.7202337 2.983924,-0.388198 5.333994,-0.6017144 8.1075,-0.5870832 z m 7.448886,4.8981099 0.500183,10.8209033 c 0.542959,0.376167 0.501809,0.769664 0.503906,1.25 -1.217601,1.140122 -2.415009,1.837924 -3.824219,2.505859 -0.84058,0.398417 -2.051696,0.675269 -2.912109,0.927734 -1.55147,0.455238 -3.389748,0.936179 -4.66211,1.177735 -4.524481,0.858965 -8.200257,1.54747 -12.739088,1.476693 -2.577378,-0.04019 -4.767581,-0.09935 -7.169115,-0.902474 -0.02339,-0.700675 -0.381395,-3.692437 -0.417895,-4.418925 -0.175584,-3.494803 -0.243963,-7.659991 -0.275466,-8.161153 1.212335,0.44921 2.594902,0.640599 4.009766,0.738281 2.489119,0.171848 5.153433,-0.0104 7.259765,-0.136719 4.596851,-0.275671 9.45375,-0.799899 13.957031,-2.429688 1.939374,-0.701882 4.247754,-1.818388 5.769351,-2.8482463 z m 0.724788,14.5591843 c 0.0088,0.3191 0.328789,11.931221 0.210937,17.789062 -0.101622,5.051177 -0.390195,10.106213 -0.716796,15.164063 -0.388097,-0.607645 -0.822288,-1.193478 -1.31836,-1.615234 -3.158274,-2.685141 -7.287483,-4.082549 -11.25,-4.830079 -3.422694,-0.64569 -8.401032,-0.0452 -12.107422,-1.113281 -1.389637,-0.400457 -2.58157,-1.086931 -3.748046,-1.726562 -0.773736,-6.325629 -1.517329,-12.645365 -1.990235,-18.972657 0.725832,0.206992 1.526036,0.307324 2.341797,0.384766 1.698909,0.161282 3.701276,0.240259 4.911903,0.262996 4.703622,0.08834 8.320019,-0.612675 12.877159,-1.47784 1.389516,-0.263797 3.241907,-0.76583 4.828126,-1.21875 1.117707,-0.319144 2.277557,-0.621115 3.25,-1.066406 0.89792,-0.411167 1.786052,-0.948362 2.710937,-1.580078 z M 65.46745,49.892556 c 0.964317,0.454472 2.122712,1.073475 3.132813,1.34961 4.133363,1.129955 9.208866,0.571594 12.214843,1.138672 3.82045,0.720728 7.792938,1.989005 10.595704,4.517578 0.99598,0.898544 1.503757,2.030782 2.068359,3.125 -0.06898,1.017048 -0.126021,2.033392 -0.197266,3.050781 -0.18772,0.34872 -2.270601,4.854192 -3.698618,6.774038 -2.923215,3.930011 -6.243747,7.796117 -9.900391,11.042762 -3.398118,3.017108 -6.747883,5.935052 -10.744816,7.676458 -3.117378,1.358195 -6.929519,2.472556 -10.26555,2.601693 -3.810814,0.147516 -8.898356,-0.580216 -11.43919,-1.108098 -1.387511,-0.288268 -3.682986,-0.933873 -5.482891,-1.623384 -0.808521,-0.30973 -2.337244,-0.91401 -2.568153,-1.683777 -0.247347,-0.824565 1.013716,-0.91756 1.65039,-1.056641 0.409278,-0.08941 2.060879,-0.234434 3.873047,-0.460938 1.812169,-0.226504 3.859032,-0.52932 5.472657,-0.998047 2.784613,-0.808875 6.504157,-1.413193 8.80604,-4.169038 0.96081,0.444769 2.143252,1.278343 3.035756,1.868257 1.157644,0.765163 2.406208,1.86968 3.392579,3.017578 0.810392,0.943102 1.523217,0.313194 0.579684,-0.637939 -1.125134,-1.134197 -1.940115,-2.345978 -3.362681,-3.318491 -0.822453,-0.562256 -1.471466,-1.226411 -2.259972,-1.627554 -0.07755,-1.322791 1.232561,-1.931979 1.945388,-1.91547 0.774078,0.419069 2.200184,1.279316 2.831956,1.761173 1.238744,0.944801 2.333635,1.975482 3.623046,3.519531 0.303028,0.362871 1.151214,0.414574 0.56635,-0.508564 -0.94572,-1.492706 -1.824973,-2.990007 -3.330021,-4.13792 -0.772406,-0.58912 -2.046263,-1.286995 -2.836539,-1.710261 -0.102824,-0.787363 0.613231,-1.404772 1.551589,-1.807111 1.130687,0.424755 2.431942,1.174013 3.450965,1.802528 1.169611,0.721395 2.208158,1.58165 3.433594,3.003907 0.712452,0.826882 2.031353,1.245126 0.607835,-0.662185 -0.967932,-1.29689 -1.780282,-2.574748 -3.266038,-3.527269 -1.126519,-0.722214 -2.221149,-1.200639 -3.361328,-1.693359 0.282169,-0.814092 0.286589,-1.431274 0.757812,-2.070313 1.309931,-1.776424 1.25508,-3.971566 1.320313,-5.685546 0.209482,-5.504336 -1.404892,-10.73549 -2.197266,-15.847661 z m 28.154954,15.969728 c 0.122029,0.584861 -0.104637,2.413673 -0.89323,3.555663 0.971476,0.938569 1.509899,2.194637 1.396487,3.285156 0.375603,0.439208 1.152805,0.993688 1.315523,1.547006 0.291708,0.991945 0.184633,1.677676 -0.241304,2.726432 -2.101333,1.895927 -4.47165,4.084066 -6.660156,5.597656 -3.754457,2.596613 -7.356803,5.139407 -11.392578,7.095703 -5.586497,2.70799 -11.410042,5.266034 -17.451172,5.958985 -5.282149,0.605889 -8.100267,0.473195 -13.517361,-0.38345 -1.742403,-0.275539 -4.885248,-1.38397 -6.343975,-2.038426 -1.016822,-0.456196 -2.024856,-1.018609 -2.91211,-1.595703 -0.11732,-1.357963 -0.09929,-2.430524 0.816406,-3.603515 1.003479,0.512485 2.172685,1.074435 3.175781,1.462887 1.878752,0.727553 4.107708,1.435937 5.675781,1.761719 2.653152,0.551217 8.024607,1.415568 12.150391,1.255859 3.629867,-0.140511 7.294847,-1.181201 10.568359,-2.607421 4.339454,-1.890637 7.922542,-5.067625 11.324219,-8.087891 3.754038,-3.333121 7.153148,-7.089671 10.144531,-11.111328 0.665478,-0.894678 2.134516,-3.61086 2.844408,-4.819332 z m 1.954421,12.67871 0.724609,3.005859 c 0.188868,0.783474 0.209042,1.708909 -0.297681,1.990422 -0.104067,0.05782 -9.376008,4.43281 -14.459036,6.711382 -4.31073,1.932372 -9.187392,4.740505 -13.228933,6.338859 -1.283301,0.507522 -4.857593,1.205275 -7.91476,1.58403 -3.061027,0.379234 -7.791693,-0.42473 -9.03208,-1.245459 3.01379,0.474675 10.290256,-0.04591 14.782843,-1.297452 4.741886,-1.320991 8.806916,-3.714803 11.501887,-5.021159 4.17117,-2.021927 7.944079,-4.276048 11.69073,-6.867263 2.118828,-1.4654 4.274798,-3.427055 6.232421,-5.199219 z"
       id="path4169"
       inkscape:connector-curvature="0"
       sodipodi:nodetypes="sssscsssssssssssssscsssssssscccsscsccsccccsssssssssssssssscccsssscscsssccscsssccsssssccsssccsssssssssscssssccssssccsssscssccccscsssssccssssssccssssscsssc" />
  </g>
</svg>
