<?xml version="1.0" encoding="UTF-8" standalone="no"?>
<!-- Created with Inkscape (http://www.inkscape.org/) -->

<svg
   xmlns:dc="http://purl.org/dc/elements/1.1/"
   xmlns:cc="http://creativecommons.org/ns#"
   xmlns:rdf="http://www.w3.org/1999/02/22-rdf-syntax-ns#"
   xmlns:svg="http://www.w3.org/2000/svg"
   xmlns="http://www.w3.org/2000/svg"
   xmlns:sodipodi="http://sodipodi.sourceforge.net/DTD/sodipodi-0.dtd"
   xmlns:inkscape="http://www.inkscape.org/namespaces/inkscape"
   id="svg2"
   version="1.1"
   inkscape:version="0.48.4 r9939"
   width="200"
   height="200"
   sodipodi:docname="ie1_pb_jacket.jpg">
  <metadata
     id="metadata8">
    <rdf:RDF>
      <cc:Work
         rdf:about="">
        <dc:format>image/svg+xml</dc:format>
        <dc:type
           rdf:resource="http://purl.org/dc/dcmitype/StillImage" />
        <dc:title></dc:title>
      </cc:Work>
    </rdf:RDF>
  </metadata>
  <defs
     id="defs6" />
  <sodipodi:namedview
     pagecolor="#ffffff"
     bordercolor="#666666"
     borderopacity="1"
     objecttolerance="10"
     gridtolerance="10"
     guidetolerance="10"
     inkscape:pageopacity="0"
     inkscape:pageshadow="2"
     inkscape:window-width="1366"
     inkscape:window-height="706"
     id="namedview4"
     showgrid="false"
     inkscape:zoom="2.36"
     inkscape:cx="155.39472"
     inkscape:cy="116.09866"
     inkscape:window-x="-8"
     inkscape:window-y="-8"
     inkscape:window-maximized="1"
     inkscape:current-layer="svg2" />
  <g
     id="g3860">
    <rect
       y="17.79661"
       x="86.334747"
       height="14.512712"
       width="26.271187"
       id="rect3797"
       style="fill:#786721;fill-opacity:1;stroke:#000000;stroke-width:0.50000000000000000;stroke-miterlimit:4;stroke-opacity:1;stroke-dasharray:none" />
    <rect
       y="168.36836"
       x="87.484276"
       height="14.512712"
       width="26.271187"
       id="rect3797-0"
       style="fill:#786721;fill-opacity:1;stroke:#000000;stroke-width:0.5;stroke-miterlimit:4;stroke-opacity:1;stroke-dasharray:none" />
    <rect
       y="32.415253"
       x="91.525421"
       height="136.75847"
       width="16.631355"
       id="rect3799"
       style="fill:#c8ab37;fill-opacity:1;stroke:#000000;stroke-width:0.50000000000000000;stroke-miterlimit:4;stroke-opacity:1;stroke-dasharray:none" />
    <path
       sodipodi:nodetypes="aacca"
       inkscape:connector-curvature="0"
       id="rect3801"
       d="m 10.786375,164.04543 c 3.148087,-4.59034 12.091319,-6.12126 16.479184,-2.6966 3.792248,2.95979 1.198486,14.38184 1.198486,14.38184 l -14.981077,1.19848 c 0,0 -5.1781509,-9.26527 -2.696593,-12.88372 z"
       style="fill:#504416;fill-opacity:1;stroke:#000000;stroke-width:0.5;stroke-miterlimit:4;stroke-opacity:1" />
    <path
       sodipodi:nodetypes="ccaaaaccaaaaaaaccccaac"
       inkscape:connector-curvature="0"
       id="rect2987"
       d="M 48.877867,65.660959 48.00056,61.271812 c 0,0 -3.48288,2.754332 -4.590278,4.62212 -4.778422,8.059506 -5.748873,17.851373 -7.994982,26.947743 -1.514408,6.133104 -2.898153,12.322015 -3.68619,18.589985 -1.921007,15.27948 0.561454,31.04091 -2.511399,46.13099 -0.323864,1.59042 -1.657681,4.57833 -1.657681,4.57833 l -17.9579874,2.11645 c 0,0 -2.8771244,-3.4728 -3.4823303,-5.58015 -4.997,-17.39973 -2.8714879,-36.42316 -0.076212,-54.3091 0.9835007,-6.293059 4.0031407,-12.094907 5.8557637,-18.188974 1.276496,-4.19894 2.183548,-8.511863 3.623212,-12.657693 1.882839,-5.422052 3.653931,-10.967562 6.541126,-15.92819 4.001584,-6.875313 8.892995,-13.368318 14.717279,-18.786835 3.232916,-3.007684 6.902397,-5.725752 10.989882,-7.396193 8.153004,-3.331904 25.978846,-4.822564 25.978846,-4.822564 l 17.766993,5.515618 4.194701,136.788931 -40.841005,0.29962 c 0,0 -6.545038,-3.19304 -8.225418,-6.18337 -2.336156,-4.15732 -1.267118,-9.47094 -1.396107,-14.23794 -0.750054,-27.71946 3.629094,-83.109631 3.629094,-83.109631 z"
       style="fill:#d46400;fill-opacity:1;stroke:#000000;stroke-opacity:1" />
    <path
       sodipodi:nodetypes="aacca"
       inkscape:connector-curvature="0"
       id="rect3801-4"
       d="m 189.51061,163.7458 c -3.14809,-4.59034 -12.09132,-6.12126 -16.47918,-2.6966 -3.79225,2.95979 -1.19849,14.38184 -1.19849,14.38184 l 14.98108,1.19848 c 0,0 5.17815,-9.26527 2.69659,-12.88372 z"
       style="fill:#504416;fill-opacity:1;stroke:#000000;stroke-width:0.5;stroke-miterlimit:4;stroke-opacity:1" />
    <path
       sodipodi:nodetypes="cccaaaccaaaaaaaccccaac"
       inkscape:connector-curvature="0"
       id="rect2987-1"
       d="m 151.21106,65.600205 0.87731,-4.389147 4.59028,4.62212 c 0,0 5.74887,17.85137 7.99498,26.947739 1.51441,6.133106 2.89815,12.322023 3.68619,18.589993 1.92101,15.27948 -0.56145,31.04091 2.5114,46.13099 0.32386,1.59042 1.65768,4.57833 1.65768,4.57833 l 17.95799,2.11645 c 0,0 2.87712,-3.4728 3.48233,-5.58015 4.997,-17.39973 2.87147,-36.42316 0.0762,-54.3091 -0.9835,-6.293061 -4.00314,-12.094914 -5.85576,-18.188983 -1.2765,-4.19894 -2.18356,-8.51186 -3.62322,-12.65769 -1.88284,-5.42205 -3.65393,-10.96756 -6.54112,-15.928188 -4.00158,-6.875314 -8.893,-13.368318 -14.71728,-18.786835 -3.23292,-3.007684 -6.9024,-5.725752 -10.98988,-7.396193 -8.15301,-3.331905 -25.97885,-4.822564 -25.97885,-4.822564 l -17.76699,5.515618 -4.1947,136.788935 40.841,0.29962 c 0,0 6.54504,-3.19304 8.22542,-6.18337 2.33616,-4.15731 1.26712,-9.47094 1.39611,-14.23794 0.75006,-27.71946 -3.62909,-83.109635 -3.62909,-83.109635 z"
       style="fill:#d46400;fill-opacity:1;stroke:#000000;stroke-opacity:1" />
    <path
       sodipodi:nodetypes="ccccccc"
       inkscape:connector-curvature="0"
       id="rect3776"
       d="m 78.552245,16.788971 11.373679,0.105932 2.012712,15.253702 -17.835544,-6.144068 0.457557,-3.240302 1.362509,-3.786539 z"
       style="fill:#504416;fill-opacity:1;stroke:#000000;stroke-width:0.50000000000000000;stroke-miterlimit:4;stroke-opacity:1" />
    <path
       sodipodi:nodetypes="ccccccc"
       inkscape:connector-curvature="0"
       id="rect3776-7"
       d="m 121.73556,16.896454 -11.37368,0.105932 -2.01271,15.253702 17.83554,-6.144068 -0.45756,-3.240302 -1.36251,-3.786539 z"
       style="fill:#504416;fill-opacity:1;stroke:#000000;stroke-width:0.50000000000000000;stroke-miterlimit:4;stroke-opacity:1" />
    <rect
       y="169.45435"
       x="55.745342"
       height="13.451478"
       width="40.117794"
       id="rect3840"
       style="fill:#504416;fill-opacity:1;stroke:#000000;stroke-width:0.53148955;stroke-miterlimit:4;stroke-opacity:1;stroke-dasharray:none" />
    <rect
       y="169.41336"
       x="104.18098"
       height="13.44571"
       width="41.010891"
       id="rect3840-9"
       style="fill:#504416;fill-opacity:1;stroke:#000000;stroke-width:0.53725773;stroke-miterlimit:4;stroke-opacity:1;stroke-dasharray:none" />
  </g>
</svg>
