<?xml version="1.0" encoding="UTF-8"?>
<!DOCTYPE svg PUBLIC "-//W3C//DTD SVG 1.1//EN" "http://www.w3.org/Graphics/SVG/1.1/DTD/svg11.dtd">
<svg version="1.1" xmlns="http://www.w3.org/2000/svg" xmlns:xlink="http://www.w3.org/1999/xlink" x="0" y="0" width="887.5" height="495" viewBox="0, 0, 887.5, 495">
  <g id="Layer_1">
    <path d="M446.678,331.635 C521.607,276.735 624.682,271.673 652.645,236.06 C662.473,223.54 665.885,203.86 665.107,181.93 C650.513,199.858 625.495,225.165 594.883,234.215 C545.518,248.805 473.858,274.21 417.613,310.08 C368.133,341.638 206.488,376.94 49.205,345.94 C143.35,411.315 364.54,391.815 446.678,331.635" fill="#FFFFFE"/>
    <path d="M446.678,331.635 C521.607,276.735 624.682,271.673 652.645,236.06 C662.473,223.54 665.885,203.86 665.107,181.93 C650.513,199.858 625.495,225.165 594.883,234.215 C545.518,248.805 473.858,274.21 417.613,310.08 C368.133,341.638 206.488,376.94 49.205,345.94 C143.35,411.315 364.54,391.815 446.678,331.635 z" fill-opacity="0" stroke="#1A1919" stroke-width="7.088"/>
    <path d="M444.863,326.34 C519.79,271.443 622.865,266.38 650.825,230.765 C660.658,218.25 664.068,198.568 663.288,176.637 C648.695,194.568 623.677,219.872 593.068,228.923 C543.698,243.515 472.038,268.918 415.795,304.788 C366.318,336.345 204.673,371.647 47.39,340.65 C141.533,406.027 362.725,386.52 444.863,326.34" fill="#FFFFFE"/>
    <path d="M444.863,326.34 C519.79,271.443 622.865,266.38 650.825,230.765 C660.658,218.25 664.068,198.568 663.288,176.637 C648.695,194.568 623.677,219.872 593.068,228.923 C543.698,243.515 472.038,268.918 415.795,304.788 C366.318,336.345 204.673,371.647 47.39,340.65 C141.533,406.027 362.725,386.52 444.863,326.34 z" fill-opacity="0" stroke="#1A1919" stroke-width="7.088"/>
    <path d="M232.583,246.355 C312.828,257.408 497.628,102.507 497.628,102.507 C497.628,102.507 486.42,96.1 454.988,79.325 C402.878,51.515 369.295,116.642 347.108,139.238 C324.92,161.832 248.523,184.923 240.31,188.533 C232.09,192.145 200.088,172.402 192.91,160.68 C185.733,148.957 279.75,119.817 297.31,106.695 C308.905,98.027 325.298,52.325 335.098,22.272 C332.145,24.215 329.488,26.345 327.24,28.635 C327.24,28.635 283.515,80.3 216.7,119.802 C195.848,132.125 164.838,144.04 132.923,157.482 C108.923,220.473 155.54,235.742 232.583,246.355" fill="#005E9E"/>
    <path d="M232.583,246.355 C312.828,257.408 497.628,102.507 497.628,102.507 C497.628,102.507 486.42,96.1 454.988,79.325 C402.878,51.515 369.295,116.642 347.108,139.238 C324.92,161.832 248.523,184.923 240.31,188.533 C232.09,192.145 200.088,172.402 192.91,160.68 C185.733,148.957 279.75,119.817 297.31,106.695 C308.905,98.027 325.298,52.325 335.098,22.272 C332.145,24.215 329.488,26.345 327.24,28.635 C327.24,28.635 283.515,80.3 216.7,119.802 C195.848,132.125 164.838,144.04 132.923,157.482 C108.923,220.473 155.54,235.742 232.583,246.355 z" fill-opacity="0" stroke="#1A1919" stroke-width="7.088" stroke-linecap="round" stroke-linejoin="round"/>
    <path d="M593.068,228.923 C602.263,226.202 610.943,222 618.997,216.988 C607.425,222.775 593.597,228.155 580.477,232.745 C584.795,231.408 589.028,230.115 593.068,228.923" fill="#3FA1CE"/>
    <path d="M593.068,228.923 C602.263,226.202 610.943,222 618.997,216.988 C607.425,222.775 593.597,228.155 580.477,232.745 C584.795,231.408 589.028,230.115 593.068,228.923 z" fill-opacity="0" stroke="#1A1919" stroke-width="7.088"/>
    <path d="M613.287,120.31 C624.96,111.057 632.552,91.35 637.002,75.617 C634.662,70.985 632.265,66.712 629.852,62.997 C604.75,24.335 590.772,42.14 562.522,45.935 C534.27,49.727 422.89,48.977 422.89,48.977 C414.502,2.845 362.045,4.515 335.097,22.272 C325.297,52.325 308.905,98.027 297.31,106.695 C279.75,119.817 185.732,148.957 192.91,160.68 C200.087,172.402 232.09,192.145 240.31,188.532 C248.522,184.922 324.92,161.832 347.107,139.237 C369.295,116.642 402.877,51.515 454.987,79.325 C486.42,96.1 497.627,102.507 497.627,102.507 C497.627,102.507 312.827,257.407 232.582,246.355 C155.54,235.742 108.922,220.472 132.922,157.482 C109.305,167.422 85.197,178.2 64.34,190.617 C49.695,213.067 44.587,243.662 100.745,264.057 C198.895,299.697 329.67,294.967 329.67,294.967 L306.312,318.752 C306.312,318.752 209.682,319.63 168.512,328.26 C147.197,332.725 129.735,342.205 117.835,350.315 C250.495,361.15 373.715,331.625 415.795,304.787 C457.927,277.92 508.71,256.92 552.295,241.942 C544.272,244.41 538.17,246.202 535.482,247.125 C524.907,250.757 592.227,137.002 613.287,120.31" fill="#3FA1CE"/>
    <path d="M613.287,120.31 C624.96,111.057 632.552,91.35 637.002,75.617 C634.662,70.985 632.265,66.712 629.852,62.997 C604.75,24.335 590.772,42.14 562.522,45.935 C534.27,49.727 422.89,48.977 422.89,48.977 C414.502,2.845 362.045,4.515 335.097,22.272 C325.297,52.325 308.905,98.027 297.31,106.695 C279.75,119.817 185.732,148.957 192.91,160.68 C200.087,172.402 232.09,192.145 240.31,188.532 C248.522,184.922 324.92,161.832 347.107,139.237 C369.295,116.642 402.877,51.515 454.987,79.325 C486.42,96.1 497.627,102.507 497.627,102.507 C497.627,102.507 312.827,257.407 232.582,246.355 C155.54,235.742 108.922,220.472 132.922,157.482 C109.305,167.422 85.197,178.2 64.34,190.617 C49.695,213.067 44.587,243.662 100.745,264.057 C198.895,299.697 329.67,294.967 329.67,294.967 L306.312,318.752 C306.312,318.752 209.682,319.63 168.512,328.26 C147.197,332.725 129.735,342.205 117.835,350.315 C250.495,361.15 373.715,331.625 415.795,304.787 C457.927,277.92 508.71,256.92 552.295,241.942 C544.272,244.41 538.17,246.202 535.482,247.125 C524.907,250.757 592.227,137.002 613.287,120.31 z" fill-opacity="0" stroke="#1A1919" stroke-width="7.088"/>
    <path d="M580.477,232.745 C571.557,235.512 562.135,238.562 552.295,241.943 C560.27,239.49 570.15,236.36 580.477,232.745" fill="#005E9E"/>
    <path d="M580.477,232.745 C571.557,235.512 562.135,238.562 552.295,241.943 C560.27,239.49 570.15,236.36 580.477,232.745 z" fill-opacity="0" stroke="#1A1919" stroke-width="7.088" stroke-linecap="round" stroke-linejoin="round"/>
    <path d="M663.287,176.637 C662.07,142.185 650.472,102.215 637.003,75.618 C632.552,91.35 624.96,111.058 613.287,120.31 C592.227,137.003 524.907,250.758 535.482,247.125 C538.17,246.202 544.272,244.41 552.295,241.943 C562.135,238.562 571.557,235.512 580.477,232.745 C593.597,228.155 607.425,222.775 618.997,216.988 C637.758,205.315 653.08,189.182 663.287,176.637" fill="#005E9E"/>
    <path d="M663.287,176.637 C662.07,142.185 650.472,102.215 637.003,75.618 C632.552,91.35 624.96,111.058 613.287,120.31 C592.227,137.003 524.907,250.758 535.482,247.125 C538.17,246.202 544.272,244.41 552.295,241.943 C562.135,238.562 571.557,235.512 580.477,232.745 C593.597,228.155 607.425,222.775 618.997,216.988 C637.758,205.315 653.08,189.182 663.287,176.637 z" fill-opacity="0" stroke="#1A1919" stroke-width="7.088" stroke-linecap="round" stroke-linejoin="round"/>
    <g>
      <path d="M341.668,318.43 L365.023,294.645 C365.023,294.645 198.895,299.698 100.745,264.057 C44.588,243.663 49.695,213.068 64.34,190.618 C23.073,215.188 -5.45,246.15 7.875,289.65 C14.24,310.443 28.18,327.307 47.39,340.65 C70.908,345.283 94.513,348.41 117.835,350.315 C129.735,342.205 147.198,332.725 168.513,328.26 C209.683,319.63 341.668,318.43 341.668,318.43" fill="#007DB8"/>
      <path d="M341.668,318.43 L365.023,294.645 C365.023,294.645 198.895,299.698 100.745,264.057 C44.588,243.663 49.695,213.068 64.34,190.618 C23.073,215.188 -5.45,246.15 7.875,289.65 C14.24,310.443 28.18,327.307 47.39,340.65 C70.908,345.283 94.513,348.41 117.835,350.315 C129.735,342.205 147.198,332.725 168.513,328.26 C209.683,319.63 341.668,318.43 341.668,318.43 z" fill-opacity="0" stroke="#1A1919" stroke-width="7.088"/>
    </g>
    <path d="M4.157,269.65 C4.157,269.65 50.04,260.985 76.417,310.24 C102.798,359.5 114.69,371.177 114.69,371.177 C114.69,371.177 21.472,359.065 4.157,269.65" fill="#005E9E"/>
    <path d="M4.157,269.65 C4.157,269.65 50.04,260.985 76.417,310.24 C102.798,359.5 114.69,371.177 114.69,371.177 C114.69,371.177 21.472,359.065 4.157,269.65 z" fill-opacity="0" stroke="#1A1919" stroke-width="7.088"/>
    <path d="M422.89,48.977 C422.89,48.977 456.092,71.067 471.487,79.177 C486.882,87.282 521.347,118.79 542.56,118.597 C563.772,118.405 614.345,107.337 612.987,87.312 C611.625,67.287 568.072,73.577 541.025,79.717 C513.975,85.86 455.01,81.682 422.89,48.977" fill="#1A1919"/>
    <path d="M422.89,48.977 C422.89,48.977 456.092,71.067 471.487,79.177 C486.882,87.282 521.347,118.79 542.56,118.597 C563.772,118.405 614.345,107.337 612.987,87.312 C611.625,67.287 568.072,73.577 541.025,79.717 C513.975,85.86 455.01,81.682 422.89,48.977 z" fill-opacity="0" stroke="#1A1919" stroke-width="7.088" stroke-linecap="round" stroke-linejoin="round"/>
    <g>
      <path d="M422.89,48.977 C424.508,71.557 470.207,68.58 483.205,72 C496.2,75.415 486.945,94.355 486.945,94.355 C486.945,94.355 436,65.357 416.065,76.145 C396.13,86.935 356.447,129.722 347.107,139.237 C337.765,148.753 216.532,198.472 216.532,198.472 C213.732,196.507 161.732,182.917 183.485,160.762 C186.985,157.2 303.275,114.89 303.19,105.46 C303.105,96.032 335.098,22.272 335.098,22.272 C335.098,22.272 359.96,-2.308 385.97,6.885 C411.982,16.075 421.54,30.132 422.89,48.977" fill="#6E8FBD"/>
      <path d="M422.89,48.977 C424.508,71.557 470.207,68.58 483.205,72 C496.2,75.415 486.945,94.355 486.945,94.355 C486.945,94.355 436,65.357 416.065,76.145 C396.13,86.935 356.447,129.722 347.107,139.237 C337.765,148.753 216.532,198.472 216.532,198.472 C213.732,196.507 161.732,182.917 183.485,160.762 C186.985,157.2 303.275,114.89 303.19,105.46 C303.105,96.032 335.098,22.272 335.098,22.272 C335.098,22.272 359.96,-2.308 385.97,6.885 C411.982,16.075 421.54,30.132 422.89,48.977 z" fill-opacity="0" stroke="#1A1919" stroke-width="7.088" stroke-linecap="round" stroke-linejoin="round"/>
    </g>
    <path d="M257.997,93.8 C259.842,79.245 244.562,102.13 245.565,124.302 C246.567,146.477 289.322,209.977 291.372,213.245 C293.422,216.51 309.292,207.482 309.292,207.482 C309.292,207.482 254.62,120.432 257.997,93.8" fill="#FFFFFE"/>
    <path d="M257.997,93.8 C259.842,79.245 244.562,102.13 245.565,124.302 C246.567,146.477 289.322,209.977 291.372,213.245 C293.422,216.51 309.292,207.482 309.292,207.482 C309.292,207.482 254.62,120.432 257.997,93.8 z" fill-opacity="0" stroke="#1A1919" stroke-width="7.088" stroke-linecap="round" stroke-linejoin="round"/>
    <path d="M207.277,137.72 C192.62,138.23 216.792,125.095 238.782,128.102 C260.775,131.107 320.137,179.45 323.207,181.785 C326.27,184.122 315.84,199.11 315.84,199.11 C315.84,199.11 234.107,136.77 207.277,137.72" fill="#FFFFFE"/>
    <path d="M207.277,137.72 C192.62,138.23 216.792,125.095 238.782,128.102 C260.775,131.107 320.137,179.45 323.207,181.785 C326.27,184.122 315.84,199.11 315.84,199.11 C315.84,199.11 234.107,136.77 207.277,137.72 z" fill-opacity="0" stroke="#1A1919" stroke-width="7.088" stroke-linecap="round" stroke-linejoin="round"/>
    <path d="M183.355,146.622 C193.02,140.347 200.093,140.282 200.093,140.282 C200.093,140.282 276.795,215.6 267.973,217.447 C259.152,219.297 253.865,221.115 253.865,221.115 L183.355,146.622" fill="#FFFFFE"/>
    <path d="M183.355,146.622 C193.02,140.347 200.093,140.282 200.093,140.282 C200.093,140.282 276.795,215.6 267.973,217.447 C259.152,219.297 253.865,221.115 253.865,221.115 L183.355,146.622 z" fill-opacity="0" stroke="#1A1919" stroke-width="7.088" stroke-linecap="round" stroke-linejoin="round"/>
    <path d="M343.31,46.167 L359.902,23.917 L411.585,69.407 L384.388,91.755 L343.31,46.167" fill="#FFFFFE"/>
    <path d="M343.31,46.167 L359.902,23.917 L411.585,69.407 L384.388,91.755 L343.31,46.167 z" fill-opacity="0" stroke="#1A1919" stroke-width="7.088" stroke-linecap="round" stroke-linejoin="round"/>
    <path d="M295.29,75.445 C297.135,60.89 281.855,83.778 282.86,105.948 C283.86,128.122 326.615,191.625 328.668,194.887 C330.717,198.152 346.587,189.128 346.587,189.128 C346.587,189.128 291.915,102.077 295.29,75.445" fill="#FFFFFE"/>
    <path d="M295.29,75.445 C297.135,60.89 281.855,83.778 282.86,105.948 C283.86,128.122 326.615,191.625 328.668,194.887 C330.717,198.152 346.587,189.128 346.587,189.128 C346.587,189.128 291.915,102.077 295.29,75.445 z" fill-opacity="0" stroke="#1A1919" stroke-width="7.088" stroke-linecap="round" stroke-linejoin="round"/>
    <path d="M250.367,113.46 C235.71,113.972 259.883,100.837 281.875,103.842 C303.865,106.85 363.23,155.19 366.297,157.527 C369.36,159.865 358.932,174.85 358.932,174.85 C358.932,174.85 277.195,112.512 250.367,113.46" fill="#FFFFFE"/>
    <path d="M250.367,113.46 C235.71,113.972 259.883,100.837 281.875,103.842 C303.865,106.85 363.23,155.19 366.297,157.527 C369.36,159.865 358.932,174.85 358.932,174.85 C358.932,174.85 277.195,112.512 250.367,113.46 z" fill-opacity="0" stroke="#1A1919" stroke-width="7.088" stroke-linecap="round" stroke-linejoin="round"/>
    <path d="M326.82,43.338 C328.662,28.78 313.385,51.667 314.387,73.84 C315.39,96.013 358.145,159.515 360.195,162.78 C362.245,166.045 378.115,157.018 378.115,157.018 C378.115,157.018 323.442,69.967 326.82,43.338" fill="#FFFFFE"/>
    <path d="M326.82,43.338 C328.662,28.78 313.385,51.667 314.387,73.84 C315.39,96.013 358.145,159.515 360.195,162.78 C362.245,166.045 378.115,157.018 378.115,157.018 C378.115,157.018 323.442,69.967 326.82,43.338 z" fill-opacity="0" stroke="#1A1919" stroke-width="7.088" stroke-linecap="round" stroke-linejoin="round"/>
    <path d="M284.54,80.443 C269.883,80.955 294.058,67.818 316.045,70.825 C338.035,73.833 397.403,122.173 400.47,124.507 C403.533,126.848 393.103,141.835 393.103,141.835 C393.103,141.835 311.37,79.495 284.54,80.443" fill="#FFFFFE"/>
    <path d="M284.54,80.443 C269.883,80.955 294.058,67.818 316.045,70.825 C338.035,73.833 397.403,122.173 400.47,124.507 C403.533,126.848 393.103,141.835 393.103,141.835 C393.103,141.835 311.37,79.495 284.54,80.443 z" fill-opacity="0" stroke="#1A1919" stroke-width="7.088" stroke-linecap="round" stroke-linejoin="round"/>
    <path d="M468.7,128.995 L434.43,151.403 L552.505,207.783 L573.398,172.232 C573.398,172.232 515.972,175.413 468.7,128.995" fill="#FFFFFE"/>
    <path d="M468.7,128.995 L434.43,151.403 L552.505,207.783 L573.398,172.232 C573.398,172.232 515.972,175.413 468.7,128.995 z" fill-opacity="0" stroke="#1A1919" stroke-width="7.088"/>
    <path d="M415.133,167.492 L389.652,184.518 L499.068,260.422 L527.222,246.022 L538.492,222.052 C538.492,222.052 466.003,220.947 415.133,167.492" fill="#FFFFFE"/>
    <path d="M415.133,167.492 L389.652,184.518 L499.068,260.422 L527.222,246.022 L538.492,222.052 C538.492,222.052 466.003,220.947 415.133,167.492 z" fill-opacity="0" stroke="#1A1919" stroke-width="7.088"/>
    <path d="M317.533,224.07 L350.068,205.21 C350.068,205.21 490.913,238.397 583.875,157.995 L554.258,205.997 C554.258,205.997 446.785,245.87 361.185,325.91 L326.513,336.245 C326.513,336.245 397.112,226.877 317.533,224.07" fill="#FFF101"/>
    <path d="M317.533,224.07 L350.068,205.21 C350.068,205.21 490.913,238.397 583.875,157.995 L554.258,205.997 C554.258,205.997 446.785,245.87 361.185,325.91 L326.513,336.245 C326.513,336.245 397.112,226.877 317.533,224.07 z" fill-opacity="0" stroke="#1A1919" stroke-width="7.088"/>
    <g>
      <path d="M651.41,433.235 C730.362,375.385 838.972,370.05 868.432,332.527 C878.792,319.332 882.385,298.595 881.568,275.49 C866.19,294.38 839.827,321.047 807.57,330.582 C755.557,345.957 680.05,372.728 620.782,410.52 C568.65,443.772 398.322,480.97 232.595,448.305 C331.795,517.193 564.862,496.645 651.41,433.235" fill="#FFFFFE"/>
      <path d="M651.41,433.235 C730.362,375.385 838.972,370.05 868.432,332.527 C878.792,319.332 882.385,298.595 881.568,275.49 C866.19,294.38 839.827,321.047 807.57,330.582 C755.557,345.957 680.05,372.728 620.782,410.52 C568.65,443.772 398.322,480.97 232.595,448.305 C331.795,517.193 564.862,496.645 651.41,433.235 z" fill-opacity="0" stroke="#1A1919" stroke-width="7.467"/>
      <path d="M649.497,427.652 C728.447,369.81 837.057,364.472 866.515,326.947 C876.878,313.76 880.47,293.02 879.65,269.915 C864.272,288.805 837.91,315.47 805.657,325.007 C753.64,340.382 678.132,367.147 618.87,404.942 C566.735,438.195 396.41,475.392 230.682,442.732 C329.88,511.62 562.95,491.067 649.497,427.652" fill="#FFFFFE"/>
      <path d="M649.497,427.652 C728.447,369.81 837.057,364.472 866.515,326.947 C876.878,313.76 880.47,293.02 879.65,269.915 C864.272,288.805 837.91,315.47 805.657,325.007 C753.64,340.382 678.132,367.147 618.87,404.942 C566.735,438.195 396.41,475.392 230.682,442.732 C329.88,511.62 562.95,491.067 649.497,427.652 z" fill-opacity="0" stroke="#1A1919" stroke-width="7.467"/>
    </g>
    <path d="M425.82,343.372 C510.37,355.02 705.093,191.803 705.093,191.803 C705.093,191.803 693.285,185.053 660.163,167.378 C605.258,138.072 569.87,206.695 546.492,230.505 C523.112,254.312 442.615,278.645 433.96,282.445 C425.3,286.255 391.58,265.45 384.015,253.1 C376.453,240.747 475.52,210.04 494.02,196.215 C506.238,187.083 523.513,138.928 533.838,107.26 C530.727,109.308 527.927,111.552 525.56,113.965 C525.56,113.965 479.488,168.402 409.083,210.027 C387.113,223.012 354.435,235.565 320.807,249.73 C295.518,316.103 344.638,332.193 425.82,343.372" fill="#005E9E"/>
    <path d="M425.82,343.372 C510.37,355.02 705.093,191.803 705.093,191.803 C705.093,191.803 693.285,185.053 660.163,167.378 C605.258,138.072 569.87,206.695 546.492,230.505 C523.112,254.312 442.615,278.645 433.96,282.445 C425.3,286.255 391.58,265.45 384.015,253.1 C376.453,240.747 475.52,210.04 494.02,196.215 C506.238,187.083 523.513,138.928 533.838,107.26 C530.727,109.308 527.927,111.552 525.56,113.965 C525.56,113.965 479.488,168.402 409.083,210.027 C387.113,223.012 354.435,235.565 320.807,249.73 C295.518,316.103 344.638,332.193 425.82,343.372 z" fill-opacity="0" stroke="#1A1919" stroke-width="7.467" stroke-linecap="round" stroke-linejoin="round"/>
    <path d="M805.658,325.007 C815.348,322.14 824.492,317.71 832.977,312.427 C820.785,318.527 806.218,324.2 792.393,329.035 C796.94,327.625 801.403,326.262 805.658,325.007" fill="#3FA1CE"/>
    <path d="M805.658,325.007 C815.348,322.14 824.492,317.71 832.977,312.427 C820.785,318.527 806.218,324.2 792.393,329.035 C796.94,327.625 801.403,326.262 805.658,325.007 z" fill-opacity="0" stroke="#1A1919" stroke-width="7.467"/>
    <path d="M826.965,210.56 C839.265,200.812 847.265,180.045 851.95,163.468 C849.487,158.588 846.96,154.088 844.42,150.173 C817.97,109.433 803.24,128.195 773.475,132.193 C743.703,136.19 626.345,135.398 626.345,135.398 C617.505,86.793 562.235,88.553 533.838,107.26 C523.513,138.928 506.237,187.083 494.02,196.215 C475.52,210.04 376.453,240.748 384.015,253.1 C391.58,265.45 425.3,286.255 433.96,282.445 C442.615,278.645 523.112,254.312 546.492,230.505 C569.87,206.695 605.258,138.073 660.162,167.378 C693.285,185.053 705.093,191.803 705.093,191.803 C705.093,191.803 510.37,355.02 425.82,343.372 C344.638,332.193 295.518,316.103 320.807,249.73 C295.923,260.205 270.52,271.56 248.545,284.643 C233.113,308.3 227.73,340.538 286.905,362.025 C390.323,399.58 528.117,394.598 528.117,394.598 L503.508,419.658 C503.508,419.658 401.69,420.585 358.307,429.675 C335.85,434.38 317.448,444.37 304.91,452.915 C444.693,464.333 574.53,433.223 618.87,404.943 C663.265,376.633 716.773,354.508 762.698,338.725 C754.242,341.325 747.812,343.215 744.982,344.188 C733.838,348.015 804.773,228.15 826.965,210.56" fill="#3FA1CE"/>
    <path d="M826.965,210.56 C839.265,200.812 847.265,180.045 851.95,163.468 C849.487,158.588 846.96,154.088 844.42,150.173 C817.97,109.433 803.24,128.195 773.475,132.193 C743.703,136.19 626.345,135.398 626.345,135.398 C617.505,86.793 562.235,88.553 533.838,107.26 C523.513,138.928 506.237,187.083 494.02,196.215 C475.52,210.04 376.453,240.748 384.015,253.1 C391.58,265.45 425.3,286.255 433.96,282.445 C442.615,278.645 523.112,254.312 546.492,230.505 C569.87,206.695 605.258,138.073 660.162,167.378 C693.285,185.053 705.093,191.803 705.093,191.803 C705.093,191.803 510.37,355.02 425.82,343.372 C344.638,332.193 295.518,316.103 320.807,249.73 C295.923,260.205 270.52,271.56 248.545,284.643 C233.113,308.3 227.73,340.538 286.905,362.025 C390.323,399.58 528.117,394.598 528.117,394.598 L503.508,419.658 C503.508,419.658 401.69,420.585 358.307,429.675 C335.85,434.38 317.448,444.37 304.91,452.915 C444.693,464.333 574.53,433.223 618.87,404.943 C663.265,376.633 716.773,354.508 762.698,338.725 C754.242,341.325 747.812,343.215 744.982,344.188 C733.838,348.015 804.773,228.15 826.965,210.56 z" fill-opacity="0" stroke="#1A1919" stroke-width="7.467"/>
    <path d="M792.393,329.035 C782.993,331.95 773.065,335.162 762.698,338.725 C771.1,336.14 781.51,332.842 792.393,329.035" fill="#005E9E"/>
    <path d="M792.393,329.035 C782.993,331.95 773.065,335.162 762.698,338.725 C771.1,336.14 781.51,332.842 792.393,329.035 z" fill-opacity="0" stroke="#1A1919" stroke-width="7.467" stroke-linecap="round" stroke-linejoin="round"/>
    <path d="M879.65,269.915 C878.367,233.61 866.147,191.493 851.95,163.467 C847.265,180.045 839.265,200.812 826.965,210.56 C804.772,228.15 733.837,348.015 744.982,344.188 C747.812,343.215 754.242,341.325 762.698,338.725 C773.065,335.163 782.992,331.95 792.393,329.035 C806.217,324.2 820.785,318.527 832.977,312.427 C852.747,300.13 868.895,283.133 879.65,269.915" fill="#005E9E"/>
    <path d="M879.65,269.915 C878.367,233.61 866.147,191.493 851.95,163.467 C847.265,180.045 839.265,200.812 826.965,210.56 C804.772,228.15 733.837,348.015 744.982,344.188 C747.812,343.215 754.242,341.325 762.698,338.725 C773.065,335.163 782.992,331.95 792.393,329.035 C806.217,324.2 820.785,318.527 832.977,312.427 C852.747,300.13 868.895,283.133 879.65,269.915 z" fill-opacity="0" stroke="#1A1919" stroke-width="7.467" stroke-linecap="round" stroke-linejoin="round"/>
    <path d="M540.763,419.317 L565.37,394.257 C565.37,394.257 390.323,399.58 286.905,362.025 C227.73,340.537 233.113,308.3 248.545,284.642 C205.058,310.535 175.005,343.157 189.048,388.992 C195.755,410.9 210.443,428.672 230.683,442.732 C255.465,447.615 280.335,450.907 304.91,452.915 C317.448,444.37 335.85,434.38 358.308,429.675 C401.69,420.585 540.763,419.317 540.763,419.317" fill="#007DB8"/>
    <path d="M540.763,419.317 L565.37,394.257 C565.37,394.257 390.323,399.58 286.905,362.025 C227.73,340.537 233.113,308.3 248.545,284.642 C205.058,310.535 175.005,343.157 189.048,388.992 C195.755,410.9 210.443,428.672 230.683,442.732 C255.465,447.615 280.335,450.907 304.91,452.915 C317.448,444.37 335.85,434.38 358.308,429.675 C401.69,420.585 540.763,419.317 540.763,419.317 z" fill-opacity="0" stroke="#1A1919" stroke-width="7.467"/>
    <path d="M185.127,367.92 C185.127,367.92 233.477,358.79 261.27,410.69 C289.065,462.592 301.598,474.9 301.598,474.9 C301.598,474.9 203.375,462.135 185.127,367.92" fill="#005E9E"/>
    <path d="M185.127,367.92 C185.127,367.92 233.477,358.79 261.27,410.69 C289.065,462.592 301.598,474.9 301.598,474.9 C301.598,474.9 203.375,462.135 185.127,367.92 z" fill-opacity="0" stroke="#1A1919" stroke-width="7.467"/>
    <path d="M626.345,135.397 C626.345,135.397 661.328,158.673 677.55,167.217 C693.773,175.76 730.088,208.962 752.443,208.757 C774.79,208.555 828.078,196.895 826.648,175.79 C825.213,154.693 779.323,161.32 750.823,167.79 C722.32,174.26 660.188,169.86 626.345,135.397" fill="#1A1919"/>
    <path d="M626.345,135.397 C626.345,135.397 661.328,158.673 677.55,167.217 C693.773,175.76 730.088,208.962 752.443,208.757 C774.79,208.555 828.078,196.895 826.648,175.79 C825.213,154.693 779.323,161.32 750.823,167.79 C722.32,174.26 660.188,169.86 626.345,135.397 z" fill-opacity="0" stroke="#1A1919" stroke-width="7.467" stroke-linecap="round" stroke-linejoin="round"/>
    <path d="M626.345,135.398 C628.047,159.193 676.203,156.055 689.897,159.658 C703.592,163.258 693.837,183.213 693.837,183.213 C693.837,183.213 640.157,152.66 619.152,164.025 C598.147,175.395 556.335,220.48 546.492,230.505 C536.65,240.533 408.908,292.923 408.908,292.923 C405.955,290.853 351.165,276.53 374.085,253.188 C377.772,249.43 500.307,204.85 500.217,194.918 C500.128,184.98 533.837,107.26 533.837,107.26 C533.837,107.26 560.037,81.36 587.445,91.048 C614.85,100.733 624.92,115.543 626.345,135.398" fill="#6E8FBD"/>
    <path d="M626.345,135.398 C628.047,159.193 676.203,156.055 689.897,159.658 C703.592,163.258 693.837,183.213 693.837,183.213 C693.837,183.213 640.157,152.66 619.152,164.025 C598.147,175.395 556.335,220.48 546.492,230.505 C536.65,240.533 408.908,292.923 408.908,292.923 C405.955,290.853 351.165,276.53 374.085,253.188 C377.772,249.43 500.307,204.85 500.217,194.918 C500.128,184.98 533.837,107.26 533.837,107.26 C533.837,107.26 560.037,81.36 587.445,91.048 C614.85,100.733 624.92,115.543 626.345,135.398 z" fill-opacity="0" stroke="#1A1919" stroke-width="7.467" stroke-linecap="round" stroke-linejoin="round"/>
    <path d="M452.598,182.63 C454.543,167.292 438.44,191.405 439.497,214.77 C440.557,238.135 485.605,305.042 487.763,308.485 C489.928,311.927 506.648,302.415 506.648,302.415 C506.648,302.415 449.04,210.69 452.598,182.63" fill="#FFFFFE"/>
    <path d="M452.598,182.63 C454.543,167.292 438.44,191.405 439.497,214.77 C440.557,238.135 485.605,305.042 487.763,308.485 C489.928,311.927 506.648,302.415 506.648,302.415 C506.648,302.415 449.04,210.69 452.598,182.63 z" fill-opacity="0" stroke="#1A1919" stroke-width="7.467" stroke-linecap="round" stroke-linejoin="round"/>
    <path d="M399.155,228.905 C383.71,229.443 409.18,215.603 432.35,218.773 C455.522,221.94 518.073,272.878 521.31,275.338 C524.535,277.8 513.547,293.592 513.547,293.592 C513.547,293.592 427.425,227.905 399.155,228.905" fill="#FFFFFE"/>
    <path d="M399.155,228.905 C383.71,229.443 409.18,215.603 432.35,218.773 C455.522,221.94 518.073,272.878 521.31,275.338 C524.535,277.8 513.547,293.592 513.547,293.592 C513.547,293.592 427.425,227.905 399.155,228.905 z" fill-opacity="0" stroke="#1A1919" stroke-width="7.467" stroke-linecap="round" stroke-linejoin="round"/>
    <path d="M373.948,238.287 C384.13,231.677 391.583,231.605 391.583,231.605 C391.583,231.605 472.405,310.97 463.11,312.915 C453.813,314.865 448.245,316.78 448.245,316.78 L373.948,238.287" fill="#FFFFFE"/>
    <path d="M373.948,238.287 C384.13,231.677 391.583,231.605 391.583,231.605 C391.583,231.605 472.405,310.97 463.11,312.915 C453.813,314.865 448.245,316.78 448.245,316.78 L373.948,238.287 z" fill-opacity="0" stroke="#1A1919" stroke-width="7.467" stroke-linecap="round" stroke-linejoin="round"/>
    <path d="M542.492,132.438 L559.975,108.992 L614.43,156.927 L585.775,180.472 L542.492,132.438" fill="#FFFFFE"/>
    <path d="M542.492,132.438 L559.975,108.992 L614.43,156.927 L585.775,180.472 L542.492,132.438 z" fill-opacity="0" stroke="#1A1919" stroke-width="7.467" stroke-linecap="round" stroke-linejoin="round"/>
    <path d="M491.895,163.288 C493.835,147.95 477.738,172.068 478.798,195.428 C479.848,218.793 524.9,285.705 527.062,289.143 C529.223,292.583 545.945,283.075 545.945,283.075 C545.945,283.075 488.335,191.35 491.895,163.288" fill="#FFFFFE"/>
    <path d="M491.895,163.288 C493.835,147.95 477.738,172.068 478.798,195.428 C479.848,218.793 524.9,285.705 527.062,289.143 C529.223,292.583 545.945,283.075 545.945,283.075 C545.945,283.075 488.335,191.35 491.895,163.288 z" fill-opacity="0" stroke="#1A1919" stroke-width="7.467" stroke-linecap="round" stroke-linejoin="round"/>
    <path d="M444.56,203.342 C429.115,203.883 454.585,190.043 477.76,193.21 C500.928,196.38 563.482,247.315 566.713,249.778 C569.943,252.24 558.95,268.033 558.95,268.033 C558.95,268.033 472.828,202.345 444.56,203.342" fill="#FFFFFE"/>
    <path d="M444.56,203.342 C429.115,203.883 454.585,190.043 477.76,193.21 C500.928,196.38 563.482,247.315 566.713,249.778 C569.943,252.24 558.95,268.033 558.95,268.033 C558.95,268.033 472.828,202.345 444.56,203.342 z" fill-opacity="0" stroke="#1A1919" stroke-width="7.467" stroke-linecap="round" stroke-linejoin="round"/>
    <path d="M525.115,129.455 C527.055,114.118 510.957,138.232 512.018,161.595 C513.073,184.96 558.122,251.872 560.283,255.312 C562.445,258.753 579.165,249.24 579.165,249.24 C579.165,249.24 521.557,157.518 525.115,129.455" fill="#FFFFFE"/>
    <path d="M525.115,129.455 C527.055,114.118 510.957,138.232 512.018,161.595 C513.073,184.96 558.122,251.872 560.283,255.312 C562.445,258.753 579.165,249.24 579.165,249.24 C579.165,249.24 521.557,157.518 525.115,129.455 z" fill-opacity="0" stroke="#1A1919" stroke-width="7.467" stroke-linecap="round" stroke-linejoin="round"/>
    <path d="M480.567,168.552 C465.12,169.092 490.592,155.25 513.762,158.42 C536.932,161.59 599.487,212.525 602.72,214.985 C605.945,217.45 594.957,233.242 594.957,233.242 C594.957,233.242 508.835,167.552 480.567,168.552" fill="#FFFFFE"/>
    <path d="M480.567,168.552 C465.12,169.092 490.592,155.25 513.762,158.42 C536.932,161.59 599.487,212.525 602.72,214.985 C605.945,217.45 594.957,233.242 594.957,233.242 C594.957,233.242 508.835,167.552 480.567,168.552 z" fill-opacity="0" stroke="#1A1919" stroke-width="7.467" stroke-linecap="round" stroke-linejoin="round"/>
    <path d="M674.615,219.715 L638.5,243.325 L762.917,302.732 L784.935,265.272 C784.935,265.272 724.425,268.622 674.615,219.715" fill="#FFFFFE"/>
    <path d="M674.615,219.715 L638.5,243.325 L762.917,302.732 L784.935,265.272 C784.935,265.272 724.425,268.622 674.615,219.715 z" fill-opacity="0" stroke="#1A1919" stroke-width="7.467"/>
    <path d="M618.17,260.277 L591.323,278.217 L706.612,358.195 L736.278,343.025 L748.155,317.767 C748.155,317.767 671.773,316.6 618.17,260.277" fill="#FFFFFE"/>
    <path d="M618.17,260.277 L591.323,278.217 L706.612,358.195 L736.278,343.025 L748.155,317.767 C748.155,317.767 671.773,316.6 618.17,260.277 z" fill-opacity="0" stroke="#1A1919" stroke-width="7.467"/>
    <path d="M515.332,319.893 L549.612,300.02 C549.612,300.02 698.02,334.99 795.972,250.27 L764.765,300.853 C764.765,300.853 651.52,342.863 561.325,427.203 L524.792,438.09 C524.792,438.09 599.182,322.85 515.332,319.893" fill="#FFF101"/>
    <path d="M515.332,319.893 L549.612,300.02 C549.612,300.02 698.02,334.99 795.972,250.27 L764.765,300.853 C764.765,300.853 651.52,342.863 561.325,427.203 L524.792,438.09 C524.792,438.09 599.182,322.85 515.332,319.893 z" fill-opacity="0" stroke="#1A1919" stroke-width="7.467"/>
  </g>
</svg>
