<?xml version="1.0"?>
<svg xmlns:rdf="http://www.w3.org/1999/02/22-rdf-syntax-ns#" xmlns="http://www.w3.org/2000/svg" xmlns:cc="http://creativecommons.org/ns#" xmlns:xlink="http://www.w3.org/1999/xlink" xmlns:dc="http://purl.org/dc/elements/1.1/" xmlns:svg="http://www.w3.org/2000/svg" id="svg2" viewBox="0 0 808.42 396.09" version="1.0">
  <defs id="defs5">
    <linearGradient id="linearGradient2888" y2="573.74" gradientUnits="userSpaceOnUse" x2="224.83" gradientTransform="scale(1.378 .72569)" y1="298.83" x1="296.64">
      <stop id="stop2079" stop-color="#9ca6ab" offset="0"/>
      <stop id="stop2081" stop-color="#9ca6ab" stop-opacity="0" offset="1"/>
    </linearGradient>
  </defs>
  <g id="g2879" transform="matrix(1.1948 .029440 -.028742 1.2238 -153.15 -239.12)">
    <path id="path1298" d="m133.85 214.35l18.46 13.85 21.54 15.89 27.69 18.98 50.77 32.31 34.36 21.02 48.71 28.21 111.8 57.95 29.74-28.21 15.9-11.28 7.18-2.57 11.28 2.06 8.21 3.07 17.43-35.89-47.18-20-76.92-36.93-79.49-41.54-46.15-24.1-17.95-7.69-17.43-5.13-15.9-2.56-22.57-1.03-26.66 3.08-23.08 5.64-17.44 7.18-12.3 7.69z" fill-rule="evenodd" stroke="#000" stroke-width="1px" fill="url(#linearGradient2888)"/>
    <g id="g2085" stroke="#000" stroke-width="1px" fill-rule="evenodd">
      <path id="path1300" d="m754.87 497.43l-6.66-13.34-6.16-6.66-13.33-6.16-65.64-26.66-62.57-31.8-63.07-37.95-17.95-9.74-2.57-4.1 0.52-3.59 13.33 2.05 15.9 3.59 17.43 9.23 26.67 16.41 26.15 14.87 39.49 19.49 31.8 14.87 35.89 15.39 25.64 10.25 7.7 5.64 4.1 7.69 3.08 6.67 9.74 3.59 11.28-0.51 11.28-1.54 8.72-4.1 5.13-5.13-8.21 10.77-9.23 7.18-10.25 4.61-10.77 1.54-12.82-0.51-4.62-2.05z" fill="#604f4f"/>
      <path id="path1302" d="m517.44 357.43l15.89-30.26 11.29 4.62 70.77 27.69 42.56 16.41 52.31 21.02 45.13 18.98 35.89 17.44 15.9 9.23 5.64 8.2 2.57 10.26-4.11 13.33-5.64 6.67s-17.43 8.72-19.49 9.23c-2.05 0.51-25.12-5.64-25.12-5.64l-10.77-13.85-36.93-16.41-69.23-26.67-54.87-29.74-54.36-31.79-9.74-8.21-7.69-0.51z" fill="#715151"/>
    </g>
    <path id="path2089" d="m39.163 364.07a7.9776 8.7029 0 1 1 -15.955 0 7.9776 8.7029 0 1 1 15.955 0z" transform="translate(535.23 -4.3514)" stroke="#0a0707" stroke-width="1.5" fill="#e6e8e8"/>
    <path id="path2849" d="m39.163 364.07a7.9776 8.7029 0 1 1 -15.955 0 7.9776 8.7029 0 1 1 15.955 0z" transform="translate(634.58 43.514)" stroke="#0a0707" stroke-width="1.5" fill="#e6e8e8"/>
    <path id="path2851" d="m39.163 364.07a7.9776 8.7029 0 1 1 -15.955 0 7.9776 8.7029 0 1 1 15.955 0z" transform="translate(746.27 89.93)" stroke="#0a0707" stroke-width="1.5" fill="#e6e8e8"/>
  </g>
  <metadata>
    <rdf:RDF>
      <cc:Work>
        <dc:format>image/svg+xml</dc:format>
        <dc:type rdf:resource="http://purl.org/dc/dcmitype/StillImage"/>
        <cc:license rdf:resource="http://creativecommons.org/licenses/publicdomain/"/>
        <dc:publisher>
          <cc:Agent rdf:about="http://openclipart.org/">
            <dc:title>Openclipart</dc:title>
          </cc:Agent>
        </dc:publisher>
        <dc:title>Knife 2</dc:title>
        <dc:date>2006-12-31T03:02:00</dc:date>
        <dc:description>clip art, clipart, cut, household, image, kitchen, knife, media, png, public domain, svg, tool, work, </dc:description>
        <dc:source>http://openclipart.org/detail/2581/knife-2-by-machovka</dc:source>
        <dc:creator>
          <cc:Agent>
            <dc:title>Machovka</dc:title>
          </cc:Agent>
        </dc:creator>
        <dc:subject>
          <rdf:Bag>
            <rdf:li>clip art</rdf:li>
            <rdf:li>clipart</rdf:li>
            <rdf:li>cut</rdf:li>
            <rdf:li>household</rdf:li>
            <rdf:li>image</rdf:li>
            <rdf:li>kitchen</rdf:li>
            <rdf:li>knife</rdf:li>
            <rdf:li>media</rdf:li>
            <rdf:li>png</rdf:li>
            <rdf:li>public domain</rdf:li>
            <rdf:li>svg</rdf:li>
            <rdf:li>tool</rdf:li>
            <rdf:li>work</rdf:li>
          </rdf:Bag>
        </dc:subject>
      </cc:Work>
      <cc:License rdf:about="http://creativecommons.org/licenses/publicdomain/">
        <cc:permits rdf:resource="http://creativecommons.org/ns#Reproduction"/>
        <cc:permits rdf:resource="http://creativecommons.org/ns#Distribution"/>
        <cc:permits rdf:resource="http://creativecommons.org/ns#DerivativeWorks"/>
      </cc:License>
    </rdf:RDF>
  </metadata>
</svg>
